<svg xmlns="http://www.w3.org/2000/svg" width="190" height="63" viewBox="0 0 190 63">
  <g id="Grupo_1162469" data-name="Grupo 1162469" transform="translate(-705 -5497)">
    <g id="Grupo_1162246" data-name="Grupo 1162246">
      <rect id="Fondo" width="190" height="63" transform="translate(705 5497)" fill="#e8edf7"/>
      <g id="Grupo_1159117" data-name="Grupo 1159117" transform="translate(-163 -523)">
        <path id="Trazado_996473" data-name="Trazado 996473" d="M.768,0,2.56-11.28H3.888L2.1,0ZM4.93,0,6.722-11.28H7.874L10.786-1.056h-.48l6.16-10.224h1.152L15.826,0H14.61l1.52-9.568h.512L10.818,0H9.97L7.186-9.568H7.65L6.13,0ZM20.423,5.084a2.413,2.413,0,0,1-1.283-.313,1.667,1.667,0,0,1-.714-.9,2.8,2.8,0,0,1-.084-1.367,3.2,3.2,0,0,1,.453-1.227A2.24,2.24,0,0,1,19.644.5,2.511,2.511,0,0,1,20.824.231a1.9,1.9,0,0,1,1.069.28,1.487,1.487,0,0,1,.6.779,2.407,2.407,0,0,1,.07,1.162l-.037.271h-3.63l.075-.476H22.1l-.168.131A1.607,1.607,0,0,0,21.758,1.2a1.1,1.1,0,0,0-.971-.411,1.583,1.583,0,0,0-.849.219,1.641,1.641,0,0,0-.569.6,2.5,2.5,0,0,0-.289.854l-.028.224A1.678,1.678,0,0,0,19.3,4.006a1.444,1.444,0,0,0,1.2.462,2.607,2.607,0,0,0,.8-.126,2.091,2.091,0,0,0,.728-.415l.261.532a2.78,2.78,0,0,1-.859.462A3.139,3.139,0,0,1,20.423,5.084Z" transform="translate(923 6056)" fill="#212429"/>
        <path id="Trazado_996472" data-name="Trazado 996472" d="M-6.137,0l1.792-11.28h1.328L-4.809,0ZM.745,0l1.6-10.16H-1.623l.176-1.12h9.28l-.192,1.12H3.673L2.073,0ZM1.92,27.056a5.357,5.357,0,0,1-.84-.784A6.689,6.689,0,0,1,.312,25.2a7.98,7.98,0,0,1-.568-1.184l1.232-.432A5.042,5.042,0,0,0,1.808,25.1a8.246,8.246,0,0,0,1.136,1.176ZM-4.9,18.16a7.908,7.908,0,0,1,1.08-3.032,5.38,5.38,0,0,1,2.024-1.9,5.9,5.9,0,0,1,2.816-.656,4.686,4.686,0,0,1,2.76.76,3.9,3.9,0,0,1,1.5,2.1,6.824,6.824,0,0,1,.128,3.12,7.623,7.623,0,0,1-1.08,3.024,5.5,5.5,0,0,1-2.032,1.9,5.887,5.887,0,0,1-2.824.656,4.656,4.656,0,0,1-2.736-.752,3.873,3.873,0,0,1-1.488-2.1A7,7,0,0,1-4.9,18.16Zm1.376.16a5.776,5.776,0,0,0,.048,2.48,2.866,2.866,0,0,0,1.064,1.608,3.288,3.288,0,0,0,1.992.568A3.884,3.884,0,0,0,2.56,21.76,6.285,6.285,0,0,0,4.048,18.4a5.866,5.866,0,0,0-.072-2.488A2.883,2.883,0,0,0,2.912,14.3a3.285,3.285,0,0,0-1.984-.56,3.865,3.865,0,0,0-2.976,1.208A6.326,6.326,0,0,0-3.52,18.32Z" transform="translate(978 6046)" fill="#212429"/>
        <path id="Trazado_994259" data-name="Trazado 994259" d="M4204.926,4714.5h51.317" transform="translate(-3253 1337)" fill="none" stroke="#0b0a0a" stroke-width="1"/>
      </g>
    </g>
  </g>
</svg>
