<svg xmlns="http://www.w3.org/2000/svg" xmlns:xlink="http://www.w3.org/1999/xlink" width="400" height="318" viewBox="0 0 400 318">
  <defs>
    <clipPath id="clip-path">
      <rect id="Rectángulo_411859" data-name="Rectángulo 411859" width="400" height="318" transform="translate(1020 8278)" fill="#fff" stroke="#707070" stroke-width="1"/>
    </clipPath>
    <clipPath id="clip-path-2">
      <rect id="Rectángulo_411858" data-name="Rectángulo 411858" width="317.137" height="304.911" fill="none"/>
    </clipPath>
  </defs>
  <g id="Enmascarar_grupo_1098676" data-name="Enmascarar grupo 1098676" transform="translate(-1020 -8278)" clip-path="url(#clip-path)">
    <g id="Grupo_1162260" data-name="Grupo 1162260" transform="translate(1067.565 8290.781)">
      <g id="Grupo_1162259" data-name="Grupo 1162259" clip-path="url(#clip-path-2)">
        <path id="Trazado_995735" data-name="Trazado 995735" d="M116.243,179.713a18.991,18.991,0,1,1-18.992-18.992,18.992,18.992,0,0,1,18.992,18.992" transform="translate(-26.314 -54.04)" fill="#a0ba6d"/>
        <path id="Trazado_995736" data-name="Trazado 995736" d="M115.842,162.164c10.684,5.365,11.448,19.5,9.719,24.868a21.935,21.935,0,0,1-7.6,10.358c6.452-3.035,11.264-9.062,11.264-16.664a19.982,19.982,0,0,0-13.38-18.562" transform="translate(-38.95 -54.525)" fill="#72955c"/>
        <path id="Trazado_995737" data-name="Trazado 995737" d="M101.933,194.483a16.477,16.477,0,0,1-4.986-.749,11.291,11.291,0,0,1-3.807-1.927l1.434-3.219a11.587,11.587,0,0,0,3.314,1.752,12,12,0,0,0,4.046.7,8.724,8.724,0,0,0,2.836-.382,3.4,3.4,0,0,0,1.593-1.035,2.349,2.349,0,0,0,.51-1.482,2.046,2.046,0,0,0-.733-1.641,5.429,5.429,0,0,0-1.9-.988q-1.164-.365-2.581-.669t-2.836-.749a12.714,12.714,0,0,1-2.6-1.131,5.093,5.093,0,0,1-2.612-4.763,6.038,6.038,0,0,1,.971-3.33,6.7,6.7,0,0,1,2.963-2.421,12.2,12.2,0,0,1,5.05-.908,15.912,15.912,0,0,1,3.983.51,11.522,11.522,0,0,1,3.441,1.466l-1.306,3.218a12.3,12.3,0,0,0-3.09-1.322,11.731,11.731,0,0,0-3.059-.43,7.875,7.875,0,0,0-2.772.414,3.355,3.355,0,0,0-1.577,1.1,2.531,2.531,0,0,0-.494,1.513,2.063,2.063,0,0,0,.717,1.641,5.062,5.062,0,0,0,1.88.972q1.163.351,2.6.669t2.836.749a12.3,12.3,0,0,1,2.58,1.115,5.462,5.462,0,0,1,1.9,1.816,5.3,5.3,0,0,1,.717,2.883,5.981,5.981,0,0,1-.972,3.3A6.675,6.675,0,0,1,107,193.575a12.319,12.319,0,0,1-5.066.908m-.987-26.444h2.613v29.949h-2.613Z" transform="translate(-31.317 -56.501)" fill="#fffaf3"/>
        <path id="Trazado_995738" data-name="Trazado 995738" d="M115.736,177.891c-.063,0-.173-.39-.325-1.134l-.121-.623q-.1-.34-.206-.738t-.234-.859c-.085-.3-.221-.617-.339-.953a18.386,18.386,0,0,0-2.4-4.569,18.851,18.851,0,0,0-4.838-4.728,18,18,0,0,0-7.563-2.946,18.186,18.186,0,0,0-9.194.972,19.08,19.08,0,0,0-2.271,1.02c-.367.2-.72.438-1.084.656-.18.113-.366.218-.542.339l-.512.388A17.369,17.369,0,0,0,82.4,168.4a20.04,20.04,0,0,0-1.474,2.254,19.538,19.538,0,0,0-1.1,2.5,17.1,17.1,0,0,0-1.062,5.465A18.056,18.056,0,0,0,81.585,189.1a18.27,18.27,0,0,0,7.633,6.7c.185.089.366.185.553.268l.571.213c.381.138.755.292,1.135.417a19.482,19.482,0,0,0,2.305.545l1.147.187,1.143.068a17.821,17.821,0,0,0,2.237-.008,18.852,18.852,0,0,0,15.707-11.065c1.162-2.614,1.381-4.235,1.554-4.2.062.01.044.414-.049,1.184a8.9,8.9,0,0,1-.274,1.408c-.07.275-.133.576-.227.891l-.346.988a18.019,18.019,0,0,1-2.6,4.737,19.275,19.275,0,0,1-5.335,4.822A19.786,19.786,0,0,1,98.433,199a19.039,19.039,0,0,1-2.422.059L94.769,199l-1.251-.179A20.811,20.811,0,0,1,91,198.269c-.417-.129-.828-.289-1.246-.435l-.628-.226c-.205-.088-.4-.189-.609-.283A19.732,19.732,0,0,1,76.932,178.55a18.729,18.729,0,0,1,1.179-6.015,21.224,21.224,0,0,1,1.227-2.749,21.578,21.578,0,0,1,1.634-2.47,18.9,18.9,0,0,1,4.109-4.008l.566-.418c.194-.13.4-.244.6-.366.4-.236.791-.487,1.2-.7a20.557,20.557,0,0,1,2.5-1.087,19.484,19.484,0,0,1,10.017-.888,19,19,0,0,1,8.062,3.383,19.241,19.241,0,0,1,4.945,5.215,17.609,17.609,0,0,1,2.226,4.921c.095.358.208.69.269,1.012l.157.906.125.775q.02.355.036.65c.035.775.023,1.18-.04,1.184" transform="translate(-25.86 -53.65)" fill="#72955c"/>
        <path id="Trazado_995739" data-name="Trazado 995739" d="M116.243,107.056A18.991,18.991,0,1,1,97.251,88.064a18.992,18.992,0,0,1,18.992,18.992" transform="translate(-26.314 -29.61)" fill="#a0ba6d"/>
        <path id="Trazado_995740" data-name="Trazado 995740" d="M102.048,121.452a16.5,16.5,0,0,1-4.986-.749,11.316,11.316,0,0,1-3.807-1.928l1.434-3.218A11.62,11.62,0,0,0,98,117.311a12.015,12.015,0,0,0,4.046.7,8.71,8.71,0,0,0,2.836-.382,3.4,3.4,0,0,0,1.592-1.035,2.345,2.345,0,0,0,.51-1.482,2.046,2.046,0,0,0-.733-1.641,5.42,5.42,0,0,0-1.9-.988q-1.164-.365-2.581-.669t-2.836-.748a12.767,12.767,0,0,1-2.6-1.132,5.091,5.091,0,0,1-2.612-4.763,6.031,6.031,0,0,1,.972-3.329,6.689,6.689,0,0,1,2.962-2.421,12.207,12.207,0,0,1,5.05-.908,15.873,15.873,0,0,1,3.983.51,11.532,11.532,0,0,1,3.442,1.466l-1.306,3.218a12.29,12.29,0,0,0-3.091-1.322,11.7,11.7,0,0,0-3.059-.43,7.86,7.86,0,0,0-2.772.414,3.355,3.355,0,0,0-1.577,1.1,2.533,2.533,0,0,0-.494,1.514,2.067,2.067,0,0,0,.717,1.641,5.072,5.072,0,0,0,1.88.972q1.163.35,2.6.668t2.836.749a12.326,12.326,0,0,1,2.581,1.116,5.458,5.458,0,0,1,1.9,1.815,5.3,5.3,0,0,1,.717,2.884,5.981,5.981,0,0,1-.972,3.3,6.672,6.672,0,0,1-2.979,2.421,12.307,12.307,0,0,1-5.066.909m-.987-26.444h2.613v29.949h-2.613Z" transform="translate(-31.355 -31.945)" fill="#fffaf3"/>
        <path id="Trazado_995741" data-name="Trazado 995741" d="M115.842,89.507c10.684,5.365,11.448,19.5,9.719,24.867a21.933,21.933,0,0,1-7.6,10.359,18.992,18.992,0,0,0-2.116-35.226" transform="translate(-38.95 -30.095)" fill="#72955c"/>
        <path id="Trazado_995742" data-name="Trazado 995742" d="M115.78,106.658c-.063,0-.145-.417-.245-1.2-.023-.2-.048-.416-.077-.654s-.1-.5-.156-.779a14.531,14.531,0,0,0-.461-1.918,18.433,18.433,0,0,0-2.184-4.887,18.68,18.68,0,0,0-4.769-5.146,18.314,18.314,0,0,0-17.282-2.464,19.071,19.071,0,0,0-2.36,1.052c-.382.21-.747.455-1.125.681a9,9,0,0,0-1.091.759,16.549,16.549,0,0,0-3.815,3.86,17.578,17.578,0,0,0-2.576,4.989,17.989,17.989,0,0,0,0,11.412,17.56,17.56,0,0,0,2.575,4.989,16.569,16.569,0,0,0,3.816,3.86,9.093,9.093,0,0,0,1.09.759c.378.226.743.471,1.126.68a19.067,19.067,0,0,0,2.36,1.052,18.314,18.314,0,0,0,17.282-2.464,18.681,18.681,0,0,0,4.769-5.146,18.433,18.433,0,0,0,2.184-4.887,14.532,14.532,0,0,0,.461-1.918c.054-.281.118-.54.156-.779s.054-.457.078-.654c.1-.782.181-1.2.244-1.2s.1.417.123,1.222q0,.307.009.676c-.009.248-.045.517-.072.811a12.809,12.809,0,0,1-.309,2.015,17.756,17.756,0,0,1-2,5.236,19.138,19.138,0,0,1-4.863,5.65,19.352,19.352,0,0,1-8.238,3.789,18.257,18.257,0,0,1-2.5.317c-.426.019-.856.064-1.288.061l-1.31-.054a8.853,8.853,0,0,1-1.323-.133c-.441-.069-.89-.118-1.334-.206a21.469,21.469,0,0,1-5.246-1.876c-.421-.225-.825-.487-1.241-.731a10.41,10.41,0,0,1-1.2-.819,18.156,18.156,0,0,1-4.22-4.2,19.188,19.188,0,0,1-2.858-5.475,19.634,19.634,0,0,1,0-12.558A19.2,19.2,0,0,1,80.774,94.9a18.17,18.17,0,0,1,4.219-4.2,10.385,10.385,0,0,1,1.2-.819c.417-.245.82-.506,1.241-.731a21.435,21.435,0,0,1,5.246-1.877c.444-.088.893-.137,1.335-.206a8.855,8.855,0,0,1,1.323-.133l1.309-.054c.433,0,.863.042,1.288.061a18.229,18.229,0,0,1,2.5.317,19.337,19.337,0,0,1,8.238,3.789,19.141,19.141,0,0,1,4.864,5.65,17.756,17.756,0,0,1,2,5.236,12.81,12.81,0,0,1,.309,2.015c.027.293.063.563.072.811s-.007.471-.009.676c-.019.805-.06,1.222-.123,1.222" transform="translate(-25.851 -29.213)" fill="#72955c"/>
        <path id="Trazado_995743" data-name="Trazado 995743" d="M116.243,34.4A18.991,18.991,0,1,1,97.251,15.406,18.992,18.992,0,0,1,116.243,34.4" transform="translate(-26.314 -5.18)" fill="#a0ba6d"/>
        <path id="Trazado_995744" data-name="Trazado 995744" d="M102.047,48.794a16.5,16.5,0,0,1-4.986-.749,11.31,11.31,0,0,1-3.807-1.928L94.687,42.9A11.6,11.6,0,0,0,98,44.652a12.009,12.009,0,0,0,4.046.7,8.708,8.708,0,0,0,2.836-.382,3.389,3.389,0,0,0,1.592-1.035,2.343,2.343,0,0,0,.51-1.482,2.046,2.046,0,0,0-.733-1.641,5.408,5.408,0,0,0-1.9-.988q-1.164-.366-2.581-.669t-2.835-.749a12.792,12.792,0,0,1-2.6-1.131,5.093,5.093,0,0,1-2.612-4.763,6.032,6.032,0,0,1,.972-3.329,6.691,6.691,0,0,1,2.963-2.421,12.2,12.2,0,0,1,5.049-.908,15.874,15.874,0,0,1,3.983.51,11.522,11.522,0,0,1,3.441,1.466l-1.306,3.218a12.32,12.32,0,0,0-3.09-1.322,11.735,11.735,0,0,0-3.059-.43,7.86,7.86,0,0,0-2.772.414,3.354,3.354,0,0,0-1.577,1.1,2.53,2.53,0,0,0-.494,1.513,2.067,2.067,0,0,0,.717,1.641,5.062,5.062,0,0,0,1.88.972q1.163.351,2.6.669t2.836.749a12.322,12.322,0,0,1,2.581,1.115,5.46,5.46,0,0,1,1.9,1.816,5.294,5.294,0,0,1,.717,2.883,5.985,5.985,0,0,1-.972,3.3,6.68,6.68,0,0,1-2.979,2.421,12.319,12.319,0,0,1-5.066.908M101.06,22.35h2.613V52.3H101.06Z" transform="translate(-31.355 -7.515)" fill="#fffaf3"/>
        <path id="Trazado_995745" data-name="Trazado 995745" d="M115.842,16.756c10.684,5.365,11.448,19.5,9.719,24.867a21.933,21.933,0,0,1-7.6,10.359,18.992,18.992,0,0,0-2.116-35.226" transform="translate(-38.95 -5.634)" fill="#72955c"/>
        <path id="Trazado_995746" data-name="Trazado 995746" d="M115.78,34c-.063,0-.145-.416-.245-1.2-.023-.2-.048-.415-.077-.654s-.1-.5-.156-.779a14.507,14.507,0,0,0-.461-1.918,18.433,18.433,0,0,0-2.184-4.887,18.692,18.692,0,0,0-4.769-5.146,18.319,18.319,0,0,0-17.282-2.464,19.077,19.077,0,0,0-2.36,1.053c-.382.209-.747.455-1.125.681a9,9,0,0,0-1.091.759A20.693,20.693,0,0,0,83.981,21.2a20.789,20.789,0,0,0-1.766,2.105,17.573,17.573,0,0,0-2.576,4.99A19.474,19.474,0,0,0,78.71,34a19.466,19.466,0,0,0,.929,5.706A17.577,17.577,0,0,0,82.215,44.7a20.64,20.64,0,0,0,1.767,2.1,20.709,20.709,0,0,0,2.049,1.755,9.1,9.1,0,0,0,1.09.759c.378.226.743.471,1.126.68a19.059,19.059,0,0,0,2.36,1.051,18.311,18.311,0,0,0,17.282-2.463,18.68,18.68,0,0,0,4.769-5.146,18.433,18.433,0,0,0,2.184-4.887,14.549,14.549,0,0,0,.461-1.917c.054-.281.118-.54.156-.78s.054-.457.078-.654c.1-.782.181-1.2.244-1.2s.1.418.123,1.222c0,.205.006.43.009.676s-.045.516-.072.811a12.809,12.809,0,0,1-.309,2.015,17.763,17.763,0,0,1-2,5.236,19.138,19.138,0,0,1-4.863,5.65,19.351,19.351,0,0,1-8.238,3.789,18.152,18.152,0,0,1-2.5.317c-.426.019-.856.063-1.288.061l-1.31-.055a8.852,8.852,0,0,1-1.323-.132c-.441-.069-.89-.118-1.334-.206a21.468,21.468,0,0,1-5.246-1.876c-.421-.226-.825-.487-1.241-.731a10.333,10.333,0,0,1-1.2-.82,21.968,21.968,0,0,1-2.262-1.906,22.31,22.31,0,0,1-1.957-2.3,19.188,19.188,0,0,1-2.858-5.475A21.068,21.068,0,0,1,76.885,34a21.085,21.085,0,0,1,1.031-6.279,19.193,19.193,0,0,1,2.858-5.475,22.029,22.029,0,0,1,1.957-2.3,21.968,21.968,0,0,1,2.261-1.906,10.462,10.462,0,0,1,1.2-.818c.417-.245.82-.506,1.241-.731a21.435,21.435,0,0,1,5.246-1.877c.444-.088.893-.137,1.335-.206a8.767,8.767,0,0,1,1.323-.133l1.309-.054c.433,0,.863.042,1.288.06a18.332,18.332,0,0,1,2.5.317,19.418,19.418,0,0,1,13.1,9.439,17.77,17.77,0,0,1,2,5.236,12.817,12.817,0,0,1,.309,2.015c.027.294.063.563.072.811s-.007.471-.009.676c-.019.805-.06,1.221-.123,1.221" transform="translate(-25.851 -4.783)" fill="#72955c"/>
        <line id="Línea_719" data-name="Línea 719" x2="10.078" y2="10.57" transform="translate(38.083 53.808)" fill="none" stroke="#753d32" stroke-miterlimit="10" stroke-width="2"/>
        <line id="Línea_720" data-name="Línea 720" x2="5.714" y2="8.815" transform="translate(43.122 50.597)" fill="none" stroke="#753d32" stroke-miterlimit="10" stroke-width="2"/>
        <line id="Línea_721" data-name="Línea 721" y1="7.139" x2="10.826" transform="translate(253.639 144.325)" fill="none" stroke="#753d32" stroke-miterlimit="10" stroke-width="2"/>
        <line id="Línea_722" data-name="Línea 722" y1="7.978" x2="19.195" transform="translate(254.868 147.476)" fill="none" stroke="#753d32" stroke-miterlimit="10" stroke-width="2"/>
        <path id="Trazado_995747" data-name="Trazado 995747" d="M132.95,211.88c-11.973,3.3-40.92,60.627-40.92,60.627s18.8,15.072,43.129,17.389c0,0,8.634-81.008-2.209-78.016" transform="translate(-30.944 -71.214)" fill="#a9e0ff"/>
        <path id="Trazado_995748" data-name="Trazado 995748" d="M108.6,281.83c-13.264,1.493-29.313-7.43-31.583-8.622l-6.1-3.608c-5.808-7.833-7.347-15.309-7.372-19.728-.036-5.754,2.921-14.079,4.359-20.307,1.447-6.289,3.241-13.961,3.241-13.961-2.887-2.177-11.079,2.844-15.117,14.442-1.326,3.808-13.247-6.527-10.137-29.829.838-6.277-5.4-7.932-9.18-7.41-6.871.953-26.876,16.782-21.473,44.079,2.075,10.487,15.727,26.488,16.471,28.937,1.8,5.91,3.558,77.858,31.839,88.8,27.066,10.472,40.462-28.216,46.2-53.521-.4-6.1-.789-12.615-1.15-19.271" transform="translate(-4.815 -64.798)" fill="#844c3d"/>
        <path id="Trazado_995749" data-name="Trazado 995749" d="M58.541,350.846a16.756,16.756,0,0,1-2.421-1.626,35.663,35.663,0,0,1-5.777-6.051,58.87,58.87,0,0,1-6.63-11.453,107.929,107.929,0,0,1-5.69-16.56A195.852,195.852,0,0,1,33.86,294.37c-1.14-7.53-1.947-15.644-2.769-24.129-.112-1.057-.228-2.121-.377-3.164l-.124-.771c-.05-.24-.1-.467-.16-.694-.109-.186-.145-.334-.289-.56l-.407-.659c-1.175-1.78-2.5-3.572-3.791-5.4-2.593-3.654-5.2-7.444-7.53-11.526a56.879,56.879,0,0,1-3.158-6.416,27.472,27.472,0,0,1-1.125-3.508l-.227-.907-.153-.9q-.148-.9-.3-1.8a53.675,53.675,0,0,1-.475-7.37,44.968,44.968,0,0,1,.762-7.459A38.822,38.822,0,0,1,29.065,194.76a25.266,25.266,0,0,1,3.069-1.866,14.2,14.2,0,0,1,3.422-1.3,10.459,10.459,0,0,1,3.709-.067,8.766,8.766,0,0,1,3.472,1.314,7.469,7.469,0,0,1,2.492,2.77,7.571,7.571,0,0,1,.389.838l.291.865c.087.289.127.585.19.878a5.268,5.268,0,0,1,.13.877,11.444,11.444,0,0,1,.066,1.74l-.023.86-.046.8c-.074,1.067-.1,2.127-.127,3.181a51.677,51.677,0,0,0,1.158,12.2,31.907,31.907,0,0,0,1.8,5.539,17.341,17.341,0,0,0,2.9,4.688,5.829,5.829,0,0,0,1.955,1.482.96.96,0,0,0,.752.062.426.426,0,0,0,.173-.188,4.974,4.974,0,0,0,.235-.548,34.1,34.1,0,0,1,2.457-4.924,26.405,26.405,0,0,1,6.822-7.779A9.09,9.09,0,0,1,69,214.3a4.739,4.739,0,0,1,1.3.113,2.466,2.466,0,0,1,.362.1,1.235,1.235,0,0,1,.425.191,1.723,1.723,0,0,1,.455.786,1.835,1.835,0,0,1,.055.447,2.833,2.833,0,0,1-.034.364,3.946,3.946,0,0,1-.156.628c-.126.386-.273.733-.418,1.074-.59,1.346-1.14,2.609-1.564,3.89a29.915,29.915,0,0,0-1,3.779c-.251,1.241-.4,2.447-.524,3.629a30.068,30.068,0,0,1-.592,3.442c-.5,2.166-1.1,4.089-1.618,5.82a75.145,75.145,0,0,0-2.171,8c-.35,1.858-.352,2.859-.435,2.859a2.275,2.275,0,0,1-.068-.741,7.214,7.214,0,0,1,.022-.915c.017-.364.05-.786.117-1.26a59.756,59.756,0,0,1,1.851-8.138c.469-1.743,1.015-3.674,1.45-5.807a29.86,29.86,0,0,0,.5-3.344,37.536,37.536,0,0,1,.463-3.731,30.553,30.553,0,0,1,.968-3.93c.415-1.33.973-2.672,1.531-4,.135-.331.267-.662.365-.979a2.874,2.874,0,0,0,.107-.45,1.583,1.583,0,0,0,.016-.191.553.553,0,0,0-.013-.106.339.339,0,0,0-.1-.165,1.225,1.225,0,0,0-.265-.074,3.52,3.52,0,0,0-.972-.069,7.932,7.932,0,0,0-3.962,1.7,25.263,25.263,0,0,0-6.366,7.454,32.831,32.831,0,0,0-2.307,4.742,6.105,6.105,0,0,1-.308.717,1.893,1.893,0,0,1-.775.787,2.367,2.367,0,0,1-1.951.028,7.178,7.178,0,0,1-2.548-1.847,18.781,18.781,0,0,1-3.223-5.086,33.371,33.371,0,0,1-1.932-5.807,52.985,52.985,0,0,1-1.276-12.586c.021-1.081.044-2.169.114-3.26l.043-.82.015-.769a9.711,9.711,0,0,0-.064-1.525,6.477,6.477,0,0,0-2.747-4.96,8.076,8.076,0,0,0-5.85-.974,12.527,12.527,0,0,0-2.983,1.152,23.417,23.417,0,0,0-2.851,1.745A37.15,37.15,0,0,0,15.532,219.45a43.41,43.41,0,0,0-.732,7.143,52.083,52.083,0,0,0,.451,7.092l.286,1.742.145.868.208.828a25.86,25.86,0,0,0,1.041,3.265,55.41,55.41,0,0,0,3.037,6.2c2.271,4,4.83,7.755,7.4,11.4,1.281,1.833,2.584,3.6,3.811,5.478l.449.737a7.919,7.919,0,0,1,.433.9c.078.3.147.6.206.892l.129.833c.152,1.1.262,2.171.37,3.239.779,8.523,1.524,16.577,2.593,24.082a202.078,202.078,0,0,0,3.916,20.682,110.932,110.932,0,0,0,5.375,16.473,61.042,61.042,0,0,0,6.266,11.439,40.148,40.148,0,0,0,5.444,6.192,17.9,17.9,0,0,1,2.182,1.906" transform="translate(-4.363 -64.354)" fill="#3a201e"/>
        <path id="Trazado_995750" data-name="Trazado 995750" d="M24.186,211.441c.062.011.084.265.07.734q-.034.761-.092,2.036-.016.667-.035,1.466c.006.536,0,1.118.013,1.742.024,1.249.107,2.67.243,4.238.276,3.136.859,6.849,1.6,10.978.4,2.076.572,4.288,1.835,5.789a11.827,11.827,0,0,0,2.442,2.108c.958.668,1.946,1.34,2.949,2.007,2.008,1.334,4,2.589,5.946,3.762s3.851,2.243,5.689,3.3a40.1,40.1,0,0,1,5.071,3.352,18.71,18.71,0,0,1,2.072,1.9,10.027,10.027,0,0,1,1.5,2.2,14.38,14.38,0,0,1,1.408,4.22,11.208,11.208,0,0,1,.1,3.349,6.367,6.367,0,0,1-.6,2.036c-.256.42-.413.615-.468.584s-.008-.283.124-.715a9.123,9.123,0,0,0,.23-1.96,12.214,12.214,0,0,0-.388-3.087,14.414,14.414,0,0,0-1.539-3.8,9.043,9.043,0,0,0-1.389-1.854,18.44,18.44,0,0,0-1.976-1.676,42.256,42.256,0,0,0-4.97-3.083c-1.832-1-3.8-2.054-5.777-3.225s-4.008-2.427-6.042-3.777c-1.018-.676-2.01-1.355-2.987-2.044a13.3,13.3,0,0,1-2.79-2.473,8.25,8.25,0,0,1-1.541-3.39c-.259-1.15-.387-2.2-.558-3.242A97.643,97.643,0,0,1,23.1,221.739c-.056-1.606-.05-3.062.024-4.338.033-.638.092-1.231.139-1.775.068-.544.128-1.04.2-1.484a17.163,17.163,0,0,1,.436-2.024c.132-.456.231-.688.293-.676" transform="translate(-7.754 -71.094)" fill="#3a201e"/>
        <path id="Trazado_995751" data-name="Trazado 995751" d="M38.385,230.318c-.24.052-.866-1.681-1.567-4.564-.346-1.442-.72-3.168-1.047-5.1-.177-.964-.32-1.985-.476-3.041-.133-1.061-.285-2.157-.384-3.288-.117-1.128-.189-2.236-.253-3.3-.042-1.072-.094-2.1-.079-3.093q.008-.74.015-1.444l.07-1.363c.038-.878.159-1.7.236-2.443.133-.745.228-1.416.378-2s.281-1.081.437-1.478c.323-.791.556-1.2.676-1.157s.117.515.017,1.318c-.046.4-.062.906-.121,1.474s-.054,1.233-.1,1.951c.007.729-.036,1.518-.008,2.374q.011.643.022,1.324.03.685.061,1.405c.031.961.117,1.971.183,3.018.087,1.047.169,2.131.285,3.241.1,1.111.234,2.194.341,3.241.126,1.044.248,2.053.365,3.017.243,1.9.464,3.631.653,5.116.372,2.917.551,4.743.3,4.8" transform="translate(-11.626 -66.588)" fill="#3a201e"/>
        <path id="Trazado_995752" data-name="Trazado 995752" d="M50.66,192.717c.056.03.063.16.029.373s-.1.51-.174.9c-.046.188-.072.41-.11.645s-.08.491-.11.77c-.074.553-.133,1.189-.177,1.9a99.3,99.3,0,0,0,.115,11.153c.263,4.344.5,8.274.678,11.235.072,1.444.1,2.618.078,3.436s-.121,1.286-.248,1.287-.264-.423-.459-1.215-.419-1.941-.654-3.372a106.109,106.109,0,0,1-1.218-11.275,51.852,51.852,0,0,1,.426-11.41,16.413,16.413,0,0,1,.461-1.951,7.3,7.3,0,0,1,.267-.784,5.618,5.618,0,0,1,.277-.643,3.567,3.567,0,0,1,.514-.828c.146-.173.248-.246.3-.216" transform="translate(-16.239 -64.796)" fill="#3a201e"/>
        <path id="Trazado_995753" data-name="Trazado 995753" d="M50.89,237.4c.07.248-.865.736-2.39,1.406l-5.949,2.542-5.917,2.613c-1.53.657-2.525,1.006-2.658.787s.637-.954,2.036-1.917A37.771,37.771,0,0,1,48.1,237.582c1.659-.366,2.724-.417,2.79-.179" transform="translate(-11.419 -79.774)" fill="#3a201e"/>
        <path id="Trazado_995754" data-name="Trazado 995754" d="M130.286,354.5c.026,0,.081.052.1.213a.267.267,0,0,1-.035.167.244.244,0,0,1-.241.108.965.965,0,0,1-.387-.164,10.029,10.029,0,0,1-1.715-1.624c-1.35-1.509-3.132-3.812-5.233-6.723-4.2-5.824-9.682-14.083-15.411-23.408s-10.608-17.962-13.784-24.413a67.784,67.784,0,0,1-3.393-7.828c-.666-1.918-.725-3.086-.591-3.1.119-.014.4,1.035,1.251,2.834.83,1.8,2.153,4.368,3.876,7.493,3.446,6.252,8.484,14.753,14.2,24.054s11.01,17.647,14.919,23.631c1.956,2.991,3.567,5.392,4.724,7.009a17.838,17.838,0,0,0,1.388,1.78,1.119,1.119,0,0,0,.212.18c0-.01.029.074,0,.025.01.012.024-.028.035-.045.038-.11.047-.193.083-.194" transform="translate(-30.107 -96.745)" fill="#3a201e"/>
        <path id="Trazado_995755" data-name="Trazado 995755" d="M246.583,204.645s40.963,21.783,44.687,25.2-39.112,114.428-44.389,116.291-81.062-2.113-86.493-6.216c-3.539-2.672-9.333-128.153-6.985-132.481,2.2-4.056,41.747-9.764,55.043-8.733s38.137,5.942,38.137,5.942" transform="translate(-51.397 -66.77)" fill="#5ca4e0"/>
        <path id="Trazado_995756" data-name="Trazado 995756" d="M235.093,161.961c0,.461.7,22.3.7,22.3l-8.075,2.127s-1.945,25.528,17.176,29.528c12.84,2.686,33.218-19.849,33.218-19.849l-8.3-4.862,3.073-24.482Z" transform="translate(-76.548 -54.457)" fill="#844c3d"/>
        <path id="Trazado_995757" data-name="Trazado 995757" d="M244.246,175.93a27.922,27.922,0,0,0,7.99,3.133,40.172,40.172,0,0,0,17.376.224,43.81,43.81,0,0,0,5.671-1.649l1.37-10.914-37.8-4.763c0,.2.148,4.934.314,10.179,1.706,1.241,3.248,2.692,5.074,3.79" transform="translate(-80.313 -54.457)" fill="#3a201e"/>
        <path id="Trazado_995758" data-name="Trazado 995758" d="M227.529,195.146c.281.067-2.393,17.513,5.386,30.512,0,0-7.25-1.708-14.915,5.9-1.807.374-12.213-21.158-14.915-33.421,0,0,12.106-5.917,24.444-2.986" transform="translate(-68.284 -65.341)" fill="#a9e0ff"/>
        <path id="Trazado_995759" data-name="Trazado 995759" d="M276.934,202.773s-3.773,13.707-28.908,25.723c0,0,6.957,2.806,13.43,12.246,0,0,23.5-6.048,33.966-26.166,0,0-9.319-11.533-18.489-11.8" transform="translate(-83.395 -68.179)" fill="#a9e0ff"/>
        <path id="Trazado_995760" data-name="Trazado 995760" d="M227.088,194.913c-.015.061-.407.048-1.133-.033l-1.338-.162-1.831-.127a40.346,40.346,0,0,0-11.544,1.154,45.2,45.2,0,0,0-7.591,2.532c-.064.043-.151.04-.106.116l.191.734q.285,1.082.619,2.19.67,2.216,1.5,4.528c1.1,3.079,2.374,6.273,3.8,9.541s2.986,6.616,4.754,9.935c.49.914.991,1.813,1.515,2.676.262.431.53.855.806,1.257.139.2.279.4.421.579.117.161.359.429.3.358l0,0h0l0,0h0l.07-.065c.393-.345.751-.723,1.168-1.035l1.221-.957,1.28-.857a19.34,19.34,0,0,1,5.523-2.38,17.119,17.119,0,0,1,2.9-.451c.241-.021.485-.017.725-.026.207-.012.593.007.518.005a1,1,0,0,1,.129.023c.014-.018-.033-.085-.05-.137l-.35-.7c-.129-.26-.25-.521-.369-.782-.477-1.042-.887-2.085-1.247-3.115a42.751,42.751,0,0,1-1.6-5.981,54.821,54.821,0,0,1-.958-10.029,56.52,56.52,0,0,1,.324-6.51c.084-.75.167-1.324.232-1.708a2.48,2.48,0,0,1,.129-.579c.319,0,.009,3.252.3,8.765a60.783,60.783,0,0,0,1.312,9.78,43.387,43.387,0,0,0,1.689,5.744c.366.982.78,1.973,1.254,2.959l.365.739.429.817c.522.945,1.138,1.955,1.662,2.88l-1.507-.293a12.944,12.944,0,0,0-1.4-.191c-.527-.013-.593-.018-.84-.006-.213.012-.427.01-.641.032a15.6,15.6,0,0,0-2.587.437,17.834,17.834,0,0,0-5,2.214l-1.173.8-1.126.894c-.385.289-.718.648-1.083.971l-.491.453a1.259,1.259,0,0,1-.29.179c-.1.04-.2.133-.289.131a1.572,1.572,0,0,1-1.249-.483,5.355,5.355,0,0,1-.716-.783c-.174-.22-.33-.441-.485-.662-.307-.443-.591-.891-.867-1.343-.55-.9-1.065-1.827-1.567-2.761-1.8-3.39-3.367-6.777-4.786-10.089s-2.67-6.556-3.742-9.7q-.8-2.355-1.45-4.632-.321-1.138-.592-2.257l-.131-.558-.2-.894-.1-.5c.006-.034-.05-.1.007-.107l.115-.054.23-.106c.3-.136.617-.288.907-.406a44,44,0,0,1,7.912-2.4,36.208,36.208,0,0,1,11.887-.6l1.848.3c.53.113.971.242,1.328.338.713.2,1.077.333,1.062.394" transform="translate(-67.843 -65.108)" fill="#3a201e"/>
        <path id="Trazado_995761" data-name="Trazado 995761" d="M275.918,202.74c0-.063.437-.08,1.282-.052a8.028,8.028,0,0,1,1.543.214,13.225,13.225,0,0,1,2.054.566,32.292,32.292,0,0,1,11.165,7.479c.518.49,1.028,1.012,1.545,1.551l.771.832.193.214.3.346.327.384.161.2-.123.22-1.355,2.382a20.648,20.648,0,0,1-1.289,2.117,43.023,43.023,0,0,1-3.128,4.169l-.874,1.035a11.282,11.282,0,0,1-.921,1.018l-1.972,1.99a59.966,59.966,0,0,1-9.387,7.2,66.709,66.709,0,0,1-11.382,5.611c-.948.352-1.894.69-2.852.99l-.36.113-.431.127-.7.2-.352.1c-.07.047-.085-.06-.127-.092l-.108-.147-1.129-1.566a42.618,42.618,0,0,0-3.615-4.3,37.034,37.034,0,0,0-4.038-3.621c-.7-.544-1.422-1.042-2.15-1.508l-.55-.34-.287-.166c-.185-.106-.37-.212-.565-.313-.393-.2-.824-.388-1.235-.581l-1.319-.568,5.346-2.691c.626-.3,1.219-.637,1.808-.97l1.75-.983c1.17-.623,2.242-1.343,3.311-2.007.529-.34,1.065-.655,1.569-1l1.479-1.043a58.8,58.8,0,0,0,9.361-8.1,38.448,38.448,0,0,0,4.87-6.448c.962-1.624,1.327-2.58,1.419-2.552a6.744,6.744,0,0,1-.927,2.811,32.384,32.384,0,0,1-4.579,6.878,55.326,55.326,0,0,1-9.3,8.567l-1.485,1.1c-.506.364-1.045.7-1.577,1.054-1.075.7-2.157,1.454-3.335,2.106l-1.765,1.03c-.594.348-1.193.7-1.825,1.014l-1.893.977-.239.124-.024.013-.031.019c-.015.013-.051.025-.046.036l.086.035.02.009.291.164.591.357c.781.489,1.551,1.01,2.294,1.577a38.176,38.176,0,0,1,4.265,3.771,43.4,43.4,0,0,1,3.789,4.472c.256.354.713.989.58.8l.621-.191c.919-.289,1.837-.619,2.755-.959a67.119,67.119,0,0,0,11.09-5.427,60.229,60.229,0,0,0,9.171-6.9l1.934-1.9a10.63,10.63,0,0,0,.9-.971l.86-.988a42.989,42.989,0,0,0,3.1-3.975,19.831,19.831,0,0,0,1.288-2.019l.6-1,.3-.493.116-.183c.05-.04-.03-.07-.04-.107l-.021-.027-.05-.06-.181-.211-.726-.826c-.489-.537-.971-1.06-1.462-1.552a34.354,34.354,0,0,0-10.515-7.733c-2.853-1.211-4.636-1.2-4.62-1.391" transform="translate(-82.379 -68.146)" fill="#3a201e"/>
        <rect id="Rectángulo_411857" data-name="Rectángulo 411857" width="9.773" height="35.651" transform="translate(163.588 196.128) rotate(-75.971)" fill="#a9e0ff"/>
        <path id="Trazado_995762" data-name="Trazado 995762" d="M254.8,286.843q-.424.884-.856,1.746t-.878,1.73l-1.535-.359q.01-.546.017-1.09t-.019-1.094q-.013-.414-.036-.821t-.051-.82q.162.061.329.117c.111.038.222.07.333.1l.072.018a.319.319,0,0,0,.074.008q.04.65.1,1.282t.127,1.278q.229-.308.452-.621l.449-.627c.011-.014.035-.05.073-.108s.083-.126.134-.2l.163-.244c.057-.086.109-.165.156-.238s.1-.157.163-.254a.548.548,0,0,0,.1.035l.1.026c.092.026.181.05.266.072l.263.066" transform="translate(-84.545 -96.209)" fill="#5e6dc4"/>
        <path id="Trazado_995763" data-name="Trazado 995763" d="M259.132,288.884q-.474-.094-.942-.183t-.946-.168l-.1.375,1.251.237c-.011.112-.026.222-.044.329s-.041.214-.068.323c-.011.044-.024.09-.037.137s-.026.094-.037.138l-1.2-.081-.076.61c.246.044.493.082.741.112s.5.064.749.1c-.018.165-.035.33-.053.5a3.893,3.893,0,0,0-.023.495q-.677-.174-1.348-.335t-1.349-.33q.153-.556.312-1.105t.3-1.113l.023-.091q.082-.325.153-.65t.144-.657q.376.1.752.191t.757.187q.292.074.578.157l.573.172Z" transform="translate(-85.958 -96.677)" fill="#5e6dc4"/>
        <path id="Trazado_995764" data-name="Trazado 995764" d="M264.643,291.642q-.106.42-.21.828t-.214.827q-.293-.089-.584-.161-.143-.036-.293-.058c-.1-.015-.2-.026-.3-.035q-.083-.441-.167-.877t-.167-.877c-.04-.216-.076-.432-.108-.646s-.062-.43-.092-.648q-.2.634-.41,1.261t-.395,1.264l-1.025-.287q.205-.923.413-1.836t.39-1.842l1.871.458q.035.263.059.525t.037.53c.011.27.031.54.061.81s.062.541.092.812q.144-.6.276-1.195t.273-1.2l.937.356q-.106.5-.214,1t-.233.993" transform="translate(-87.651 -97.023)" fill="#5e6dc4"/>
        <path id="Trazado_995765" data-name="Trazado 995765" d="M271.175,293.182c-.023.092-.047.189-.073.291a1.271,1.271,0,0,1-.106.283,1.633,1.633,0,0,1-.1.171.661.661,0,0,1-.108.125.616.616,0,0,1-.135.093.926.926,0,0,1-.18.069.635.635,0,0,1-.165.012c-.088,0-.2,0-.327,0s-.275-.006-.434-.012-.321-.014-.487-.023l-.491-.026-.441-.024-.336-.018c-.092,0-.153-.009-.182-.013q.137-.9.281-1.773t.325-1.767q.4.115.791.231t.791.246c.068.024.169.057.3.1s.271.092.413.146.275.11.4.168a.83.83,0,0,1,.256.166.806.806,0,0,1,.141.269,1.105,1.105,0,0,1,.056.3.965.965,0,0,1-.019.2c-.016.09-.034.184-.056.283s-.043.2-.064.288-.039.163-.05.211m-1.205-.236c.009-.035.017-.072.026-.113s.015-.078.021-.114c.007-.052.011-.108.014-.167a1.172,1.172,0,0,0,0-.174.859.859,0,0,0-.035-.166.52.52,0,0,0-.075-.148.369.369,0,0,0-.151-.086c-.084-.033-.175-.064-.276-.094s-.2-.057-.284-.082l-.172-.045-.2-.049q-.055.382-.114.751t-.129.747c.062.012.151.025.267.039s.237.023.361.029a2.441,2.441,0,0,0,.352-.009.543.543,0,0,0,.253-.076.251.251,0,0,0,.095-.105.8.8,0,0,0,.047-.138" transform="translate(-89.981 -97.7)" fill="#5e6dc4"/>
        <path id="Trazado_995766" data-name="Trazado 995766" d="M276.654,293.267q-.474-.094-.942-.183t-.945-.168l-.1.375,1.251.237c-.011.112-.026.222-.044.329s-.04.214-.068.323c-.011.044-.024.09-.037.138s-.026.093-.037.137l-1.2-.081-.076.61c.246.045.493.082.741.112s.5.064.749.1c-.018.165-.035.33-.053.5a4,4,0,0,0-.023.495q-.677-.174-1.348-.335t-1.349-.33q.154-.556.312-1.105t.3-1.113l.023-.091q.082-.325.153-.65c.047-.216.1-.435.144-.657q.376.1.752.191l.758.187q.291.073.577.157l.574.172Z" transform="translate(-91.849 -98.151)" fill="#5e6dc4"/>
        <path id="Trazado_995767" data-name="Trazado 995767" d="M281.98,295.885c-.023.092-.048.189-.073.291a1.258,1.258,0,0,1-.106.283,1.59,1.59,0,0,1-.1.171.662.662,0,0,1-.107.125.616.616,0,0,1-.135.093.929.929,0,0,1-.18.069.67.67,0,0,1-.165.012l-.327,0q-.194,0-.433-.012t-.487-.023l-.491-.026-.441-.024-.336-.018c-.092,0-.153-.009-.182-.013q.137-.894.281-1.772t.325-1.767q.4.114.791.231t.791.246c.068.024.169.057.3.1s.271.092.413.146.275.11.4.168a.837.837,0,0,1,.256.166.817.817,0,0,1,.141.269,1.106,1.106,0,0,1,.056.3.968.968,0,0,1-.019.2q-.024.134-.056.283c-.022.1-.043.2-.064.288s-.038.163-.05.211m-1.205-.236c.009-.035.017-.073.026-.113s.015-.078.021-.114c.007-.052.011-.108.014-.167a1.16,1.16,0,0,0,0-.174.858.858,0,0,0-.034-.166.538.538,0,0,0-.075-.148.369.369,0,0,0-.151-.086c-.084-.033-.175-.064-.276-.094s-.2-.058-.284-.082l-.172-.045-.2-.049q-.055.382-.114.751t-.129.747c.062.012.151.025.268.039s.237.023.36.029a2.463,2.463,0,0,0,.352-.009.544.544,0,0,0,.253-.076.251.251,0,0,0,.095-.106.8.8,0,0,0,.047-.138" transform="translate(-93.614 -98.608)" fill="#5e6dc4"/>
        <path id="Trazado_995768" data-name="Trazado 995768" d="M288.664,297.219c-.011.041-.021.082-.031.122s-.021.079-.034.116-.029.086-.054.164-.054.169-.088.27-.07.208-.11.32-.079.215-.118.309-.074.173-.108.24a.322.322,0,0,1-.08.117.912.912,0,0,1-.395.127,1.928,1.928,0,0,1-.437-.01,3.321,3.321,0,0,1-.435-.088q-.214-.059-.4-.106l-.21-.055-.335-.091q-.188-.053-.39-.115t-.376-.13a2.9,2.9,0,0,1-.3-.13.293.293,0,0,1-.145-.12.683.683,0,0,1-.038-.131c-.009-.046-.017-.09-.023-.132-.015-.116-.025-.238-.031-.366s0-.258,0-.39.02-.262.037-.389a3.266,3.266,0,0,1,.067-.359q.023-.091.074-.233c.034-.095.073-.2.117-.306s.092-.22.144-.332.1-.216.157-.311a2.063,2.063,0,0,1,.155-.243.343.343,0,0,1,.143-.124.539.539,0,0,1,.192-.018c.091,0,.2.011.314.025s.244.032.377.054.26.043.38.064.228.042.324.063l.212.048c.06.015.141.039.244.072s.212.07.329.115.236.093.354.145.228.106.328.161a1.837,1.837,0,0,1,.251.165.284.284,0,0,1,.115.151.8.8,0,0,1,.008.162q0,.1-.02.231c-.011.085-.025.175-.04.27s-.031.184-.047.269-.032.164-.046.235-.027.127-.037.169m-.895-.056c.016-.064.03-.132.041-.206a.417.417,0,0,0-.015-.2c-.016-.045-.07-.09-.161-.137a2.241,2.241,0,0,0-.309-.128c-.114-.038-.224-.072-.333-.1s-.184-.049-.228-.06-.1-.021-.186-.036-.185-.029-.285-.039-.2-.015-.283-.015a.27.27,0,0,0-.171.035.3.3,0,0,0-.077.116c-.027.059-.053.124-.079.194s-.048.137-.068.2-.033.111-.04.139-.015.064-.026.115-.02.1-.027.161-.013.109-.017.159a.259.259,0,0,0,.009.113c.005.019.031.04.075.065s.1.051.166.079.135.056.21.081l.218.072c.07.023.133.042.188.057l.116.032c.039.009.106.023.2.04s.2.032.3.043.207.018.3.019a.359.359,0,0,0,.188-.031.342.342,0,0,0,.083-.129q.046-.1.088-.227c.027-.083.052-.163.072-.24s.037-.134.045-.169" transform="translate(-95.668 -99.13)" fill="#5e6dc4"/>
        <path id="Trazado_995769" data-name="Trazado 995769" d="M295.016,298.469a.83.83,0,0,1-.393.557.987.987,0,0,1-.692.086,13.693,13.693,0,0,1,.422,1.822l-1.4-.316a5.621,5.621,0,0,0,.064-.741,5.5,5.5,0,0,0-.044-.737q-.16-.03-.319-.054c-.106-.017-.211-.034-.315-.053l-.248,1.091q-.276-.054-.548-.122c-.092-.023-.182-.047-.268-.072s-.174-.053-.261-.086q.143-.431.281-.861t.252-.864q.208-.771.431-1.537.455.089.909.171t.9.2c.076.019.159.041.247.067a2.236,2.236,0,0,1,.263.094,2.064,2.064,0,0,1,.248.125.981.981,0,0,1,.2.157,1.062,1.062,0,0,1,.273.5,1.214,1.214,0,0,1,0,.576m-1.089-.354q.01-.038.024-.106t.022-.139a.787.787,0,0,0,0-.136.2.2,0,0,0-.031-.1.185.185,0,0,0-.074-.049c-.036-.016-.076-.032-.117-.047s-.082-.029-.122-.04l-.084-.023a3.723,3.723,0,0,0-.38-.075c-.126-.018-.252-.033-.378-.044l-.1.959a1.645,1.645,0,0,0,.212.089c.075.025.149.047.222.066.032.008.079.018.142.031s.128.022.2.029a1.167,1.167,0,0,0,.192,0,.236.236,0,0,0,.134-.04.186.186,0,0,0,.042-.068.788.788,0,0,0,.041-.112l.035-.115c.011-.038.019-.065.023-.081" transform="translate(-97.849 -99.721)" fill="#5e6dc4"/>
        <path id="Trazado_995770" data-name="Trazado 995770" d="M237,267.126c-.242-.031-.289-1.582-.029-4.062a63.54,63.54,0,0,1,5.168-18.7,25.349,25.349,0,0,1,1.366-2.619c.37-.6.629-.9.745-.851s.078.449-.09,1.126-.451,1.634-.816,2.808c-.731,2.348-1.75,5.574-2.747,9.173s-1.776,6.891-2.354,9.281-.985,3.874-1.243,3.841" transform="translate(-79.62 -80.997)" fill="#3a201e"/>
        <path id="Trazado_995771" data-name="Trazado 995771" d="M251.237,252.015a1.606,1.606,0,1,1-1.606-1.606,1.606,1.606,0,0,1,1.606,1.606" transform="translate(-83.395 -84.196)" fill="#3a201e"/>
        <path id="Trazado_995772" data-name="Trazado 995772" d="M247.581,263.678a1.606,1.606,0,1,1-1.606-1.606,1.606,1.606,0,0,1,1.606,1.606" transform="translate(-82.166 -88.118)" fill="#3a201e"/>
        <path id="Trazado_995773" data-name="Trazado 995773" d="M244.371,276.3a1.606,1.606,0,1,1-1.606-1.606,1.606,1.606,0,0,1,1.606,1.606" transform="translate(-81.087 -92.362)" fill="#3a201e"/>
        <path id="Trazado_995774" data-name="Trazado 995774" d="M155.923,353.653c-.123.023-.439-1.228-.906-3.525-.415-2.3-.905-5.649-1.329-9.8-.881-8.3-1.576-19.8-2-32.513s-.535-24.22-.483-32.552c.01-1.04.02-2.032.029-2.972q.012-.64.022-1.245c.007-.046-.035-.078-.051-.12l-.169-.272-.332-.536c-.87-1.408-1.611-2.625-2.206-3.627-1.191-2-1.8-3.146-1.694-3.215s.914.939,2.287,2.824c.686.942,1.514,2.1,2.465,3.457l.362.516.187.268.147.215a.31.31,0,0,1,.093.236q.024.722.049,1.487.048,1.407.1,2.967c.262,8.35.621,19.828,1.017,32.507.424,12.691.915,24.174,1.463,32.466.258,4.149.55,7.5.747,9.811a14.021,14.021,0,0,1,.2,3.623" transform="translate(-49.356 -88.522)" fill="#3a201e"/>
        <path id="Trazado_995775" data-name="Trazado 995775" d="M300.341,88.66a13.892,13.892,0,0,1-13.893,13.893,13.737,13.737,0,0,1-5.078-.962,38.182,38.182,0,0,1-74.149-6.067,13.144,13.144,0,0,1-1.54.086,13.893,13.893,0,1,1,3.312-27.387l4.069-36.905,75.882,8.363-3.876,35.16a11.868,11.868,0,0,1,1.381-.073A13.892,13.892,0,0,1,300.341,88.66" transform="translate(-64.486 -10.53)" fill="#996752"/>
        <path id="Trazado_995776" data-name="Trazado 995776" d="M300.341,88.66a13.892,13.892,0,0,1-13.893,13.893,13.737,13.737,0,0,1-5.078-.962,38.182,38.182,0,0,1-74.149-6.067,13.144,13.144,0,0,1-1.54.086,13.893,13.893,0,1,1,3.312-27.387l4.069-36.905,75.882,8.363-3.876,35.16a11.868,11.868,0,0,1,1.381-.073A13.892,13.892,0,0,1,300.341,88.66" transform="translate(-64.486 -10.53)" fill="#844c3d"/>
        <path id="Trazado_995777" data-name="Trazado 995777" d="M242.058,112.238a12.475,12.475,0,1,1-12.266-12.679,12.475,12.475,0,0,1,12.266,12.679" transform="translate(-73 -33.475)" fill="#82362e"/>
        <path id="Trazado_995778" data-name="Trazado 995778" d="M312.258,113.4a12.475,12.475,0,1,1-12.266-12.679A12.474,12.474,0,0,1,312.258,113.4" transform="translate(-96.604 -33.866)" fill="#82362e"/>
        <path id="Trazado_995779" data-name="Trazado 995779" d="M323.1,78.166s-18.272-28.042-15.188-36.032,23.414,24.492,23.3,24.981-3.567,11.052-3.567,11.052a31.49,31.49,0,0,0-4.549,0" transform="translate(-103.413 -13.742)" fill="#3a201e"/>
        <path id="Trazado_995780" data-name="Trazado 995780" d="M212.143,66.248l3.4.42s11.982-16.747,23.59-33.213c7.319-10.38-13.632-5.821-13.632-5.821s-19.316,7.174-13.362,38.613" transform="translate(-70.947 -8.957)" fill="#3a201e"/>
        <path id="Trazado_995781" data-name="Trazado 995781" d="M253.04,34.925c-.706,1.745-1.365,3.381-1.482,3.594a33.356,33.356,0,0,1-5.511,7.453,63.2,63.2,0,0,0,31.74-7.1,5.915,5.915,0,0,0,.9-1.118Z" transform="translate(-82.73 -11.743)" fill="#3a201e"/>
        <path id="Trazado_995782" data-name="Trazado 995782" d="M249.064,73.481a1.817,1.817,0,0,1-1.172.468c-.509.076-1.1.126-1.78.23a22.352,22.352,0,0,0-2.372.48c-.447.119-.919.257-1.4.406s-.968.331-1.46.534-.972.408-1.423.635-.885.453-1.3.681c-.822.461-1.551.936-2.2,1.359-.336.2-.615.416-.916.581a6.256,6.256,0,0,1-.8.448,1.541,1.541,0,0,1-1.276.181c-.345-.153-.555-.546-.607-1.18a4.668,4.668,0,0,1,.094-1.091,6.976,6.976,0,0,1,.456-1.332,9.612,9.612,0,0,1,2.143-2.949,11.6,11.6,0,0,1,1.7-1.337,11.848,11.848,0,0,1,2.066-1.073,11.807,11.807,0,0,1,4.4-.883,8.709,8.709,0,0,1,3.726.761A4.539,4.539,0,0,1,249,72.131a1.177,1.177,0,0,1,.06,1.35" transform="translate(-78.129 -23.415)" fill="#3a201e"/>
        <path id="Trazado_995783" data-name="Trazado 995783" d="M288.094,73.481a1.177,1.177,0,0,1,.06-1.349A4.538,4.538,0,0,1,290.2,70.4a8.7,8.7,0,0,1,3.726-.761,11.8,11.8,0,0,1,4.4.882,11.85,11.85,0,0,1,2.065,1.073,11.569,11.569,0,0,1,1.7,1.337,9.59,9.59,0,0,1,2.143,2.949,6.874,6.874,0,0,1,.456,1.332,4.636,4.636,0,0,1,.095,1.091c-.052.634-.262,1.027-.607,1.18a1.542,1.542,0,0,1-1.276-.181,6.091,6.091,0,0,1-.8-.448c-.3-.165-.58-.378-.917-.581-.644-.423-1.373-.9-2.2-1.359-.413-.228-.842-.463-1.3-.681s-.929-.435-1.422-.635-.983-.372-1.461-.534-.951-.286-1.4-.406a22.16,22.16,0,0,0-2.373-.48c-.684-.1-1.271-.154-1.78-.23a1.821,1.821,0,0,1-1.173-.469" transform="translate(-96.806 -23.415)" fill="#3a201e"/>
        <path id="Trazado_995784" data-name="Trazado 995784" d="M215.888,92.742c.125.014.018,2.081-.283,5.807-.163,1.869-.362,4.146-.591,6.784a42.693,42.693,0,0,0-.058,8.88,38.406,38.406,0,0,0,2.634,10.361A37.829,37.829,0,0,0,234.525,143.4a37.626,37.626,0,0,0,48.736-11.735,38.243,38.243,0,0,0,4.787-9.558,39.011,39.011,0,0,0,1.2-4.53c.162-.724.269-1.436.37-2.128s.191-1.374.277-2.03c.35-2.626.652-4.891.9-6.75.518-3.7.864-5.743.989-5.73s.018,2.081-.283,5.807c-.163,1.87-.362,4.146-.592,6.784a42.179,42.179,0,0,1-1.63,8.971,38.741,38.741,0,0,1-75.608-8.168,41.59,41.59,0,0,1,.329-9.113c.35-2.626.652-4.891.9-6.75.518-3.7.864-5.744.989-5.73" transform="translate(-71.803 -31.183)" fill="#3a201e"/>
        <path id="Trazado_995785" data-name="Trazado 995785" d="M203.216,110.275c-.031.11-.482.143-1.219-.168a4.817,4.817,0,0,1-2.4-2.39,5.375,5.375,0,0,1,.386-5.144,2.591,2.591,0,0,1,.685-.682,2.3,2.3,0,0,1,1-.358,4.536,4.536,0,0,1,1.7.2,13.2,13.2,0,0,1,2.9,1.155l.361.2v0l.009.013c.008.012.013.009.02,0a.041.041,0,0,0,.008-.015c0-.017.022.044-.046-.2a6.034,6.034,0,0,0-.887-1.861,5.855,5.855,0,0,0-2.7-2.14,3.727,3.727,0,0,0-2.274-.139c-.53.149-.8.375-.9.29-.079-.054.019-.461.606-.876a3.782,3.782,0,0,1,2.877-.438,6.557,6.557,0,0,1,3.664,2.333,7.216,7.216,0,0,1,1.266,2.318c.035.116.066.2.123.409l.109.589a6.284,6.284,0,0,1,.1,1.146c.007.374-.012.712-.019,1.1q-.016.547-.032,1.1l-1.76-1.343c-.3-.227-.579-.4-.871-.588l-.323-.19-.21-.115a12.8,12.8,0,0,0-2.508-1.037,3.163,3.163,0,0,0-1.035-.189.6.6,0,0,0-.262.069.88.88,0,0,0-.252.232,4,4,0,0,0-.708,1.861,4.3,4.3,0,0,0,.164,1.813,5,5,0,0,0,1.566,2.26c.528.443.891.646.85.775" transform="translate(-66.952 -32.829)" fill="#3a201e"/>
        <path id="Trazado_995786" data-name="Trazado 995786" d="M338.479,120.431c-.041-.128.323-.331.85-.775a4.989,4.989,0,0,0,1.566-2.26,4.285,4.285,0,0,0,.164-1.812,3.991,3.991,0,0,0-.708-1.861.871.871,0,0,0-.252-.232.592.592,0,0,0-.262-.07,3.222,3.222,0,0,0-1.035.19,12.836,12.836,0,0,0-2.508,1.037l-.21.116-.323.19c-.293.192-.576.361-.872.587l-1.76,1.343q-.016-.555-.032-1.1c-.007-.386-.026-.724-.019-1.1a6.276,6.276,0,0,1,.1-1.145l.11-.589c.056-.214.088-.294.123-.409a7.212,7.212,0,0,1,1.266-2.319,6.552,6.552,0,0,1,3.664-2.333,3.782,3.782,0,0,1,2.877.437c.587.415.685.822.607.876-.1.086-.367-.141-.9-.289a3.736,3.736,0,0,0-2.274.138,5.864,5.864,0,0,0-2.7,2.14,6.047,6.047,0,0,0-.887,1.862c-.068.243-.046.181-.046.2a.037.037,0,0,0,.008.015c.007,0,.012.007.02,0l.009-.014h0l.361-.2a13.1,13.1,0,0,1,2.9-1.154,4.547,4.547,0,0,1,1.7-.2,2.305,2.305,0,0,1,1,.359,2.581,2.581,0,0,1,.685.682,5.374,5.374,0,0,1,.386,5.144,4.82,4.82,0,0,1-2.4,2.391c-.737.31-1.189.277-1.219.167" transform="translate(-111.992 -36.244)" fill="#3a201e"/>
        <path id="Trazado_995787" data-name="Trazado 995787" d="M269.917,104.8c.1.056-.057.638-.67,1.518a9.142,9.142,0,0,1-3.482,2.915,10.05,10.05,0,0,1-6.783.68,9.694,9.694,0,0,1-3.727-1.813,7.716,7.716,0,0,1-2.583-3.738,9.583,9.583,0,0,1-.268-4.456,12.146,12.146,0,0,1,1.336-3.849,10.534,10.534,0,0,1,4.909-4.71,7.564,7.564,0,0,1,4.543-.53c1.065.24,1.551.618,1.507.719-.047.131-.607-.005-1.587-.013a8.113,8.113,0,0,0-3.9.986,9.84,9.84,0,0,0-3.98,4.328,11.1,11.1,0,0,0-1.059,3.341,8.141,8.141,0,0,0,.241,3.629,7.071,7.071,0,0,0,5,4.478,9.266,9.266,0,0,0,5.836-.238,10.6,10.6,0,0,0,3.46-2.2c.73-.677,1.091-1.125,1.208-1.053" transform="translate(-84.819 -30.49)" fill="#3a201e"/>
        <path id="Trazado_995788" data-name="Trazado 995788" d="M242.653,87.953c5.1,1.624,2.695,12.656-2.588,12.013s-2.509-13.637,2.588-12.013" transform="translate(-79.761 -29.526)" fill="#3a201e"/>
        <path id="Trazado_995789" data-name="Trazado 995789" d="M294.217,90.737c5.322.539,5.244,11.83-.058,12.289s-5.264-12.828.058-12.289" transform="translate(-97.577 -30.504)" fill="#3a201e"/>
        <path id="Trazado_995790" data-name="Trazado 995790" d="M259.337,126.507l26.09-7.072s-1.648,14.856-10.7,16.62-15.385-9.548-15.385-9.548" transform="translate(-87.198 -40.158)" fill="#f5f5ed"/>
        <path id="Trazado_995791" data-name="Trazado 995791" d="M308.091,6.8s1.979-2.873,3.884-2.569,6.456.981,7.392,3.008.125,4.948.125,4.948-9.3-3.263-11.4-5.388" transform="translate(-103.591 -1.417)" fill="#7f2824"/>
        <path id="Trazado_995792" data-name="Trazado 995792" d="M320.572,25.585c-2.4-7.019-26.462-29-59.828-23.843L290.309,33.6s12.783,4.992,23.4,25.631c0,0,9.263-26.633,6.866-33.652" transform="translate(-87.671 -0.325)" fill="#c4301c"/>
        <path id="Trazado_995793" data-name="Trazado 995793" d="M313.822,45.292c-2.857-3.829-4.328-8.4-6.847-12.429-8.347-13.334-23.851-17.746-38.193-22.066l24.229,26.112s12.783,4.992,23.4,25.631c0,0,1.722-4.95,3.488-11.145a32.648,32.648,0,0,1-6.073-6.1" transform="translate(-90.374 -3.63)" fill="#b72415"/>
        <path id="Trazado_995794" data-name="Trazado 995794" d="M334.749,73.61a3.6,3.6,0,0,1,.1,3.383c-.372,1.021-1.8,1.029-2.283,2a163.894,163.894,0,0,0-12.6-19.252c-.667-.919-3.037-3.031-1.131-3.818,1.306-.54,3.39,1.882,4.213,2.617a53.68,53.68,0,0,1,8.264,9.029,34.709,34.709,0,0,1,3.437,6.042" transform="translate(-106.959 -18.777)" fill="#a01d17"/>
        <path id="Trazado_995795" data-name="Trazado 995795" d="M202.166,36.709s44.562-24.323,72.979,4.445c0,0,2.894-30.189-36.929-38.994C206.145-4.931,181.094,13.3,185.261,23.8c5.357,13.5,16.905,12.912,16.905,12.912" transform="translate(-62.139 -0.19)" fill="#d94c3b"/>
        <path id="Trazado_995796" data-name="Trazado 995796" d="M207.024,12.62c16.731-7.027,36.725-5.765,53.663-.042,1.882.636,1.578,1.38,3.41,2.145-5.624-5.053-12.252-9.674-25.882-12.487C206.047-4.4,181.094,13.373,185.26,23.873a24.743,24.743,0,0,0,2.507,4.784c3.16-7.583,12.43-13.169,19.257-16.037" transform="translate(-62.138 -0.265)" fill="#e25247"/>
        <path id="Trazado_995797" data-name="Trazado 995797" d="M201.821,36.519a3.257,3.257,0,0,1-1.491.108,15.515,15.515,0,0,1-4.207-.833,17.623,17.623,0,0,1-5.9-3.415,21.735,21.735,0,0,1-5.344-7.28l-.54-1.158a10.916,10.916,0,0,1-.414-1.334,7.318,7.318,0,0,1-.143-1.426c0-.242.006-.484.009-.728q.055-.357.11-.72a12.13,12.13,0,0,1,2.5-5.322A30.157,30.157,0,0,1,196.264,6.6c7.834-4.141,17.5-6.4,27.644-6.593a75.408,75.408,0,0,1,14.736,1.2,54.946,54.946,0,0,1,13.2,4.048,40.626,40.626,0,0,1,10.5,6.829,37.427,37.427,0,0,1,6.953,8.406,39.752,39.752,0,0,1,5.292,14.738c.532,3.675.331,5.741.213,5.734-.134,0-.176-2.035-.913-5.609A42.11,42.11,0,0,0,268.2,21.175a37.015,37.015,0,0,0-6.863-7.957A39.842,39.842,0,0,0,251.15,6.789a54.382,54.382,0,0,0-12.821-3.819,75.565,75.565,0,0,0-14.39-1.139c-9.887.181-19.307,2.346-26.894,6.256a29.077,29.077,0,0,0-9.445,7.254,10.783,10.783,0,0,0-2.311,4.642l-.108.6-.017.6a5.952,5.952,0,0,0,.089,1.164,10.029,10.029,0,0,0,.315,1.105l.489,1.114a21.19,21.19,0,0,0,4.851,7.057,17.755,17.755,0,0,0,5.461,3.507,18.992,18.992,0,0,0,4,1.134,8.046,8.046,0,0,1,1.453.258" transform="translate(-61.793 0)" fill="#f27f79"/>
        <path id="Trazado_995798" data-name="Trazado 995798" d="M317.137,417.608H.241L0,408.2H316.9Z" transform="translate(0 -137.252)" fill="#cea97b"/>
        <path id="Trazado_995799" data-name="Trazado 995799" d="M33.847,328.316l17.928,75.326s38.006-10.639,78-12.866c0,0,47.969-23.889,71.227-17.827,0,0-27.728-71.665-32.72-71.309s-47.847,2.3-61.539,16.123c0,0-34.031-6.2-72.894,10.553" transform="translate(-11.381 -101.422)" fill="#f3cb72"/>
        <path id="Trazado_995800" data-name="Trazado 995800" d="M235.329,369.238,204.943,302.6s-31.06-2.552-61.277,14.753c18.714-15.13,48.047-18.285,62.922-16.46,6.324,9.887,23.785,47.284,32.565,71.973,0,0-35.478-.228-72.455,17.5,8.646-7.376,48.947-23.908,68.631-21.133" transform="translate(-48.306 -101.016)" fill="#3a201e"/>
        <path id="Trazado_995801" data-name="Trazado 995801" d="M166.683,398.944a9.815,9.815,0,0,1-1.018-2.854c-.544-1.9-1.31-4.586-2.251-7.885-.47-1.664-1.01-3.481-1.59-5.43s-1.221-4.026-1.888-6.214c-.69-2.182-1.415-4.47-2.166-6.842l-2.392-7.328c-3.349-10.007-6.382-19.065-8.592-25.669-2.16-6.589-3.373-10.708-3.136-10.791s1.88,3.882,4.352,10.361,5.779,15.471,9.109,25.527c.83,2.514,1.627,4.974,2.364,7.362s1.43,4.695,2.072,6.9c.626,2.209,1.223,4.308,1.734,6.286s.989,3.819,1.381,5.512c.41,1.687.744,3.223,1.023,4.575s.514,2.516.672,3.476a9.776,9.776,0,0,1,.325,3.015" transform="translate(-48.291 -109.589)" fill="#3a201e"/>
        <path id="Trazado_995802" data-name="Trazado 995802" d="M119.7,333.206c-.088-.092-.062-.307.134-.614a1.816,1.816,0,0,1,.494-.5,1.5,1.5,0,0,1,1.151-.23,1.752,1.752,0,0,1,.618.277,2.606,2.606,0,0,1,.46.42,2.976,2.976,0,0,1,.6,1.149,3.683,3.683,0,0,1,.1,1.359,4.3,4.3,0,0,1-.135.693,4.2,4.2,0,0,1-.267.688,1.971,1.971,0,0,1-.719.813,1.779,1.779,0,0,1-1.1.243,2.479,2.479,0,0,1-1.468-.734,3.435,3.435,0,0,1-.96-2.075,2.623,2.623,0,0,1,.245-1.447c.169-.308.348-.425.463-.384.249.087.2.747.552,1.548a3.257,3.257,0,0,0,.338.6,2.419,2.419,0,0,0,.5.52.931.931,0,0,0,.48.194.014.014,0,0,0,0-.014c.005-.018-.025.04.044-.084a3.09,3.09,0,0,0,.155-.386,3.219,3.219,0,0,0,.1-.4,2.593,2.593,0,0,0,.023-.756,1.85,1.85,0,0,0-.183-.605,2.148,2.148,0,0,0-.14-.225c-.046-.058-.066-.09-.093-.118a.369.369,0,0,0-.327-.082,2.815,2.815,0,0,0-.47.117c-.291.094-.5.139-.595.044" transform="translate(-39.875 -111.572)" fill="#3a201e"/>
        <path id="Trazado_995803" data-name="Trazado 995803" d="M127.574,331.036c-.1-.062-.108-.325.171-.665a1.7,1.7,0,0,1,.651-.462,1.949,1.949,0,0,1,1.124-.108,2.361,2.361,0,0,1,1.213.675,3.1,3.1,0,0,1,.757,1.316,4.756,4.756,0,0,1,.164,1.523,4.932,4.932,0,0,1-.295,1.621,2.551,2.551,0,0,1-.577.894,1.967,1.967,0,0,1-1.095.54,2.234,2.234,0,0,1-1.87-.688,3.606,3.606,0,0,1-.751-1.225,4.738,4.738,0,0,1-.3-1.112,2.741,2.741,0,0,1,.233-1.687c.209-.362.432-.471.535-.412s.12.278.155.583a4.1,4.1,0,0,0,.327,1.193,5.645,5.645,0,0,0,.408.766,2.554,2.554,0,0,0,.546.668.577.577,0,0,0,.45.145.261.261,0,0,0,.087-.064.925.925,0,0,0,.155-.273,4.052,4.052,0,0,0,.207-1.059,3.985,3.985,0,0,0-.013-1.011,1.593,1.593,0,0,0-.7-1.155,1.405,1.405,0,0,0-1-.086c-.281.065-.473.157-.581.084" transform="translate(-42.611 -110.878)" fill="#3a201e"/>
        <path id="Trazado_995804" data-name="Trazado 995804" d="M125.741,357.207c-.087-.086-.052-.317.177-.656a1.981,1.981,0,0,1,.572-.545,1.75,1.75,0,0,1,1.2-.248,2.235,2.235,0,0,1,1.3.725,2.81,2.81,0,0,1,.688,1.475,4.929,4.929,0,0,1-.033,1.587c-.042.256-.084.481-.154.76a3.232,3.232,0,0,1-.375.915,2.192,2.192,0,0,1-.894.82,1.806,1.806,0,0,1-1.342.1,2.414,2.414,0,0,1-.894-.538,3.865,3.865,0,0,1-.544-.621,4.221,4.221,0,0,1-.749-2.543,3.829,3.829,0,0,1,.4-1.635c.185-.349.366-.5.484-.468.26.068.165.9.4,2a3.7,3.7,0,0,0,.8,1.624,1.556,1.556,0,0,0,.616.47c.029,0,0-.006.025-.015a.483.483,0,0,0,.15-.158,3.843,3.843,0,0,0,.321-1.036A4.239,4.239,0,0,0,128,358.16a1.451,1.451,0,0,0-.2-.728,1.117,1.117,0,0,0-.417-.418.751.751,0,0,0-.491-.073,2.639,2.639,0,0,0-.526.156c-.317.126-.54.2-.631.11" transform="translate(-41.924 -119.612)" fill="#3a201e"/>
        <path id="Trazado_995805" data-name="Trazado 995805" d="M134.608,355.262c-.021-.122.145-.281.5-.443a2.777,2.777,0,0,1,.706-.2,2.385,2.385,0,0,1,1.091.08,2.463,2.463,0,0,1,1.16.828,3.7,3.7,0,0,1,.653,1.361,4.63,4.63,0,0,1,.135,1.608,2.939,2.939,0,0,1-.824,1.813,2.321,2.321,0,0,1-2.123.665,2.483,2.483,0,0,1-1.561-1.2,4.154,4.154,0,0,1-.468-1.371,8.519,8.519,0,0,1-.131-1.116,3.266,3.266,0,0,1,.307-1.695c.21-.373.435-.493.539-.435s.12.282.151.605a6.211,6.211,0,0,0,.277,1.32c.086.278.2.593.32.931a3.307,3.307,0,0,0,.423.856.867.867,0,0,0,.511.356.627.627,0,0,0,.472-.213,1.3,1.3,0,0,0,.333-.737,3.635,3.635,0,0,0,0-1.036,2.759,2.759,0,0,0-.253-.851,1.364,1.364,0,0,0-.424-.5,3.075,3.075,0,0,0-1.192-.358c-.354-.059-.576-.135-.6-.261" transform="translate(-44.968 -119.224)" fill="#3a201e"/>
        <path id="Trazado_995806" data-name="Trazado 995806" d="M132.336,384.683c-.042-.088.009-.21.09-.416a1.946,1.946,0,0,1,.086-.182,2.236,2.236,0,0,1,.187-.278,1.155,1.155,0,0,1,.709-.451,1.14,1.14,0,0,1,.842.216,1.822,1.822,0,0,1,.382.367,2.592,2.592,0,0,1,.167.238l.111.182a4.772,4.772,0,0,1,.615,1.716,5.28,5.28,0,0,1-.092,2.127,5.041,5.041,0,0,1-.41,1.1,5.412,5.412,0,0,1-.309.531,2.126,2.126,0,0,1-.652.65l-.063.037a1.706,1.706,0,0,1-.786.2,2.1,2.1,0,0,1-.743-.136,2.7,2.7,0,0,1-.979-.658,4.088,4.088,0,0,1-.91-1.639,7.016,7.016,0,0,1-.268-2.785,5.15,5.15,0,0,1,.5-1.78c.207-.388.4-.562.516-.523.253.084.118.98.27,2.309a8.426,8.426,0,0,0,.562,2.216,2.763,2.763,0,0,0,.593.94,1.019,1.019,0,0,0,.338.215c.06.017.056.013.053.012h0c.009-.014-.031.044.062-.082.07-.112.149-.223.208-.342a3.914,3.914,0,0,0,.311-.731,4.447,4.447,0,0,0,.2-1.487,4.347,4.347,0,0,0-.236-1.3l-.044-.134-.009-.054a.524.524,0,0,0-.038-.114.332.332,0,0,0-.182-.179.4.4,0,0,0-.283.023,1.452,1.452,0,0,0-.14.059l-.186.1c-.25.131-.437.117-.475.032" transform="translate(-43.803 -128.843)" fill="#3a201e"/>
        <path id="Trazado_995807" data-name="Trazado 995807" d="M141.017,384.1c-.008-.12.207-.274.656-.3a2.71,2.71,0,0,1,1.8.617A3.626,3.626,0,0,1,144.79,387a3.244,3.244,0,0,1-.4,1.841,2.666,2.666,0,0,1-1.8,1.3,2.633,2.633,0,0,1-2.138-.617,3.268,3.268,0,0,1-1.01-1.575,4.922,4.922,0,0,1-.2-1.484,5.838,5.838,0,0,1,.139-1.239,3.413,3.413,0,0,1,.821-1.633c.317-.31.57-.378.656-.3.185.185-.234.874-.2,2.082a5.993,5.993,0,0,0,.362,2.013,1.735,1.735,0,0,0,.549.741.924.924,0,0,0,.69.21.975.975,0,0,0,.593-.424,1.726,1.726,0,0,0,.255-.873,2.679,2.679,0,0,0-.536-1.7,3.2,3.2,0,0,0-1.033-.849c-.3-.167-.517-.263-.523-.393" transform="translate(-46.817 -128.868)" fill="#3a201e"/>
        <path id="Trazado_995808" data-name="Trazado 995808" d="M139.614,409.712c-.069-.064-.054-.229.082-.484a1.651,1.651,0,0,1,.347-.436,1.368,1.368,0,0,1,.834-.347,1.731,1.731,0,0,1,.884.225,2.778,2.778,0,0,1,.719.564,4.75,4.75,0,0,1,.955,1.687,6.033,6.033,0,0,1,.319,2.17,6.215,6.215,0,0,1-.156,1.187,5.549,5.549,0,0,1-.433,1.219,2.214,2.214,0,0,1-.485.632,1.625,1.625,0,0,1-.756.376,1.9,1.9,0,0,1-.838-.03,2.772,2.772,0,0,1-.567-.216,3.879,3.879,0,0,1-1.5-1.354,4.411,4.411,0,0,1-.643-1.612,5.145,5.145,0,0,1-.059-1.432,5.636,5.636,0,0,1,.222-1.122,2.4,2.4,0,0,1,.429-.832,1.011,1.011,0,0,1,.523-.352c.145-.032.232.007.256.06.051.123-.1.3-.157.635a3.374,3.374,0,0,0-.044.657,9.363,9.363,0,0,0,.061.951,4.041,4.041,0,0,0,.783,2.074,2.422,2.422,0,0,0,.9.714,1.028,1.028,0,0,0,.218.076l0-.005v0c0-.009-.017.029.035-.064a4.61,4.61,0,0,0,.29-.8,5.173,5.173,0,0,0,.149-.858,5.344,5.344,0,0,0-.1-1.623,4.312,4.312,0,0,0-.473-1.284,1.9,1.9,0,0,0-.318-.4,1.047,1.047,0,0,0-.271-.2.552.552,0,0,0-.363,0,3.086,3.086,0,0,0-.386.15c-.23.1-.392.153-.463.087" transform="translate(-46.5 -137.333)" fill="#3a201e"/>
        <path id="Trazado_995809" data-name="Trazado 995809" d="M148.254,408.678a.185.185,0,0,1-.061-.168.857.857,0,0,1,.092-.337,1.449,1.449,0,0,1,.429-.508,1.024,1.024,0,0,1,.889-.163,1.788,1.788,0,0,1,.74.505c.165.15.333.317.5.5a8.579,8.579,0,0,1,1,1.326,4.488,4.488,0,0,1,.686,2.018,3.276,3.276,0,0,1-.165,1.276,2.7,2.7,0,0,1-.819,1.206,2.538,2.538,0,0,1-1.127.543,2.23,2.23,0,0,1-1.293-.123,2.793,2.793,0,0,1-1.447-1.52,7.185,7.185,0,0,1-.4-1.45,9.7,9.7,0,0,1-.165-1.243,4.984,4.984,0,0,1,.179-1.839c.141-.422.313-.622.433-.6.256.059.261.925.661,2.219q.146.489.354,1.065a8.225,8.225,0,0,0,.461,1.119,1.194,1.194,0,0,0,.592.585.643.643,0,0,0,.59-.163.954.954,0,0,0,.279-.408,1.687,1.687,0,0,0,.1-.6,3.359,3.359,0,0,0-.344-1.332,12.355,12.355,0,0,0-.668-1.253l-.335-.53a1.046,1.046,0,0,0-.129-.234.335.335,0,0,0-.292-.1,1.1,1.1,0,0,0-.29.079,2.487,2.487,0,0,1-.272.123.2.2,0,0,1-.177,0" transform="translate(-49.459 -137.004)" fill="#3a201e"/>
        <path id="Trazado_995810" data-name="Trazado 995810" d="M208.339,321.924l.221.776-1.458.415-.2-.7a4.662,4.662,0,0,1-2.53-.085l.587-1.789a3.381,3.381,0,0,0,1.953.183c.341-.1.717-.272.634-.561-.071-.249-.277-.268-.481-.277-.089,0-.167,0-.265.008h-1.176a2,2,0,0,1-2.1-1.437,2.427,2.427,0,0,1,1.436-2.848l-.194-.683,1.458-.416.192.672a4.242,4.242,0,0,1,1.949.127l-.723,1.738a2.565,2.565,0,0,0-1.508-.074c-.425.121-.667.291-.591.56.072.248.327.242.556.222.471-.035.916,0,1.4-.006a2.013,2.013,0,0,1,2.2,1.387,2.344,2.344,0,0,1-1.352,2.79" transform="translate(-68.403 -105.748)" fill="#3a201e"/>
        <path id="Trazado_995811" data-name="Trazado 995811" d="M216.627,345.068l.221.776-1.458.415-.2-.7a4.662,4.662,0,0,1-2.53-.085l.587-1.789a3.376,3.376,0,0,0,1.953.182c.341-.1.717-.271.634-.56-.071-.249-.277-.268-.481-.277-.089,0-.167,0-.266.008h-1.176a2,2,0,0,1-2.1-1.438,2.426,2.426,0,0,1,1.436-2.847l-.194-.683,1.458-.416.192.672a4.242,4.242,0,0,1,1.949.127l-.724,1.738a2.566,2.566,0,0,0-1.508-.074c-.425.121-.667.291-.591.56.072.248.327.242.556.222.471-.034.916,0,1.4-.006a2.013,2.013,0,0,1,2.2,1.387,2.344,2.344,0,0,1-1.352,2.79" transform="translate(-71.19 -113.53)" fill="#3a201e"/>
        <path id="Trazado_995812" data-name="Trazado 995812" d="M227.123,371.264l.221.776-1.458.416-.2-.7a4.662,4.662,0,0,1-2.53-.085l.587-1.789a3.382,3.382,0,0,0,1.953.183c.341-.1.717-.272.634-.561-.071-.249-.277-.267-.481-.277-.089,0-.167,0-.265.008h-1.176a2,2,0,0,1-2.1-1.437,2.427,2.427,0,0,1,1.436-2.848l-.194-.683,1.458-.415.192.672a4.242,4.242,0,0,1,1.949.127l-.723,1.738a2.566,2.566,0,0,0-1.508-.074c-.425.121-.667.291-.591.56.071.248.327.242.556.222.471-.035.916,0,1.4-.006a2.013,2.013,0,0,1,2.2,1.387,2.344,2.344,0,0,1-1.352,2.79" transform="translate(-74.719 -122.338)" fill="#3a201e"/>
        <path id="Trazado_995813" data-name="Trazado 995813" d="M238.04,397.989l.221.777-1.458.416-.2-.7a4.656,4.656,0,0,1-2.53-.084l.587-1.789a3.382,3.382,0,0,0,1.953.182c.341-.1.717-.272.634-.56-.071-.249-.277-.268-.481-.277-.089,0-.167,0-.266.007h-1.176a2,2,0,0,1-2.1-1.437,2.426,2.426,0,0,1,1.436-2.847l-.194-.683,1.458-.416.192.672a4.241,4.241,0,0,1,1.949.127l-.724,1.738a2.565,2.565,0,0,0-1.508-.074c-.425.121-.667.291-.591.56.072.248.327.242.556.222.471-.035.916,0,1.4-.007a2.013,2.013,0,0,1,2.2,1.387,2.343,2.343,0,0,1-1.352,2.79" transform="translate(-78.39 -131.324)" fill="#3a201e"/>
        <path id="Trazado_995814" data-name="Trazado 995814" d="M111.492,339.286l.132.8-1.5.249-.119-.722a4.664,4.664,0,0,1-2.5-.368l.784-1.711a3.389,3.389,0,0,0,1.92.4c.351-.058.743-.189.694-.486-.042-.255-.245-.3-.447-.329-.088-.008-.166-.016-.265-.022l-1.168-.133A2,2,0,0,1,107.1,335.3a2.424,2.424,0,0,1,1.748-2.667l-.117-.7,1.5-.249.115.69a4.246,4.246,0,0,1,1.922.346l-.915,1.645a2.566,2.566,0,0,0-1.49-.243c-.435.072-.7.213-.65.491.042.254.3.277.527.283.472.019.911.1,1.388.151a2.014,2.014,0,0,1,2.026,1.627,2.342,2.342,0,0,1-1.658,2.619" transform="translate(-36 -111.522)" fill="#3a201e"/>
        <path id="Trazado_995815" data-name="Trazado 995815" d="M117.119,363.216l.132.8-1.5.249-.119-.722a4.658,4.658,0,0,1-2.5-.368l.784-1.711a3.389,3.389,0,0,0,1.92.4c.351-.058.744-.189.694-.486-.042-.255-.245-.3-.447-.329-.088-.009-.166-.017-.265-.023l-1.168-.133a2,2,0,0,1-1.923-1.665,2.424,2.424,0,0,1,1.748-2.667l-.117-.7,1.5-.249.115.69a4.246,4.246,0,0,1,1.922.346l-.915,1.645a2.565,2.565,0,0,0-1.49-.243c-.435.072-.7.213-.649.49.042.254.3.277.526.283.472.019.911.1,1.388.151a2.013,2.013,0,0,1,2.026,1.626,2.342,2.342,0,0,1-1.658,2.619" transform="translate(-37.892 -119.568)" fill="#3a201e"/>
        <path id="Trazado_995816" data-name="Trazado 995816" d="M124.6,390.428l.132.8-1.5.249-.119-.722a4.664,4.664,0,0,1-2.5-.368l.784-1.711a3.389,3.389,0,0,0,1.92.4c.351-.058.743-.189.694-.486-.042-.255-.245-.3-.447-.329-.088-.008-.166-.016-.265-.022l-1.168-.133a2,2,0,0,1-1.923-1.665,2.424,2.424,0,0,1,1.748-2.667l-.117-.7,1.5-.249.115.69a4.246,4.246,0,0,1,1.922.346l-.915,1.645a2.566,2.566,0,0,0-1.49-.243c-.435.072-.7.213-.65.491.042.254.3.277.527.283.472.019.911.1,1.388.151a2.014,2.014,0,0,1,2.026,1.627,2.342,2.342,0,0,1-1.658,2.619" transform="translate(-40.407 -128.718)" fill="#3a201e"/>
        <path id="Trazado_995817" data-name="Trazado 995817" d="M132.434,418.213l.132.8-1.5.249-.119-.722a4.67,4.67,0,0,1-2.5-.368l.784-1.712a3.384,3.384,0,0,0,1.92.4c.351-.058.743-.189.694-.486-.042-.255-.245-.3-.447-.329-.088-.008-.166-.016-.265-.022l-1.168-.133a2,2,0,0,1-1.923-1.665,2.424,2.424,0,0,1,1.748-2.667l-.117-.7,1.5-.249.115.69a4.247,4.247,0,0,1,1.922.346l-.915,1.646a2.565,2.565,0,0,0-1.49-.243c-.435.072-.7.213-.65.491.042.254.3.277.527.283.472.019.91.1,1.388.151a2.014,2.014,0,0,1,2.026,1.627,2.342,2.342,0,0,1-1.658,2.619" transform="translate(-43.042 -138.06)" fill="#3a201e"/>
        <path id="Trazado_995818" data-name="Trazado 995818" d="M215.393,312.744c-.029-.111.192-.324.7-.352a2.2,2.2,0,0,1,.9.164,3.059,3.059,0,0,1,1,.666,5.365,5.365,0,0,1,.84,1.093,8.743,8.743,0,0,1,.676,1.36,4.082,4.082,0,0,1,.276,1.9,2.863,2.863,0,0,1-1.185,2.012,2.3,2.3,0,0,1-1.282.431,2.229,2.229,0,0,1-1.271-.378,3.838,3.838,0,0,1-1.236-1.5,6.457,6.457,0,0,1-.765-2.788,3.528,3.528,0,0,1,.456-1.928c.26-.4.5-.533.6-.472.232.139-.111.98.224,2.247a7.148,7.148,0,0,0,.943,2.1,2.517,2.517,0,0,0,.736.827.447.447,0,0,0,.547-.038,1.172,1.172,0,0,0,.459-.749,2.708,2.708,0,0,0-.1-1.136,10.889,10.889,0,0,0-.425-1.2,5.876,5.876,0,0,0-.474-.944,2.685,2.685,0,0,0-1.041-.969c-.314-.167-.553-.218-.579-.348" transform="translate(-71.97 -105.037)" fill="#3a201e"/>
        <path id="Trazado_995819" data-name="Trazado 995819" d="M223.635,310.2c-.053-.03-.078-.12-.042-.267a1.179,1.179,0,0,1,.348-.552,2.047,2.047,0,0,1,.93-.494,2.436,2.436,0,0,1,1.439.108,3.3,3.3,0,0,1,1.369,1.021,4.6,4.6,0,0,1,.833,1.683,8.7,8.7,0,0,1,.282,1.9,4.58,4.58,0,0,1-.42,2.252,2.862,2.862,0,0,1-.9,1.044,1.946,1.946,0,0,1-.816.335,1.7,1.7,0,0,1-.885-.111,3.529,3.529,0,0,1-.989-.677,6.789,6.789,0,0,1-.67-.713,6.335,6.335,0,0,1-1.316-3,4.849,4.849,0,0,1,.129-2.157c.153-.487.353-.713.465-.686.133.031.171.3.242.753a8.892,8.892,0,0,0,.419,1.788,6.332,6.332,0,0,0,1.334,2.2,6.071,6.071,0,0,0,.534.491,2.515,2.515,0,0,0,.473.32c.02-.011-.017.007.036-.031a1.159,1.159,0,0,0,.315-.392,3.185,3.185,0,0,0,.256-1.386,8.984,8.984,0,0,0-.13-1.546,2.808,2.808,0,0,0-1.116-1.928,1.588,1.588,0,0,0-.765-.263,1.941,1.941,0,0,0-.666.076c-.371.11-.576.29-.693.224" transform="translate(-74.893 -103.838)" fill="#3a201e"/>
        <path id="Trazado_995820" data-name="Trazado 995820" d="M234.471,363.3c-.066-.09.129-.425.751-.668a3.2,3.2,0,0,1,2.731.345,4.4,4.4,0,0,1,1.38,1.379,6,6,0,0,1,.813,2.025,5.236,5.236,0,0,1-.056,2.5,3.683,3.683,0,0,1-1.8,2.275,3.268,3.268,0,0,1-1.526.392,2.864,2.864,0,0,1-1.534-.448,4.356,4.356,0,0,1-1.589-2.043,7.8,7.8,0,0,1-.552-3.854,6.361,6.361,0,0,1,.767-2.455c.313-.522.578-.745.684-.69s.071.388-.017.933a11,11,0,0,0-.145,2.261,7.836,7.836,0,0,0,.793,3.106,2.908,2.908,0,0,0,1,1.219,1.105,1.105,0,0,0,.587.154,1.544,1.544,0,0,0,.677-.187,1.964,1.964,0,0,0,.946-1.181,3.857,3.857,0,0,0,.112-1.687,4.246,4.246,0,0,0-1.285-2.644,2.961,2.961,0,0,0-1.848-.7c-.5-.012-.815.084-.887-.03" transform="translate(-78.357 -121.734)" fill="#3a201e"/>
        <path id="Trazado_995821" data-name="Trazado 995821" d="M242.169,362.29c-.062,0-.124-.066-.169-.22a1.144,1.144,0,0,1,.08-.682,2.018,2.018,0,0,1,.686-.842,2.823,2.823,0,0,1,1.332-.532,4.051,4.051,0,0,1,3.364,1.238,3.922,3.922,0,0,1,1.043,2,3.211,3.211,0,0,1-.543,2.529,2.877,2.877,0,0,1-1.087.894,2.6,2.6,0,0,1-1.4.226,3.21,3.21,0,0,1-2.08-1.188,4.539,4.539,0,0,1-.837-1.747,8.35,8.35,0,0,1-.233-1.513,4.227,4.227,0,0,1,.369-2.228c.261-.491.547-.65.643-.585.113.071.053.345.038.787a6.126,6.126,0,0,0,.226,1.835,5.584,5.584,0,0,0,1.066,2.352,1.613,1.613,0,0,0,.989.509.963.963,0,0,0,.846-.432,1.5,1.5,0,0,0,.244-1.135,2.409,2.409,0,0,0-.528-1.175,2.986,2.986,0,0,0-2.051-1.077,2.15,2.15,0,0,0-.887.126,1.848,1.848,0,0,0-.6.34c-.29.247-.376.518-.51.519" transform="translate(-81.362 -120.919)" fill="#3a201e"/>
        <path id="Trazado_995822" data-name="Trazado 995822" d="M244.411,389.519c-.058,0-.132-.074-.152-.25a1.01,1.01,0,0,1,.254-.723,1.755,1.755,0,0,1,1.064-.589,1.862,1.862,0,0,1,.815.047,2.576,2.576,0,0,1,.773.366,5.01,5.01,0,0,1,1.206,1.267,9.732,9.732,0,0,1,.955,1.622,5.705,5.705,0,0,1,.528,2.18,4.155,4.155,0,0,1-.7,2.5,2.524,2.524,0,0,1-.576.59,2.085,2.085,0,0,1-.844.356,2.6,2.6,0,0,1-1.513-.219,3.848,3.848,0,0,1-1.041-.708,4.439,4.439,0,0,1-.735-.874,5.813,5.813,0,0,1-.774-1.835,8.021,8.021,0,0,1-.217-1.632,8.7,8.7,0,0,1,.056-1.33,3.581,3.581,0,0,1,.27-1.022c.259-.553.587-.72.674-.645.106.08.019.358.015.818a10.221,10.221,0,0,0,.267,2.028,6.688,6.688,0,0,0,1.087,2.652,3.047,3.047,0,0,0,.512.533,2.287,2.287,0,0,0,.594.372.883.883,0,0,0,.475.076c.08-.022.127-.04.262-.217a2.561,2.561,0,0,0,.4-1.421,4.47,4.47,0,0,0-.3-1.563,10.8,10.8,0,0,0-.68-1.455,4.615,4.615,0,0,0-.726-1.061,1.635,1.635,0,0,0-.373-.289.883.883,0,0,0-.346-.119,1.245,1.245,0,0,0-.663.1c-.348.155-.439.437-.572.44" transform="translate(-81.856 -130.437)" fill="#ca922c"/>
        <path id="Trazado_995823" data-name="Trazado 995823" d="M253.267,388.685c-.11-.054-.11-.364.057-.893a3.482,3.482,0,0,1,.471-.942,2.521,2.521,0,0,1,1.26-.949,2.73,2.73,0,0,1,1.982.166,3.515,3.515,0,0,1,1.6,1.531,4.906,4.906,0,0,1,.518,2.245,7.967,7.967,0,0,1-.074,1.136,9.58,9.58,0,0,1-.218,1.144,2.336,2.336,0,0,1-2.372,1.938,2.422,2.422,0,0,1-1.322-.688,6.08,6.08,0,0,1-.737-.8,6.158,6.158,0,0,1-1.288-3.4,4.673,4.673,0,0,1,.119-1.415,1.854,1.854,0,0,1,.626-1.015,1.066,1.066,0,0,1,.713-.246c.177.018.252.088.254.148,0,.129-.272.231-.449.584a1.445,1.445,0,0,0-.135.687,5.253,5.253,0,0,0,.152,1.083,5.723,5.723,0,0,0,1.3,2.5,5.065,5.065,0,0,0,.58.549.842.842,0,0,0,.384.232.537.537,0,0,0,.165-.117,1.26,1.26,0,0,0,.246-.525c.07-.261.133-.613.18-.916a7.1,7.1,0,0,0,.085-.894,3.541,3.541,0,0,0-.242-1.5,2.125,2.125,0,0,0-.793-.929,1.511,1.511,0,0,0-.958-.256,2.552,2.552,0,0,0-1.431.99c-.335.38-.56.6-.676.543" transform="translate(-85.113 -129.715)" fill="#ca922c"/>
        <path id="Trazado_995824" data-name="Trazado 995824" d="M223.61,335.866c-.063-.094.1-.38.618-.509a1.937,1.937,0,0,1,.944.034,2.909,2.909,0,0,1,1.079.594,6.583,6.583,0,0,1,.924.99,6.227,6.227,0,0,1,.82,1.355,3.886,3.886,0,0,1,.326,1.93,3.2,3.2,0,0,1-1.006,2.026,2.54,2.54,0,0,1-1.138.6,2.573,2.573,0,0,1-1.23-.025,3.158,3.158,0,0,1-1.72-1.177,4,4,0,0,1-.682-1.577,6.192,6.192,0,0,1-.116-1.348c.039-1.594.446-2.505.682-2.47.26.032.323.966.6,2.358a4.261,4.261,0,0,0,.824,1.986,1.611,1.611,0,0,0,.828.491.782.782,0,0,0,.727-.193,1.56,1.56,0,0,0,.451-.89,2.48,2.48,0,0,0-.123-1.107,8.316,8.316,0,0,0-1.09-2.037,2.122,2.122,0,0,0-1.095-.827c-.323-.1-.566-.086-.629-.2" transform="translate(-74.788 -112.745)" fill="#3a201e"/>
        <path id="Trazado_995825" data-name="Trazado 995825" d="M232.183,333.185c-.056-.021-.1-.106-.072-.26a.982.982,0,0,1,.363-.552,1.607,1.607,0,0,1,1.01-.343,2.9,2.9,0,0,1,1.28.327,5.239,5.239,0,0,1,2.334,2.183,4.362,4.362,0,0,1,.525,1.963,3.9,3.9,0,0,1-.593,2.191,2.888,2.888,0,0,1-.921.916,2.217,2.217,0,0,1-1.4.316,3.253,3.253,0,0,1-1.924-1.071,7.212,7.212,0,0,1-1.6-2.628,5.423,5.423,0,0,1-.312-2.009c.033-.481.145-.739.266-.747.27-.021.48.956,1.223,2.228a8.089,8.089,0,0,0,1.589,1.948,1.781,1.781,0,0,0,.924.5.441.441,0,0,0,.276-.083,1.211,1.211,0,0,0,.337-.358,2.314,2.314,0,0,0,.339-1.19,2.975,2.975,0,0,0-.245-1.23,4.765,4.765,0,0,0-1.488-1.82,1.605,1.605,0,0,0-1.289-.467c-.331.05-.508.23-.63.187" transform="translate(-77.628 -111.641)" fill="#3a201e"/>
        <path id="Trazado_995826" data-name="Trazado 995826" d="M60.851,342.964c-.064-.109.2-.392.737-.816a11.036,11.036,0,0,1,1.012-.72c.409-.256.875-.552,1.407-.847s1.122-.609,1.774-.906,1.347-.621,2.1-.9c.746-.307,1.549-.573,2.38-.854.838-.255,1.706-.521,2.607-.739a55.624,55.624,0,0,1,9.322-1.483c2.4-.175,3.895-.145,3.931.1s-1.405.674-3.746,1.175-5.572,1.092-9.059,1.975c-.874.212-1.716.457-2.533.68-.808.25-1.6.471-2.33.725-.743.231-1.435.491-2.09.72s-1.25.478-1.808.677l-1.488.587-1.137.435c-.633.227-1.017.3-1.081.194" transform="translate(-20.457 -112.835)" fill="#3a201e"/>
        <path id="Trazado_995827" data-name="Trazado 995827" d="M63.318,348.177c-.094-.226,1.171-1.015,3.357-1.991a59.637,59.637,0,0,1,18.04-4.614,23.553,23.553,0,0,1,2.836-.1c.674.029,1.051.1,1.065.23s-.337.288-.979.475-1.575.409-2.726.667c-2.3.514-5.473,1.2-8.944,2.09s-6.582,1.805-8.849,2.46-3.7,1.018-3.8.778" transform="translate(-21.288 -114.812)" fill="#3a201e"/>
        <path id="Trazado_995828" data-name="Trazado 995828" d="M66.8,368.39c-.1-.225,1.189-1.036,3.408-2.052a58.734,58.734,0,0,1,18.377-4.806c2.432-.2,3.949-.123,3.976.12.029.258-1.432.633-3.781,1.156s-5.584,1.224-9.117,2.146-6.695,1.9-9,2.593-3.762,1.082-3.863.843" transform="translate(-22.46 -121.521)" fill="#3a201e"/>
        <path id="Trazado_995829" data-name="Trazado 995829" d="M94.592,367.6c.027.257-1.418.623-3.746,1.14s-5.542,1.193-9.072,2.013-6.7,1.654-8.981,2.3c-1.147.309-2.071.576-2.725.731s-1.042.194-1.093.079.24-.37.82-.735a19.33,19.33,0,0,1,2.569-1.292,55.07,55.07,0,0,1,8.994-2.855,65.514,65.514,0,0,1,9.3-1.512c2.407-.195,3.913-.108,3.937.137" transform="translate(-23.19 -123.519)" fill="#3a201e"/>
        <path id="Trazado_995830" data-name="Trazado 995830" d="M102.949,388.16c.023.254-1.389.6-3.671.986s-5.43.845-8.856,1.5c-.853.177-1.689.336-2.486.524-.8.167-1.562.378-2.295.551-.718.213-1.416.374-2.046.587l-.924.283-.84.293c-.542.174-1.018.362-1.442.524s-.8.288-1.093.41c-.6.228-.976.309-1.044.2s.177-.39.69-.818a7.367,7.367,0,0,1,.986-.7,12.913,12.913,0,0,1,1.392-.8l.834-.418.927-.4c.639-.287,1.346-.51,2.084-.777.747-.224,1.528-.481,2.352-.676.82-.218,1.677-.4,2.556-.578a58.151,58.151,0,0,1,9.076-.99c2.33-.062,3.776.05,3.8.3" transform="translate(-26.308 -130.407)" fill="#3a201e"/>
        <path id="Trazado_995831" data-name="Trazado 995831" d="M105.565,393.387c.007.125-.36.272-1.022.429l-1.2.266-1.586.329c-.587.12-1.227.256-1.912.416-.687.143-1.414.335-2.183.512-.765.2-1.571.392-2.4.628-.832.219-1.686.474-2.564.724-3.5,1.04-6.646,2.111-8.946,2.85s-3.76,1.13-3.861.894,1.185-1.039,3.384-2.094a62.1,62.1,0,0,1,8.906-3.4c.9-.256,1.776-.5,2.636-.7.854-.218,1.692-.379,2.486-.54.8-.137,1.559-.277,2.277-.36.715-.1,1.385-.163,2-.2s1.169-.062,1.657-.066a10.759,10.759,0,0,1,1.254.041c.689.06,1.069.153,1.076.279" transform="translate(-26.86 -132.162)" fill="#3a201e"/>
        <path id="Trazado_995832" data-name="Trazado 995832" d="M81.984,421.266c-.063-.109.209-.4.761-.823a11.049,11.049,0,0,1,1.041-.724c.421-.256.891-.57,1.445-.852a32.285,32.285,0,0,1,3.975-1.815c.772-.284,1.587-.58,2.447-.829.856-.267,1.755-.493,2.677-.717a51.948,51.948,0,0,1,9.573-1.229c2.462-.078,3.988.048,4.007.293s-1.473.586-3.877.991-5.716.907-9.293,1.723c-.891.216-1.762.422-2.593.656-.836.216-1.63.469-2.389.7-1.514.477-2.859.969-3.987,1.4-.572.2-1.069.425-1.524.589l-1.163.438c-.647.231-1.037.309-1.1.2" transform="translate(-27.563 -139.287)" fill="#3a201e"/>
        <path id="Trazado_995833" data-name="Trazado 995833" d="M110.659,421.977c.027.257-1.45.627-3.829,1.138s-5.663,1.18-9.262,2.019-6.823,1.714-9.155,2.379c-1.168.327-2.117.591-2.784.752s-1.064.194-1.114.079.252-.371.845-.736a21.262,21.262,0,0,1,2.621-1.311,55.441,55.441,0,0,1,9.171-2.94,64.9,64.9,0,0,1,9.493-1.519c2.457-.188,3.99-.1,4.015.139" transform="translate(-28.415 -141.802)" fill="#3a201e"/>
        <path id="Trazado_995834" data-name="Trazado 995834" d="M205.307,373.409c0,.126-.346.26-.96.395-.307.075-.681.115-1.112.226l-1.46.3-1.752.425c-.623.186-1.294.346-1.99.564s-1.429.43-2.176.7c-.754.247-1.523.539-2.312.834s-1.552.608-2.285.917-1.439.611-2.1.918c-.674.289-1.292.6-1.888.872-.579.294-1.137.544-1.625.8-1,.491-1.782.917-2.34,1.2-.288.132-.49.252-.658.307s-.271.07-.315.023-.018-.147.073-.3a3.155,3.155,0,0,1,.471-.6,14.079,14.079,0,0,1,2.1-1.736c.465-.34,1-.662,1.567-1.026.581-.334,1.2-.711,1.87-1.051.665-.358,1.379-.7,2.127-1.046s1.535-.669,2.349-.984,1.62-.6,2.412-.83c.783-.259,1.561-.441,2.3-.627s1.454-.293,2.115-.42c.671-.094,1.3-.159,1.87-.219.576-.033,1.1-.04,1.555-.044a7.79,7.79,0,0,1,1.174.081c.643.082.992.189.992.315" transform="translate(-61.3 -125.42)" fill="#3a201e"/>
        <path id="Trazado_995835" data-name="Trazado 995835" d="M208.414,379.918c.021.124-.3.307-.888.528l-1.071.386-1.414.489c-2.1.716-4.95,1.8-8.1,3.071s-6.014,2.438-8.145,3.166-3.507,1.037-3.6.806,1.1-.96,3.091-1.993,4.78-2.379,7.971-3.673a46.322,46.322,0,0,1,8.447-2.625c.557-.114,1.069-.185,1.519-.237a9.11,9.11,0,0,1,1.162-.088c.643-.01,1,.044,1.024.169" transform="translate(-62.269 -127.685)" fill="#3a201e"/>
        <path id="Trazado_995836" data-name="Trazado 995836" d="M186.874,320.61c0,.126-.323.256-.9.384-.287.07-.639.114-1.044.2s-.866.171-1.373.256l-1.652.337-1.882.431c-.656.184-1.352.334-2.061.548-.712.2-1.447.413-2.194.654a69.716,69.716,0,0,0-7.509,2.858c-.471.209-.893.4-1.259.582s-.68.333-.948.451-.459.225-.619.272-.259.058-.3.011-.022-.143.061-.289a2.762,2.762,0,0,1,.439-.566,7.948,7.948,0,0,1,.824-.741,13.483,13.483,0,0,1,1.182-.849,31.6,31.6,0,0,1,7.58-3.468c.776-.252,1.544-.463,2.291-.645.743-.2,1.478-.321,2.17-.464.7-.109,1.364-.211,1.99-.28.629-.052,1.212-.1,1.746-.124s1.022,0,1.446.008a9.442,9.442,0,0,1,1.09.107c.6.091.922.2.922.327" transform="translate(-55.516 -107.651)" fill="#3a201e"/>
        <path id="Trazado_995837" data-name="Trazado 995837" d="M194.856,345.246c0,.126-.344.259-.954.391-.305.074-.678.113-1.107.218s-.917.185-1.454.286l-1.748.392c-.623.169-1.292.319-1.989.514s-1.43.39-2.178.64c-.756.225-1.529.489-2.32.759s-1.557.556-2.3.836-1.448.558-2.116.841c-.677.265-1.3.556-1.9.8-.583.272-1.143.5-1.634.743-1,.457-1.788.859-2.344,1.125-.289.124-.486.242-.655.3s-.27.066-.313.02-.018-.147.073-.3a2.981,2.981,0,0,1,.476-.59,13.034,13.034,0,0,1,2.131-1.677c.471-.325,1.011-.629,1.587-.971.587-.314,1.209-.667,1.888-.984.672-.335,1.392-.651,2.143-.968s1.542-.615,2.36-.9,1.624-.54,2.414-.751c.783-.234,1.558-.393,2.29-.56s1.446-.257,2.1-.367c.667-.076,1.289-.134,1.855-.182.571-.022,1.089-.025,1.541-.024a8.339,8.339,0,0,1,1.162.09c.637.086.982.193.982.319" transform="translate(-57.775 -115.946)" fill="#3a201e"/>
        <path id="Trazado_995838" data-name="Trazado 995838" d="M190.567,326.442c.021.124-.287.3-.856.516s-1.394.482-2.411.805c-2.037.641-4.829,1.557-7.9,2.64s-5.864,2.092-7.923,2.739-3.379.939-3.473.7,1.054-.945,2.992-1.9a73.523,73.523,0,0,1,7.8-3.262A47.774,47.774,0,0,1,187,326.508a17.106,17.106,0,0,1,2.578-.248c.617,0,.964.058.985.182" transform="translate(-56.486 -109.7)" fill="#3a201e"/>
        <path id="Trazado_995839" data-name="Trazado 995839" d="M196.931,350.761c.078.242-1.158.872-3.2,1.732s-4.875,1.963-7.984,3.211-5.886,2.444-7.892,3.335c-1.006.441-1.825.8-2.4,1.021s-.938.3-1,.192.163-.386.641-.8a17.9,17.9,0,0,1,2.163-1.55,49.919,49.919,0,0,1,7.815-3.888,68.8,68.8,0,0,1,8.254-2.742c2.157-.552,3.533-.747,3.609-.509" transform="translate(-58.652 -117.905)" fill="#3a201e"/>
        <path id="Trazado_995840" data-name="Trazado 995840" d="M191.189,412.475c-.1-.225,1.044-1.03,3.016-2.149a59.909,59.909,0,0,1,8.036-3.739c.815-.3,1.616-.586,2.4-.835s1.543-.478,2.281-.654c.731-.2,1.438-.344,2.1-.466.659-.142,1.294-.2,1.864-.273a13.966,13.966,0,0,1,1.557-.09,6.407,6.407,0,0,1,1.18.053c.648.079,1,.183,1,.309s-.347.263-.956.4c-.305.062-.676.137-1.1.252s-.915.188-1.448.347-1.12.276-1.742.475c-.624.181-1.289.373-1.983.609-.7.214-1.424.475-2.178.735s-1.529.553-2.324.848c-3.176,1.2-6.03,2.39-8.13,3.2s-3.46,1.215-3.566.98" transform="translate(-64.282 -135.927)" fill="#3a201e"/>
        <path id="Trazado_995841" data-name="Trazado 995841" d="M188.183,405.221c-.063-.109.185-.384.695-.791a17.915,17.915,0,0,1,2.3-1.491,50.349,50.349,0,0,1,8.235-3.592,62.4,62.4,0,0,1,8.655-2.319c2.259-.414,3.692-.484,3.744-.243s-1.27.765-3.42,1.493-5.127,1.68-8.387,2.8-6.174,2.206-8.273,3.032c-1.055.4-1.906.741-2.512.949s-.972.276-1.035.167" transform="translate(-63.271 -133.367)" fill="#3a201e"/>
        <path id="Trazado_995842" data-name="Trazado 995842" d="M57.165,408.9l-17.976-74s36.485-15.658,67.552-10.553c-11.969-7.312-54.966-.964-72.895,10.553l17.928,78.016s41.655-7.6,78-15.556c0,0-24.328-2.341-72.608,11.536" transform="translate(-11.38 -108.008)" fill="#3a201e"/>
        <path id="Trazado_995843" data-name="Trazado 995843" d="M312.146,265.522c4.707,18.474,17.737,42.457,20.387,41.99,18.771-3.312,51.774-14.631,51.618-20.445-4.581-8.786-39.622-44.251-39.622-44.251-17.726-14.707-37.765,1.582-32.383,22.705" transform="translate(-104.655 -79.744)" fill="#a9e0ff"/>
        <path id="Trazado_995844" data-name="Trazado 995844" d="M301.961,333.953l1.613,2.548s-33.944,7.735-39.607,6.709-19.055-9.021-23.261-9.256-7.993,5.921-7.993,5.921-14.787,5.436-18.656,7.864c-4.794,3.01-13.685,8.518-11.119,11.34s10.156-1.639,13.234-1.639,8.754.165,8.754.165,3.295,26.872,13.876,28.412,29.232-7.731,35.389-7.218,75.939,7.39,85.486-10.841c6.5-12.41-17.238-47.208-17.238-47.208-11.392,5.434-24.39,9.743-40.478,13.2" transform="translate(-68.082 -107.847)" fill="#844c3d"/>
        <path id="Trazado_995845" data-name="Trazado 995845" d="M238.369,392.252q-.008.055-.609-.025a3.029,3.029,0,0,1-.731-.161,5.3,5.3,0,0,1-.97-.37l-.562-.278c-.19-.112-.378-.245-.582-.378a10.789,10.789,0,0,1-1.245-.985,17.159,17.159,0,0,1-2.493-3.025,39.257,39.257,0,0,1-4.338-9.631c-.623-1.951-1.2-4.056-1.716-6.3-.262-1.122-.5-2.281-.729-3.474q-.161-.9-.326-1.814l-.205-1.259-5-.052q-1.445-.017-2.929-.036a9.039,9.039,0,0,0-2.711.554,62.043,62.043,0,0,1-6.062,1.841,7.944,7.944,0,0,1-3.6.045,3.438,3.438,0,0,1-1.8-1.14,2.528,2.528,0,0,1-.531-1.11,2.8,2.8,0,0,1,.044-1.187,5.191,5.191,0,0,1,.891-1.787,12.232,12.232,0,0,1,1.191-1.375,27.31,27.31,0,0,1,2.676-2.3c1.863-1.427,3.837-2.717,5.844-3.992.512-.319.984-.635,1.53-.952s1.095-.6,1.643-.885q1.649-.807,3.332-1.533c2.244-.976,4.531-1.9,6.848-2.814l3.376-1.306,3.066-1.152.446-.638c.212-.29.426-.576.652-.852a18.8,18.8,0,0,1,1.43-1.6,11.194,11.194,0,0,1,3.578-2.516,5.821,5.821,0,0,1,1.108-.336,4.72,4.72,0,0,1,.581-.1l.6-.022a6.648,6.648,0,0,1,1.148.127c.366.07.689.177,1.034.265a35.343,35.343,0,0,1,3.754,1.421c4.781,2.083,9.177,4.4,13.494,6.175a32.272,32.272,0,0,0,3.2,1.14,9.305,9.305,0,0,0,1.521.3c.52.029,1.059.025,1.6.007,2.174-.108,4.318-.376,6.376-.661,4.122-.579,7.946-1.254,11.428-1.876,6.962-1.265,12.558-2.382,16.422-3.122l1.367-.262.973-.177.209-.037.1-.017c.013-.005.043,0,.043-.013l-.022-.039-.172-.311-.336-.61a5.516,5.516,0,0,1-.695-1.423c.051-.033.39.394.99,1.237l.59.854.363.537.048.071c0,.019-.043.017-.063.026l-.159.042-.333.086-2.762.7c-3.824.945-9.385,2.25-16.334,3.677-3.477.7-7.3,1.456-11.449,2.105-2.078.321-4.232.626-6.517.768-.575.026-1.161.041-1.773.014a10.621,10.621,0,0,1-1.837-.331,33.116,33.116,0,0,1-3.394-1.164c-4.443-1.772-8.872-4.062-13.575-6.076a34.118,34.118,0,0,0-3.56-1.331c-.293-.072-.6-.172-.881-.223a4.853,4.853,0,0,0-.821-.089l-.4.015a2.954,2.954,0,0,0-.4.074,4.056,4.056,0,0,0-.8.246,9.49,9.49,0,0,0-2.976,2.131,17.239,17.239,0,0,0-1.293,1.451c-.206.254-.4.517-.6.781l-.282.4-.164.245-.268.421q-1.8.677-3.62,1.361l-3.358,1.3c-2.3.907-4.577,1.825-6.79,2.783q-1.663.715-3.254,1.487c-.519.265-1.044.526-1.517.811s-1,.62-1.5.925c-1.995,1.256-3.938,2.516-5.732,3.875a26,26,0,0,0-2.514,2.135,6.1,6.1,0,0,0-1.643,2.333.834.834,0,0,0,.145.818,1.747,1.747,0,0,0,.931.581,6.448,6.448,0,0,0,2.806-.05c1.99-.394,3.932-1.135,5.913-1.736.5-.15,1-.293,1.527-.408.263-.056.531-.107.812-.141a5.2,5.2,0,0,1,.844-.039l2.944.076,6.251.161q.1.776.2,1.541.067.459.131.913.146.907.289,1.793c.2,1.177.417,2.326.651,3.438.462,2.224.984,4.311,1.545,6.243a40.789,40.789,0,0,0,3.92,9.535,17.708,17.708,0,0,0,2.242,3.014,11.154,11.154,0,0,0,1.117,1.006c.183.138.352.28.523.4l.507.305a5.883,5.883,0,0,0,.882.443,3.657,3.657,0,0,0,.674.254c.37.119.564.2.558.236" transform="translate(-67.649 -114.084)" fill="#3a201e"/>
        <path id="Trazado_995846" data-name="Trazado 995846" d="M413.326,320.745c.206-.141,2.174,2.338,4.921,6.636a120.327,120.327,0,0,1,9.333,17.629,63.039,63.039,0,0,1,3.454,10.5,26.218,26.218,0,0,1,.635,9.105,12.488,12.488,0,0,1-.951,3.445,8.981,8.981,0,0,1-1.461,2.275c-1.018,1.091-1.787,1.414-1.842,1.332-.094-.117.514-.637,1.28-1.768a11.075,11.075,0,0,0,1.69-5.422,27.727,27.727,0,0,0-.989-8.583,72.615,72.615,0,0,0-3.5-10.186,188.866,188.866,0,0,0-8.758-17.674c-2.445-4.437-4.022-7.153-3.811-7.3" transform="translate(-138.968 -107.844)" fill="#3a201e"/>
        <path id="Trazado_995847" data-name="Trazado 995847" d="M373.5,331.265c.042.119-.759.517-2.248,1.138-.745.309-1.661.677-2.73,1.087l-3.672,1.28c-5.461,1.841-13.127,4.02-21.7,5.963s-16.408,3.314-22.1,4.148-9.254,1.1-9.289.854,3.444-.979,9.067-2.126,13.39-2.719,21.92-4.656,16.2-3.9,21.724-5.418l3.734-1.016c1.093-.316,2.038-.584,2.815-.789a6.862,6.862,0,0,1,2.477-.465" transform="translate(-104.826 -111.371)" fill="#3a201e"/>
        <path id="Trazado_995848" data-name="Trazado 995848" d="M311.285,391.12l-6.876-.683a2.486,2.486,0,0,1-2.234-2.3l-2.342-34.165a3.569,3.569,0,0,1,3.338-3.785l6.573-.412a3.569,3.569,0,0,1,3.791,3.512l.481,35.328a2.486,2.486,0,0,1-2.731,2.508" transform="translate(-100.812 -117.604)" fill="#3a201e"/>
        <path id="Trazado_995849" data-name="Trazado 995849" d="M315.6,385.5a7.775,7.775,0,1,1-7.775-7.775A7.775,7.775,0,0,1,315.6,385.5" transform="translate(-100.888 -127.006)" fill="#f1e3d3"/>
        <circle id="Elipse_12016" data-name="Elipse 12016" cx="7.775" cy="7.775" r="7.775" transform="matrix(0.999, -0.038, 0.038, 0.999, 198.871, 251.026)" fill="none" stroke="#3a201e" stroke-miterlimit="10" stroke-width="2"/>
        <path id="Trazado_995850" data-name="Trazado 995850" d="M308.311,386.366l2.293,3.654,4.285-3.355" transform="translate(-103.665 -129.91)" fill="none" stroke="#3a201e" stroke-miterlimit="10" stroke-width="2"/>
      </g>
    </g>
  </g>
</svg>
