<svg xmlns="http://www.w3.org/2000/svg" xmlns:xlink="http://www.w3.org/1999/xlink" width="108" height="108" viewBox="0 0 108 108">
  <defs>
    <filter id="Trazado_982547" x="0" y="0" width="108" height="108" filterUnits="userSpaceOnUse">
      <feOffset dy="3" input="SourceAlpha"/>
      <feGaussianBlur stdDeviation="3" result="blur"/>
      <feFlood flood-opacity="0.161"/>
      <feComposite operator="in" in2="blur"/>
      <feComposite in="SourceGraphic"/>
    </filter>
  </defs>
  <g id="Grupo_1162262" data-name="Grupo 1162262" transform="translate(-197 -8714)">
    <g id="Grupo_1162124" data-name="Grupo 1162124" transform="translate(206 8720)">
      <g id="Grupo_1159095" data-name="Grupo 1159095" transform="translate(0)">
        <g id="Grupo_1154033" data-name="Grupo 1154033">
          <g id="Grupo_1153177" data-name="Grupo 1153177">
            <g id="Grupo_1149598" data-name="Grupo 1149598">
              <g id="Grupo_1148770" data-name="Grupo 1148770">
                <g id="Grupo_1146954" data-name="Grupo 1146954">
                  <g transform="matrix(1, 0, 0, 1, -9, -6)" filter="url(#Trazado_982547)">
                    <g id="Trazado_982547-2" data-name="Trazado 982547" transform="translate(9 6)" fill="#fdf4ee">
                      <path d="M 45.00000762939453 88.5 C 39.12688446044922 88.5 33.43023300170898 87.35007476806641 28.06830787658691 85.08217620849609 C 22.8885326385498 82.89131164550781 18.23630714416504 79.75458526611328 14.24085807800293 75.75914764404297 C 10.24542045593262 71.76370239257812 7.108695030212402 67.11147308349609 4.917832851409912 61.93170166015625 C 2.649932622909546 56.56977462768555 1.500007629394531 50.87312316894531 1.500007629394531 45 C 1.500007629394531 39.12687683105469 2.649932622909546 33.43022537231445 4.917832851409912 28.06830024719238 C 7.108695030212402 22.88852500915527 10.24542045593262 18.23629951477051 14.24085807800293 14.2408504486084 C 18.23630714416504 10.24541282653809 22.8885326385498 7.108687400817871 28.06830787658691 4.917825222015381 C 33.43023300170898 2.649924993515015 39.12688446044922 1.5 45.00000762939453 1.5 C 50.87313079833984 1.5 56.56978225708008 2.649924993515015 61.93170928955078 4.917825222015381 C 67.11148071289062 7.108687400817871 71.76371002197266 10.24541282653809 75.7591552734375 14.2408504486084 C 79.75459289550781 18.23629951477051 82.89131927490234 22.88852500915527 85.08218383789062 28.06830024719238 C 87.35008239746094 33.43022537231445 88.50000762939453 39.12687683105469 88.50000762939453 45 C 88.50000762939453 50.87312316894531 87.35008239746094 56.56977462768555 85.08218383789062 61.93170166015625 C 82.89131927490234 67.11147308349609 79.75459289550781 71.76370239257812 75.7591552734375 75.75914764404297 C 71.76371002197266 79.75458526611328 67.11148071289062 82.89131164550781 61.93170928955078 85.08217620849609 C 56.56978225708008 87.35007476806641 50.87313079833984 88.5 45.00000762939453 88.5 Z" stroke="none"/>
                      <path d="M 45.00000762939453 3 C 39.32872009277344 3 33.82866287231445 4.110054016113281 28.65263748168945 6.299339294433594 C 23.65166473388672 8.414573669433594 19.15969085693359 11.44334411621094 15.30152130126953 15.301513671875 C 11.44335174560547 19.15968322753906 8.414581298828125 23.65165710449219 6.299346923828125 28.65262985229492 C 4.110061645507812 33.82865524291992 3.000007629394531 39.32871246337891 3.000007629394531 45 C 3.000007629394531 50.67128753662109 4.110061645507812 56.17134475708008 6.299346923828125 61.34737396240234 C 8.414581298828125 66.34834289550781 11.44335174560547 70.84031677246094 15.30152130126953 74.698486328125 C 19.15969085693359 78.55665588378906 23.65166473388672 81.58542633056641 28.65263748168945 83.70066070556641 C 33.82866287231445 85.88994598388672 39.32872009277344 87 45.00000762939453 87 C 50.67129516601562 87 56.17135238647461 85.88994598388672 61.34738159179688 83.70066070556641 C 66.34835052490234 81.58542633056641 70.84032440185547 78.55665588378906 74.69849395751953 74.698486328125 C 78.55666351318359 70.84031677246094 81.58543395996094 66.34834289550781 83.70066833496094 61.34737396240234 C 85.88995361328125 56.17134475708008 87.00000762939453 50.67128753662109 87.00000762939453 45 C 87.00000762939453 39.32871246337891 85.88995361328125 33.82865524291992 83.70066833496094 28.65262985229492 C 81.58543395996094 23.65165710449219 78.55666351318359 19.15968322753906 74.69849395751953 15.301513671875 C 70.84032440185547 11.44334411621094 66.34835052490234 8.414573669433594 61.34738159179688 6.299339294433594 C 56.17135238647461 4.110054016113281 50.67129516601562 3 45.00000762939453 3 M 45.00000762939453 0 C 69.85282135009766 0 90.00000762939453 20.14718627929688 90.00000762939453 45 C 90.00000762939453 69.85281372070312 69.85282135009766 90 45.00000762939453 90 C 20.14719390869141 90 7.62939453125e-06 69.85281372070312 7.62939453125e-06 45 C 7.62939453125e-06 20.14718627929688 20.14719390869141 0 45.00000762939453 0 Z" stroke="none" fill="#ee9865"/>
                    </g>
                  </g>
                </g>
              </g>
            </g>
          </g>
        </g>
      </g>
    </g>
    <g id="business_7521450" transform="translate(222 8734)">
      <path id="Trazado_995851" data-name="Trazado 995851" d="M25,43.75A6.28,6.28,0,0,1,25,43a7,7,0,0,1,14,0,6.281,6.281,0,0,1,0,.75,6,6,0,0,1,1-1.21V20H24V42.54a6,6,0,0,1,1,1.21Z" fill="#6c8199"/>
      <circle id="Elipse_12017" data-name="Elipse 12017" cx="4" cy="4" r="4" transform="translate(28 39)" fill="#ffc173"/>
      <path id="Trazado_995852" data-name="Trazado 995852" d="M25,62V53a5,5,0,0,1,5-5h4a5,5,0,0,1,5,5v9Z" fill="#4993f2"/>
      <circle id="Elipse_12018" data-name="Elipse 12018" cx="3" cy="3" r="3" transform="translate(41 44)" fill="#ffc173"/>
      <path id="Trazado_995853" data-name="Trazado 995853" d="M39,61V55a4,4,0,0,1,4-4h2a4,4,0,0,1,4,4v6Z" fill="#4184d9"/>
      <circle id="Elipse_12019" data-name="Elipse 12019" cx="3" cy="3" r="3" transform="translate(17 44)" fill="#ffc173"/>
      <path id="Trazado_995854" data-name="Trazado 995854" d="M15,61V55a4,4,0,0,1,4-4h2a4,4,0,0,1,4,4v6Z" fill="#4184d9"/>
      <circle id="Elipse_12020" data-name="Elipse 12020" cx="2.5" cy="2.5" r="2.5" transform="translate(8.5 46)" fill="#ffc173"/>
      <path id="Trazado_995855" data-name="Trazado 995855" d="M7,60V55a3,3,0,0,1,3-3h2a3,3,0,0,1,3,3v5Z" fill="#3974bf"/>
      <circle id="Elipse_12021" data-name="Elipse 12021" cx="2.5" cy="2.5" r="2.5" transform="translate(50.5 46)" fill="#ffc173"/>
      <path id="Trazado_995856" data-name="Trazado 995856" d="M49,60V55a3,3,0,0,1,3-3h2a3,3,0,0,1,3,3v5Z" fill="#3974bf"/>
      <g id="Grupo_1162261" data-name="Grupo 1162261">
        <path id="Trazado_995857" data-name="Trazado 995857" d="M27.5,24h3v3h-3Z" fill="#f2f2f2"/>
        <path id="Trazado_995858" data-name="Trazado 995858" d="M33.5,24h3v3h-3Z" fill="#f2f2f2"/>
        <path id="Trazado_995859" data-name="Trazado 995859" d="M27.5,30h3v3h-3Z" fill="#f2f2f2"/>
        <path id="Trazado_995860" data-name="Trazado 995860" d="M33.5,30h3v3h-3Z" fill="#f2f2f2"/>
      </g>
      <circle id="Elipse_12022" data-name="Elipse 12022" cx="8" cy="8" r="8" transform="translate(46 2)" fill="#ffdc59"/>
      <path id="Trazado_995861" data-name="Trazado 995861" d="M17.6,11.88l-.47-.25a.75.75,0,0,1-.39-.75,6.48,6.48,0,0,0,0-1.76.75.75,0,0,1,.39-.75l.47-.25a.76.76,0,0,0,.29-1L16.6,4.93a.82.82,0,0,0-1.09-.28L15,4.91a.87.87,0,0,1-.92-.07A6.88,6.88,0,0,0,12.62,4a.79.79,0,0,1-.53-.72V2.77a.78.78,0,0,0-.8-.77H8.71a.78.78,0,0,0-.8.77v.51A.79.79,0,0,1,7.38,4a6.88,6.88,0,0,0-1.5.84A.87.87,0,0,1,5,4.91l-.47-.26a.82.82,0,0,0-1.09.28L2.11,7.07a.76.76,0,0,0,.29,1l.47.25a.75.75,0,0,1,.39.75,6.48,6.48,0,0,0,0,1.76.75.75,0,0,1-.39.75l-.47.25a.76.76,0,0,0-.29,1L3.4,15.07a.82.82,0,0,0,1.09.28L5,15.09a.87.87,0,0,1,.92.07,6.88,6.88,0,0,0,1.5.84.79.79,0,0,1,.53.72v.51a.78.78,0,0,0,.8.77h2.58a.78.78,0,0,0,.8-.77v-.51a.79.79,0,0,1,.53-.72,6.88,6.88,0,0,0,1.5-.84.87.87,0,0,1,.92-.07l.47.26a.82.82,0,0,0,1.09-.28l1.29-2.14a.76.76,0,0,0-.33-1.05Zm-7.6.87A2.75,2.75,0,1,1,12.75,10,2.75,2.75,0,0,1,10,12.75Z" fill="#ff6668"/>
      <path id="Trazado_995862" data-name="Trazado 995862" d="M44,41a6,6,0,0,1,5.39,3.36A5.38,5.38,0,0,1,52,43.09V32H40V42.54A6,6,0,0,1,44,41Z" fill="#5a6c80"/>
      <path id="Trazado_995863" data-name="Trazado 995863" d="M43,36h2v2H43Z" fill="#f2f2f2"/>
      <path id="Trazado_995864" data-name="Trazado 995864" d="M47,36h2v2H47Z" fill="#f2f2f2"/>
      <path id="Trazado_995865" data-name="Trazado 995865" d="M20,41a6,6,0,0,0-5.39,3.36A5.38,5.38,0,0,0,12,43.09V32H24V42.54A6,6,0,0,0,20,41Z" fill="#5a6c80"/>
      <path id="Trazado_995866" data-name="Trazado 995866" d="M19,36h2v2H19Z" transform="translate(40 74) rotate(180)" fill="#f2f2f2"/>
      <path id="Trazado_995867" data-name="Trazado 995867" d="M15,36h2v2H15Z" transform="translate(32 74) rotate(180)" fill="#f2f2f2"/>
      <path id="Trazado_995868" data-name="Trazado 995868" d="M53,45a3.49,3.49,0,0,0-2.2,6.2,3.91,3.91,0,0,0-1.65,1,5,5,0,0,0-2.79-2,4,4,0,1,0-4.72,0,5.09,5.09,0,0,0-1.9,1,6,6,0,0,0-4.86-4.17,5,5,0,1,0-5.76,0,6,6,0,0,0-4.86,4.17,5.09,5.09,0,0,0-1.9-1,4,4,0,1,0-4.72,0,5,5,0,0,0-2.79,2,3.91,3.91,0,0,0-1.65-1,3.5,3.5,0,1,0-4.4,0A4,4,0,0,0,6,55v5a1,1,0,0,0,1,1h7a1,1,0,0,0,1,1h9a1,1,0,0,0,1,1H39a1,1,0,0,0,1-1h9a1,1,0,0,0,1-1h7a1,1,0,0,0,1-1V55a4,4,0,0,0-2.8-3.8A3.49,3.49,0,0,0,53,45ZM11,47a1.5,1.5,0,1,1-1.5,1.5A1.5,1.5,0,0,1,11,47Zm3,12H8V55a2,2,0,0,1,2-2h2a2,2,0,0,1,2,2Zm6-14a2,2,0,1,1-2,2A2,2,0,0,1,20,45Zm4,15H16V55a3,3,0,0,1,3-3h2a3,3,0,0,1,3,3Zm5-17a3,3,0,1,1,3,3A3,3,0,0,1,29,43Zm9,18H26V53a4,4,0,0,1,4-4h4a4,4,0,0,1,4,4Zm6-16a2,2,0,1,1-2,2A2,2,0,0,1,44,45Zm4,15H40V55a3,3,0,0,1,3-3h2a3,3,0,0,1,3,3Zm5-13a1.5,1.5,0,1,1-1.5,1.5A1.5,1.5,0,0,1,53,47Zm3,8v4H50V55a2,2,0,0,1,2-2h2A2,2,0,0,1,56,55Z"/>
      <path id="Trazado_995869" data-name="Trazado 995869" d="M54,1a9,9,0,1,0,9,9A9,9,0,0,0,54,1Zm0,16a7,7,0,1,1,7-7A7,7,0,0,1,54,17Z"/>
      <path id="Trazado_995870" data-name="Trazado 995870" d="M53.5,8h1a.5.5,0,0,1,.5.5h2a2.5,2.5,0,0,0-2-2.45V5H53V6a2.512,2.512,0,1,0,.5,5h1a.5.5,0,0,1,0,1h-1a.5.5,0,0,1-.5-.5H51A2.5,2.5,0,0,0,53,14v1h2V14a2.512,2.512,0,0,0-.5-5h-1a.5.5,0,0,1,0-1Z"/>
      <path id="Trazado_995871" data-name="Trazado 995871" d="M41.57,9.18l-5-3.5L35.43,7.32,37.83,9H22v2H37.83l-2.4,1.68,1.14,1.64,5-3.5a1,1,0,0,0,0-1.64Z"/>
      <path id="Trazado_995872" data-name="Trazado 995872" d="M5,16.22l.37-.2a8.47,8.47,0,0,0,1.56.86v.35A1.79,1.79,0,0,0,8.71,19h2.58a1.79,1.79,0,0,0,1.8-1.77v-.35A8.47,8.47,0,0,0,14.65,16l.37.2a1.84,1.84,0,0,0,2.44-.64l1.29-2.13a1.73,1.73,0,0,0,.19-1.35A1.77,1.77,0,0,0,18.08,11l-.33-.18A7.86,7.86,0,0,0,17.8,10a7.86,7.86,0,0,0-.05-.83L18.08,9a1.77,1.77,0,0,0,.86-1.09,1.73,1.73,0,0,0-.19-1.35L17.46,4.42A1.84,1.84,0,0,0,15,3.78l-.37.2a8.47,8.47,0,0,0-1.56-.86V2.77A1.79,1.79,0,0,0,11.29,1H8.71a1.79,1.79,0,0,0-1.8,1.77v.35A8.47,8.47,0,0,0,5.35,4L5,3.78a1.84,1.84,0,0,0-2.44.64L1.25,6.55A1.73,1.73,0,0,0,1.06,7.9,1.77,1.77,0,0,0,1.92,9l.33.18a7.86,7.86,0,0,0,0,.83,7.86,7.86,0,0,0,0,.83L1.92,11a1.77,1.77,0,0,0-.86,1.09,1.73,1.73,0,0,0,.19,1.35l1.29,2.13A1.84,1.84,0,0,0,5,16.22ZM4.2,10a6,6,0,0,1,0-.74A1.75,1.75,0,0,0,3.3,7.5l-.2-.14L4.16,5.61l.32.18a1.87,1.87,0,0,0,2-.15,5.79,5.79,0,0,1,1.29-.71A1.79,1.79,0,0,0,8.91,3.28V3h2.18v.28a1.79,1.79,0,0,0,1.15,1.65,5.79,5.79,0,0,1,1.29.71,1.87,1.87,0,0,0,2,.15l.32-.18L16.9,7.36l-.25.14a1.75,1.75,0,0,0-.9,1.76,5.5,5.5,0,0,1,0,1.48,1.75,1.75,0,0,0,.9,1.76l.25.14-1.06,1.75-.32-.18a1.87,1.87,0,0,0-2,.15,5.79,5.79,0,0,1-1.29.71,1.79,1.79,0,0,0-1.15,1.65V17H8.91v-.28a1.79,1.79,0,0,0-1.15-1.65,5.79,5.79,0,0,1-1.29-.71,1.87,1.87,0,0,0-2-.15l-.32.18L3.1,12.64l.25-.14a1.75,1.75,0,0,0,.9-1.76A6,6,0,0,1,4.2,10Z"/>
      <path id="Trazado_995873" data-name="Trazado 995873" d="M10,13.75A3.75,3.75,0,1,0,6.25,10,3.75,3.75,0,0,0,10,13.75Zm0-5.5A1.75,1.75,0,1,1,8.25,10,1.75,1.75,0,0,1,10,8.25Z"/>
      <path id="Trazado_995874" data-name="Trazado 995874" d="M52,31H41V20a1,1,0,0,0-1-1H24a1,1,0,0,0-1,1V31H12a1,1,0,0,0-1,1V43a5.52,5.52,0,0,1,2,.38V33H23v8.81a6.1,6.1,0,0,1,2,1.88V21H39V43.69a6.1,6.1,0,0,1,2-1.88V33H51V43.38A5.52,5.52,0,0,1,53,43V32A1,1,0,0,0,52,31Z"/>
    </g>
  </g>
</svg>
