<svg xmlns="http://www.w3.org/2000/svg" xmlns:xlink="http://www.w3.org/1999/xlink" width="113" height="113" viewBox="0 0 113 113">
  <defs>
    <filter id="Trazado_982547" x="0" y="0" width="113" height="113" filterUnits="userSpaceOnUse">
      <feOffset dy="3" input="SourceAlpha"/>
      <feGaussianBlur stdDeviation="3" result="blur"/>
      <feFlood flood-opacity="0.161"/>
      <feComposite operator="in" in2="blur"/>
      <feComposite in="SourceGraphic"/>
    </filter>
  </defs>
  <g id="Grupo_1162207" data-name="Grupo 1162207" transform="translate(-271 -3035.154)">
    <g id="Grupo_1162113" data-name="Grupo 1162113" transform="translate(280 3041.154)">
      <g id="Grupo_1152576" data-name="Grupo 1152576" transform="translate(0)">
        <g id="Grupo_1148633" data-name="Grupo 1148633">
          <g id="Grupo_1148525" data-name="Grupo 1148525">
            <g transform="matrix(1, 0, 0, 1, -9, -6)" filter="url(#Trazado_982547)">
              <g id="Trazado_982547-2" data-name="Trazado 982547" transform="translate(9 6)" fill="#e8edf7">
                <path d="M 47.5 93.5 C 41.28937149047852 93.5 35.26533508300781 92.28397369384766 29.59518623352051 89.88570404052734 C 24.11771965026855 87.56893157958984 19.19813346862793 84.25196075439453 14.97309303283691 80.02691650390625 C 10.74804019927979 75.80186462402344 7.431066513061523 70.88229370117188 5.114293098449707 65.40481567382812 C 2.716026782989502 59.73468017578125 1.5 53.71062850952148 1.5 47.5 C 1.5 41.28937149047852 2.716026782989502 35.26533508300781 5.114293098449707 29.59518623352051 C 7.431066513061523 24.11771965026855 10.74804019927979 19.19813346862793 14.97309303283691 14.97309303283691 C 19.19813346862793 10.74804019927979 24.11771965026855 7.431066513061523 29.59518623352051 5.114293098449707 C 35.26533508300781 2.716026782989502 41.28937149047852 1.5 47.5 1.5 C 53.71062850952148 1.5 59.73468017578125 2.716026782989502 65.40481567382812 5.114293098449707 C 70.88229370117188 7.431066513061523 75.80186462402344 10.74804019927979 80.02691650390625 14.97309303283691 C 84.25196075439453 19.19813346862793 87.56893157958984 24.11771965026855 89.88570404052734 29.59518623352051 C 92.28397369384766 35.26533508300781 93.5 41.28937149047852 93.5 47.5 C 93.5 53.71062850952148 92.28397369384766 59.73468017578125 89.88570404052734 65.40481567382812 C 87.56893157958984 70.88229370117188 84.25196075439453 75.80186462402344 80.02691650390625 80.02691650390625 C 75.80186462402344 84.25196075439453 70.88229370117188 87.56893157958984 65.40481567382812 89.88570404052734 C 59.73468017578125 92.28397369384766 53.71062850952148 93.5 47.5 93.5 Z" stroke="none"/>
                <path d="M 47.5 3 C 41.49121475219727 3 35.66376876831055 4.176155090332031 30.17950439453125 6.495796203613281 C 24.88084411621094 8.736953735351562 20.12152099609375 11.94598388671875 16.03375244140625 16.03375244140625 C 11.94598388671875 20.12152099609375 8.736953735351562 24.88084411621094 6.495796203613281 30.17950439453125 C 4.176155090332031 35.66376876831055 3 41.49121475219727 3 47.5 C 3 53.50878524780273 4.176155090332031 59.33623123168945 6.495796203613281 64.82049560546875 C 8.736953735351562 70.11915588378906 11.94598388671875 74.87847900390625 16.03375244140625 78.96624755859375 C 20.12152099609375 83.05401611328125 24.88084411621094 86.26304626464844 30.17950439453125 88.50419616699219 C 35.66376876831055 90.82384490966797 41.49121475219727 92 47.5 92 C 53.50878524780273 92 59.33623123168945 90.82384490966797 64.82049560546875 88.50419616699219 C 70.11915588378906 86.26304626464844 74.87847900390625 83.05401611328125 78.96624755859375 78.96624755859375 C 83.05401611328125 74.87847900390625 86.26304626464844 70.11915588378906 88.50419616699219 64.82049560546875 C 90.82384490966797 59.33623123168945 92 53.50878524780273 92 47.5 C 92 41.49121475219727 90.82384490966797 35.66376876831055 88.50419616699219 30.17950439453125 C 86.26304626464844 24.88084411621094 83.05401611328125 20.12152099609375 78.96624755859375 16.03375244140625 C 74.87847900390625 11.94598388671875 70.11915588378906 8.736953735351562 64.82049560546875 6.495796203613281 C 59.33623123168945 4.176155090332031 53.50878524780273 3 47.5 3 M 47.5 0 C 73.7335205078125 0 95 21.2664794921875 95 47.5 C 95 73.7335205078125 73.7335205078125 95 47.5 95 C 21.2664794921875 95 0 73.7335205078125 0 47.5 C 0 21.2664794921875 21.2664794921875 0 47.5 0 Z" stroke="none" fill="#2e5bb6"/>
              </g>
            </g>
          </g>
        </g>
      </g>
    </g>
    <g id="market_18063976" transform="translate(296.255 3054.924)">
      <path id="Trazado_995181" data-name="Trazado 995181" d="M175.132,84.776v16.43a1.464,1.464,0,0,1-1.461,1.461H151.677a1.464,1.464,0,0,1-1.461-1.461V84.776a3.864,3.864,0,0,0,5.007-2.622,3.864,3.864,0,0,0,7.451,0,3.864,3.864,0,0,0,7.451,0,3.864,3.864,0,0,0,5.006,2.622Z" transform="translate(-131.431 -71.596)" fill="#eceff1" fill-rule="evenodd"/>
      <path id="Trazado_995182" data-name="Trazado 995182" d="M211.271,177.1h8.751a1.013,1.013,0,0,1,1.01,1.01v8.32H210.261v-8.32a1.013,1.013,0,0,1,1.01-1.01Z" transform="translate(-184.403 -155.364)" fill="#f7cb6c" fill-rule="evenodd"/>
      <path id="Trazado_995183" data-name="Trazado 995183" d="M328.2,367.488h6.543v15.725H328.2Z" transform="translate(-288.455 -323.323)" fill="#adffad"/>
      <path id="Trazado_995184" data-name="Trazado 995184" d="M228.208,367.488h6.543v15.725h-6.543Z" transform="translate(-200.237 -323.323)" fill="#ffeb87"/>
      <path id="Trazado_995185" data-name="Trazado 995185" d="M128.212,367.488h6.543v15.725h-6.543Z" transform="translate(-112.019 -323.323)" fill="#d8dbdf"/>
      <path id="Trazado_995186" data-name="Trazado 995186" d="M28.216,367.488h6.543v15.725H28.216Z" transform="translate(-23.8 -323.323)" fill="#ff879b"/>
      <path id="Trazado_995187" data-name="Trazado 995187" d="M428.2,367.488h6.543v15.725H428.2Z" transform="translate(-376.673 -323.323)" fill="#85caff"/>
      <g id="Grupo_1162206" data-name="Grupo 1162206" transform="translate(1.238 0.999)">
        <path id="Trazado_995188" data-name="Trazado 995188" d="M31.488,293.265a3.272,3.272,0,1,0-3.272-3.272A3.278,3.278,0,0,0,31.488,293.265Z" transform="translate(-25.038 -253.068)" fill="#ff879b" fill-rule="evenodd"/>
        <path id="Trazado_995189" data-name="Trazado 995189" d="M231.48,293.265a3.272,3.272,0,1,0-3.272-3.272A3.278,3.278,0,0,0,231.48,293.265Z" transform="translate(-201.475 -253.068)" fill="#ffeb87" fill-rule="evenodd"/>
        <path id="Trazado_995190" data-name="Trazado 995190" d="M129.456,19.378,135.908,11h16.9l6.452,8.381a3.864,3.864,0,0,1-7.451,0,3.864,3.864,0,0,1-7.451,0,3.864,3.864,0,0,1-7.451,0,3.864,3.864,0,0,1-7.451,0Z" transform="translate(-114.354 -9.819)" fill="#ff879b" fill-rule="evenodd"/>
        <path id="Trazado_995191" data-name="Trazado 995191" d="M7.687,35.83a2.094,2.094,0,1,1-2.1,2.094,2.1,2.1,0,0,1,2.1-2.094Zm23.558,0a2.094,2.094,0,1,1-2.1,2.094,2.094,2.094,0,0,1,2.1-2.094ZM7.687,42.373a4.455,4.455,0,0,0,4.29-3.271H26.955a4.449,4.449,0,0,0,8.58,0H53.376l-.722.594a1.178,1.178,0,0,0,1.5,1.817l3.25-2.681a1.172,1.172,0,0,0,0-1.817l-3.25-2.68a1.178,1.178,0,1,0-1.5,1.818l.722.593H35.535a4.448,4.448,0,0,0-8.58,0H11.977a4.449,4.449,0,1,0-4.29,5.626Zm-2.1,2.971H9.784v13.37H5.59Zm11.779,0h4.188v13.37H17.369Zm11.779,0h4.188v13.37H29.148Zm11.779,0h4.188v13.37H40.927Zm11.779,0h4.188v13.37H52.706Zm7.364,13.37h-.824V44.166a1.174,1.174,0,0,0-1.176-1.178H51.53a1.179,1.179,0,0,0-1.182,1.178V58.713H47.473V44.166a1.179,1.179,0,0,0-1.182-1.178h-6.54a1.179,1.179,0,0,0-1.182,1.178V58.713H35.694V44.166a1.178,1.178,0,0,0-1.176-1.178H27.972A1.174,1.174,0,0,0,26.8,44.166V58.713H23.915V44.166a1.178,1.178,0,0,0-1.176-1.178H16.193a1.178,1.178,0,0,0-1.176,1.178V58.713H12.136V44.166a1.178,1.178,0,0,0-1.176-1.178H4.414a1.178,1.178,0,0,0-1.176,1.178V58.713H2.414a1.178,1.178,0,0,0,0,2.356H60.07a1.178,1.178,0,1,0,0-2.356ZM23.37,3.355H39.115l5.7,7.4a2.687,2.687,0,0,1-4.983-.51,1.179,1.179,0,0,0-2.273,0,2.687,2.687,0,0,1-5.182,0,1.175,1.175,0,0,0-2.267,0,2.687,2.687,0,0,1-5.182,0,1.179,1.179,0,0,0-2.273,0,2.683,2.683,0,0,1-4.978.51l5.693-7.4ZM42.524,29.61a.288.288,0,0,1-.284.283H37.808V22.751a2.191,2.191,0,0,0-2.188-2.188H26.87a2.187,2.187,0,0,0-2.188,2.188v7.142H20.244a.288.288,0,0,1-.284-.283V14.573l.108,0a5.038,5.038,0,0,0,3.722-1.649,5.037,5.037,0,0,0,7.455,0,5.031,5.031,0,0,0,7.449,0,5.06,5.06,0,0,0,3.727,1.649l.1,0V29.61Zm-7.074.283V22.919H27.035v6.973ZM17.608,13.931V29.61a2.64,2.64,0,0,0,2.636,2.639h22a2.64,2.64,0,0,0,2.636-2.639V13.931a5.027,5.027,0,0,0,2.4-3.061,1.175,1.175,0,0,0-.2-1.031L40.626,1.458A1.175,1.175,0,0,0,39.694,1H22.79a1.175,1.175,0,0,0-.932.459L15.409,9.839a1.177,1.177,0,0,0-.2,1.031,5.047,5.047,0,0,0,2.4,3.061Z" transform="translate(-1.238 -0.999)" fill-rule="evenodd"/>
      </g>
    </g>
  </g>
</svg>
