<svg xmlns="http://www.w3.org/2000/svg" xmlns:xlink="http://www.w3.org/1999/xlink" width="113" height="113" viewBox="0 0 113 113">
  <defs>
    <filter id="Trazado_982547" x="0" y="0" width="113" height="113" filterUnits="userSpaceOnUse">
      <feOffset dy="3" input="SourceAlpha"/>
      <feGaussianBlur stdDeviation="3" result="blur"/>
      <feFlood flood-opacity="0.161"/>
      <feComposite operator="in" in2="blur"/>
      <feComposite in="SourceGraphic"/>
    </filter>
  </defs>
  <g id="Grupo_1162209" data-name="Grupo 1162209" transform="translate(-586 -3035.154)">
    <g id="Grupo_1162114" data-name="Grupo 1162114" transform="translate(595 3041.154)">
      <g id="Grupo_1152576" data-name="Grupo 1152576" transform="translate(0)">
        <g id="Grupo_1148633" data-name="Grupo 1148633">
          <g id="Grupo_1148525" data-name="Grupo 1148525">
            <g transform="matrix(1, 0, 0, 1, -9, -6)" filter="url(#Trazado_982547)">
              <g id="Trazado_982547-2" data-name="Trazado 982547" transform="translate(9 6)" fill="#e8edf7">
                <path d="M 47.5 93.5 C 41.28937149047852 93.5 35.26533508300781 92.28397369384766 29.59518623352051 89.88570404052734 C 24.11771965026855 87.56893157958984 19.19813346862793 84.25196075439453 14.97309303283691 80.02691650390625 C 10.74804019927979 75.80186462402344 7.431066513061523 70.88229370117188 5.114293098449707 65.40481567382812 C 2.716026782989502 59.73468017578125 1.5 53.71062850952148 1.5 47.5 C 1.5 41.28937149047852 2.716026782989502 35.26533508300781 5.114293098449707 29.59518623352051 C 7.431066513061523 24.11771965026855 10.74804019927979 19.19813346862793 14.97309303283691 14.97309303283691 C 19.19813346862793 10.74804019927979 24.11771965026855 7.431066513061523 29.59518623352051 5.114293098449707 C 35.26533508300781 2.716026782989502 41.28937149047852 1.5 47.5 1.5 C 53.71062850952148 1.5 59.73468017578125 2.716026782989502 65.40481567382812 5.114293098449707 C 70.88229370117188 7.431066513061523 75.80186462402344 10.74804019927979 80.02691650390625 14.97309303283691 C 84.25196075439453 19.19813346862793 87.56893157958984 24.11771965026855 89.88570404052734 29.59518623352051 C 92.28397369384766 35.26533508300781 93.5 41.28937149047852 93.5 47.5 C 93.5 53.71062850952148 92.28397369384766 59.73468017578125 89.88570404052734 65.40481567382812 C 87.56893157958984 70.88229370117188 84.25196075439453 75.80186462402344 80.02691650390625 80.02691650390625 C 75.80186462402344 84.25196075439453 70.88229370117188 87.56893157958984 65.40481567382812 89.88570404052734 C 59.73468017578125 92.28397369384766 53.71062850952148 93.5 47.5 93.5 Z" stroke="none"/>
                <path d="M 47.5 3 C 41.49121475219727 3 35.66376876831055 4.176155090332031 30.17950439453125 6.495796203613281 C 24.88084411621094 8.736953735351562 20.12152099609375 11.94598388671875 16.03375244140625 16.03375244140625 C 11.94598388671875 20.12152099609375 8.736953735351562 24.88084411621094 6.495796203613281 30.17950439453125 C 4.176155090332031 35.66376876831055 3 41.49121475219727 3 47.5 C 3 53.50878524780273 4.176155090332031 59.33623123168945 6.495796203613281 64.82049560546875 C 8.736953735351562 70.11915588378906 11.94598388671875 74.87847900390625 16.03375244140625 78.96624755859375 C 20.12152099609375 83.05401611328125 24.88084411621094 86.26304626464844 30.17950439453125 88.50419616699219 C 35.66376876831055 90.82384490966797 41.49121475219727 92 47.5 92 C 53.50878524780273 92 59.33623123168945 90.82384490966797 64.82049560546875 88.50419616699219 C 70.11915588378906 86.26304626464844 74.87847900390625 83.05401611328125 78.96624755859375 78.96624755859375 C 83.05401611328125 74.87847900390625 86.26304626464844 70.11915588378906 88.50419616699219 64.82049560546875 C 90.82384490966797 59.33623123168945 92 53.50878524780273 92 47.5 C 92 41.49121475219727 90.82384490966797 35.66376876831055 88.50419616699219 30.17950439453125 C 86.26304626464844 24.88084411621094 83.05401611328125 20.12152099609375 78.96624755859375 16.03375244140625 C 74.87847900390625 11.94598388671875 70.11915588378906 8.736953735351562 64.82049560546875 6.495796203613281 C 59.33623123168945 4.176155090332031 53.50878524780273 3 47.5 3 M 47.5 0 C 73.7335205078125 0 95 21.2664794921875 95 47.5 C 95 73.7335205078125 73.7335205078125 95 47.5 95 C 21.2664794921875 95 0 73.7335205078125 0 47.5 C 0 21.2664794921875 21.2664794921875 0 47.5 0 Z" stroke="none" fill="#2e5bb6"/>
              </g>
            </g>
          </g>
        </g>
      </g>
    </g>
    <g id="marketing_14462962" transform="translate(569.599 3050.761)">
      <path id="Trazado_995192" data-name="Trazado 995192" d="M198.067,314.514h5.575a.92.92,0,0,1,.981.837V330.59a.92.92,0,0,1-.981.837h-5.575a.92.92,0,0,1-.981-.837V315.351A.92.92,0,0,1,198.067,314.514Z" transform="translate(-131.289 -269.565)" fill="#00e499" fill-rule="evenodd"/>
      <path id="Trazado_995193" data-name="Trazado 995193" d="M295.78,261.732h5.575a.92.92,0,0,1,.981.837v21.6a.922.922,0,0,1-.981.841H295.78a.925.925,0,0,1-.984-.841v-21.6A.923.923,0,0,1,295.78,261.732Z" transform="translate(-217.217 -223.148)" fill="#ffe177" fill-rule="evenodd"/>
      <path id="Trazado_995194" data-name="Trazado 995194" d="M104.9,362.051h5.572a.925.925,0,0,1,.984.841v9.5a.925.925,0,0,1-.984.841H104.9a.925.925,0,0,1-.984-.841v-9.5A.925.925,0,0,1,104.9,362.051Z" transform="translate(-49.35 -311.37)" fill="#fd7a6e" fill-rule="evenodd"/>
      <path id="Trazado_995195" data-name="Trazado 995195" d="M393.519,219.411h5.572a.921.921,0,0,1,.984.837v26.707a.921.921,0,0,1-.984.837h-5.572a.923.923,0,0,1-.984-.837V220.248a.923.923,0,0,1,.984-.837Z" transform="translate(-303.169 -185.931)" fill="#60b7ff" fill-rule="evenodd"/>
      <path id="Trazado_995196" data-name="Trazado 995196" d="M111.631,116a4.4,4.4,0,1,1-3.114,1.289A4.387,4.387,0,0,1,111.631,116Zm1.918,2.482a2.711,2.711,0,1,0,.8,1.921A2.713,2.713,0,0,0,113.548,118.485Z" transform="translate(-52.267 -94.992)" fill="#7b849b"/>
      <g id="Grupo_1162208" data-name="Grupo 1162208" transform="translate(48.864 8.819)">
        <path id="Trazado_995197" data-name="Trazado 995197" d="M102.065,122.835H97.9V137.11h2.082a2.4,2.4,0,0,0,2.082-2.608Z" transform="translate(-92.929 -109.82)" fill="#5d6a85" fill-rule="evenodd"/>
        <path id="Trazado_995198" data-name="Trazado 995198" d="M241.84,64.413a4.105,4.105,0,1,1-4.105,4.105A4.107,4.107,0,0,1,241.84,64.413Z" transform="translate(-215.9 -58.443)" fill="#7b849b" fill-rule="evenodd"/>
        <path id="Trazado_995199" data-name="Trazado 995199" d="M60.222,68.948a3.558,3.558,0,1,1-3.558,3.558,3.558,3.558,0,0,1,3.558-3.558Z" transform="translate(-56.664 -62.431)" fill="#5d6a85" fill-rule="evenodd"/>
        <path id="Trazado_995200" data-name="Trazado 995200" d="M167.006,34.529c0,.28-.277.608-.574.506l-13.793-4.7V19.618l13.793-4.7c.3-.1.574.226.574.506Z" transform="translate(-141.066 -14.903)" fill="#fd7a6e" fill-rule="evenodd"/>
        <path id="Trazado_995201" data-name="Trazado 995201" d="M101.063,54.01H96.127a2.144,2.144,0,0,0-2.136,2.14v6.44a2.144,2.144,0,0,0,2.136,2.14h4.936Z" transform="translate(-89.49 -49.294)" fill="#7b849b" fill-rule="evenodd"/>
      </g>
      <path id="Trazado_995202" data-name="Trazado 995202" d="M110.6,111.938a.844.844,0,1,1,0-1.689h1.494a.844.844,0,0,1,0,1.689Z" transform="translate(-54.486 -89.932)" fill="#e8ecf9"/>
      <path id="Trazado_995203" data-name="Trazado 995203" d="M98.008,66.834a.966.966,0,0,1-.966.966H50.008a2.214,2.214,0,0,1-2.213-2.218l.174-39.408a.966.966,0,0,1,.966-.961h0a.966.966,0,0,1,.961.97l-.174,39.409a.268.268,0,0,0,.081.193.285.285,0,0,0,.2.085H97.042a.966.966,0,0,1,.966.966ZM72.424,44.115a1.883,1.883,0,0,1,1.95,1.8V61.157a1.884,1.884,0,0,1-1.95,1.807H66.853a1.885,1.885,0,0,1-1.95-1.807V45.918a1.883,1.883,0,0,1,1.95-1.8Zm.019,1.932H66.834V61.031h5.609V46.047Zm11.767-8.3a1.883,1.883,0,0,1,1.95,1.8v21.6a1.885,1.885,0,0,1-1.95,1.807H78.638a1.884,1.884,0,0,1-1.95-1.807v-21.6a1.883,1.883,0,0,1,1.95-1.8Zm.019,1.932H78.62V61.031h5.609V39.683ZM61.192,49.847a1.885,1.885,0,0,1,1.95,1.807v9.5a1.885,1.885,0,0,1-1.95,1.807H55.62a1.885,1.885,0,0,1-1.95-1.807v-9.5a1.885,1.885,0,0,1,1.95-1.807Zm.019,1.932H55.6v9.251h5.609V51.78ZM96,32.647a1.885,1.885,0,0,1,1.95,1.807v26.7A1.885,1.885,0,0,1,96,62.963H90.425a1.885,1.885,0,0,1-1.95-1.807v-26.7a1.885,1.885,0,0,1,1.95-1.807Zm.019,1.932H90.406V61.031h5.609V34.579ZM53.648,39.916a.966.966,0,0,0,.054,1.93l.055,0c9.595-.542,18.3-2.759,25.166-6.41a36.52,36.52,0,0,0,9.31-6.924,29.128,29.128,0,0,0,5.818-8.789l.485,1.612a.966.966,0,1,0,1.85-.556l-1.049-3.49a.966.966,0,0,0-1.152-.661l-3.76.909a.966.966,0,0,0,.454,1.877l1.343-.325C87,31.246,73.007,38.822,53.648,39.916ZM47.794,19.027A4.529,4.529,0,0,1,52.318,14.5c.145,0,.29.008.434.022A3.105,3.105,0,0,1,55.576,12.7h4.776L73.993,8.056a1.322,1.322,0,0,1,1.209.185,1.543,1.543,0,0,1,.642,1.235V14.05a5.07,5.07,0,0,1,0,9.955v4.576a1.539,1.539,0,0,1-.642,1.231,1.348,1.348,0,0,1-.784.256A1.312,1.312,0,0,1,73.989,30L63.847,26.543a4.519,4.519,0,0,1-4.412,3.527c-.133,0-.264-.007-.395-.018v3.581a3.346,3.346,0,0,1-3.047,3.574H53.911a.966.966,0,0,1-.966-.966V23.892a3.074,3.074,0,0,1-.194-.362c-.143.014-.288.021-.433.021a4.529,4.529,0,0,1-4.524-4.524Zm28.05-2.987v5.974a3.139,3.139,0,0,0,0-5.974ZM57.109,33.633V25.353H55.576a3.1,3.1,0,0,1-.7-.08v10h1.116C56.587,35.276,57.109,34.508,57.109,33.633ZM62,25.914l-1.651-.562H59.04v2.753a2.606,2.606,0,0,0,.395.033A2.593,2.593,0,0,0,62,25.914ZM73.913,10.124,61.477,14.358V23.7L73.913,27.93ZM54.4,22.25a1.172,1.172,0,0,0,1.171,1.171h3.97V14.633h-3.97A1.174,1.174,0,0,0,54.4,15.807Zm-4.68-3.223a2.6,2.6,0,0,0,2.593,2.593c.052,0,.1,0,.156-.006V16.441c-.052,0-.1-.006-.156-.006a2.6,2.6,0,0,0-2.593,2.593Zm6.459,3.232h1.494a.966.966,0,0,0,0-1.931H56.184a.966.966,0,0,0,0,1.931Z"/>
    </g>
  </g>
</svg>
