<svg xmlns="http://www.w3.org/2000/svg" xmlns:xlink="http://www.w3.org/1999/xlink" width="113" height="113" viewBox="0 0 113 113">
  <defs>
    <filter id="Trazado_982547" x="0" y="0" width="113" height="113" filterUnits="userSpaceOnUse">
      <feOffset dy="3" input="SourceAlpha"/>
      <feGaussianBlur stdDeviation="3" result="blur"/>
      <feFlood flood-opacity="0.161"/>
      <feComposite operator="in" in2="blur"/>
      <feComposite in="SourceGraphic"/>
    </filter>
  </defs>
  <g id="Grupo_1162211" data-name="Grupo 1162211" transform="translate(-901 -3035.154)">
    <g id="Grupo_1162115" data-name="Grupo 1162115" transform="translate(910 3041.154)">
      <g id="Grupo_1152576" data-name="Grupo 1152576" transform="translate(0)">
        <g id="Grupo_1148633" data-name="Grupo 1148633">
          <g id="Grupo_1148525" data-name="Grupo 1148525">
            <g transform="matrix(1, 0, 0, 1, -9, -6)" filter="url(#Trazado_982547)">
              <g id="Trazado_982547-2" data-name="Trazado 982547" transform="translate(9 6)" fill="#e8edf7">
                <path d="M 47.5 93.5 C 41.28937149047852 93.5 35.26533508300781 92.28397369384766 29.59518623352051 89.88570404052734 C 24.11771965026855 87.56893157958984 19.19813346862793 84.25196075439453 14.97309303283691 80.02691650390625 C 10.74804019927979 75.80186462402344 7.431066513061523 70.88229370117188 5.114293098449707 65.40481567382812 C 2.716026782989502 59.73468017578125 1.5 53.71062850952148 1.5 47.5 C 1.5 41.28937149047852 2.716026782989502 35.26533508300781 5.114293098449707 29.59518623352051 C 7.431066513061523 24.11771965026855 10.74804019927979 19.19813346862793 14.97309303283691 14.97309303283691 C 19.19813346862793 10.74804019927979 24.11771965026855 7.431066513061523 29.59518623352051 5.114293098449707 C 35.26533508300781 2.716026782989502 41.28937149047852 1.5 47.5 1.5 C 53.71062850952148 1.5 59.73468017578125 2.716026782989502 65.40481567382812 5.114293098449707 C 70.88229370117188 7.431066513061523 75.80186462402344 10.74804019927979 80.02691650390625 14.97309303283691 C 84.25196075439453 19.19813346862793 87.56893157958984 24.11771965026855 89.88570404052734 29.59518623352051 C 92.28397369384766 35.26533508300781 93.5 41.28937149047852 93.5 47.5 C 93.5 53.71062850952148 92.28397369384766 59.73468017578125 89.88570404052734 65.40481567382812 C 87.56893157958984 70.88229370117188 84.25196075439453 75.80186462402344 80.02691650390625 80.02691650390625 C 75.80186462402344 84.25196075439453 70.88229370117188 87.56893157958984 65.40481567382812 89.88570404052734 C 59.73468017578125 92.28397369384766 53.71062850952148 93.5 47.5 93.5 Z" stroke="none"/>
                <path d="M 47.5 3 C 41.49121475219727 3 35.66376876831055 4.176155090332031 30.17950439453125 6.495796203613281 C 24.88084411621094 8.736953735351562 20.12152099609375 11.94598388671875 16.03375244140625 16.03375244140625 C 11.94598388671875 20.12152099609375 8.736953735351562 24.88084411621094 6.495796203613281 30.17950439453125 C 4.176155090332031 35.66376876831055 3 41.49121475219727 3 47.5 C 3 53.50878524780273 4.176155090332031 59.33623123168945 6.495796203613281 64.82049560546875 C 8.736953735351562 70.11915588378906 11.94598388671875 74.87847900390625 16.03375244140625 78.96624755859375 C 20.12152099609375 83.05401611328125 24.88084411621094 86.26304626464844 30.17950439453125 88.50419616699219 C 35.66376876831055 90.82384490966797 41.49121475219727 92 47.5 92 C 53.50878524780273 92 59.33623123168945 90.82384490966797 64.82049560546875 88.50419616699219 C 70.11915588378906 86.26304626464844 74.87847900390625 83.05401611328125 78.96624755859375 78.96624755859375 C 83.05401611328125 74.87847900390625 86.26304626464844 70.11915588378906 88.50419616699219 64.82049560546875 C 90.82384490966797 59.33623123168945 92 53.50878524780273 92 47.5 C 92 41.49121475219727 90.82384490966797 35.66376876831055 88.50419616699219 30.17950439453125 C 86.26304626464844 24.88084411621094 83.05401611328125 20.12152099609375 78.96624755859375 16.03375244140625 C 74.87847900390625 11.94598388671875 70.11915588378906 8.736953735351562 64.82049560546875 6.495796203613281 C 59.33623123168945 4.176155090332031 53.50878524780273 3 47.5 3 M 47.5 0 C 73.7335205078125 0 95 21.2664794921875 95 47.5 C 95 73.7335205078125 73.7335205078125 95 47.5 95 C 21.2664794921875 95 0 73.7335205078125 0 47.5 C 0 21.2664794921875 21.2664794921875 0 47.5 0 Z" stroke="none" fill="#2e5bb6"/>
              </g>
            </g>
          </g>
        </g>
      </g>
    </g>
    <g id="sale_2082244" transform="translate(929 3054)">
      <path id="Trazado_995204" data-name="Trazado 995204" d="M14.17,42,5.33,50.84,4,42Z" fill="#ff826e"/>
      <path id="Trazado_995205" data-name="Trazado 995205" d="M14,51a2.006,2.006,0,0,0-2,2v9H8.72a2,2,0,0,1-1.98-1.7l-.68-4.54L18.19,43.64a6.017,6.017,0,0,0,7.62,0L37.94,55.76l-.68,4.54A2,2,0,0,1,35.28,62H32V53a2.015,2.015,0,0,0-2-2,2.006,2.006,0,0,0-2,2v9H24V53a2.015,2.015,0,0,0-2-2,2.006,2.006,0,0,0-2,2v9H16V53a2.015,2.015,0,0,0-2-2Z" fill="#ff826e"/>
      <path id="Trazado_995206" data-name="Trazado 995206" d="M40,42l-1.33,8.84L29.83,42Z" fill="#ff826e"/>
      <path id="Trazado_995207" data-name="Trazado 995207" d="M32,53v9H28V53a2.006,2.006,0,0,1,2-2,2.015,2.015,0,0,1,2,2Z" fill="#fc6e51"/>
      <path id="Trazado_995208" data-name="Trazado 995208" d="M24,53v9H20V53a2.006,2.006,0,0,1,2-2,2.015,2.015,0,0,1,2,2Z" fill="#fc6e51"/>
      <path id="Trazado_995209" data-name="Trazado 995209" d="M16,53v9H12V53a2.006,2.006,0,0,1,2-2,2.015,2.015,0,0,1,2,2Z" fill="#fc6e51"/>
      <g id="Grupo_1162210" data-name="Grupo 1162210">
        <path id="Trazado_995210" data-name="Trazado 995210" d="M4,36H16.81A5.857,5.857,0,0,0,16,39a5.323,5.323,0,0,0,.1,1.07L14.17,42H4a2.006,2.006,0,0,1-2-2V38a2.006,2.006,0,0,1,2-2Z" fill="#e6e9ed"/>
        <path id="Trazado_995211" data-name="Trazado 995211" d="M42,38v2a2.006,2.006,0,0,1-2,2H29.83L27.9,40.07A5.323,5.323,0,0,0,28,39a5.884,5.884,0,0,0-.81-3H40A2.006,2.006,0,0,1,42,38Z" fill="#e6e9ed"/>
        <path id="Trazado_995212" data-name="Trazado 995212" d="M25.81,43.64a6,6,0,0,0,2.09-3.57L29.83,42l8.84,8.84,2.74,2.75a1.994,1.994,0,1,1-2.82,2.82l-.65-.65Z" fill="#e6e9ed"/>
        <path id="Trazado_995213" data-name="Trazado 995213" d="M16.1,40.07a6,6,0,0,0,2.09,3.57L6.06,55.76l-.65.65a1.994,1.994,0,1,1-2.82-2.82l2.74-2.75L14.17,42Z" fill="#e6e9ed"/>
      </g>
      <path id="Trazado_995214" data-name="Trazado 995214" d="M27.19,36A5.884,5.884,0,0,1,28,39a5.323,5.323,0,0,1-.1,1.07,5.994,5.994,0,0,1-11.8,0A5.323,5.323,0,0,1,16,39a5.857,5.857,0,0,1,.81-3A5.605,5.605,0,0,1,18,34.54a5.965,5.965,0,0,1,8,0A5.606,5.606,0,0,1,27.19,36Z" fill="#fcd770"/>
      <circle id="Elipse_12014" data-name="Elipse 12014" cx="2" cy="2" r="2" transform="translate(20 37)" fill="#ff826e"/>
      <path id="Trazado_995215" data-name="Trazado 995215" d="M26,25.18v9.36a5.965,5.965,0,0,0-8,0V25h4.57A32.7,32.7,0,0,1,26,25.18Z" fill="#969faa"/>
      <path id="Trazado_995216" data-name="Trazado 995216" d="M20,25V7h2.57A32.876,32.876,0,0,0,40,2V30a32.905,32.905,0,0,0-17.43-5Z" fill="#e6e9ed"/>
      <path id="Trazado_995217" data-name="Trazado 995217" d="M20,7V25H18a8,8,0,0,1-8-8V15a8,8,0,0,1,8-8Z" fill="#e6e9ed"/>
      <path id="Trazado_995218" data-name="Trazado 995218" d="M46,21v9H40V2h6V21Z" fill="#ff826e"/>
      <path id="Trazado_995219" data-name="Trazado 995219" d="M52,13v6l-6,2V11Z" fill="#fcd770"/>
      <circle id="Elipse_12015" data-name="Elipse 12015" cx="10" cy="10" r="10" transform="translate(42 42)" fill="#fcd770"/>
      <path id="Trazado_995220" data-name="Trazado 995220" d="M22,42a3,3,0,1,0-3-3A3,3,0,0,0,22,42Zm0-4a1,1,0,1,1-1,1A1,1,0,0,1,22,38Z"/>
      <path id="Trazado_995221" data-name="Trazado 995221" d="M31.076,23.021q.945.229,1.876.513l.58-1.914q-.982-.3-1.981-.542Z"/>
      <path id="Trazado_995222" data-name="Trazado 995222" d="M34.8,24.146q.914.333,1.812.714l.781-1.842q-.945-.4-1.909-.751Z"/>
      <path id="Trazado_995223" data-name="Trazado 995223" d="M27.251,22.306q.968.129,1.923.307l.367-1.967q-1.008-.187-2.026-.322Z"/>
      <path id="Trazado_995224" data-name="Trazado 995224" d="M37.392,8.98l-.783-1.84a35.848,35.848,0,0,1-9.729,2.6l.24,1.986A37.772,37.772,0,0,0,37.392,8.98Z"/>
      <path id="Trazado_995225" data-name="Trazado 995225" d="M25.066,11.918l-.133-2q-.969.065-1.945.075l.023,2q1.032-.012,2.055-.079Z"/>
      <path id="Trazado_995226" data-name="Trazado 995226" d="M53,49a1,1,0,0,1,1,1h2a3,3,0,0,0-3-3V45H51v2H48v3a3,3,0,0,0,3,3h2a1,1,0,0,1,1,1v1H51a1,1,0,0,1-1-1H48a3,3,0,0,0,3,3v2h2V57h3V54a3,3,0,0,0-3-3H51a1,1,0,0,1-1-1V49Z"/>
      <path id="Trazado_995227" data-name="Trazado 995227" d="M52,41A11.006,11.006,0,0,0,41.012,51.769l-1.275-1.275,1.147-7.642A2.994,2.994,0,0,0,43,40V38a3,3,0,0,0-3-3H27.736A7.046,7.046,0,0,0,27,34.111v-7.8a31.879,31.879,0,0,1,12.47,4.538l.243.152H47V21.72l6-2V12.279l-6-2V1H39.713l-.243.152A31.863,31.863,0,0,1,22.566,6H18a9.01,9.01,0,0,0-9,9v2a9.01,9.01,0,0,0,8,8.941v8.17a7.047,7.047,0,0,0-.736.889H4a3,3,0,0,0-3,3v2a2.994,2.994,0,0,0,2.116,2.852l1.147,7.643L1.879,52.88a2.989,2.989,0,0,0,3.46,4.791l.416,2.775A2.985,2.985,0,0,0,8.723,63H35.278a2.985,2.985,0,0,0,2.968-2.555l.416-2.774a2.956,2.956,0,0,0,3.459-.55c.036-.036.062-.079.1-.116A11,11,0,1,0,52,41ZM32.244,43h6.594l-.861,5.735ZM40,37a1,1,0,0,1,1,1v2a1,1,0,0,1-1,1H30.245l-1.281-1.282c.023-.236.036-.476.036-.718a6.956,6.956,0,0,0-.3-2ZM31,61H29V53a1,1,0,0,1,2,0ZM30,50a3,3,0,0,0-3,3v8H25V53a3,3,0,0,0-6,0v8H17V53a3,3,0,0,0-3-3,2.965,2.965,0,0,0-.916.158l5.223-5.223a6.935,6.935,0,0,0,7.386,0l5.223,5.223A2.965,2.965,0,0,0,30,50ZM23,61H21V53a1,1,0,0,1,2,0Zm-8,0H13V53a1,1,0,0,1,2,0ZM25,32.685a6.912,6.912,0,0,0-6,0V26h3.566c.815,0,1.626.037,2.434.1ZM51,13.721V18.28l-4,1.334V12.388ZM45,29H41V3h4ZM39,3.728V28.272A33.835,33.835,0,0,0,22.566,24H21V8h1.566A33.835,33.835,0,0,0,39,3.728ZM11,17V15a7.009,7.009,0,0,1,7-7h1V24H18A7.009,7.009,0,0,1,11,17ZM22,34a5,5,0,1,1-5,5A5.006,5.006,0,0,1,22,34ZM3,38a1,1,0,0,1,1-1H15.3a6.956,6.956,0,0,0-.3,2,7.106,7.106,0,0,0,.037.719L13.756,41H4a1,1,0,0,1-1-1Zm2.162,5h6.6L6.023,48.735ZM3.293,55.707a1,1,0,0,1,0-1.414L15.652,41.932a7.026,7.026,0,0,0,1.121,1.708L4.707,55.707a1.014,1.014,0,0,1-1.414,0Zm4.44,4.441-.605-4.035,4.03-4.03A2.976,2.976,0,0,0,11,53v8H8.723A1.007,1.007,0,0,1,7.733,60.148ZM35.277,61H33V53a2.965,2.965,0,0,0-.158-.916l4.03,4.03-.6,4.034a1.007,1.007,0,0,1-.99.852Zm5.43-5.293a1.014,1.014,0,0,1-1.414,0L27.226,43.64a7.006,7.006,0,0,0,1.122-1.709L40.707,54.293a1,1,0,0,1,0,1.414ZM52,61a9,9,0,1,1,9-9A9.01,9.01,0,0,1,52,61Z"/>
    </g>
  </g>
</svg>
