<svg xmlns="http://www.w3.org/2000/svg" xmlns:xlink="http://www.w3.org/1999/xlink" width="108" height="108" viewBox="0 0 108 108">
  <defs>
    <filter id="Trazado_982547" x="0" y="0" width="108" height="108" filterUnits="userSpaceOnUse">
      <feOffset dy="3" input="SourceAlpha"/>
      <feGaussianBlur stdDeviation="3" result="blur"/>
      <feFlood flood-opacity="0.161"/>
      <feComposite operator="in" in2="blur"/>
      <feComposite in="SourceGraphic"/>
    </filter>
  </defs>
  <g id="Grupo_1162344" data-name="Grupo 1162344" transform="translate(-616 -514)">
    <g id="Grupo_1162135" data-name="Grupo 1162135" transform="translate(625 520)">
      <g id="Grupo_1159095" data-name="Grupo 1159095" transform="translate(0)">
        <g id="Grupo_1154033" data-name="Grupo 1154033">
          <g id="Grupo_1153177" data-name="Grupo 1153177">
            <g id="Grupo_1149598" data-name="Grupo 1149598">
              <g id="Grupo_1148770" data-name="Grupo 1148770">
                <g id="Grupo_1146954" data-name="Grupo 1146954">
                  <g transform="matrix(1, 0, 0, 1, -9, -6)" filter="url(#Trazado_982547)">
                    <g id="Trazado_982547-2" data-name="Trazado 982547" transform="translate(9 6)" fill="#f5fdfa">
                      <path d="M 45.00000762939453 88.5 C 39.12688446044922 88.5 33.43023300170898 87.35007476806641 28.06830787658691 85.08217620849609 C 22.8885326385498 82.89131164550781 18.23630714416504 79.75458526611328 14.24085807800293 75.75914764404297 C 10.24542045593262 71.76370239257812 7.108695030212402 67.11147308349609 4.917832851409912 61.93170166015625 C 2.649932622909546 56.56977462768555 1.500007629394531 50.87312316894531 1.500007629394531 45 C 1.500007629394531 39.12687683105469 2.649932622909546 33.43022537231445 4.917832851409912 28.06830024719238 C 7.108695030212402 22.88852500915527 10.24542045593262 18.23629951477051 14.24085807800293 14.2408504486084 C 18.23630714416504 10.24541282653809 22.8885326385498 7.108687400817871 28.06830787658691 4.917825222015381 C 33.43023300170898 2.649924993515015 39.12688446044922 1.5 45.00000762939453 1.5 C 50.87313079833984 1.5 56.56978225708008 2.649924993515015 61.93170928955078 4.917825222015381 C 67.11148071289062 7.108687400817871 71.76371002197266 10.24541282653809 75.7591552734375 14.2408504486084 C 79.75459289550781 18.23629951477051 82.89131927490234 22.88852500915527 85.08218383789062 28.06830024719238 C 87.35008239746094 33.43022537231445 88.50000762939453 39.12687683105469 88.50000762939453 45 C 88.50000762939453 50.87312316894531 87.35008239746094 56.56977462768555 85.08218383789062 61.93170166015625 C 82.89131927490234 67.11147308349609 79.75459289550781 71.76370239257812 75.7591552734375 75.75914764404297 C 71.76371002197266 79.75458526611328 67.11148071289062 82.89131164550781 61.93170928955078 85.08217620849609 C 56.56978225708008 87.35007476806641 50.87313079833984 88.5 45.00000762939453 88.5 Z" stroke="none"/>
                      <path d="M 45.00000762939453 3 C 39.32872009277344 3 33.82866287231445 4.110054016113281 28.65263748168945 6.299339294433594 C 23.65166473388672 8.414573669433594 19.15969085693359 11.44334411621094 15.30152130126953 15.301513671875 C 11.44335174560547 19.15968322753906 8.414581298828125 23.65165710449219 6.299346923828125 28.65262985229492 C 4.110061645507812 33.82865524291992 3.000007629394531 39.32871246337891 3.000007629394531 45 C 3.000007629394531 50.67128753662109 4.110061645507812 56.17134475708008 6.299346923828125 61.34737396240234 C 8.414581298828125 66.34834289550781 11.44335174560547 70.84031677246094 15.30152130126953 74.698486328125 C 19.15969085693359 78.55665588378906 23.65166473388672 81.58542633056641 28.65263748168945 83.70066070556641 C 33.82866287231445 85.88994598388672 39.32872009277344 87 45.00000762939453 87 C 50.67129516601562 87 56.17135238647461 85.88994598388672 61.34738159179688 83.70066070556641 C 66.34835052490234 81.58542633056641 70.84032440185547 78.55665588378906 74.69849395751953 74.698486328125 C 78.55666351318359 70.84031677246094 81.58543395996094 66.34834289550781 83.70066833496094 61.34737396240234 C 85.88995361328125 56.17134475708008 87.00000762939453 50.67128753662109 87.00000762939453 45 C 87.00000762939453 39.32871246337891 85.88995361328125 33.82865524291992 83.70066833496094 28.65262985229492 C 81.58543395996094 23.65165710449219 78.55666351318359 19.15968322753906 74.69849395751953 15.301513671875 C 70.84032440185547 11.44334411621094 66.34835052490234 8.414573669433594 61.34738159179688 6.299339294433594 C 56.17135238647461 4.110054016113281 50.67129516601562 3 45.00000762939453 3 M 45.00000762939453 0 C 69.85282135009766 0 90.00000762939453 20.14718627929688 90.00000762939453 45 C 90.00000762939453 69.85281372070312 69.85282135009766 90 45.00000762939453 90 C 20.14719390869141 90 7.62939453125e-06 69.85281372070312 7.62939453125e-06 45 C 7.62939453125e-06 20.14718627929688 20.14719390869141 0 45.00000762939453 0 Z" stroke="none" fill="#ee9865"/>
                    </g>
                  </g>
                </g>
              </g>
            </g>
          </g>
        </g>
      </g>
    </g>
    <g id="ecommerce_3591176" transform="translate(624.162 528.301)">
      <path id="Trazado_996086" data-name="Trazado 996086" d="M103.173,89.836a16.16,16.16,0,1,1-16.16-16.169A16.165,16.165,0,0,1,103.173,89.836Z" transform="translate(-40.891 -52.334)" fill="#f0c020"/>
      <path id="Trazado_996087" data-name="Trazado 996087" d="M101.316,118.792h15.091v10.345H101.316Z" transform="translate(-62.74 -84.698)" fill="#fc5d3d"/>
      <path id="Trazado_996088" data-name="Trazado 996088" d="M92.4,119.168A14.039,14.039,0,0,1,82.47,95.207a.707.707,0,0,1,1,1A12.626,12.626,0,0,0,92.4,117.754a12.707,12.707,0,0,0,5.688-1.346.707.707,0,0,1,.636,1.263A14.125,14.125,0,0,1,92.4,119.168Zm7.827-3.216a.707.707,0,0,1,.105-.994,12.7,12.7,0,0,0,.995-.9.707.707,0,0,1,1,1,14.2,14.2,0,0,1-1.106,1A.707.707,0,0,1,100.225,115.952Z" transform="translate(-46.278 -67.634)" fill="#f9e5af"/>
      <g id="Grupo_1162343" data-name="Grupo 1162343" transform="translate(17.799 4.796)">
        <path id="Trazado_996089" data-name="Trazado 996089" d="M197.779,170.35v2.358a7.441,7.441,0,0,0,4.294,1.342,7.562,7.562,0,0,0,4.294-1.337V170.35a2.961,2.961,0,0,0-2.224-2.87.319.319,0,0,1-.143-.53,2.7,2.7,0,0,0,.766-2.174,2.707,2.707,0,1,0-4.631,2.166.321.321,0,0,1-.134.538A2.96,2.96,0,0,0,197.779,170.35Z" transform="translate(-149.723 -120.732)" fill="#72c1e8"/>
        <path id="Trazado_996090" data-name="Trazado 996090" d="M112.81,23.19v2.358a7.553,7.553,0,0,0,8.589.006V23.19a2.961,2.961,0,0,0-2.224-2.87.319.319,0,0,1-.143-.53,2.7,2.7,0,0,0,.766-2.174,2.707,2.707,0,1,0-4.631,2.166.321.321,0,0,1-.134.538,2.96,2.96,0,0,0-2.224,2.869Z" transform="translate(-88.782 -15.187)" fill="#72c1e8"/>
        <path id="Trazado_996091" data-name="Trazado 996091" d="M27.844,72.245V74.6a7.441,7.441,0,0,0,4.294,1.342,7.562,7.562,0,0,0,4.294-1.337V72.245a2.961,2.961,0,0,0-2.224-2.87.319.319,0,0,1-.143-.53,2.7,2.7,0,1,0-3.865-.008.321.321,0,0,1-.134.538,2.96,2.96,0,0,0-2.224,2.869Z" transform="translate(-27.844 -50.37)" fill="#72c1e8"/>
        <path id="Trazado_996092" data-name="Trazado 996092" d="M197.777,72.245V74.6a7.442,7.442,0,0,0,4.3,1.342,7.564,7.564,0,0,0,4.289-1.337V72.245a2.961,2.961,0,0,0-2.224-2.87.319.319,0,0,1-.143-.53,2.7,2.7,0,1,0-3.865-.008.321.321,0,0,1-.134.538,2.96,2.96,0,0,0-2.224,2.869Z" transform="translate(-149.722 -50.37)" fill="#72c1e8"/>
        <path id="Trazado_996093" data-name="Trazado 996093" d="M112.81,219.412v2.358a7.442,7.442,0,0,0,4.294,1.342,7.563,7.563,0,0,0,4.295-1.337v-2.363a2.961,2.961,0,0,0-2.224-2.87.319.319,0,0,1-.143-.53,2.7,2.7,0,1,0-3.865-.008.321.321,0,0,1-.134.538,2.96,2.96,0,0,0-2.224,2.869Z" transform="translate(-88.782 -155.92)" fill="#72c1e8"/>
        <path id="Trazado_996094" data-name="Trazado 996094" d="M27.843,170.357v2.358a7.437,7.437,0,0,0,4.213,1.342,7.564,7.564,0,0,0,4.376-1.336v-2.363a2.961,2.961,0,0,0-2.224-2.87.319.319,0,0,1-.143-.53,2.7,2.7,0,0,0,.766-2.174,2.707,2.707,0,1,0-4.631,2.166.321.321,0,0,1-.134.538,2.96,2.96,0,0,0-2.224,2.869Z" transform="translate(-27.843 -120.737)" fill="#72c1e8"/>
      </g>
      <path id="Trazado_996095" data-name="Trazado 996095" d="M97.724,78.669a.707.707,0,1,0,.964.266.723.723,0,0,0-.964-.266Z" transform="translate(-59.907 -55.859)"/>
      <path id="Trazado_996096" data-name="Trazado 996096" d="M234.931,163.1a.707.707,0,1,0,.945.334A.727.727,0,0,0,234.931,163.1Z" transform="translate(-158.282 -116.433)"/>
      <path id="Trazado_996097" data-name="Trazado 996097" d="M13.862,49.978a8.255,8.255,0,0,0,3.526,7.372h0a8.1,8.1,0,0,0,4.686,1.477,8.253,8.253,0,0,0,7.489-11.755l1.956-1.129a16.828,16.828,0,0,0,13.893,8.409v1.87A8.254,8.254,0,0,0,46.1,72.7h0a8.256,8.256,0,0,0,.724-16.481V54.352a16.841,16.841,0,0,0,13.894-8.409l1.957,1.13a8.25,8.25,0,1,0,15.7,2.9.714.714,0,0,0-.755-.656.706.706,0,0,0-.653.758,6.849,6.849,0,0,1-1.821,5.156v-.821a3.669,3.669,0,0,0-2.191-3.36,3.413,3.413,0,1,0-5.619,0,3.669,3.669,0,0,0-2.192,3.36v.816a6.838,6.838,0,0,1,9.663-9.667.727.727,0,0,0,1-.037.706.706,0,0,0-.037-1,8.247,8.247,0,0,0-12.385,1.32l-2-1.158a16.866,16.866,0,0,0-.645-15.612l2.651-1.531a8.137,8.137,0,0,0,6.761,3.531,8.253,8.253,0,1,0-8.216-7.651,8.381,8.381,0,0,0,.752,2.893l-2.706,1.562a16.806,16.806,0,0,0-13.15-7.238v-3.47a8.2,8.2,0,0,0,7.534-8.4,8.246,8.246,0,1,0-8.948,8.406v3.463a16.8,16.8,0,0,0-4.915.944.707.707,0,0,0-.433.9.72.72,0,0,0,.9.433,15.475,15.475,0,1,1-4.677,2.65.708.708,0,0,0,.093-1,.727.727,0,0,0-1-.093,16.938,16.938,0,0,0-3.13,3.4l-2.694-1.556a8.261,8.261,0,1,0-.707,1.224l2.647,1.529a16.867,16.867,0,0,0-.643,15.613l-2.006,1.157a8.247,8.247,0,0,0-12.386-1.32.706.706,0,0,0-.034,1,.728.728,0,0,0,1,.037,6.839,6.839,0,0,1,9.659,9.674v-.821a3.669,3.669,0,0,0-2.192-3.36,3.413,3.413,0,1,0-5.619,0,3.669,3.669,0,0,0-2.192,3.36v.816a6.838,6.838,0,0,1-1.819-5.152.707.707,0,0,0-1.411-.1Zm54.392,2.252a1.028,1.028,0,0,0,.465-1.716A2,2,0,0,1,70.38,47.13a2.027,2.027,0,0,1,1.759,1.78,1.975,1.975,0,0,1-.561,1.6,1.027,1.027,0,0,0,.466,1.715,2.254,2.254,0,0,1,1.692,2.185v1.975a6.849,6.849,0,0,1-3.6,1.017,6.759,6.759,0,0,1-3.577-1.019V54.414A2.254,2.254,0,0,1,68.254,52.229Zm0-27.743a1.028,1.028,0,0,0,.465-1.716,2,2,0,0,1,1.429-3.4,2.02,2.02,0,0,1,1.99,1.793,1.975,1.975,0,0,1-.561,1.6,1.027,1.027,0,0,0,.466,1.715,2.254,2.254,0,0,1,1.692,2.185v1.975a6.905,6.905,0,0,1-3.587,1.023,6.669,6.669,0,0,1-3.587-1.023V26.671a2.254,2.254,0,0,1,1.692-2.185Zm1.895-8.5a6.843,6.843,0,0,1,5,11.507v-.822a3.669,3.669,0,0,0-2.191-3.36,3.413,3.413,0,1,0-5.619,0,3.669,3.669,0,0,0-2.192,3.36v.809a6.844,6.844,0,0,1,5-11.494ZM42.534,14.773V12.8a2.254,2.254,0,0,1,1.692-2.185A1.028,1.028,0,0,0,44.692,8.9a2,2,0,0,1,1.661-3.383A2.026,2.026,0,0,1,48.111,7.3a1.976,1.976,0,0,1-.561,1.6,1.027,1.027,0,0,0,.466,1.715A2.254,2.254,0,0,1,49.709,12.8v1.975a6.8,6.8,0,0,1-7.175,0Zm3.6-12.66a6.845,6.845,0,0,1,4.989,11.508V12.8a3.669,3.669,0,0,0-2.191-3.36,3.413,3.413,0,1,0-5.619,0,3.669,3.669,0,0,0-2.192,3.36v.809a6.892,6.892,0,0,1-1.825-4.623,6.822,6.822,0,0,1,6.838-6.872ZM44.226,66.1a1.028,1.028,0,0,0,.466-1.716,2,2,0,0,1,1.429-3.4,2.02,2.02,0,0,1,1.99,1.793,1.975,1.975,0,0,1-.561,1.6,1.027,1.027,0,0,0,.466,1.715,2.254,2.254,0,0,1,1.692,2.185v1.975a6.867,6.867,0,0,1-3.55,1.022,6.708,6.708,0,0,1-3.624-1.023V68.288A2.255,2.255,0,0,1,44.226,66.1Zm6.9,3.007v-.822a3.669,3.669,0,0,0-2.191-3.36,3.413,3.413,0,1,0-5.619,0,3.669,3.669,0,0,0-2.192,3.36V69.1a6.716,6.716,0,0,1-1.829-4.521A6.839,6.839,0,1,1,51.122,69.11ZM20.2,24.486a1.028,1.028,0,0,0,.465-1.716,2,2,0,0,1,1.429-3.4,2.02,2.02,0,0,1,1.99,1.793,1.975,1.975,0,0,1-.562,1.6,1.027,1.027,0,0,0,.466,1.715,2.254,2.254,0,0,1,1.692,2.185v1.975a6.865,6.865,0,0,1-3.587,1.021,6.719,6.719,0,0,1-3.587-1.023V26.671A2.255,2.255,0,0,1,20.2,24.486Zm6.9,3.007v-.822a3.669,3.669,0,0,0-2.191-3.36,3.413,3.413,0,1,0-5.619,0,3.668,3.668,0,0,0-2.192,3.36v.809a6.893,6.893,0,0,1-1.824-4.533,6.832,6.832,0,1,1,11.826,4.546ZM20.2,52.231a1.028,1.028,0,0,0,.466-1.716,2,2,0,0,1,1.661-3.383,2.027,2.027,0,0,1,1.759,1.78,1.974,1.974,0,0,1-.562,1.6,1.027,1.027,0,0,0,.466,1.715,2.254,2.254,0,0,1,1.692,2.185v1.976a6.851,6.851,0,0,1-3.6,1.017,6.762,6.762,0,0,1-3.579-1.02V54.416A2.254,2.254,0,0,1,20.2,52.231Z" transform="translate(0 0)"/>
      <path id="Trazado_996098" data-name="Trazado 996098" d="M16.871,164.389a.707.707,0,0,0,.611-1.275.723.723,0,0,0-.942.331v0A.7.7,0,0,0,16.871,164.389Z" transform="translate(-1.887 -116.439)"/>
      <path id="Trazado_996099" data-name="Trazado 996099" d="M107.021,98.125a3.963,3.963,0,0,0-3.959,3.959v1.178H99.523a.707.707,0,0,0-.707.707v10.345a.707.707,0,0,0,.707.707h15.091a.707.707,0,0,0,.707-.707V103.969a.707.707,0,0,0-.707-.707H110.98v-1.178A3.963,3.963,0,0,0,107.021,98.125Zm-2.545,3.959a2.545,2.545,0,0,1,5.09,0v1.178h-5.09Zm9.431,2.592v8.931H100.23v-8.931h2.832v2.18a.707.707,0,1,0,1.414,0v-2.18h5.09v2.18a.707.707,0,1,0,1.414,0v-2.18Z" transform="translate(-60.947 -69.875)"/>
    </g>
  </g>
</svg>
