<svg xmlns="http://www.w3.org/2000/svg" xmlns:xlink="http://www.w3.org/1999/xlink" width="108" height="108" viewBox="0 0 108 108">
  <defs>
    <filter id="Trazado_982547" x="0" y="0" width="108" height="108" filterUnits="userSpaceOnUse">
      <feOffset dy="3" input="SourceAlpha"/>
      <feGaussianBlur stdDeviation="3" result="blur"/>
      <feFlood flood-opacity="0.161"/>
      <feComposite operator="in" in2="blur"/>
      <feComposite in="SourceGraphic"/>
    </filter>
  </defs>
  <g id="Grupo_1159151" data-name="Grupo 1159151" transform="translate(-196 -485)">
    <g id="Grupo_1155782" data-name="Grupo 1155782" transform="translate(205 491)">
      <g id="Grupo_1154033" data-name="Grupo 1154033">
        <g id="Grupo_1153177" data-name="Grupo 1153177">
          <g id="Grupo_1149598" data-name="Grupo 1149598">
            <g id="Grupo_1148770" data-name="Grupo 1148770">
              <g id="Grupo_1146954" data-name="Grupo 1146954">
                <g transform="matrix(1, 0, 0, 1, -9, -6)" filter="url(#Trazado_982547)">
                  <g id="Trazado_982547-2" data-name="Trazado 982547" transform="translate(9 6)" fill="#f5fdfa">
                    <path d="M 45 88.5 C 39.12687683105469 88.5 33.43022537231445 87.35007476806641 28.06830024719238 85.08217620849609 C 22.88852500915527 82.89131164550781 18.23629951477051 79.75458526611328 14.2408504486084 75.75914764404297 C 10.24541282653809 71.76370239257812 7.108687400817871 67.11147308349609 4.917825222015381 61.93170166015625 C 2.649924993515015 56.56977462768555 1.5 50.87312316894531 1.5 45 C 1.5 39.12687683105469 2.649924993515015 33.43022537231445 4.917825222015381 28.06830024719238 C 7.108687400817871 22.88852500915527 10.24541282653809 18.23629951477051 14.2408504486084 14.2408504486084 C 18.23629951477051 10.24541282653809 22.88852500915527 7.108687400817871 28.06830024719238 4.917825222015381 C 33.43022537231445 2.649924993515015 39.12687683105469 1.5 45 1.5 C 50.87312316894531 1.5 56.56977462768555 2.649924993515015 61.93170166015625 4.917825222015381 C 67.11147308349609 7.108687400817871 71.76370239257812 10.24541282653809 75.75914764404297 14.2408504486084 C 79.75458526611328 18.23629951477051 82.89131164550781 22.88852500915527 85.08217620849609 28.06830024719238 C 87.35007476806641 33.43022537231445 88.5 39.12687683105469 88.5 45 C 88.5 50.87312316894531 87.35007476806641 56.56977462768555 85.08217620849609 61.93170166015625 C 82.89131164550781 67.11147308349609 79.75458526611328 71.76370239257812 75.75914764404297 75.75914764404297 C 71.76370239257812 79.75458526611328 67.11147308349609 82.89131164550781 61.93170166015625 85.08217620849609 C 56.56977462768555 87.35007476806641 50.87312316894531 88.5 45 88.5 Z" stroke="none"/>
                    <path d="M 45 3 C 39.32871246337891 3 33.82865524291992 4.110054016113281 28.65262985229492 6.299339294433594 C 23.65165710449219 8.414573669433594 19.15968322753906 11.44334411621094 15.301513671875 15.301513671875 C 11.44334411621094 19.15968322753906 8.414573669433594 23.65165710449219 6.299339294433594 28.65262985229492 C 4.110054016113281 33.82865524291992 3 39.32871246337891 3 45 C 3 50.67128753662109 4.110054016113281 56.17134475708008 6.299339294433594 61.34737396240234 C 8.414573669433594 66.34834289550781 11.44334411621094 70.84031677246094 15.301513671875 74.698486328125 C 19.15968322753906 78.55665588378906 23.65165710449219 81.58542633056641 28.65262985229492 83.70066070556641 C 33.82865524291992 85.88994598388672 39.32871246337891 87 45 87 C 50.67128753662109 87 56.17134475708008 85.88994598388672 61.34737396240234 83.70066070556641 C 66.34834289550781 81.58542633056641 70.84031677246094 78.55665588378906 74.698486328125 74.698486328125 C 78.55665588378906 70.84031677246094 81.58542633056641 66.34834289550781 83.70066070556641 61.34737396240234 C 85.88994598388672 56.17134475708008 87 50.67128753662109 87 45 C 87 39.32871246337891 85.88994598388672 33.82865524291992 83.70066070556641 28.65262985229492 C 81.58542633056641 23.65165710449219 78.55665588378906 19.15968322753906 74.698486328125 15.301513671875 C 70.84031677246094 11.44334411621094 66.34834289550781 8.414573669433594 61.34737396240234 6.299339294433594 C 56.17134475708008 4.110054016113281 50.67128753662109 3 45 3 M 45 0 C 69.85281372070312 0 90 20.14718627929688 90 45 C 90 69.85281372070312 69.85281372070312 90 45 90 C 20.14718627929688 90 0 69.85281372070312 0 45 C 0 20.14718627929688 20.14718627929688 0 45 0 Z" stroke="none" fill="#ee9865"/>
                  </g>
                </g>
              </g>
            </g>
          </g>
        </g>
      </g>
    </g>
    <g id="teacher_4202854_5_" data-name="teacher_4202854 (5)" transform="translate(218.185 504)">
      <path id="Trazado_994312" data-name="Trazado 994312" d="M46,12v4.77A2.965,2.965,0,0,0,44,16c-13,0-13-5-13-5,0,5-5,5-5,5a2.965,2.965,0,0,0-2,.77V12a11,11,0,0,1,22,0Z" fill="#555a66"/>
      <path id="Trazado_994313" data-name="Trazado 994313" d="M35,1A10.994,10.994,0,0,0,24,12v4a11,11,0,0,1,22,0V12A10.994,10.994,0,0,0,35,1Z" fill="#414952"/>
      <path id="Trazado_994314" data-name="Trazado 994314" d="M37,59h1v4H36a2.006,2.006,0,0,1-2-2V56a3,3,0,0,0,3,3Z" fill="#cfa388"/>
      <path id="Trazado_994315" data-name="Trazado 994315" d="M37,59a3,3,0,0,1-3-3v2a3,3,0,0,0,3,3h1V59Z" fill="#b2876d"/>
      <path id="Trazado_994316" data-name="Trazado 994316" d="M38,47v6H37a3,3,0,0,0-3,3V49a2.006,2.006,0,0,1,2-2Z" fill="#cfa388"/>
      <path id="Trazado_994317" data-name="Trazado 994317" d="M48,59v4H38V59H48Z" fill="#966857"/>
      <path id="Trazado_994318" data-name="Trazado 994318" d="M48,59v2H38V59H48Z" fill="#8d5c4d"/>
      <path id="Trazado_994319" data-name="Trazado 994319" d="M48,47v6H38V47Z" fill="#966857"/>
      <path id="Trazado_994320" data-name="Trazado 994320" d="M35,36l-3,3-4-4V34l4-1Z" fill="#bec3d2"/>
      <path id="Trazado_994321" data-name="Trazado 994321" d="M42,34.07V35l-4,4-3-3,3-3Z" fill="#bec3d2"/>
      <path id="Trazado_994322" data-name="Trazado 994322" d="M38,39l-2,2H34l-2-2,3-3Z" fill="#4ab8f7"/>
      <path id="Trazado_994323" data-name="Trazado 994323" d="M36,41l1.38,6H36a2.006,2.006,0,0,0-2,2v7l-3-2,3-13Z" fill="#19cffc"/>
      <path id="Trazado_994324" data-name="Trazado 994324" d="M12,51a37.463,37.463,0,0,1-1,8s-7,0-7-8a4,4,0,0,0,8,0Z" fill="#bec3d2"/>
      <path id="Trazado_994325" data-name="Trazado 994325" d="M53,51h6.41c.06.39.12.79.17,1.2a5.963,5.963,0,0,1-1.64,4.96C57.42,53,53,53,53,53Z" fill="#bec3d2"/>
      <path id="Trazado_994326" data-name="Trazado 994326" d="M48,59h5v4H48Z" fill="#f2f6fc"/>
      <path id="Trazado_994327" data-name="Trazado 994327" d="M36,63H20V48L11,59a37.463,37.463,0,0,0,1-8l2-12,2-2,12-3v1l4,4,2,2L31,54l3,2v5A2.006,2.006,0,0,0,36,63Z" fill="#dce1eb"/>
      <path id="Trazado_994328" data-name="Trazado 994328" d="M53,51v2H48V47H37.38L36,41l2-2,4-4v-.93L53,37s4.73,3.38,6.41,14Z" fill="#dce1eb"/>
      <path id="Trazado_994329" data-name="Trazado 994329" d="M15,26v7H12V26Z" fill="#faa68e"/>
      <path id="Trazado_994330" data-name="Trazado 994330" d="M6,30h6v3H6Z" fill="#ffcdbe"/>
      <path id="Trazado_994331" data-name="Trazado 994331" d="M14,36a2.938,2.938,0,0,0-3,3H8L6,37V33h5a2.938,2.938,0,0,0,3,3Z" fill="#faa68e"/>
      <path id="Trazado_994332" data-name="Trazado 994332" d="M16,33v4l-2,2H11a2.938,2.938,0,0,1,3-3,2.938,2.938,0,0,1-3-3Z" fill="#ffbeaa"/>
      <path id="Trazado_994333" data-name="Trazado 994333" d="M14,39,12,51a4,4,0,0,1-8,0L8,39Z" fill="#ffcdbe"/>
      <path id="Trazado_994334" data-name="Trazado 994334" d="M10,54a4,4,0,0,1-4-4L9.667,39H8L4,51a3.988,3.988,0,0,0,6.708,2.929A4.036,4.036,0,0,1,10,54Z" fill="#ffbeaa"/>
      <path id="Trazado_994335" data-name="Trazado 994335" d="M53,53s4.42,0,4.94,4.16A5.929,5.929,0,0,1,53.63,59H37a3,3,0,1,1,0-6Z" fill="#ffcdbe"/>
      <path id="Trazado_994336" data-name="Trazado 994336" d="M53.63,57H37a2.963,2.963,0,0,1-2.816-2A2.991,2.991,0,0,0,37,59H53.63a5.929,5.929,0,0,0,4.31-1.84,4.884,4.884,0,0,0-.462-1.568A5.92,5.92,0,0,1,53.63,57Z" fill="#ffbeaa"/>
      <g id="Grupo_1159150" data-name="Grupo 1159150">
        <path id="Trazado_994337" data-name="Trazado 994337" d="M38,30.48V33l-3,3-3-3V30.48a8.914,8.914,0,0,0,6,0Z" fill="#faa68e"/>
        <path id="Trazado_994338" data-name="Trazado 994338" d="M24,16.77A2.965,2.965,0,0,1,26,16v6a3,3,0,0,1-3-3A2.94,2.94,0,0,1,24,16.77Z" fill="#faa68e"/>
        <path id="Trazado_994339" data-name="Trazado 994339" d="M44,16a3,3,0,0,1,0,6Z" fill="#faa68e"/>
      </g>
      <path id="Trazado_994340" data-name="Trazado 994340" d="M44,16v6a9,9,0,0,1-18,0V16s5,0,5-5C31,11,31,16,44,16Z" fill="#ffcdbe"/>
      <path id="Trazado_994341" data-name="Trazado 994341" d="M31,11c0,5-5,5-5,5v2s5,0,5-5c0,0,0,5,13,5V16C31,16,31,11,31,11Z" fill="#ffbeaa"/>
      <path id="Trazado_994342" data-name="Trazado 994342" d="M35,32A10.011,10.011,0,0,1,25,22V16a1,1,0,0,1,1-1,3.85,3.85,0,0,0,4-4,1,1,0,1,1,2,0c0,.008.411,4,12,4a1,1,0,0,1,1,1v6A10.011,10.011,0,0,1,35,32ZM27,16.915V22a8,8,0,0,0,16,0V16.99c-6.784-.138-10.03-1.684-11.583-3.178A5.821,5.821,0,0,1,27,16.915Z"/>
      <path id="Trazado_994343" data-name="Trazado 994343" d="M44,23V21a2,2,0,0,0,0-4V15a4,4,0,0,1,0,8Z"/>
      <path id="Trazado_994344" data-name="Trazado 994344" d="M26,23a4,4,0,0,1,0-8v2a2,2,0,0,0,0,4Z"/>
      <path id="Trazado_994345" data-name="Trazado 994345" d="M47,17H45V12a10,10,0,0,0-20,0v5H23V12a12,12,0,1,1,24,0Z"/>
      <path id="Trazado_994346" data-name="Trazado 994346" d="M35,27a4,4,0,0,1-4-4h2a2,2,0,0,0,4,0h2A4,4,0,0,1,35,27Z"/>
      <path id="Trazado_994347" data-name="Trazado 994347" d="M31,18h2v2H31Z"/>
      <path id="Trazado_994348" data-name="Trazado 994348" d="M37,18h2v2H37Z"/>
      <path id="Trazado_994349" data-name="Trazado 994349" d="M35,37a1,1,0,0,1-.707-.293l-3-3A1,1,0,0,1,31,33V30h2v2.586l2,2,2-2V30h2v3a1,1,0,0,1-.293.707l-3,3A1,1,0,0,1,35,37Z"/>
      <path id="Trazado_994350" data-name="Trazado 994350" d="M53.633,60H37a4,4,0,0,1,0-8H52V46h2v7a1,1,0,0,1-1,1H37a2,2,0,0,0,0,4H53.633a4.987,4.987,0,0,0,3.749-1.7,5.038,5.038,0,0,0,1.209-3.975C57.3,42.416,53.3,38.562,52.538,37.912l-14.8-3.946.516-1.932,15,4a1,1,0,0,1,.323.152c.222.159,5.447,4.015,6.993,15.881A7.014,7.014,0,0,1,53.633,60Z"/>
      <path id="Trazado_994351" data-name="Trazado 994351" d="M48,64H36a3,3,0,0,1-3-3V49a3,3,0,0,1,3-3H48a1,1,0,0,1,1,1v6H47V48H36a1,1,0,0,0-1,1V61a1,1,0,0,0,1,1H47V59h2v4A1,1,0,0,1,48,64Z"/>
      <path id="Trazado_994352" data-name="Trazado 994352" d="M37,47h2v6H37Z"/>
      <path id="Trazado_994353" data-name="Trazado 994353" d="M37,59h2v4H37Z"/>
      <path id="Trazado_994354" data-name="Trazado 994354" d="M53,64H48V62h4V59h2v4A1,1,0,0,1,53,64Z"/>
      <path id="Trazado_994355" data-name="Trazado 994355" d="M8,56a5.006,5.006,0,0,1-5-5,1,1,0,0,1,.051-.316l4-12A1,1,0,0,1,8,38h6a1,1,0,0,1,.986,1.165L13,51.087A5,5,0,0,1,8,56ZM5,51.151A3,3,0,1,0,11,51a.919.919,0,0,1,.014-.165L12.819,40h-4.1Z"/>
      <path id="Trazado_994356" data-name="Trazado 994356" d="M14.707,39.707l-1.414-1.414L15,36.586V36a1,1,0,0,1-1,1,1.882,1.882,0,0,0-2,2H10a3.791,3.791,0,0,1,1.27-2.995A4.226,4.226,0,0,1,10,33a1,1,0,0,1,1-1h5a1,1,0,0,1,1,1v4a1,1,0,0,1-.293.707ZM12.224,34A1.787,1.787,0,0,0,14,35a1,1,0,0,1,1,1V34Z"/>
      <path id="Trazado_994357" data-name="Trazado 994357" d="M16,33H14V27H13v6H11V26a1,1,0,0,1,1-1h3a1,1,0,0,1,1,1Z"/>
      <path id="Trazado_994358" data-name="Trazado 994358" d="M11,34H6a1,1,0,0,1-1-1V30a1,1,0,0,1,1-1h6v2H7v1h4Z"/>
      <path id="Trazado_994359" data-name="Trazado 994359" d="M7.293,39.707l-2-2A1,1,0,0,1,5,37V33H7v3.586l1.707,1.707Z"/>
      <path id="Trazado_994360" data-name="Trazado 994360" d="M56.948,57.284C56.553,54.123,53.358,54,53,54V52a5.818,5.818,0,0,1,5.932,5.036Z"/>
      <path id="Trazado_994361" data-name="Trazado 994361" d="M53,50h7v2H53Z"/>
      <path id="Trazado_994362" data-name="Trazado 994362" d="M15.754,34H32.246v2H15.754Z" transform="translate(-7.775 6.87) rotate(-14.064)"/>
      <path id="Trazado_994363" data-name="Trazado 994363" d="M36,64H20a1,1,0,0,1-1-1V50.8l-7.226,8.832A1,1,0,0,1,11,60c-.08,0-8-.1-8-9H5c0,5.831,4.147,6.805,5.553,6.968l8.673-10.6A1,1,0,0,1,21,48V62H36Z"/>
      <path id="Trazado_994364" data-name="Trazado 994364" d="M11.97,59.243l-1.94-.486A36.786,36.786,0,0,0,11,51h2a38.156,38.156,0,0,1-1.03,8.243Z"/>
      <path id="Trazado_994365" data-name="Trazado 994365" d="M38,40a1,1,0,0,1-.707-.293L35,37.414l-2.293,2.293a1,1,0,0,1-1.414,0l-4-4A1,1,0,0,1,27,35V34h2v.586l3,3,2.293-2.293a1,1,0,0,1,1.414,0L38,37.586l3-3V34h2v1a1,1,0,0,1-.293.707l-4,4A1,1,0,0,1,38,40Z"/>
      <path id="Trazado_994366" data-name="Trazado 994366" d="M36,42H34a1,1,0,0,1-.707-.293l-2-2,1.414-1.414L34.414,40h1.172l1.707-1.707,1.414,1.414-2,2A1,1,0,0,1,36,42Z"/>
      <path id="Trazado_994367" data-name="Trazado 994367" d="M33.445,56.832l-3-2a1,1,0,0,1-.42-1.057l3-13,1.95.45L32.13,53.551l2.425,1.617Z"/>
      <path id="Trazado_994368" data-name="Trazado 994368" d="M35.69,40.922h2v6.157h-2Z" transform="translate(-8.928 9.343) rotate(-12.939)"/>
      <path id="Trazado_994369" data-name="Trazado 994369" d="M13,17h2v6H13Z"/>
      <path id="Trazado_994370" data-name="Trazado 994370" d="M15.172,20h5.657v2H15.172Z" transform="translate(-9.577 18.879) rotate(-45)"/>
      <path id="Trazado_994371" data-name="Trazado 994371" d="M9,18.172h2v5.657H9Z" transform="translate(-11.92 13.222) rotate(-45)"/>
    </g>
  </g>
</svg>
