<svg xmlns="http://www.w3.org/2000/svg" xmlns:xlink="http://www.w3.org/1999/xlink" width="113" height="113" viewBox="0 0 113 113">
  <defs>
    <filter id="Trazado_982547" x="0" y="0" width="113" height="113" filterUnits="userSpaceOnUse">
      <feOffset dy="3" input="SourceAlpha"/>
      <feGaussianBlur stdDeviation="3" result="blur"/>
      <feFlood flood-opacity="0.161"/>
      <feComposite operator="in" in2="blur"/>
      <feComposite in="SourceGraphic"/>
    </filter>
  </defs>
  <g id="Grupo_1162224" data-name="Grupo 1162224" transform="translate(-1216 -3035.154)">
    <g id="Grupo_1162116" data-name="Grupo 1162116" transform="translate(1225 3041.154)">
      <g id="Grupo_1152576" data-name="Grupo 1152576" transform="translate(0)">
        <g id="Grupo_1148633" data-name="Grupo 1148633">
          <g id="Grupo_1148525" data-name="Grupo 1148525">
            <g transform="matrix(1, 0, 0, 1, -9, -6)" filter="url(#Trazado_982547)">
              <g id="Trazado_982547-2" data-name="Trazado 982547" transform="translate(9 6)" fill="#e8edf7">
                <path d="M 47.5 93.5 C 41.28937149047852 93.5 35.26533508300781 92.28397369384766 29.59518623352051 89.88570404052734 C 24.11771965026855 87.56893157958984 19.19813346862793 84.25196075439453 14.97309303283691 80.02691650390625 C 10.74804019927979 75.80186462402344 7.431066513061523 70.88229370117188 5.114293098449707 65.40481567382812 C 2.716026782989502 59.73468017578125 1.5 53.71062850952148 1.5 47.5 C 1.5 41.28937149047852 2.716026782989502 35.26533508300781 5.114293098449707 29.59518623352051 C 7.431066513061523 24.11771965026855 10.74804019927979 19.19813346862793 14.97309303283691 14.97309303283691 C 19.19813346862793 10.74804019927979 24.11771965026855 7.431066513061523 29.59518623352051 5.114293098449707 C 35.26533508300781 2.716026782989502 41.28937149047852 1.5 47.5 1.5 C 53.71062850952148 1.5 59.73468017578125 2.716026782989502 65.40481567382812 5.114293098449707 C 70.88229370117188 7.431066513061523 75.80186462402344 10.74804019927979 80.02691650390625 14.97309303283691 C 84.25196075439453 19.19813346862793 87.56893157958984 24.11771965026855 89.88570404052734 29.59518623352051 C 92.28397369384766 35.26533508300781 93.5 41.28937149047852 93.5 47.5 C 93.5 53.71062850952148 92.28397369384766 59.73468017578125 89.88570404052734 65.40481567382812 C 87.56893157958984 70.88229370117188 84.25196075439453 75.80186462402344 80.02691650390625 80.02691650390625 C 75.80186462402344 84.25196075439453 70.88229370117188 87.56893157958984 65.40481567382812 89.88570404052734 C 59.73468017578125 92.28397369384766 53.71062850952148 93.5 47.5 93.5 Z" stroke="none"/>
                <path d="M 47.5 3 C 41.49121475219727 3 35.66376876831055 4.176155090332031 30.17950439453125 6.495796203613281 C 24.88084411621094 8.736953735351562 20.12152099609375 11.94598388671875 16.03375244140625 16.03375244140625 C 11.94598388671875 20.12152099609375 8.736953735351562 24.88084411621094 6.495796203613281 30.17950439453125 C 4.176155090332031 35.66376876831055 3 41.49121475219727 3 47.5 C 3 53.50878524780273 4.176155090332031 59.33623123168945 6.495796203613281 64.82049560546875 C 8.736953735351562 70.11915588378906 11.94598388671875 74.87847900390625 16.03375244140625 78.96624755859375 C 20.12152099609375 83.05401611328125 24.88084411621094 86.26304626464844 30.17950439453125 88.50419616699219 C 35.66376876831055 90.82384490966797 41.49121475219727 92 47.5 92 C 53.50878524780273 92 59.33623123168945 90.82384490966797 64.82049560546875 88.50419616699219 C 70.11915588378906 86.26304626464844 74.87847900390625 83.05401611328125 78.96624755859375 78.96624755859375 C 83.05401611328125 74.87847900390625 86.26304626464844 70.11915588378906 88.50419616699219 64.82049560546875 C 90.82384490966797 59.33623123168945 92 53.50878524780273 92 47.5 C 92 41.49121475219727 90.82384490966797 35.66376876831055 88.50419616699219 30.17950439453125 C 86.26304626464844 24.88084411621094 83.05401611328125 20.12152099609375 78.96624755859375 16.03375244140625 C 74.87847900390625 11.94598388671875 70.11915588378906 8.736953735351562 64.82049560546875 6.495796203613281 C 59.33623123168945 4.176155090332031 53.50878524780273 3 47.5 3 M 47.5 0 C 73.7335205078125 0 95 21.2664794921875 95 47.5 C 95 73.7335205078125 73.7335205078125 95 47.5 95 C 21.2664794921875 95 0 73.7335205078125 0 47.5 C 0 21.2664794921875 21.2664794921875 0 47.5 0 Z" stroke="none" fill="#2e5bb6"/>
              </g>
            </g>
          </g>
        </g>
      </g>
    </g>
    <g id="promotion_17082059" transform="translate(1243.943 3053.516)">
      <g id="Grupo_1162223" data-name="Grupo 1162223" transform="translate(1.458 5.634)">
        <g id="Grupo_1162212" data-name="Grupo 1162212" transform="translate(21.188 2.939)">
          <path id="Trazado_995228" data-name="Trazado 995228" d="M196.921,48.794l15.7-8.709,3.455,12.891-17.952.3Z" transform="translate(-196.921 -40.085)" fill="#ff526e" fill-rule="evenodd"/>
        </g>
        <g id="Grupo_1162213" data-name="Grupo 1162213" transform="translate(36.502 0)">
          <path id="Trazado_995229" data-name="Trazado 995229" d="M333.526,14.377l1.19-.32A1.051,1.051,0,0,1,336,14.8l4.15,15.486a1.051,1.051,0,0,1-.742,1.285l-1.19.32a1.051,1.051,0,0,1-1.285-.742l-4.15-15.486a1.051,1.051,0,0,1,.742-1.285Z" transform="translate(-332.748 -14.021)" fill="#b9d6ff" fill-rule="evenodd"/>
        </g>
        <g id="Grupo_1162214" data-name="Grupo 1162214" transform="translate(25.706 16.02)">
          <path id="Trazado_995230" data-name="Trazado 995230" d="M240.356,156.108v11.853h-3.363v-11.8Z" transform="translate(-236.993 -156.108)" fill="#365f7f" fill-rule="evenodd"/>
        </g>
        <g id="Grupo_1162215" data-name="Grupo 1162215" transform="translate(0 19.418)">
          <path id="Trazado_995231" data-name="Trazado 995231" d="M16.564,186.246H38.891a2.281,2.281,0,0,1,0,4.563H27.815v15.877H13.562v3.344a2.281,2.281,0,1,1-4.562,0V193.81a7.587,7.587,0,0,1,7.564-7.564Z" transform="translate(-9 -186.246)" fill="#ff526e" fill-rule="evenodd"/>
        </g>
        <g id="Grupo_1162216" data-name="Grupo 1162216" transform="translate(9.271 19.418)">
          <path id="Trazado_995232" data-name="Trazado 995232" d="M93.644,195.523l-2.418-4.064L92,186.246h3.281l.78,5.213Z" transform="translate(-91.226 -186.246)" fill="#e6f3ff" fill-rule="evenodd"/>
        </g>
        <g id="Grupo_1162217" data-name="Grupo 1162217" transform="translate(4.562 37.71)">
          <path id="Trazado_995233" data-name="Trazado 995233" d="M49.461,348.478H63.714v16.749H49.461Z" transform="translate(-49.461 -348.478)" fill="#08a9f1" fill-rule="evenodd"/>
        </g>
        <g id="Grupo_1162218" data-name="Grupo 1162218" transform="translate(4.915 5.867)">
          <path id="Trazado_995234" data-name="Trazado 995234" d="M59.363,66.059a6.776,6.776,0,1,1-6.774,6.777A6.776,6.776,0,0,1,59.363,66.059Z" transform="translate(-52.589 -66.059)" fill="#f7c5b8" fill-rule="evenodd"/>
        </g>
        <g id="Grupo_1162219" data-name="Grupo 1162219" transform="translate(23.444 49.246)">
          <path id="Trazado_995235" data-name="Trazado 995235" d="M216.929,450.794h4.931v5.213h-4.931Z" transform="translate(-216.929 -450.794)" fill="#ff526e" fill-rule="evenodd"/>
        </g>
        <g id="Grupo_1162220" data-name="Grupo 1162220" transform="translate(31.763 45.511)">
          <path id="Trazado_995236" data-name="Trazado 995236" d="M290.713,417.672h4.931v8.947h-4.931Z" transform="translate(-290.713 -417.672)" fill="#08a9f1" fill-rule="evenodd"/>
        </g>
        <g id="Grupo_1162221" data-name="Grupo 1162221" transform="translate(40.079 36.612)">
          <path id="Trazado_995237" data-name="Trazado 995237" d="M364.469,338.739h4.93v17.847h-4.93Z" transform="translate(-364.469 -338.739)" fill="#f7cc38" fill-rule="evenodd"/>
        </g>
        <g id="Grupo_1162222" data-name="Grupo 1162222" transform="translate(48.398 30.545)">
          <path id="Trazado_995238" data-name="Trazado 995238" d="M438.253,284.934h4.931v23.913h-4.931Z" transform="translate(-438.253 -284.934)" fill="#2fbc8d" fill-rule="evenodd"/>
        </g>
      </g>
      <path id="Trazado_995239" data-name="Trazado 995239" d="M26.514,33.569a.793.793,0,0,0,.793.793h3.4a.793.793,0,0,0,.793-.793V30.422h.038a3.1,3.1,0,0,0,0-6.2H31.5V22.354l10.007-.17.191.714a1.859,1.859,0,0,0,1.79,1.376,1.87,1.87,0,0,0,.482-.064l1.2-.324a1.857,1.857,0,0,0,1.313-2.272l-4.2-15.671a1.857,1.857,0,0,0-2.273-1.313l-1.2.324A1.857,1.857,0,0,0,37.5,7.227l.192.716L22.35,16.455a.793.793,0,0,0-.381.9l1.217,4.54a.793.793,0,0,0,.766.588h.014l2.549-.043v1.78H17.779a7.649,7.649,0,1,0-9.3.013A8.458,8.458,0,0,0,.5,32.667V49.08a3.1,3.1,0,0,0,4.617,2.7v8.687a.793.793,0,0,0,1.586,0V44.315H19.54V60.472a.793.793,0,0,0,1.586,0V30.422h5.388v3.146Zm3.4-.793H28.1V30.422h1.817ZM39.225,6.488h0l1.2-.324a.26.26,0,0,1,.067-.009.273.273,0,0,1,.262.2l4.2,15.671a.273.273,0,0,1-.191.33l-1.2.324a.271.271,0,0,1-.33-.19l-4.2-15.671a.273.273,0,0,1,.19-.33ZM23.661,17.542l14.456-8.02L41.088,20.6l-16.53.28Zm4.439,4.87,1.817-.031v1.838H28.1ZM14.745,30.125,13.122,32.85,11.5,30.125l.644-4.32H14.1ZM7.06,18.157a6.064,6.064,0,1,1,6.062,6.062A6.07,6.07,0,0,1,7.06,18.157ZM20.333,28.836a.793.793,0,0,0-.793.793v13.1H6.7V37.871a.793.793,0,0,0-1.586,0V49.08a1.516,1.516,0,0,1-3.031,0V32.667a6.869,6.869,0,0,1,6.861-6.861h1.594L9.891,30.17a.793.793,0,0,0,.1.522l2.447,4.113a.793.793,0,0,0,.681.388h0a.793.793,0,0,0,.681-.387l2.45-4.113a.793.793,0,0,0,.1-.523L15.7,25.805h15.84a1.516,1.516,0,0,1,0,3.031H20.333Zm-6.418,21.2V60.472a.793.793,0,1,1-1.586,0V50.04a.793.793,0,1,1,1.586,0ZM48.367,24.275a.793.793,0,0,1,.793-.778h.015l5.943.112a.793.793,0,0,1,.778.808l-.109,5.946a.793.793,0,0,1-.793.779h-.015a.793.793,0,0,1-.778-.808l.075-4.1-26.362,26.2A.793.793,0,1,1,26.8,51.308l26.314-26.15-3.966-.075a.793.793,0,0,1-.778-.808Zm8.955,35.4H56.053V36.272a.793.793,0,0,0-.793-.793h-4.99a.793.793,0,0,0-.793.793V59.679H47.635V42.411a.793.793,0,0,0-.793-.793h-4.99a.793.793,0,0,0-.793.793V59.679h-1.84V51.418a.793.793,0,0,0-.793-.793h-4.99a.793.793,0,0,0-.793.793v8.261H30.8V55.2a.793.793,0,0,0-.793-.793h-4.99a.793.793,0,0,0-.793.793v4.482H22.957a.793.793,0,1,0,0,1.586H57.322a.793.793,0,1,0,0-1.586Zm-31.511,0V55.99h3.4v3.689Zm8.419,0V52.211h3.4v7.468Zm8.416,0V43.2h3.4V59.679Zm8.419,0V37.065h3.4V59.679Z" transform="translate(0)"/>
    </g>
  </g>
</svg>
