<svg xmlns="http://www.w3.org/2000/svg" xmlns:xlink="http://www.w3.org/1999/xlink" width="108" height="108" viewBox="0 0 108 108">
  <defs>
    <filter id="Trazado_982547" x="0" y="0" width="108" height="108" filterUnits="userSpaceOnUse">
      <feOffset dy="3" input="SourceAlpha"/>
      <feGaussianBlur stdDeviation="3" result="blur"/>
      <feFlood flood-opacity="0.161"/>
      <feComposite operator="in" in2="blur"/>
      <feComposite in="SourceGraphic"/>
    </filter>
  </defs>
  <g id="Grupo_1162468" data-name="Grupo 1162468" transform="translate(-616 -3890)">
    <g id="Grupo_1162152" data-name="Grupo 1162152" transform="translate(625 3896)">
      <g id="Grupo_1159095" data-name="Grupo 1159095" transform="translate(0)">
        <g id="Grupo_1154033" data-name="Grupo 1154033">
          <g id="Grupo_1153177" data-name="Grupo 1153177">
            <g id="Grupo_1149598" data-name="Grupo 1149598">
              <g id="Grupo_1148770" data-name="Grupo 1148770">
                <g id="Grupo_1146954" data-name="Grupo 1146954">
                  <g transform="matrix(1, 0, 0, 1, -9, -6)" filter="url(#Trazado_982547)">
                    <g id="Trazado_982547-2" data-name="Trazado 982547" transform="translate(9 6)" fill="#f5fdfa">
                      <path d="M 45.00000381469727 88.5 C 39.12688064575195 88.5 33.43022918701172 87.35007476806641 28.06830406188965 85.08217620849609 C 22.88852882385254 82.89131164550781 18.23630332946777 79.75458526611328 14.24085426330566 75.75914764404297 C 10.24541664123535 71.76370239257812 7.108691215515137 67.11147308349609 4.917829036712646 61.93170166015625 C 2.64992880821228 56.56977462768555 1.500003814697266 50.87312316894531 1.500003814697266 45 C 1.500003814697266 39.12687683105469 2.64992880821228 33.43022537231445 4.917829036712646 28.06830024719238 C 7.108691215515137 22.88852500915527 10.24541664123535 18.23629951477051 14.24085426330566 14.2408504486084 C 18.23630332946777 10.24541282653809 22.88852882385254 7.108687400817871 28.06830406188965 4.917825222015381 C 33.43022918701172 2.649924993515015 39.12688064575195 1.5 45.00000381469727 1.5 C 50.87312698364258 1.5 56.56977844238281 2.649924993515015 61.93170547485352 4.917825222015381 C 67.11148071289062 7.108687400817871 71.76370239257812 10.24541282653809 75.7591552734375 14.2408504486084 C 79.75459289550781 18.23629951477051 82.89131927490234 22.88852500915527 85.08217620849609 28.06830024719238 C 87.35008239746094 33.43022537231445 88.5 39.12687683105469 88.5 45 C 88.5 50.87312316894531 87.35008239746094 56.56977462768555 85.08217620849609 61.93170166015625 C 82.89131927490234 67.11147308349609 79.75459289550781 71.76370239257812 75.7591552734375 75.75914764404297 C 71.76370239257812 79.75458526611328 67.11148071289062 82.89131164550781 61.93170547485352 85.08217620849609 C 56.56977844238281 87.35007476806641 50.87312698364258 88.5 45.00000381469727 88.5 Z" stroke="none"/>
                      <path d="M 45.00000381469727 87 C 50.67129135131836 87 56.17134857177734 85.88994598388672 61.34737396240234 83.70066070556641 C 66.34834289550781 81.58542633056641 70.84031677246094 78.55665588378906 74.698486328125 74.698486328125 C 78.55666351318359 70.84031677246094 81.58543395996094 66.34834289550781 83.70066070556641 61.34737014770508 C 85.88994598388672 56.17134475708008 87 50.67128753662109 87 45 C 87 39.32871246337891 85.88994598388672 33.82865524291992 83.70066070556641 28.65262794494629 C 81.58543395996094 23.65165710449219 78.55666351318359 19.1596851348877 74.698486328125 15.30151462554932 C 70.84031677246094 11.44334316253662 66.34834289550781 8.414571762084961 61.34737396240234 6.299342632293701 C 56.17134857177734 4.110057353973389 50.67129135131836 3 45.00000381469727 3 C 39.32871627807617 3 33.82865905761719 4.110057353973389 28.65263175964355 6.299342632293701 C 23.65166091918945 8.414571762084961 19.15968894958496 11.44334316253662 15.30151844024658 15.30151462554932 C 11.44334697723389 19.1596851348877 8.414575576782227 23.65165710449219 6.299346446990967 28.65262794494629 C 4.110061168670654 33.82865524291992 3.000003814697266 39.32871246337891 3.000003814697266 45 C 3.000003814697266 50.67128753662109 4.110061168670654 56.17134475708008 6.299346446990967 61.34737014770508 C 8.414575576782227 66.34834289550781 11.44334697723389 70.84031677246094 15.30151844024658 74.698486328125 C 19.15968894958496 78.55665588378906 23.65166091918945 81.58542633056641 28.65263175964355 83.70066070556641 C 33.82865905761719 85.88994598388672 39.32871627807617 87 45.00000381469727 87 M 45.00000381469727 90 C 20.14719009399414 90 3.814697265625e-06 69.85281372070312 3.814697265625e-06 45 C 3.814697265625e-06 20.14718627929688 20.14719009399414 0 45.00000381469727 0 C 69.85282135009766 0 90 20.14718627929688 90 45 C 90 69.85281372070312 69.85282135009766 90 45.00000381469727 90 Z" stroke="none" fill="#ee9865"/>
                    </g>
                  </g>
                </g>
              </g>
            </g>
          </g>
        </g>
      </g>
    </g>
    <g id="hiring_5491965" transform="translate(645.079 3914.48)">
      <g id="Grupo_1162467" data-name="Grupo 1162467" transform="translate(0.91 0.91)">
        <g id="Grupo_1162439" data-name="Grupo 1162439" transform="translate(21.848 12.745)">
          <path id="Trazado_996440" data-name="Trazado 996440" d="M34.1,19.552v6.372H29.552A4.538,4.538,0,0,0,25,30.476V19.552a4.552,4.552,0,1,1,9.1,0Z" transform="translate(-25 -15)" fill="#fcd770"/>
        </g>
        <g id="Grupo_1162440" data-name="Grupo 1162440" transform="translate(34.593 12.745)">
          <path id="Trazado_996441" data-name="Trazado 996441" d="M48.1,19.552v4.879a12.162,12.162,0,0,1-5.826,1.493H39V19.552a4.552,4.552,0,1,1,9.1,0Z" transform="translate(-39 -15)" fill="#ff826e"/>
        </g>
        <g id="Grupo_1162441" data-name="Grupo 1162441" transform="translate(3.641 27.31)">
          <path id="Trazado_996442" data-name="Trazado 996442" d="M15.924,32.821V40.1H5V32.821H8.641A1.826,1.826,0,0,0,10.462,31a1.826,1.826,0,0,0,1.821,1.821h3.641Z" transform="translate(-5 -31)" fill="#d3a06c"/>
        </g>
        <g id="Grupo_1162442" data-name="Grupo 1162442" transform="translate(9.103 18.207)">
          <path id="Trazado_996443" data-name="Trazado 996443" d="M14.641,28.283V24.641H11v-.91L12.821,21l.956.118A7.224,7.224,0,0,1,20.1,28.283a3.637,3.637,0,0,1-3.641,3.641H14.641Z" transform="translate(-11 -21)" fill="#fcd770"/>
        </g>
        <g id="Grupo_1162443" data-name="Grupo 1162443" transform="translate(0 18.207)">
          <path id="Trazado_996444" data-name="Trazado 996444" d="M6.462,28.283v3.641H4.641A3.637,3.637,0,0,1,1,28.283a7.224,7.224,0,0,1,6.327-7.164L8.283,21,10.1,23.731v.91H6.462Z" transform="translate(-1 -21)" fill="#fcd770"/>
        </g>
        <g id="Grupo_1162444" data-name="Grupo 1162444" transform="translate(5.462 21.848)">
          <path id="Trazado_996445" data-name="Trazado 996445" d="M14.283,25v3.641H12.462a1.834,1.834,0,0,0-1.821,1.821,1.834,1.834,0,0,0-1.821-1.821H7V25h7.283Z" transform="translate(-7 -25)" fill="#e6e9ed"/>
        </g>
        <g id="Grupo_1162445" data-name="Grupo 1162445" transform="translate(9.103 25.49)">
          <path id="Trazado_996446" data-name="Trazado 996446" d="M14.641,29v3.641H12.821A1.826,1.826,0,0,1,11,30.821,1.834,1.834,0,0,1,12.821,29Z" transform="translate(-11 -29)" fill="#f0d0b4"/>
        </g>
        <g id="Grupo_1162446" data-name="Grupo 1162446" transform="translate(5.462 25.49)">
          <path id="Trazado_996447" data-name="Trazado 996447" d="M10.1,29.537a1.78,1.78,0,0,1,.537,1.284,1.826,1.826,0,0,1-1.821,1.821H7V29H8.821A1.78,1.78,0,0,1,10.1,29.537Z" transform="translate(-7 -29)" fill="#f0d0b4"/>
        </g>
        <g id="Grupo_1162447" data-name="Grupo 1162447" transform="translate(0 36.414)">
          <path id="Trazado_996448" data-name="Trazado 996448" d="M16.476,45.552l-2.731,2.731v5.462H1V41H13.745v2.731Z" transform="translate(-1 -41)" fill="#b4dd7f"/>
        </g>
        <g id="Grupo_1162448" data-name="Grupo 1162448" transform="translate(12.745 36.414)">
          <path id="Trazado_996449" data-name="Trazado 996449" d="M16.821,41h5.462V53.745H15V48.283l2.731-2.731L15,43.731V41Z" transform="translate(-15 -41)" fill="#a0d468"/>
        </g>
        <g id="Grupo_1162449" data-name="Grupo 1162449" transform="translate(27.31 36.414)">
          <path id="Trazado_996450" data-name="Trazado 996450" d="M38.283,41v3.641H36.462a1.834,1.834,0,0,0-1.821,1.821,1.826,1.826,0,0,0,1.821,1.821A1.834,1.834,0,0,0,34.641,50.1a1.826,1.826,0,0,0,1.821,1.821,1.834,1.834,0,0,0-1.821,1.821,1.826,1.826,0,0,0,1.821,1.821h1.821v1.821a1.826,1.826,0,0,1-1.821,1.821H32.821A1.826,1.826,0,0,1,31,57.386V43.558a5.4,5.4,0,0,0,2.513-1.429L34.641,41h3.641Z" transform="translate(-31 -41)" fill="#969faa"/>
        </g>
        <g id="Grupo_1162450" data-name="Grupo 1162450" transform="translate(30.952 47.338)">
          <path id="Trazado_996451" data-name="Trazado 996451" d="M40.462,53a1.826,1.826,0,0,1,1.821,1.821,1.834,1.834,0,0,1-1.821,1.821H36.821A1.826,1.826,0,0,1,35,54.821,1.834,1.834,0,0,1,36.821,53Z" transform="translate(-35 -53)" fill="#f0d0b4"/>
        </g>
        <g id="Grupo_1162451" data-name="Grupo 1162451" transform="translate(30.952 43.697)">
          <path id="Trazado_996452" data-name="Trazado 996452" d="M40.462,49a1.826,1.826,0,0,1,1.821,1.821,1.834,1.834,0,0,1-1.821,1.821H36.821A1.826,1.826,0,0,1,35,50.821,1.834,1.834,0,0,1,36.821,49Z" transform="translate(-35 -49)" fill="#f0d0b4"/>
        </g>
        <g id="Grupo_1162452" data-name="Grupo 1162452" transform="translate(30.952 40.055)">
          <path id="Trazado_996453" data-name="Trazado 996453" d="M40.462,45a1.826,1.826,0,0,1,1.821,1.821,1.834,1.834,0,0,1-1.821,1.821H36.821A1.826,1.826,0,0,1,35,46.821,1.834,1.834,0,0,1,36.821,45h3.641Z" transform="translate(-35 -45)" fill="#f0d0b4"/>
        </g>
        <g id="Grupo_1162453" data-name="Grupo 1162453" transform="translate(34.593 36.414)">
          <path id="Trazado_996454" data-name="Trazado 996454" d="M44.462,41a1.826,1.826,0,0,1,1.821,1.821,1.834,1.834,0,0,1-1.821,1.821H39V41Z" transform="translate(-39 -41)" fill="#f0d0b4"/>
        </g>
        <g id="Grupo_1162454" data-name="Grupo 1162454" transform="translate(20.028 32.773)">
          <path id="Trazado_996455" data-name="Trazado 996455" d="M30.283,43.2V55.207H27.934a5.561,5.561,0,0,1-2.449-.574L23,53.386V40.641L25.039,38.6A5.455,5.455,0,0,1,28.908,37h8.657a.913.913,0,0,1,.91.91,2.727,2.727,0,0,1-2.731,2.731H33.924L32.8,41.77A5.4,5.4,0,0,1,30.283,43.2Z" transform="translate(-23 -37)" fill="#f0d0b4"/>
        </g>
        <g id="Grupo_1162455" data-name="Grupo 1162455" transform="translate(29.131 19.117)">
          <path id="Trazado_996456" data-name="Trazado 996456" d="M34.821,26.552h6.919A12.131,12.131,0,0,0,51.207,22V40.207a12.135,12.135,0,0,0-9.468-4.552H33v-9.1Z" transform="translate(-33 -22)" fill="#e6e9ed"/>
        </g>
        <g id="Grupo_1162456" data-name="Grupo 1162456" transform="translate(47.338 17.297)">
          <path id="Trazado_996457" data-name="Trazado 996457" d="M56.641,34.566v6.372a.913.913,0,0,1-.91.91H53.91a.913.913,0,0,1-.91-.91V20.91a.913.913,0,0,1,.91-.91h1.821a.913.913,0,0,1,.91.91V34.566Z" transform="translate(-53 -20)" fill="#ff826e"/>
        </g>
        <g id="Grupo_1162457" data-name="Grupo 1162457" transform="translate(21.848 23.669)">
          <path id="Trazado_996458" data-name="Trazado 996458" d="M32.283,27v9.1H29.552a4.552,4.552,0,1,1,0-9.1Z" transform="translate(-25 -27)" fill="#ff826e"/>
        </g>
        <g id="Grupo_1162458" data-name="Grupo 1162458" transform="translate(50.98 24.579)">
          <path id="Trazado_996459" data-name="Trazado 996459" d="M57,28a3.641,3.641,0,0,1,0,7.283Z" transform="translate(-57 -28)" fill="#fcd770"/>
        </g>
        <g id="Grupo_1162459" data-name="Grupo 1162459" transform="translate(34.593 3.641)">
          <path id="Trazado_996460" data-name="Trazado 996460" d="M43.552,5A4.553,4.553,0,0,1,48.1,9.552h-.155a6.222,6.222,0,0,1-4.4-1.821,6.222,6.222,0,0,1-4.4,1.821H39A4.553,4.553,0,0,1,43.552,5Z" transform="translate(-39 -5)" fill="#fcd770"/>
        </g>
        <g id="Grupo_1162460" data-name="Grupo 1162460" transform="translate(21.848 3.641)">
          <path id="Trazado_996461" data-name="Trazado 996461" d="M29.552,5A4.553,4.553,0,0,1,34.1,9.552h-.155a6.222,6.222,0,0,1-4.4-1.821,6.222,6.222,0,0,1-4.4,1.821H25A4.553,4.553,0,0,1,29.552,5Z" transform="translate(-25 -5)" fill="#656d78"/>
        </g>
        <g id="Grupo_1162461" data-name="Grupo 1162461" transform="translate(34.593 6.372)">
          <path id="Trazado_996462" data-name="Trazado 996462" d="M47.949,9.821H48.1a4.552,4.552,0,1,1-9.1,0h.155A6.222,6.222,0,0,0,43.552,8,6.222,6.222,0,0,0,47.949,9.821Z" transform="translate(-39 -8)" fill="#f0d0b4"/>
        </g>
        <g id="Grupo_1162462" data-name="Grupo 1162462" transform="translate(21.848 6.372)">
          <path id="Trazado_996463" data-name="Trazado 996463" d="M33.949,9.821H34.1a4.552,4.552,0,1,1-9.1,0h.155A6.222,6.222,0,0,0,29.552,8,6.222,6.222,0,0,0,33.949,9.821Z" transform="translate(-25 -8)" fill="#f0d0b4"/>
        </g>
        <g id="Grupo_1162463" data-name="Grupo 1162463" transform="translate(14.456 9.103)">
          <path id="Trazado_996464" data-name="Trazado 996464" d="M19.474,11.127a1.828,1.828,0,0,1,1.156,1.693,1.834,1.834,0,0,1-1.821,1.821H16.88a4.48,4.48,0,0,0,.109-.992V11H18.81A1.8,1.8,0,0,1,19.474,11.127Z" transform="translate(-16.88 -11)" fill="#f0d0b4"/>
        </g>
        <g id="Grupo_1162464" data-name="Grupo 1162464" transform="translate(3.641 5.753)">
          <path id="Trazado_996465" data-name="Trazado 996465" d="M15.924,10.67v2.649a4.48,4.48,0,0,1-.109.992,4.536,4.536,0,0,1-2.4,3.077l-.628.31a.913.913,0,0,0-.5.819v1.256L10.462,22.5,8.641,19.774V18.517a.913.913,0,0,0-.5-.819l-.628-.31a4.536,4.536,0,0,1-2.4-3.077A4.48,4.48,0,0,1,5,13.319v-3.25A2.744,2.744,0,0,1,7.066,7.42l.419-.1a3.135,3.135,0,0,0,2.686,1.529h.464a3.139,3.139,0,0,0,1.4-.328,3.148,3.148,0,0,1,1.4-.337,3.052,3.052,0,0,1,.983.164l1.5.5Z" transform="translate(-5 -7.32)" fill="#f0d0b4"/>
        </g>
        <g id="Grupo_1162465" data-name="Grupo 1162465" transform="translate(0 9.103)">
          <path id="Trazado_996466" data-name="Trazado 996466" d="M4.641,11v2.649a4.48,4.48,0,0,0,.109.992H2.821A1.826,1.826,0,0,1,1,12.821a1.78,1.78,0,0,1,.537-1.284,1.519,1.519,0,0,1,.41-.31A1.76,1.76,0,0,1,2.821,11Z" transform="translate(-1 -11)" fill="#f0d0b4"/>
        </g>
        <g id="Grupo_1162466" data-name="Grupo 1162466" transform="translate(0)">
          <path id="Trazado_996467" data-name="Trazado 996467" d="M15.566,8.283l-1.5-.5a3.052,3.052,0,0,0-.983-.164,3.148,3.148,0,0,0-1.4.337,3.139,3.139,0,0,1-1.4.328H9.812A3.135,3.135,0,0,1,7.127,6.753l-.419.1A2.744,2.744,0,0,0,4.641,9.5v.6H2.821a1.76,1.76,0,0,0-.874.228A5.754,5.754,0,0,1,1,7.163v-.4A5.769,5.769,0,0,1,6.763,1h6.682a5.767,5.767,0,0,1,4.606,9.231,1.8,1.8,0,0,0-.665-.127H15.566Z" transform="translate(-1 -1)" fill="#b27946"/>
        </g>
      </g>
      <path id="Trazado_996468" data-name="Trazado 996468" d="M56.442,29.131a4.56,4.56,0,0,0-3.641-4.46V19.117A1.823,1.823,0,0,0,50.98,17.3H49.159a1.823,1.823,0,0,0-1.821,1.821v.564a11.29,11.29,0,0,1-1.821,1.728v-3.2a5.461,5.461,0,0,0-2.449-4.552,5.462,5.462,0,1,0-6.027,0,5.459,5.459,0,0,0-2.449,4.552v5.462H32.773V18.207a5.461,5.461,0,0,0-2.449-4.552,5.462,5.462,0,1,0-6.027,0,5.459,5.459,0,0,0-2.449,4.552V29.131a5.45,5.45,0,0,0,2.135,4.321,6.391,6.391,0,0,0-1.648,1.186l-1.774,1.775H16.386V30.86a4.56,4.56,0,0,0,3.641-4.46,8.141,8.141,0,0,0-7.121-8.066l-.162-.021v-.454l.624-.311a5.427,5.427,0,0,0,2.667-2.982H17.3A2.726,2.726,0,0,0,19.2,9.88,6.66,6.66,0,0,0,13.351,0H6.676A6.684,6.684,0,0,0,0,6.677v.4a6.642,6.642,0,0,0,.7,2.951,2.718,2.718,0,0,0,2.033,4.537H3.993a5.426,5.426,0,0,0,2.668,2.982l.622.311v.454l-.162.021A8.141,8.141,0,0,0,0,26.4a4.56,4.56,0,0,0,3.641,4.46v5.554H0V50.98H20.723l2.3,1.148a6.406,6.406,0,0,0,2.849.673H27.31v.91a2.734,2.734,0,0,0,2.731,2.731h3.641a2.734,2.734,0,0,0,2.731-2.731V52.8h.91a2.719,2.719,0,0,0,2.021-4.552,2.689,2.689,0,0,0,0-3.641,2.647,2.647,0,0,0,.543-2.731h1.078a2.731,2.731,0,1,0,0-5.462H36.818a3.6,3.6,0,0,0,.506-1.821h1.454a11.147,11.147,0,0,1,8.56,3.988v.564a1.823,1.823,0,0,0,1.821,1.821H50.98A1.823,1.823,0,0,0,52.8,39.145V33.591A4.56,4.56,0,0,0,56.442,29.131ZM40.055,5.462a3.634,3.634,0,0,1,3.486,2.646A5.344,5.344,0,0,1,40.7,6.639L40.055,6l-.644.644A5.344,5.344,0,0,1,36.57,8.108a3.634,3.634,0,0,1,3.486-2.646ZM36.52,9.941A7.186,7.186,0,0,0,40.055,8.5,7.186,7.186,0,0,0,43.59,9.941a3.63,3.63,0,0,1-7.07,0Zm-.107,8.266a3.641,3.641,0,0,1,7.283,0v4.329a11.2,11.2,0,0,1-4.919,1.133H36.414ZM27.31,5.462A3.634,3.634,0,0,1,30.8,8.108a5.344,5.344,0,0,1-2.842-1.469L27.31,6l-.644.644a5.344,5.344,0,0,1-2.842,1.469A3.634,3.634,0,0,1,27.31,5.462ZM23.776,9.941A7.186,7.186,0,0,0,27.31,8.5a7.186,7.186,0,0,0,3.535,1.446,3.63,3.63,0,0,1-7.07,0Zm3.535,4.625a3.645,3.645,0,0,1,3.641,3.641v5.462H27.31a5.434,5.434,0,0,0-3.641,1.4V18.207A3.645,3.645,0,0,1,27.31,14.566Zm0,10.924h1.821v7.283H27.31a3.641,3.641,0,1,1,0-7.283Zm-19.117,0h-.91V23.669h5.462V25.49h-.91a2.713,2.713,0,0,0-1.821.71A2.713,2.713,0,0,0,8.193,25.49Zm.91,2.731a.911.911,0,0,1-.91.91h-.91V27.31h.91A.911.911,0,0,1,9.1,28.221Zm2.731-.91h.91v1.821h-.91a.91.91,0,1,1,0-1.821Zm6.372-.91a2.734,2.734,0,0,1-2.731,2.731h-.91V27.31h1.821V25.49H14.566V21.848H11.108L12.28,20.09l.4.05A6.318,6.318,0,0,1,18.207,26.4ZM17.3,12.745h-.915c0-.028.005-.056.005-.084V10.924H17.3a.91.91,0,0,1,0,1.821Zm-14.566,0a.91.91,0,0,1,0-1.821h.91v1.737c0,.028.005.056.005.084ZM3.668,9.1H2.731a2.763,2.763,0,0,0-.445.045,4.848,4.848,0,0,1-.465-2.071v-.4A4.862,4.862,0,0,1,6.677,1.821h6.675a4.834,4.834,0,0,1,4.176,7.306c-.076-.007-.151-.024-.23-.024h-.91v-.91a4.691,4.691,0,0,0-3.211-4.457l-.14-.047-.58,1.726.142.047a2.88,2.88,0,0,1,1.617,1.351,4.016,4.016,0,0,0-3.038.236,2.224,2.224,0,0,1-.991.234H9.726A2.218,2.218,0,0,1,7.572,5.6l-.317-1.27-1.766.441.318,1.271c0,.013.009.025.013.037A3.626,3.626,0,0,0,3.668,9.1Zm1.793,3.558V9.415A1.814,1.814,0,0,1,6.678,7.7,4.026,4.026,0,0,0,9.727,9.1h.459a4.03,4.03,0,0,0,1.805-.427,2.21,2.21,0,0,1,1.7-.121l.878.293v3.813a3.626,3.626,0,0,1-2.012,3.258l-.624.311a1.809,1.809,0,0,0-1.007,1.629v.982l-.91,1.366L9.1,18.841v-.982A1.809,1.809,0,0,0,8.1,16.231l-.623-.311a3.623,3.623,0,0,1-2.014-3.258ZM1.821,26.4a6.318,6.318,0,0,1,5.526-6.26l.4-.05L8.92,21.848H5.462V25.49H3.641V27.31H5.462v1.821h-.91A2.734,2.734,0,0,1,1.821,26.4Zm3.641,4.552H8.193a2.713,2.713,0,0,0,1.821-.71,2.709,2.709,0,0,0,1.821.71h2.731v5.462H10.924V32.773H9.1v3.641H5.462ZM1.821,38.235H12.745v2.308l2.213,1.475L12.745,44.23v4.929H1.821ZM20.028,49.159H14.566V44.984l3.249-3.249-3.249-2.167V38.235h5.462Zm14.566,4.552a.911.911,0,0,1-.91.91H30.042a.911.911,0,0,1-.91-.91V40.547A6.367,6.367,0,0,0,31.375,39.1l.864-.864h2.354v1.821h-.91a2.719,2.719,0,0,0-2.021,4.552,2.689,2.689,0,0,0,0,3.641A2.719,2.719,0,0,0,33.683,52.8h.91Zm3.641-7.283a.911.911,0,0,1-.91.91H33.683a.91.91,0,1,1,0-1.821h3.641A.911.911,0,0,1,38.235,46.428Zm-.91,4.552H33.683a.91.91,0,0,1,0-1.821h3.641a.91.91,0,0,1,0,1.821Zm.91-8.193a.911.911,0,0,1-.91.91H33.683a.91.91,0,1,1,0-1.821h3.641A.911.911,0,0,1,38.235,42.786Zm3.641-3.641a.911.911,0,0,1-.91.91H36.414V38.235h4.552A.911.911,0,0,1,41.876,39.145Zm-8.193-2.731h-2.2l-1.4,1.4a4.525,4.525,0,0,1-3.219,1.334H25.49v1.821h1.379c.148,0,.295-.012.442-.022V50.98H25.868a4.574,4.574,0,0,1-2.035-.481l-1.985-.992V37.7l1.774-1.774a4.524,4.524,0,0,1,3.219-1.334H35.5A1.823,1.823,0,0,1,33.683,36.414Zm5.1-3.641H30.952V25.49h7.826a12.946,12.946,0,0,0,8.56-3.226V36A12.951,12.951,0,0,0,38.778,32.773Zm10.381,6.372V19.117H50.98l0,20.028Zm3.641-7.45V26.569a2.714,2.714,0,0,1,0,5.126Z" transform="translate(0 0)"/>
    </g>
  </g>
</svg>
