<svg xmlns="http://www.w3.org/2000/svg" xmlns:xlink="http://www.w3.org/1999/xlink" width="108" height="108" viewBox="0 0 108 108">
  <defs>
    <filter id="Trazado_982547" x="0" y="0" width="108" height="108" filterUnits="userSpaceOnUse">
      <feOffset dy="3" input="SourceAlpha"/>
      <feGaussianBlur stdDeviation="3" result="blur"/>
      <feFlood flood-opacity="0.161"/>
      <feComposite operator="in" in2="blur"/>
      <feComposite in="SourceGraphic"/>
    </filter>
  </defs>
  <g id="Grupo_1162117" data-name="Grupo 1162117" transform="translate(9 6)">
    <g id="Grupo_1159095" data-name="Grupo 1159095" transform="translate(0)">
      <g id="Grupo_1154033" data-name="Grupo 1154033">
        <g id="Grupo_1153177" data-name="Grupo 1153177">
          <g id="Grupo_1149598" data-name="Grupo 1149598">
            <g id="Grupo_1148770" data-name="Grupo 1148770">
              <g id="Grupo_1146954" data-name="Grupo 1146954">
                <g transform="matrix(1, 0, 0, 1, -9, -6)" filter="url(#Trazado_982547)">
                  <g id="Trazado_982547-2" data-name="Trazado 982547" transform="translate(9 6)" fill="#f5fdfa">
                    <path d="M 45.00000762939453 88.5 C 39.12688446044922 88.5 33.43023300170898 87.35007476806641 28.06830787658691 85.08217620849609 C 22.8885326385498 82.89131164550781 18.23630714416504 79.75458526611328 14.24085807800293 75.75914764404297 C 10.24542045593262 71.76370239257812 7.108695030212402 67.11147308349609 4.917832851409912 61.93170166015625 C 2.649932622909546 56.56977462768555 1.500007629394531 50.87312316894531 1.500007629394531 45 C 1.500007629394531 39.12687683105469 2.649932622909546 33.43022537231445 4.917832851409912 28.06830024719238 C 7.108695030212402 22.88852500915527 10.24542045593262 18.23629951477051 14.24085807800293 14.2408504486084 C 18.23630714416504 10.24541282653809 22.8885326385498 7.108687400817871 28.06830787658691 4.917825222015381 C 33.43023300170898 2.649924993515015 39.12688446044922 1.5 45.00000762939453 1.5 C 50.87313079833984 1.5 56.56978225708008 2.649924993515015 61.93170928955078 4.917825222015381 C 67.11148071289062 7.108687400817871 71.76371002197266 10.24541282653809 75.7591552734375 14.2408504486084 C 79.75459289550781 18.23629951477051 82.89131927490234 22.88852500915527 85.08218383789062 28.06830024719238 C 87.35008239746094 33.43022537231445 88.50000762939453 39.12687683105469 88.50000762939453 45 C 88.50000762939453 50.87312316894531 87.35008239746094 56.56977462768555 85.08218383789062 61.93170166015625 C 82.89131927490234 67.11147308349609 79.75459289550781 71.76370239257812 75.7591552734375 75.75914764404297 C 71.76371002197266 79.75458526611328 67.11148071289062 82.89131164550781 61.93170928955078 85.08217620849609 C 56.56978225708008 87.35007476806641 50.87313079833984 88.5 45.00000762939453 88.5 Z" stroke="none"/>
                    <path d="M 45.00000762939453 3 C 39.32872009277344 3 33.82866287231445 4.110054016113281 28.65263748168945 6.299339294433594 C 23.65166473388672 8.414573669433594 19.15969085693359 11.44334411621094 15.30152130126953 15.301513671875 C 11.44335174560547 19.15968322753906 8.414581298828125 23.65165710449219 6.299346923828125 28.65262985229492 C 4.110061645507812 33.82865524291992 3.000007629394531 39.32871246337891 3.000007629394531 45 C 3.000007629394531 50.67128753662109 4.110061645507812 56.17134475708008 6.299346923828125 61.34737396240234 C 8.414581298828125 66.34834289550781 11.44335174560547 70.84031677246094 15.30152130126953 74.698486328125 C 19.15969085693359 78.55665588378906 23.65166473388672 81.58542633056641 28.65263748168945 83.70066070556641 C 33.82866287231445 85.88994598388672 39.32872009277344 87 45.00000762939453 87 C 50.67129516601562 87 56.17135238647461 85.88994598388672 61.34738159179688 83.70066070556641 C 66.34835052490234 81.58542633056641 70.84032440185547 78.55665588378906 74.69849395751953 74.698486328125 C 78.55666351318359 70.84031677246094 81.58543395996094 66.34834289550781 83.70066833496094 61.34737396240234 C 85.88995361328125 56.17134475708008 87.00000762939453 50.67128753662109 87.00000762939453 45 C 87.00000762939453 39.32871246337891 85.88995361328125 33.82865524291992 83.70066833496094 28.65262985229492 C 81.58543395996094 23.65165710449219 78.55666351318359 19.15968322753906 74.69849395751953 15.301513671875 C 70.84032440185547 11.44334411621094 66.34835052490234 8.414573669433594 61.34738159179688 6.299339294433594 C 56.17135238647461 4.110054016113281 50.67129516601562 3 45.00000762939453 3 M 45.00000762939453 0 C 69.85282135009766 0 90.00000762939453 20.14718627929688 90.00000762939453 45 C 90.00000762939453 69.85281372070312 69.85282135009766 90 45.00000762939453 90 C 20.14719390869141 90 7.62939453125e-06 69.85281372070312 7.62939453125e-06 45 C 7.62939453125e-06 20.14718627929688 20.14719390869141 0 45.00000762939453 0 Z" stroke="none" fill="#ee9865"/>
                  </g>
                </g>
              </g>
            </g>
          </g>
        </g>
      </g>
    </g>
    <g id="user_944923_1_" data-name="user_944923 (1)" transform="translate(16.661 16.661)">
      <path id="Trazado_994407" data-name="Trazado 994407" d="M48.175,328.095v-8.121a6.507,6.507,0,0,0-4.46-6.177l-9.594-3.179H24.161L14.566,313.8a6.507,6.507,0,0,0-4.46,6.177V331.8H44.467A3.708,3.708,0,0,0,48.175,328.095Z" transform="translate(-8.987 -276.232)" fill="#ff5d5d"/>
      <g id="Grupo_1159154" data-name="Grupo 1159154" transform="translate(11.085 12.076)">
        <path id="Trazado_994408" data-name="Trazado 994408" d="M135.071,310.789v2.533a5.391,5.391,0,0,0,5.391,5.391h0a5.391,5.391,0,0,0,5.391-5.391v-2.533Z" transform="translate(-131.204 -288.461)" fill="#ffcdac"/>
        <path id="Trazado_994409" data-name="Trazado 994409" d="M110.063,131.576h-1.295a8.631,8.631,0,0,1-8.631-8.631v-5.222a8.631,8.631,0,0,1,8.631-8.631h1.295a8.631,8.631,0,0,1,8.631,8.631v5.222A8.631,8.631,0,0,1,110.063,131.576Z" transform="translate(-100.137 -109.092)" fill="#ffcdac"/>
      </g>
      <path id="Trazado_994410" data-name="Trazado 994410" d="M118.682,117.884a9.278,9.278,0,0,0-9.265-8.791h0a9.278,9.278,0,0,0-9.278,9.278v1.456a8.993,8.993,0,0,0,7.134-3.51,9.007,9.007,0,0,0,7.141,3.51,10.76,10.76,0,0,0,4.269-1.078A2.462,2.462,0,0,0,118.682,117.884Z" transform="translate(-89.053 -97.016)" fill="#ffc66c"/>
      <path id="Trazado_994411" data-name="Trazado 994411" d="M321.3,381.068H306.688a3.708,3.708,0,0,1-3.708-3.708V366.014h22.031v11.345A3.708,3.708,0,0,1,321.3,381.068Z" transform="translate(-269.44 -325.496)" fill="#a0e557"/>
      <circle id="Elipse_11992" data-name="Elipse 11992" cx="8.192" cy="8.192" r="8.192" transform="translate(36.364 1.107)" fill="#ffb954"/>
      <path id="Trazado_994412" data-name="Trazado 994412" d="M59.157,399.044a1.107,1.107,0,1,0-.783-.324A1.111,1.111,0,0,0,59.157,399.044Z" transform="translate(-51.624 -352.901)"/>
      <path id="Trazado_994413" data-name="Trazado 994413" d="M55.571,127.534H50.608L48.431,123.3a1.107,1.107,0,0,0-1.969,1.013l1.656,3.218H40.993l1.656-3.218A1.107,1.107,0,0,0,40.68,123.3L38.5,127.534H38.5a1.1,1.1,0,0,0-.288-.957,7.569,7.569,0,0,0-3.086-1.954l-8.3-2.751a9.731,9.731,0,0,0,3.936-7.816v-5.223a9.75,9.75,0,0,0-9.739-9.739H19.723a9.75,9.75,0,0,0-9.739,9.739v5.223a9.728,9.728,0,0,0,3.8,7.714l-8.612,2.854A7.533,7.533,0,0,0,0,131.785v11.91A1.107,1.107,0,0,0,1.107,144.8H51.863a4.821,4.821,0,0,0,4.815-4.815V128.641A1.107,1.107,0,0,0,55.571,127.534Zm-39.512-4.456a9.686,9.686,0,0,0,3.663.716h1.295a9.693,9.693,0,0,0,3.378-.6,1.1,1.1,0,0,0,.231.23v1.641a4.284,4.284,0,1,1-8.568,0v-1.983h0Zm3.663-21.771h1.295a7.534,7.534,0,0,1,7.525,7.525v.327a7.9,7.9,0,0,1-9.441-2.411,1.107,1.107,0,0,0-1.752,0,7.853,7.853,0,0,1-5.152,3v-.919A7.534,7.534,0,0,1,19.722,101.307ZM12.2,114.055V111.98a10.02,10.02,0,0,0,6.028-2.883,10.039,10.039,0,0,0,7.135,2.944,10.157,10.157,0,0,0,3.183-.514v2.527a7.534,7.534,0,0,1-7.525,7.525H19.722A7.534,7.534,0,0,1,12.2,114.055Zm-9.983,17.73a5.323,5.323,0,0,1,3.654-5.061l7.977-2.643v.98a6.5,6.5,0,1,0,13,0v-.85l7.585,2.514a5.348,5.348,0,0,1,1.537.81H33.54a1.107,1.107,0,0,0-1.107,1.107v11.345a4.786,4.786,0,0,0,.766,2.6H8.64v-4.207a1.107,1.107,0,0,0-2.214,0v4.207H2.214Zm52.25,8.2a2.6,2.6,0,0,1-2.6,2.6H37.248a2.6,2.6,0,0,1-2.6-2.6V129.748h2.717l-.194.378a1.107,1.107,0,1,0,1.969,1.013l.715-1.391h9.4l.715,1.391a1.107,1.107,0,1,0,1.969-1.013l-.194-.378h2.717Z" transform="translate(0 -88.123)"/>
      <path id="Trazado_994414" data-name="Trazado 994414" d="M374.032,35.14a1.233,1.233,0,0,1-1.328-1.1,1.107,1.107,0,1,0-2.214,0,3.351,3.351,0,0,0,2.438,3.151,1.106,1.106,0,0,0,2.209,0,3.352,3.352,0,0,0,2.438-3.151,3.439,3.439,0,0,0-3.542-3.317,1.122,1.122,0,1,1,1.328-1.1,1.107,1.107,0,1,0,2.214,0,3.351,3.351,0,0,0-2.436-3.151,1.106,1.106,0,0,0-2.212,0,3.351,3.351,0,0,0-2.436,3.151,3.439,3.439,0,0,0,3.542,3.317,1.122,1.122,0,1,1,0,2.206Z" transform="translate(-329.477 -22.57)"/>
      <path id="Trazado_994415" data-name="Trazado 994415" d="M327.789,18.6a9.3,9.3,0,1,0-9.3-9.3A9.309,9.309,0,0,0,327.789,18.6Zm0-16.384A7.085,7.085,0,1,1,320.7,9.3,7.093,7.093,0,0,1,327.789,2.214Z" transform="translate(-283.233)"/>
      <path id="Trazado_994416" data-name="Trazado 994416" d="M394.7,197.17a1.107,1.107,0,0,0-2.214,0V202.1a1.107,1.107,0,0,0,2.214,0Z" transform="translate(-349.041 -174.359)"/>
      <path id="Trazado_994417" data-name="Trazado 994417" d="M393.6,278.06a1.108,1.108,0,1,0,.783.324A1.115,1.115,0,0,0,393.6,278.06Z" transform="translate(-349.041 -247.279)"/>
      <path id="Trazado_994418" data-name="Trazado 994418" d="M346.107,417A1.107,1.107,0,0,0,345,418.107v3.035a1.107,1.107,0,0,0,2.214,0v-3.035A1.107,1.107,0,0,0,346.107,417Z" transform="translate(-306.809 -370.838)"/>
      <path id="Trazado_994419" data-name="Trazado 994419" d="M393.6,417a1.107,1.107,0,0,0-1.107,1.107v3.035a1.107,1.107,0,0,0,2.214,0v-3.035A1.107,1.107,0,0,0,393.6,417Z" transform="translate(-349.041 -370.838)"/>
      <path id="Trazado_994420" data-name="Trazado 994420" d="M441.086,417a1.107,1.107,0,0,0-1.107,1.107v3.035a1.107,1.107,0,0,0,2.214,0v-3.035A1.107,1.107,0,0,0,441.086,417Z" transform="translate(-391.273 -370.838)"/>
    </g>
  </g>
</svg>
