<svg xmlns="http://www.w3.org/2000/svg" width="400" height="63" viewBox="0 0 400 63">
  <g id="Grupo_1162470" data-name="Grupo 1162470" transform="translate(-600 -5767)">
    <g id="Grupo_1162247" data-name="Grupo 1162247">
      <rect id="Fondo" width="400" height="63" transform="translate(600 5767)" fill="#e8edf7"/>
      <g id="Grupo_1162120" data-name="Grupo 1162120" transform="translate(-226.159 -253)">
        <path id="Trazado_996474" data-name="Trazado 996474" d="M.768,0,2.56-11.28H3.888L2.1,0ZM4.93,0,6.722-11.28H7.874L10.786-1.056h-.48l6.16-10.224h1.152L15.826,0H14.61l1.52-9.568h.512L10.818,0H9.97L7.186-9.568H7.65L6.13,0ZM20,7.081a3.673,3.673,0,0,1-1.083-.149,2.383,2.383,0,0,1-.849-.457l.271-.569a2.447,2.447,0,0,0,.513.327,2.541,2.541,0,0,0,.551.182,3.046,3.046,0,0,0,.625.061,1.593,1.593,0,0,0,1.111-.364,1.731,1.731,0,0,0,.513-1.036L21.87,3.7h.1a1.83,1.83,0,0,1-.714.868,2.023,2.023,0,0,1-1.125.317,1.88,1.88,0,0,1-1.087-.3,1.613,1.613,0,0,1-.625-.854,2.765,2.765,0,0,1-.07-1.288A2.681,2.681,0,0,1,19.177.8,2.314,2.314,0,0,1,20.759.231a1.715,1.715,0,0,1,1.064.317,1.26,1.26,0,0,1,.495.877l-.075-.093L22.495.315h.728q-.075.271-.14.546t-.1.537l-.569,3.574a2.516,2.516,0,0,1-.765,1.577A2.4,2.4,0,0,1,20,7.081Zm.308-2.8a1.57,1.57,0,0,0,1.143-.453,2.158,2.158,0,0,0,.583-1.265,1.683,1.683,0,0,0-.2-1.279,1.154,1.154,0,0,0-1-.448,1.594,1.594,0,0,0-1.148.448,2.173,2.173,0,0,0-.6,1.269,1.664,1.664,0,0,0,.2,1.274A1.172,1.172,0,0,0,20.311,4.281Z" transform="translate(923 6056)" fill="#212429"/>
        <path id="Trazado_996479" data-name="Trazado 996479" d="M1.1-5.7l.16-.992H9.152l-.16.992Zm-.5,3.184.16-.976H8.656l-.16.976Z" transform="translate(1009 6056)" fill="#212429"/>
        <path id="Trazado_996475" data-name="Trazado 996475" d="M-11.866,0l.144-.864L-6.3-11.28H-5.21L-3.1-.864-3.226,0Zm5.888-9.632L-10.65-.544l.08-.56h6.528l-.1.56L-5.946-9.632ZM-1.336,0,.456-11.28H1.784L-.008,0ZM5.546,0l1.6-10.16H3.178l.176-1.12h9.28l-.192,1.12H8.474L6.874,0ZM-11.137,24l.144-.864L-5.569,12.72h1.088l2.112,10.416L-2.5,24Zm5.888-9.632-4.672,9.088.08-.56h6.528l-.1.56-1.808-9.088ZM6.721,27.056a5.357,5.357,0,0,1-.84-.784A6.69,6.69,0,0,1,5.113,25.2a7.98,7.98,0,0,1-.568-1.184l1.232-.432A5.042,5.042,0,0,0,6.609,25.1a8.246,8.246,0,0,0,1.136,1.176ZM-.1,18.16a7.908,7.908,0,0,1,1.08-3.032,5.38,5.38,0,0,1,2.024-1.9,5.9,5.9,0,0,1,2.816-.656,4.686,4.686,0,0,1,2.76.76,3.9,3.9,0,0,1,1.5,2.1,6.824,6.824,0,0,1,.128,3.12,7.623,7.623,0,0,1-1.08,3.024,5.5,5.5,0,0,1-2.032,1.9,5.887,5.887,0,0,1-2.824.656,4.656,4.656,0,0,1-2.736-.752,3.873,3.873,0,0,1-1.488-2.1A7,7,0,0,1-.1,18.16Zm1.376.16a5.776,5.776,0,0,0,.048,2.48,2.866,2.866,0,0,0,1.064,1.608,3.288,3.288,0,0,0,1.992.568A3.884,3.884,0,0,0,7.361,21.76,6.285,6.285,0,0,0,8.849,18.4a5.866,5.866,0,0,0-.072-2.488A2.883,2.883,0,0,0,7.713,14.3a3.285,3.285,0,0,0-1.984-.56,3.865,3.865,0,0,0-2.976,1.208A6.326,6.326,0,0,0,1.281,18.32Z" transform="translate(978 6046)" fill="#212429"/>
        <path id="Trazado_996476" data-name="Trazado 996476" d="M-8.937,0l1.792-11.28h1.328L-7.609,0Zm6.882,0,1.6-10.16H-4.424l.176-1.12h9.28L4.84-10.16H.872L-.728,0ZM4.535,5l.093-.579,2.8-2.548a5.985,5.985,0,0,0,.775-.84,1.93,1.93,0,0,0,.345-.84.943.943,0,0,0-.215-.877,1.338,1.338,0,0,0-.961-.3,3.035,3.035,0,0,0-1.017.168,3.25,3.25,0,0,0-.943.541l-.28-.6A3.342,3.342,0,0,1,6.2-1.449a3.82,3.82,0,0,1,1.237-.215,2.594,2.594,0,0,1,1.134.219,1.346,1.346,0,0,1,.653.639,1.663,1.663,0,0,1,.107,1,2.52,2.52,0,0,1-.453,1.1A7,7,0,0,1,7.9,2.349l-2.483,2.2-.009-.215H8.94L8.837,5ZM-.881,27.056a5.357,5.357,0,0,1-.84-.784A6.689,6.689,0,0,1-2.489,25.2a7.98,7.98,0,0,1-.568-1.184l1.232-.432A5.042,5.042,0,0,0-.993,25.1,8.246,8.246,0,0,0,.143,26.272ZM-7.7,18.16a7.908,7.908,0,0,1,1.08-3.032,5.38,5.38,0,0,1,2.024-1.9,5.9,5.9,0,0,1,2.816-.656,4.686,4.686,0,0,1,2.76.76,3.9,3.9,0,0,1,1.5,2.1,6.824,6.824,0,0,1,.128,3.12,7.623,7.623,0,0,1-1.08,3.024A5.5,5.5,0,0,1-.5,23.488a5.887,5.887,0,0,1-2.824.656,4.656,4.656,0,0,1-2.736-.752,3.873,3.873,0,0,1-1.488-2.1A7,7,0,0,1-7.7,18.16Zm1.376.16a5.776,5.776,0,0,0,.048,2.48,2.866,2.866,0,0,0,1.064,1.608,3.288,3.288,0,0,0,1.992.568A3.884,3.884,0,0,0-.241,21.76,6.285,6.285,0,0,0,1.247,18.4a5.866,5.866,0,0,0-.072-2.488A2.883,2.883,0,0,0,.111,14.3a3.285,3.285,0,0,0-1.984-.56,3.865,3.865,0,0,0-2.976,1.208A6.326,6.326,0,0,0-6.321,18.32ZM3.806,29l.093-.579,2.8-2.548a5.985,5.985,0,0,0,.775-.84,1.93,1.93,0,0,0,.345-.84.943.943,0,0,0-.215-.877,1.338,1.338,0,0,0-.961-.3,3.034,3.034,0,0,0-1.017.168,3.25,3.25,0,0,0-.943.541l-.28-.6a3.342,3.342,0,0,1,1.069-.579,3.82,3.82,0,0,1,1.237-.215,2.594,2.594,0,0,1,1.134.219,1.346,1.346,0,0,1,.653.639,1.663,1.663,0,0,1,.107,1,2.52,2.52,0,0,1-.453,1.1,7,7,0,0,1-.975,1.059l-2.483,2.2-.009-.215H8.211l-.1.663Z" transform="translate(1048 6043)" fill="#212429"/>
        <path id="Trazado_996477" data-name="Trazado 996477" d="M-8.937,0l1.792-11.28h1.328L-7.609,0Zm6.882,0,1.6-10.16H-4.424l.176-1.12h9.28L4.84-10.16H.872L-.728,0ZM4.918,5l.112-.663H6.57L7.41-.917l.4.009L5.823.222l.121-.784L7.727-1.58h.56L7.344,4.337H8.8L8.7,5Zm-5.8,22.056a5.357,5.357,0,0,1-.84-.784A6.689,6.689,0,0,1-2.489,25.2a7.98,7.98,0,0,1-.568-1.184l1.232-.432A5.042,5.042,0,0,0-.993,25.1,8.246,8.246,0,0,0,.143,26.272ZM-7.7,18.16a7.908,7.908,0,0,1,1.08-3.032,5.38,5.38,0,0,1,2.024-1.9,5.9,5.9,0,0,1,2.816-.656,4.686,4.686,0,0,1,2.76.76,3.9,3.9,0,0,1,1.5,2.1,6.824,6.824,0,0,1,.128,3.12,7.623,7.623,0,0,1-1.08,3.024A5.5,5.5,0,0,1-.5,23.488a5.887,5.887,0,0,1-2.824.656,4.656,4.656,0,0,1-2.736-.752,3.873,3.873,0,0,1-1.488-2.1A7,7,0,0,1-7.7,18.16Zm1.376.16a5.776,5.776,0,0,0,.048,2.48,2.866,2.866,0,0,0,1.064,1.608,3.288,3.288,0,0,0,1.992.568A3.884,3.884,0,0,0-.241,21.76,6.285,6.285,0,0,0,1.247,18.4a5.866,5.866,0,0,0-.072-2.488A2.883,2.883,0,0,0,.111,14.3a3.285,3.285,0,0,0-1.984-.56,3.865,3.865,0,0,0-2.976,1.208A6.326,6.326,0,0,0-6.321,18.32ZM4.189,29l.112-.663h1.54l.84-5.254.4.009L5.094,24.222l.121-.784L7,22.42h.56l-.943,5.917H8.071l-.1.663Z" transform="translate(1107 6043)" fill="#212429"/>
        <path id="Trazado_996478" data-name="Trazado 996478" d="M-2.3-3.856l.176-1.072H2.416l-.16,1.072Zm0,24,.176-1.072H2.416l-.16,1.072Z" transform="translate(1076 6043)" fill="#212429"/>
        <path id="Trazado_994259" data-name="Trazado 994259" d="M4204.926,4714.5h51.317" transform="translate(-3253 1337)" fill="none" stroke="#0b0a0a" stroke-width="1"/>
        <path id="Trazado_994724" data-name="Trazado 994724" d="M4204.926,4714.5h51.317" transform="translate(-3183 1337)" fill="none" stroke="#0b0a0a" stroke-width="1"/>
        <path id="Trazado_994725" data-name="Trazado 994725" d="M4204.926,4714.5h51.317" transform="translate(-3126.926 1337)" fill="none" stroke="#0b0a0a" stroke-width="1"/>
      </g>
    </g>
  </g>
</svg>
