<svg xmlns="http://www.w3.org/2000/svg" xmlns:xlink="http://www.w3.org/1999/xlink" width="108" height="108" viewBox="0 0 108 108">
  <defs>
    <filter id="Trazado_982547" x="0" y="0" width="108" height="108" filterUnits="userSpaceOnUse">
      <feOffset dy="3" input="SourceAlpha"/>
      <feGaussianBlur stdDeviation="3" result="blur"/>
      <feFlood flood-opacity="0.161"/>
      <feComposite operator="in" in2="blur"/>
      <feComposite in="SourceGraphic"/>
    </filter>
  </defs>
  <g id="Grupo_1162258" data-name="Grupo 1162258" transform="translate(-197 -7140)">
    <g id="Grupo_1162122" data-name="Grupo 1162122" transform="translate(206 7146)">
      <g id="Grupo_1159095" data-name="Grupo 1159095" transform="translate(0)">
        <g id="Grupo_1154033" data-name="Grupo 1154033">
          <g id="Grupo_1153177" data-name="Grupo 1153177">
            <g id="Grupo_1149598" data-name="Grupo 1149598">
              <g id="Grupo_1148770" data-name="Grupo 1148770">
                <g id="Grupo_1146954" data-name="Grupo 1146954">
                  <g transform="matrix(1, 0, 0, 1, -9, -6)" filter="url(#Trazado_982547)">
                    <g id="Trazado_982547-2" data-name="Trazado 982547" transform="translate(9 6)" fill="#f5fdfa">
                      <path d="M 45.00000762939453 88.5 C 39.12688446044922 88.5 33.43023300170898 87.35007476806641 28.06830787658691 85.08217620849609 C 22.8885326385498 82.89131164550781 18.23630714416504 79.75458526611328 14.24085807800293 75.75914764404297 C 10.24542045593262 71.76370239257812 7.108695030212402 67.11147308349609 4.917832851409912 61.93170166015625 C 2.649932622909546 56.56977462768555 1.500007629394531 50.87312316894531 1.500007629394531 45 C 1.500007629394531 39.12687683105469 2.649932622909546 33.43022537231445 4.917832851409912 28.06830024719238 C 7.108695030212402 22.88852500915527 10.24542045593262 18.23629951477051 14.24085807800293 14.2408504486084 C 18.23630714416504 10.24541282653809 22.8885326385498 7.108687400817871 28.06830787658691 4.917825222015381 C 33.43023300170898 2.649924993515015 39.12688446044922 1.5 45.00000762939453 1.5 C 50.87313079833984 1.5 56.56978225708008 2.649924993515015 61.93170928955078 4.917825222015381 C 67.11148071289062 7.108687400817871 71.76371002197266 10.24541282653809 75.7591552734375 14.2408504486084 C 79.75459289550781 18.23629951477051 82.89131927490234 22.88852500915527 85.08218383789062 28.06830024719238 C 87.35008239746094 33.43022537231445 88.50000762939453 39.12687683105469 88.50000762939453 45 C 88.50000762939453 50.87312316894531 87.35008239746094 56.56977462768555 85.08218383789062 61.93170166015625 C 82.89131927490234 67.11147308349609 79.75459289550781 71.76370239257812 75.7591552734375 75.75914764404297 C 71.76371002197266 79.75458526611328 67.11148071289062 82.89131164550781 61.93170928955078 85.08217620849609 C 56.56978225708008 87.35007476806641 50.87313079833984 88.5 45.00000762939453 88.5 Z" stroke="none"/>
                      <path d="M 45.00000762939453 3 C 39.32872009277344 3 33.82866287231445 4.110054016113281 28.65263748168945 6.299339294433594 C 23.65166473388672 8.414573669433594 19.15969085693359 11.44334411621094 15.30152130126953 15.301513671875 C 11.44335174560547 19.15968322753906 8.414581298828125 23.65165710449219 6.299346923828125 28.65262985229492 C 4.110061645507812 33.82865524291992 3.000007629394531 39.32871246337891 3.000007629394531 45 C 3.000007629394531 50.67128753662109 4.110061645507812 56.17134475708008 6.299346923828125 61.34737396240234 C 8.414581298828125 66.34834289550781 11.44335174560547 70.84031677246094 15.30152130126953 74.698486328125 C 19.15969085693359 78.55665588378906 23.65166473388672 81.58542633056641 28.65263748168945 83.70066070556641 C 33.82866287231445 85.88994598388672 39.32872009277344 87 45.00000762939453 87 C 50.67129516601562 87 56.17135238647461 85.88994598388672 61.34738159179688 83.70066070556641 C 66.34835052490234 81.58542633056641 70.84032440185547 78.55665588378906 74.69849395751953 74.698486328125 C 78.55666351318359 70.84031677246094 81.58543395996094 66.34834289550781 83.70066833496094 61.34737396240234 C 85.88995361328125 56.17134475708008 87.00000762939453 50.67128753662109 87.00000762939453 45 C 87.00000762939453 39.32871246337891 85.88995361328125 33.82865524291992 83.70066833496094 28.65262985229492 C 81.58543395996094 23.65165710449219 78.55666351318359 19.15968322753906 74.69849395751953 15.301513671875 C 70.84032440185547 11.44334411621094 66.34835052490234 8.414573669433594 61.34738159179688 6.299339294433594 C 56.17135238647461 4.110054016113281 50.67129516601562 3 45.00000762939453 3 M 45.00000762939453 0 C 69.85282135009766 0 90.00000762939453 20.14718627929688 90.00000762939453 45 C 90.00000762939453 69.85281372070312 69.85282135009766 90 45.00000762939453 90 C 20.14719390869141 90 7.62939453125e-06 69.85281372070312 7.62939453125e-06 45 C 7.62939453125e-06 20.14718627929688 20.14719390869141 0 45.00000762939453 0 Z" stroke="none" fill="#598475"/>
                    </g>
                  </g>
                </g>
              </g>
            </g>
          </g>
        </g>
      </g>
    </g>
    <g id="purchase_12543832" transform="translate(166.584 7136.714)">
      <g id="Grupo_1162257" data-name="Grupo 1162257" transform="translate(58.83 24.021)">
        <path id="Trazado_995726" data-name="Trazado 995726" d="M129.235,109.766l-5.84,13.667H118.34l6.617-15.493Z" transform="translate(-110.881 -96.953)" fill="gray" fill-rule="evenodd"/>
        <path id="Trazado_995727" data-name="Trazado 995727" d="M162.655,25.458l5.907,2.523a.958.958,0,0,1,.506,1.256l-3.761,8.8a.957.957,0,0,1-1.256.506l-5.907-2.523a.958.958,0,0,1-.506-1.256l3.761-8.8a.959.959,0,0,1,1.256-.5Z" transform="translate(-144.882 -25.38)" fill="#4d4d4e" fill-rule="evenodd"/>
        <path id="Trazado_995728" data-name="Trazado 995728" d="M308.21,109.766l5.84,13.667H319.1l-6.619-15.493Z" transform="translate(-275.483 -96.953)" fill="gray" fill-rule="evenodd"/>
        <path id="Trazado_995729" data-name="Trazado 995729" d="M270.291,25.458l-5.911,2.523a.96.96,0,0,0-.5,1.256l3.757,8.8a.958.958,0,0,0,1.256.506L274.8,36.02a.962.962,0,0,0,.506-1.256l-3.761-8.8a.96.96,0,0,0-1.256-.5Z" transform="translate(-236.983 -25.38)" fill="#4d4d4e" fill-rule="evenodd"/>
        <path id="Trazado_995730" data-name="Trazado 995730" d="M64.142,224.36h48.335a1.011,1.011,0,0,1,.993,1.026v.4a1.011,1.011,0,0,1-.993,1.026h-.849l-1.513,24.645a1.392,1.392,0,0,1-1.392,1.312H67.046a1.393,1.393,0,0,1-1.392-1.312l-1.512-24.645h-.849a1.011,1.011,0,0,1-.993-1.026v-.4a1.011,1.011,0,0,1,.993-1.026Z" transform="translate(-62.299 -197.88)" fill="#718446" fill-rule="evenodd"/>
        <path id="Trazado_995731" data-name="Trazado 995731" d="M64.133,224.36h48.335a1.011,1.011,0,0,1,.993,1.026v.4a1.011,1.011,0,0,1-.993,1.026h-.849l-.97,15.8a78.174,78.174,0,0,1-13.022-.347c-13.818-1.5-25.939-6.277-33.306-12.4l-.189-3.045h-.849a1.011,1.011,0,0,1-.993-1.026v-.4a1.011,1.011,0,0,1,.993-1.026Z" transform="translate(-62.29 -197.88)" fill="#9bb561" fill-rule="evenodd"/>
        <path id="Trazado_995732" data-name="Trazado 995732" d="M175.842,293.78a12.082,12.082,0,1,1-12.082,12.082A12.082,12.082,0,0,1,175.842,293.78Z" transform="translate(-150.256 -258.061)" fill="#fcb13b" fill-rule="evenodd"/>
        <path id="Trazado_995733" data-name="Trazado 995733" d="M190.459,310.64a9.839,9.839,0,1,1-9.839,9.839A9.84,9.84,0,0,1,190.459,310.64Z" transform="translate(-164.873 -272.678)" fill="#fcb13b" fill-rule="evenodd"/>
      </g>
      <path id="Trazado_995734" data-name="Trazado 995734" d="M80.866,74.067a.53.53,0,0,1,1.057-.094c.15,1.641,2.78,2.441,4.3,1.2a1.748,1.748,0,0,0,.695-1.339c0-3.154-6.066-.641-6.066-4.957A3.225,3.225,0,0,1,83.869,65.9V64.742a.532.532,0,0,1,.562-.532v0a.529.529,0,0,1,.532.539l-.027,1.139a3.23,3.23,0,0,1,3.045,2.98.532.532,0,0,1-1.063,0c0-1.727-2.735-2.63-4.308-1.343a1.758,1.758,0,0,0-.691,1.343c0,3.154,6.062.637,6.062,4.957a3.227,3.227,0,0,1-3.025,2.977l-.023,1.151a.532.532,0,0,1-1.063,0V76.806a3.278,3.278,0,0,1-3-2.739ZM84.416,61.78a10.368,10.368,0,1,1-10.37,10.367A10.368,10.368,0,0,1,84.416,61.78ZM91,65.567a9.3,9.3,0,1,0,0,13.158A9.3,9.3,0,0,0,91,65.567Zm-6.579-6.035A12.62,12.62,0,0,1,95.2,78.7h10.057a.863.863,0,0,0,.864-.81l1.509-24.615a.532.532,0,0,1,.532-.532h.849a.478.478,0,0,0,.46-.494c0-.3.045-.562-.144-.759a.442.442,0,0,0-.317-.136H59.824a.478.478,0,0,0-.46.494c0,.3-.045.566.144.759a.442.442,0,0,0,.317.136h.849a.535.535,0,0,1,.532.5l1.509,24.645a.863.863,0,0,0,.864.81H73.636A12.616,12.616,0,0,1,84.416,59.532ZM94.473,79.767a12.624,12.624,0,0,1-20.114,0H63.577a1.93,1.93,0,0,1-1.924-1.811L60.174,53.809a1.674,1.674,0,0,1-1.433-.464A1.812,1.812,0,0,1,58.3,51.85a1.547,1.547,0,0,1,1.524-1.558h6.115l6.269-14.679a1.694,1.694,0,0,1-1.125-.958,1.5,1.5,0,0,1,.011-1.135l3.761-8.8a1.5,1.5,0,0,1,1.954-.785l5.911,2.527a1.493,1.493,0,0,1,.785,1.951l-3.746,8.767a1.5,1.5,0,0,1-2,.808l-.294-.128L72.146,50.293H96.588L91.277,37.856a1.676,1.676,0,0,1-1.468.154,1.494,1.494,0,0,1-.814-.8l-3.76-8.8a1.49,1.49,0,0,1,.785-1.951l5.911-2.527a1.494,1.494,0,0,1,1.951.785l3.761,8.8a1.487,1.487,0,0,1-.785,1.951l-.329.144L102.8,50.295h6.206a1.547,1.547,0,0,1,1.524,1.558,1.813,1.813,0,0,1-.442,1.494,1.672,1.672,0,0,1-1.433.464l-1.479,24.147a1.929,1.929,0,0,1-1.924,1.811H94.473Zm-1.89-15.787a11.551,11.551,0,1,0,0,16.338A11.549,11.549,0,0,0,92.583,63.979Zm-28.61-10.17a.532.532,0,0,1,0-1.063h40.885a.532.532,0,0,1,0,1.063Zm3.119-3.516h3.9L76.486,37.44l-3.3-1.411Zm30.651,0h3.9L95.553,36.03l-3.3,1.411Zm-5.4-25.384-5.911,2.527a.43.43,0,0,0-.222.559l3.761,8.8a.429.429,0,0,0,.559.226L96.443,34.5a.423.423,0,0,0,.222-.559l-3.761-8.8A.429.429,0,0,0,92.345,24.91ZM82.3,27.437,76.4,24.91a.433.433,0,0,0-.562.226l-3.761,8.8a.429.429,0,0,0,.226.559l5.907,2.527a.434.434,0,0,0,.562-.222L82.529,28A.427.427,0,0,0,82.3,27.437Z" transform="translate(0 0)"/>
    </g>
  </g>
</svg>
