<svg xmlns="http://www.w3.org/2000/svg" xmlns:xlink="http://www.w3.org/1999/xlink" width="400" height="383" viewBox="0 0 400 383">
  <defs>
    <clipPath id="clip-path">
      <rect id="Rectángulo_411929" data-name="Rectángulo 411929" width="400" height="383" transform="translate(180 467)" fill="#fff" stroke="#707070" stroke-width="1"/>
    </clipPath>
    <clipPath id="clip-path-2">
      <rect id="Rectángulo_411917" data-name="Rectángulo 411917" width="324.552" height="327.694" fill="none"/>
    </clipPath>
  </defs>
  <g id="Enmascarar_grupo_1098679" data-name="Enmascarar grupo 1098679" transform="translate(-180 -467)" clip-path="url(#clip-path)">
    <g id="Grupo_1162411" data-name="Grupo 1162411" transform="translate(219 500)">
      <g id="Grupo_1162402" data-name="Grupo 1162402">
        <g id="Grupo_1162401" data-name="Grupo 1162401" clip-path="url(#clip-path-2)">
          <path id="Trazado_996243" data-name="Trazado 996243" d="M406.356,392.619a9.226,9.226,0,1,1-9.226-9.226A9.226,9.226,0,0,1,406.356,392.619Z" transform="translate(-98.18 -97.038)" fill="none" stroke="#303030" stroke-linecap="round" stroke-linejoin="round" stroke-width="1.5"/>
          <rect id="Rectángulo_411903" data-name="Rectángulo 411903" width="28.914" height="3.313" transform="translate(295.638 305.09)" fill="#303030"/>
          <rect id="Rectángulo_411904" data-name="Rectángulo 411904" width="28.914" height="3.313" transform="translate(295.638 282.285)" fill="#303030"/>
          <rect id="Rectángulo_411905" data-name="Rectángulo 411905" width="3.313" height="26.104" transform="translate(295.638 282.299)" fill="#303030"/>
          <rect id="Rectángulo_411906" data-name="Rectángulo 411906" width="22.045" height="13.138" transform="translate(300.987 289.013)" fill="#fff"/>
          <rect id="Rectángulo_411907" data-name="Rectángulo 411907" width="22.045" height="13.138" transform="translate(300.987 289.013)" fill="none" stroke="#303030" stroke-linecap="round" stroke-linejoin="round" stroke-width="1.5"/>
          <line id="Línea_744" data-name="Línea 744" x1="17.495" transform="translate(305.537 299.182)" fill="#fff"/>
          <line id="Línea_745" data-name="Línea 745" x1="17.495" transform="translate(305.537 299.182)" fill="none" stroke="#303030" stroke-linecap="round" stroke-linejoin="round" stroke-width="1.5"/>
          <line id="Línea_746" data-name="Línea 746" x1="11.697" transform="translate(311.335 295.582)" fill="#fff"/>
          <line id="Línea_747" data-name="Línea 747" x1="11.697" transform="translate(311.335 295.582)" fill="none" stroke="#303030" stroke-linecap="round" stroke-linejoin="round" stroke-width="1.5"/>
          <line id="Línea_748" data-name="Línea 748" x1="17.495" transform="translate(305.537 292.39)" fill="#fff"/>
          <line id="Línea_749" data-name="Línea 749" x1="17.495" transform="translate(305.537 292.39)" fill="none" stroke="#303030" stroke-linecap="round" stroke-linejoin="round" stroke-width="1.5"/>
          <rect id="Rectángulo_411908" data-name="Rectángulo 411908" width="90.105" height="26.104" transform="translate(205.533 282.299)" fill="#f55571"/>
          <path id="Trazado_996244" data-name="Trazado 996244" d="M294.1,400.431a7.556,7.556,0,1,0-7.556-7.555,7.555,7.555,0,0,0,7.556,7.555" transform="translate(-72.525 -97.526)" fill="#fff"/>
          <circle id="Elipse_12046" data-name="Elipse 12046" cx="7.556" cy="7.556" r="7.556" transform="matrix(0.485, -0.875, 0.875, 0.485, 211.303, 298.296)" fill="none" stroke="#303030" stroke-linecap="round" stroke-linejoin="round" stroke-width="1.5"/>
          <path id="Trazado_996245" data-name="Trazado 996245" d="M295.019,398.638a4.842,4.842,0,1,0-4.842-4.842,4.842,4.842,0,0,0,4.842,4.842" transform="translate(-73.445 -98.445)" fill="#303030"/>
          <path id="Trazado_996246" data-name="Trazado 996246" d="M367.4,398V387.749a2.429,2.429,0,0,0-2.428-2.428h-39a2.428,2.428,0,0,0-2.429,2.429V398a2.428,2.428,0,0,0,2.429,2.429H364.97A2.429,2.429,0,0,0,367.4,398" transform="translate(-81.89 -97.526)" fill="#fff"/>
          <path id="Rectángulo_411909" data-name="Rectángulo 411909" d="M3.252,0H40.6a3.251,3.251,0,0,1,3.251,3.251v8.608A3.252,3.252,0,0,1,40.6,15.111H3.252A3.252,3.252,0,0,1,0,11.859V3.252A3.252,3.252,0,0,1,3.252,0Z" transform="translate(241.655 287.795)" fill="none" stroke="#303030" stroke-linecap="round" stroke-linejoin="round" stroke-width="1.5"/>
          <line id="Línea_750" data-name="Línea 750" y2="9.684" transform="translate(254.723 290.508)" fill="none" stroke="#303030" stroke-linecap="round" stroke-linejoin="round" stroke-width="1.5"/>
          <line id="Línea_751" data-name="Línea 751" y2="9.684" transform="translate(260.629 290.508)" fill="none" stroke="#303030" stroke-linecap="round" stroke-linejoin="round" stroke-width="1.5"/>
          <line id="Línea_752" data-name="Línea 752" y2="9.684" transform="translate(266.534 290.508)" fill="none" stroke="#303030" stroke-linecap="round" stroke-linejoin="round" stroke-width="1.5"/>
          <line id="Línea_753" data-name="Línea 753" y2="9.684" transform="translate(272.44 290.508)" fill="none" stroke="#303030" stroke-linecap="round" stroke-linejoin="round" stroke-width="1.5"/>
          <path id="Trazado_996247" data-name="Trazado 996247" d="M406.356,357.651a9.226,9.226,0,1,1-9.226-9.226A9.226,9.226,0,0,1,406.356,357.651Z" transform="translate(-98.18 -88.187)" fill="none" stroke="#303030" stroke-linecap="round" stroke-linejoin="round" stroke-width="1.5"/>
          <rect id="Rectángulo_411910" data-name="Rectángulo 411910" width="28.914" height="3.313" transform="translate(295.638 278.971)" fill="#303030"/>
          <rect id="Rectángulo_411911" data-name="Rectángulo 411911" width="28.914" height="3.313" transform="translate(295.638 256.167)" fill="#303030"/>
          <rect id="Rectángulo_411912" data-name="Rectángulo 411912" width="3.313" height="26.118" transform="translate(295.638 256.166)" fill="#303030"/>
          <rect id="Rectángulo_411913" data-name="Rectángulo 411913" width="22.045" height="13.138" transform="translate(300.987 262.895)" fill="#fff"/>
          <rect id="Rectángulo_411914" data-name="Rectángulo 411914" width="22.045" height="13.138" transform="translate(300.987 262.895)" fill="none" stroke="#303030" stroke-linecap="round" stroke-linejoin="round" stroke-width="1.5"/>
          <line id="Línea_754" data-name="Línea 754" x1="17.495" transform="translate(305.537 273.064)" fill="#fff"/>
          <line id="Línea_755" data-name="Línea 755" x1="17.495" transform="translate(305.537 273.064)" fill="none" stroke="#303030" stroke-linecap="round" stroke-linejoin="round" stroke-width="1.5"/>
          <line id="Línea_756" data-name="Línea 756" x1="11.697" transform="translate(311.335 269.464)" fill="#fff"/>
          <line id="Línea_757" data-name="Línea 757" x1="11.697" transform="translate(311.335 269.464)" fill="none" stroke="#303030" stroke-linecap="round" stroke-linejoin="round" stroke-width="1.5"/>
          <line id="Línea_758" data-name="Línea 758" x1="17.495" transform="translate(305.537 266.272)" fill="#fff"/>
          <line id="Línea_759" data-name="Línea 759" x1="17.495" transform="translate(305.537 266.272)" fill="none" stroke="#303030" stroke-linecap="round" stroke-linejoin="round" stroke-width="1.5"/>
          <rect id="Rectángulo_411915" data-name="Rectángulo 411915" width="90.105" height="26.104" transform="translate(205.533 256.167)" fill="#00826f"/>
          <path id="Trazado_996248" data-name="Trazado 996248" d="M294.1,365.444a7.555,7.555,0,1,0-7.556-7.556,7.556,7.556,0,0,0,7.556,7.556" transform="translate(-72.525 -88.67)" fill="#fff"/>
          <path id="Trazado_996249" data-name="Trazado 996249" d="M294.1,365.444a7.555,7.555,0,1,0-7.556-7.556A7.556,7.556,0,0,0,294.1,365.444Z" transform="translate(-72.525 -88.67)" fill="none" stroke="#303030" stroke-linecap="round" stroke-linejoin="round" stroke-width="1.5"/>
          <path id="Trazado_996250" data-name="Trazado 996250" d="M295.019,363.651a4.842,4.842,0,1,0-4.842-4.842,4.842,4.842,0,0,0,4.842,4.842" transform="translate(-73.445 -89.59)" fill="#303030"/>
          <path id="Trazado_996251" data-name="Trazado 996251" d="M367.4,363.016V352.763a2.429,2.429,0,0,0-2.429-2.429H325.975a2.428,2.428,0,0,0-2.429,2.429v10.253a2.429,2.429,0,0,0,2.429,2.43H364.97a2.43,2.43,0,0,0,2.429-2.43" transform="translate(-81.89 -88.67)" fill="#fff"/>
          <rect id="Rectángulo_411916" data-name="Rectángulo 411916" width="43.853" height="15.111" rx="3.252" transform="translate(241.655 261.663)" fill="none" stroke="#303030" stroke-linecap="round" stroke-linejoin="round" stroke-width="1.5"/>
          <line id="Línea_760" data-name="Línea 760" y2="9.684" transform="translate(254.723 264.377)" fill="none" stroke="#303030" stroke-linecap="round" stroke-linejoin="round" stroke-width="1.5"/>
          <line id="Línea_761" data-name="Línea 761" y2="9.684" transform="translate(260.629 264.377)" fill="none" stroke="#303030" stroke-linecap="round" stroke-linejoin="round" stroke-width="1.5"/>
          <line id="Línea_762" data-name="Línea 762" y2="9.684" transform="translate(266.534 264.377)" fill="none" stroke="#303030" stroke-linecap="round" stroke-linejoin="round" stroke-width="1.5"/>
          <line id="Línea_763" data-name="Línea 763" y2="9.684" transform="translate(272.44 264.377)" fill="none" stroke="#303030" stroke-linecap="round" stroke-linejoin="round" stroke-width="1.5"/>
          <line id="Línea_764" data-name="Línea 764" x1="90.105" transform="translate(205.533 282.271)" fill="#fff"/>
          <line id="Línea_765" data-name="Línea 765" x1="90.105" transform="translate(205.533 282.271)" fill="none" stroke="#303030" stroke-linecap="round" stroke-linejoin="round" stroke-width="1.5"/>
        </g>
      </g>
      <g id="Grupo_1162404" data-name="Grupo 1162404">
        <g id="Grupo_1162403" data-name="Grupo 1162403" clip-path="url(#clip-path-2)">
          <path id="Trazado_996252" data-name="Trazado 996252" d="M370.381,283.295a37.84,37.84,0,0,1-64.18,27.168l39.7-18.63L331.991,275.4l29.187-16.836a37.693,37.693,0,0,1,9.2,24.735" transform="translate(-77.5 -65.442)" fill="#303030"/>
          <path id="Trazado_996253" data-name="Trazado 996253" d="M370.381,283.295a37.84,37.84,0,0,1-64.18,27.168l39.7-18.63L331.991,275.4l29.187-16.836A37.693,37.693,0,0,1,370.381,283.295Z" transform="translate(-77.5 -65.442)" fill="none" stroke="#303030" stroke-linecap="round" stroke-linejoin="round" stroke-width="1.5"/>
          <path id="Trazado_996254" data-name="Trazado 996254" d="M376.163,282.7a37.844,37.844,0,0,1-65.657,25.66l36.487-17.121L333.081,274.8l32.252-18.605a37.713,37.713,0,0,1,10.831,26.5" transform="translate(-78.59 -64.843)" fill="#00826f"/>
          <path id="Trazado_996255" data-name="Trazado 996255" d="M376.163,282.7a37.844,37.844,0,0,1-65.657,25.66l36.487-17.121L333.081,274.8l32.252-18.605A37.713,37.713,0,0,1,376.163,282.7Z" transform="translate(-78.59 -64.843)" fill="none" stroke="#303030" stroke-linecap="round" stroke-linejoin="round" stroke-width="1.5"/>
          <path id="Trazado_996256" data-name="Trazado 996256" d="M370.7,284.127a29.73,29.73,0,0,1-49.723,22l28.666-13.463-13.912-16.438,24.928-14.379A29.688,29.688,0,0,1,370.7,284.127" transform="translate(-81.24 -66.275)" fill="#00826f"/>
          <path id="Trazado_996257" data-name="Trazado 996257" d="M370.7,284.127a29.73,29.73,0,0,1-49.723,22l28.666-13.463-13.912-16.438,24.928-14.379A29.688,29.688,0,0,1,370.7,284.127Z" transform="translate(-81.24 -66.275)" fill="none" stroke="#303030" stroke-linecap="round" stroke-linejoin="round" stroke-width="1.5"/>
          <path id="Trazado_996258" data-name="Trazado 996258" d="M370.693,284.127a29.724,29.724,0,0,1-29.72,29.728q-1.185,0-2.347-.095a29.672,29.672,0,0,1-17.648-7.632l28.665-13.463-13.912-16.438,24.92-14.379a29.66,29.66,0,0,1,10.041,22.278" transform="translate(-81.24 -66.275)" fill="#303030"/>
          <path id="Trazado_996259" data-name="Trazado 996259" d="M370.693,284.127a29.724,29.724,0,0,1-29.72,29.728q-1.185,0-2.347-.095a29.672,29.672,0,0,1-17.648-7.632l28.665-13.463-13.912-16.438,24.92-14.379A29.66,29.66,0,0,1,370.693,284.127Z" transform="translate(-81.24 -66.275)" fill="none" stroke="#303030" stroke-linecap="round" stroke-linejoin="round" stroke-width="1.5"/>
          <path id="Trazado_996260" data-name="Trazado 996260" d="M366.008,284.7a29.728,29.728,0,0,1-27.382,29.633,29.672,29.672,0,0,1-17.648-7.632l28.666-13.463L335.731,276.8l21.99-12.688a29.612,29.612,0,0,1,8.287,20.587" transform="translate(-81.24 -66.848)" fill="#00826f"/>
          <path id="Trazado_996261" data-name="Trazado 996261" d="M366.008,284.7a29.728,29.728,0,0,1-27.382,29.633,29.672,29.672,0,0,1-17.648-7.632l28.666-13.463L335.731,276.8l21.99-12.688A29.612,29.612,0,0,1,366.008,284.7Z" transform="translate(-81.24 -66.848)" fill="none" stroke="#303030" stroke-linecap="round" stroke-linejoin="round" stroke-width="1.5"/>
          <path id="Trazado_996262" data-name="Trazado 996262" d="M341.027,279.12l-.3-.356,11.944-6.889a3.842,3.842,0,0,1-3.847,6.652,7.051,7.051,0,0,0-.814-.411,7.61,7.61,0,0,0-3.451-.609,5.489,5.489,0,0,0-2.781.766,2.068,2.068,0,0,0-.75.846" transform="translate(-86.239 -68.813)" fill="#303030"/>
          <path id="Trazado_996263" data-name="Trazado 996263" d="M341.027,279.12l-.3-.356,11.944-6.889a3.842,3.842,0,0,1-3.847,6.652,7.051,7.051,0,0,0-.814-.411,7.61,7.61,0,0,0-3.451-.609,5.489,5.489,0,0,0-2.781.766A2.068,2.068,0,0,0,341.027,279.12Z" transform="translate(-86.239 -68.813)" fill="none" stroke="#303030" stroke-linecap="round" stroke-linejoin="round" stroke-width="1.5"/>
          <path id="Trazado_996264" data-name="Trazado 996264" d="M352.544,307.1a13.152,13.152,0,0,1-5.822,2.836l.252,4.8-6.178.332-.245-4.543a17.033,17.033,0,0,1-5.309-.964,13.909,13.909,0,0,1-2.354-1.114l11.321-5.3a5.022,5.022,0,0,0,2.007-.79,3.107,3.107,0,0,0,.379-.324l6.06-2.883-9.914-11.716c.822.268,1.706.537,2.654.813q1.73.5,3.484,1.2A13.142,13.142,0,0,1,352.1,291.3a9.567,9.567,0,0,1,2.465,2.994,10.6,10.6,0,0,1,1.129,4.495,9.826,9.826,0,0,1-3.152,8.3" transform="translate(-84.255 -72.748)" fill="#303030"/>
          <path id="Trazado_996265" data-name="Trazado 996265" d="M352.544,307.1a13.152,13.152,0,0,1-5.822,2.836l.252,4.8-6.178.332-.245-4.543a17.033,17.033,0,0,1-5.309-.964,13.909,13.909,0,0,1-2.354-1.114l11.321-5.3a5.022,5.022,0,0,0,2.007-.79,3.107,3.107,0,0,0,.379-.324l6.06-2.883-9.914-11.716c.822.268,1.706.537,2.654.813q1.73.5,3.484,1.2A13.142,13.142,0,0,1,352.1,291.3a9.567,9.567,0,0,1,2.465,2.994,10.6,10.6,0,0,1,1.129,4.495A9.826,9.826,0,0,1,352.544,307.1Z" transform="translate(-84.255 -72.748)" fill="none" stroke="#303030" stroke-linecap="round" stroke-linejoin="round" stroke-width="1.5"/>
          <path id="Trazado_996266" data-name="Trazado 996266" d="M323.648,329.752a1.255,1.255,0,1,1,.459,1.714,1.255,1.255,0,0,1-.459-1.714" transform="translate(-81.874 -83.302)" fill="#303030"/>
          <path id="Trazado_996267" data-name="Trazado 996267" d="M346.07,336.433a1.255,1.255,0,1,1,1.255,1.255,1.255,1.255,0,0,1-1.255-1.255" transform="translate(-87.591 -84.834)" fill="#303030"/>
          <path id="Trazado_996268" data-name="Trazado 996268" d="M368.828,331.007a1.255,1.255,0,1,1,1.714.459,1.254,1.254,0,0,1-1.714-.459" transform="translate(-93.309 -83.302)" fill="#303030"/>
          <path id="Trazado_996269" data-name="Trazado 996269" d="M385.823,314.928a1.255,1.255,0,1,1,1.714-.459,1.255,1.255,0,0,1-1.714.459" transform="translate(-97.494 -79.117)" fill="#303030"/>
          <path id="Trazado_996270" data-name="Trazado 996270" d="M392.5,292.506a1.255,1.255,0,1,1,1.255-1.255,1.255,1.255,0,0,1-1.255,1.255" transform="translate(-99.026 -73.399)" fill="#303030"/>
          <path id="Trazado_996271" data-name="Trazado 996271" d="M387.078,269.748a1.255,1.255,0,1,1,.459-1.714,1.254,1.254,0,0,1-.459,1.714" transform="translate(-97.494 -67.681)" fill="#303030"/>
          <path id="Trazado_996272" data-name="Trazado 996272" d="M319.431,268.6l13.823,16.087-35.419,16.585a37.841,37.841,0,1,1,54.978-51.9Z" transform="translate(-72.472 -59.799)" fill="#303030"/>
          <path id="Trazado_996273" data-name="Trazado 996273" d="M319.431,268.6l13.823,16.087-35.419,16.585a37.841,37.841,0,1,1,54.978-51.9Z" transform="translate(-72.472 -59.799)" fill="none" stroke="#303030" stroke-linecap="round" stroke-linejoin="round" stroke-width="1.5"/>
          <path id="Trazado_996274" data-name="Trazado 996274" d="M321.022,268.6l13.823,16.087-32.2,15.076A37.843,37.843,0,0,1,357.468,247.6Z" transform="translate(-74.062 -59.799)" fill="#00826f"/>
          <path id="Trazado_996275" data-name="Trazado 996275" d="M321.022,268.6l13.823,16.087-32.2,15.076A37.843,37.843,0,0,1,357.468,247.6Z" transform="translate(-74.062 -59.799)" fill="none" stroke="#303030" stroke-linecap="round" stroke-linejoin="round" stroke-width="1.5"/>
          <path id="Trazado_996276" data-name="Trazado 996276" d="M323.771,271.351l13.823,16.087-24.382,11.419a29.73,29.73,0,0,1,39.683-44.279Z" transform="translate(-76.811 -62.549)" fill="none" stroke="#303030" stroke-linecap="round" stroke-linejoin="round" stroke-width="1.5"/>
          <path id="Trazado_996277" data-name="Trazado 996277" d="M323.773,271.351,337.6,287.438l-24.382,11.419a29.734,29.734,0,0,1,17.649-51.634q1.163-.1,2.346-.095a29.581,29.581,0,0,1,19.68,7.45Z" transform="translate(-76.814 -62.549)" fill="#303030"/>
          <path id="Trazado_996278" data-name="Trazado 996278" d="M323.773,271.351,337.6,287.438l-24.382,11.419a29.734,29.734,0,0,1,17.649-51.634q1.163-.1,2.346-.095a29.581,29.581,0,0,1,19.68,7.45Z" transform="translate(-76.814 -62.549)" fill="none" stroke="#303030" stroke-linecap="round" stroke-linejoin="round" stroke-width="1.5"/>
          <path id="Trazado_996279" data-name="Trazado 996279" d="M344.11,241.325a1.255,1.255,0,1,1-1.255-1.255,1.255,1.255,0,0,1,1.255,1.255" transform="translate(-86.46 -60.762)" fill="#303030"/>
          <path id="Trazado_996280" data-name="Trazado 996280" d="M321.352,246.75a1.255,1.255,0,1,1-1.715-.459,1.255,1.255,0,0,1,1.715.459" transform="translate(-80.742 -62.294)" fill="#303030"/>
          <path id="Trazado_996281" data-name="Trazado 996281" d="M304.356,262.829a1.255,1.255,0,1,1-1.714.459,1.255,1.255,0,0,1,1.714-.459" transform="translate(-76.557 -66.48)" fill="#303030"/>
          <path id="Trazado_996282" data-name="Trazado 996282" d="M297.676,285.251a1.255,1.255,0,1,1-1.255,1.255,1.255,1.255,0,0,1,1.255-1.255" transform="translate(-75.025 -72.198)" fill="#303030"/>
          <path id="Trazado_996283" data-name="Trazado 996283" d="M303.1,308.009a1.255,1.255,0,1,1-.459,1.714,1.254,1.254,0,0,1,.459-1.714" transform="translate(-76.557 -77.915)" fill="#303030"/>
          <path id="Trazado_996284" data-name="Trazado 996284" d="M366.532,248.005a1.255,1.255,0,1,1-.46-1.714,1.256,1.256,0,0,1,.46,1.714" transform="translate(-92.177 -62.294)" fill="#303030"/>
          <path id="Trazado_996285" data-name="Trazado 996285" d="M323.773,271.383,337.6,287.47l-24.382,11.419a29.734,29.734,0,0,1,17.649-51.634,29.616,29.616,0,0,1,19.094,9.045Z" transform="translate(-76.814 -62.581)" fill="#00826f"/>
          <path id="Trazado_996286" data-name="Trazado 996286" d="M323.773,271.383,337.6,287.47l-24.382,11.419a29.734,29.734,0,0,1,17.649-51.634,29.616,29.616,0,0,1,19.094,9.045Z" transform="translate(-76.814 -62.581)" fill="none" stroke="#303030" stroke-linecap="round" stroke-linejoin="round" stroke-width="1.5"/>
          <path id="Trazado_996287" data-name="Trazado 996287" d="M337.609,292.519a9.585,9.585,0,0,1-4.535-.806,12.245,12.245,0,0,1-1.35-.711,3.846,3.846,0,0,0-4.938.688l-.15.173a3.783,3.783,0,0,0,.869,5.744c.031.016.063.04.094.055l11.321-5.3a9.157,9.157,0,0,1-1.312.158m7.789-27.484a3.174,3.174,0,0,0-.364-.19c-.387-.173-.782-.332-1.193-.474a16.833,16.833,0,0,0-4.305-.877l-.253-4.63-6.178.324.261,4.827a13.768,13.768,0,0,0-2.749,1.058,9.751,9.751,0,0,0-5.411,9.709,9.929,9.929,0,0,0,1.105,4.353,8.958,8.958,0,0,0,2.426,2.844,15.086,15.086,0,0,0,3.223,1.841,29.864,29.864,0,0,0,3.484,1.2q1.741.475,3.183,1.02a9.586,9.586,0,0,1,1.153.521l-10.515-12.245ZM342,289.359a2.375,2.375,0,0,1-.7,1.888l1.778-.837-1.106-1.288c.008.079.016.158.024.237m-.024-.237-2.2-2.56" transform="translate(-82.306 -65.519)" fill="#303030"/>
          <path id="Trazado_996288" data-name="Trazado 996288" d="M337.609,292.519a9.585,9.585,0,0,1-4.535-.806,12.245,12.245,0,0,1-1.35-.711,3.846,3.846,0,0,0-4.938.688l-.15.173a3.783,3.783,0,0,0,.869,5.744c.031.016.063.04.094.055l11.321-5.3A9.157,9.157,0,0,1,337.609,292.519Zm7.789-27.484a3.174,3.174,0,0,0-.364-.19c-.387-.173-.782-.332-1.193-.474a16.833,16.833,0,0,0-4.305-.877l-.253-4.63-6.178.324.261,4.827a13.768,13.768,0,0,0-2.749,1.058,9.751,9.751,0,0,0-5.411,9.709,9.929,9.929,0,0,0,1.105,4.353,8.958,8.958,0,0,0,2.426,2.844,15.086,15.086,0,0,0,3.223,1.841,29.864,29.864,0,0,0,3.484,1.2q1.741.475,3.183,1.02a9.586,9.586,0,0,1,1.153.521l-10.515-12.245ZM342,289.359a2.375,2.375,0,0,1-.7,1.888l1.778-.837-1.106-1.288C341.986,289.2,341.994,289.281,342,289.359Zm-.024-.237-2.2-2.56" transform="translate(-82.306 -65.519)" fill="none" stroke="#303030" stroke-linecap="round" stroke-linejoin="round" stroke-width="1.5"/>
        </g>
      </g>
      <g id="Grupo_1162406" data-name="Grupo 1162406">
        <g id="Grupo_1162405" data-name="Grupo 1162405" clip-path="url(#clip-path-2)">
          <path id="Trazado_996289" data-name="Trazado 996289" d="M139.115,35.181V6.8A6.051,6.051,0,0,1,145.166.751H350.621A6.051,6.051,0,0,1,356.672,6.8v28.38Z" transform="translate(-35.21 -0.19)" fill="#fff"/>
          <path id="Trazado_996290" data-name="Trazado 996290" d="M139.115,35.181V6.8A6.051,6.051,0,0,1,145.166.751H350.621A6.051,6.051,0,0,1,356.672,6.8v28.38Z" transform="translate(-35.21 -0.19)" fill="none" stroke="#ff95fb" stroke-linecap="round" stroke-linejoin="round" stroke-width="1.5"/>
          <rect id="Rectángulo_411919" data-name="Rectángulo 411919" width="217.557" height="34.43" transform="translate(103.905 34.991)" fill="#fff"/>
          <rect id="Rectángulo_411920" data-name="Rectángulo 411920" width="217.557" height="34.43" transform="translate(103.905 34.991)" fill="none" stroke="#ff95fb" stroke-linecap="round" stroke-linejoin="round" stroke-width="1.5"/>
          <rect id="Rectángulo_411921" data-name="Rectángulo 411921" width="217.557" height="34.43" transform="translate(103.905 69.422)" fill="#fff"/>
          <rect id="Rectángulo_411922" data-name="Rectángulo 411922" width="217.557" height="34.43" transform="translate(103.905 69.422)" fill="none" stroke="#ff95fb" stroke-linecap="round" stroke-linejoin="round" stroke-width="1.5"/>
          <path id="Trazado_996291" data-name="Trazado 996291" d="M139.115,167.425v-28.38H356.672v28.38a6.051,6.051,0,0,1-6.051,6.051H145.166a6.051,6.051,0,0,1-6.051-6.051" transform="translate(-35.21 -35.193)" fill="#fff"/>
          <path id="Trazado_996292" data-name="Trazado 996292" d="M139.115,167.425v-28.38H356.672v28.38a6.051,6.051,0,0,1-6.051,6.051H145.166A6.051,6.051,0,0,1,139.115,167.425Z" transform="translate(-35.21 -35.193)" fill="none" stroke="#ff95fb" stroke-linecap="round" stroke-linejoin="round" stroke-width="1.5"/>
          <path id="Trazado_996293" data-name="Trazado 996293" d="M182.626,138.473H145.166a6.05,6.05,0,0,1-6.051-6.05V6.8A6.051,6.051,0,0,1,145.166.75h37.461Z" transform="translate(-35.21 -0.19)" fill="none" stroke="#ff95fb" stroke-linecap="round" stroke-linejoin="round" stroke-width="1.5"/>
          <rect id="Rectángulo_411923" data-name="Rectángulo 411923" width="43.511" height="137.723" transform="translate(147.416 0.56)" fill="none" stroke="#ff95fb" stroke-linecap="round" stroke-linejoin="round" stroke-width="1.5"/>
          <rect id="Rectángulo_411924" data-name="Rectángulo 411924" width="43.511" height="137.723" transform="translate(190.927 0.56)" fill="none" stroke="#ff95fb" stroke-linecap="round" stroke-linejoin="round" stroke-width="1.5"/>
          <rect id="Rectángulo_411925" data-name="Rectángulo 411925" width="43.511" height="137.723" transform="translate(234.439 0.56)" fill="none" stroke="#ff95fb" stroke-linecap="round" stroke-linejoin="round" stroke-width="1.5"/>
          <path id="Trazado_996294" data-name="Trazado 996294" d="M409.6,138.473H372.139V.75H409.6A6.051,6.051,0,0,1,415.65,6.8V132.423A6.05,6.05,0,0,1,409.6,138.473Z" transform="translate(-94.189 -0.19)" fill="none" stroke="#ff95fb" stroke-linecap="round" stroke-linejoin="round" stroke-width="1.5"/>
          <path id="Trazado_996295" data-name="Trazado 996295" d="M345.521,124.717l-52.7-56.931L267.853,86.962,233.2,52.219,215.111,63.887,171.464,19.948l3.709-3.684L215.836,57.2l18.082-11.663,34.394,34.483,25.111-19.282,55.935,60.43Z" transform="translate(-43.398 -4.116)" fill="#00826f"/>
          <path id="Trazado_996296" data-name="Trazado 996296" d="M410.039,148.318l-13.983,12.944L411.5,163.92Z" transform="translate(-100.243 -37.54)" fill="#00826f"/>
        </g>
      </g>
      <line id="Línea_766" data-name="Línea 766" y2="97.128" transform="translate(95.748 211.206)" fill="none" stroke="#303030" stroke-linecap="round" stroke-linejoin="round" stroke-width="1.5"/>
      <g id="Grupo_1162408" data-name="Grupo 1162408">
        <g id="Grupo_1162407" data-name="Grupo 1162407" clip-path="url(#clip-path-2)">
          <path id="Trazado_996297" data-name="Trazado 996297" d="M18.372,162.044c0,10.882,3.4,55.98,5.216,79.289A15.276,15.276,0,0,0,38.82,255.424h6.523" transform="translate(-4.65 -41.014)" fill="none" stroke="#303030" stroke-linecap="round" stroke-linejoin="round" stroke-width="1.5"/>
          <path id="Trazado_996298" data-name="Trazado 996298" d="M83.741,162.044c0,10.882,3.4,55.98,5.216,79.289a15.276,15.276,0,0,0,15.231,14.091h6.523" transform="translate(-21.195 -41.014)" fill="none" stroke="#303030" stroke-linecap="round" stroke-linejoin="round" stroke-width="1.5"/>
          <path id="Trazado_996299" data-name="Trazado 996299" d="M42.034,277.29a1.877,1.877,0,0,0-1.189,3.458,31.351,31.351,0,0,0,16.68,4.741h97.18a31.351,31.351,0,0,0,16.68-4.741,1.877,1.877,0,0,0-1.189-3.458Z" transform="translate(-10.11 -70.183)" fill="#ff95fb"/>
          <path id="Trazado_996300" data-name="Trazado 996300" d="M72.007,223.153H12.638a7.39,7.39,0,0,1-7.4-6.879L.046,143.135a16.234,16.234,0,0,1,16.421-17.651H55.612a19.263,19.263,0,0,1,18.926,17.651l5.1,71.849a7.664,7.664,0,0,1-7.63,8.169" transform="translate(0 -31.76)" fill="#ff95fb"/>
          <path id="Trazado_996301" data-name="Trazado 996301" d="M112.82,387.443c0,9.983-17.171,16.786-45.373,16.786V406.4h90.745v-2.168c-28.2,0-45.372-6.8-45.372-16.786" transform="translate(-17.071 -98.063)" fill="#303030"/>
          <path id="Trazado_996302" data-name="Trazado 996302" d="M112.82,387.443c0,9.983-17.171,16.786-45.373,16.786V406.4h90.745v-2.168C129.99,404.229,112.82,397.426,112.82,387.443Z" transform="translate(-17.071 -98.063)" fill="none" stroke="#303030" stroke-linecap="round" stroke-linejoin="round" stroke-width="1.5"/>
          <path id="Trazado_996303" data-name="Trazado 996303" d="M170.9,329.783s-1.2-29.062-1.388-36.852-2.7-21.676,0-31.316c0,0-19.661.167-28.665,0v-42.5s21.288-.791,35.053.164c14.638,1.017,22.644,5.45,25.645,9.162,3.832,4.74,4.7,10.088,3.177,28.657-1.873,22.889-4.363,73.115-4.363,73.115s-7.512,5.649-21.019,5.649c-13.9,0-8.438-6.078-8.438-6.078" transform="translate(-35.649 -55.38)" fill="#fcc"/>
          <path id="Trazado_996304" data-name="Trazado 996304" d="M178.288,347.645c-3.785.477-2.07,6.962-2.07,9.723-4.6,15.689-4.466,21.853-2.764,25.886S174.287,388,194.23,388H238.6c7.59,0,11.2-3.542,8.183-7.144s-8.3-3.268-15.654-6.482S216.155,363.2,214.5,361.42s-2.849-5.475-2.849-9.192c0-4.387-.952-5.036-2.512-5.036l-.13,2.451s-4.717,3.608-14.777,3.608-15.84-3.032-15.84-3.032Z" transform="translate(-43.626 -87.875)" fill="#303030"/>
          <path id="Trazado_996305" data-name="Trazado 996305" d="M138.231,210.5s15.878.631,28.956,2.24c8.772,1.08,19.932,2.655,27.079,11.251,6.928,8.332,5.075,22.627,4.59,29.38-1.3,18-4.59,52.655-4.59,52.655-8.161,5.15-33.469,4.495-37.606,0-1.621-31.7-1.187-41.92-1.288-46.293,0,0-43.346.043-54.439.043V207.1l33.677-.195Z" transform="translate(-25.547 -52.369)" fill="#303030"/>
          <path id="Trazado_996306" data-name="Trazado 996306" d="M184.671,254.426c-2.654,1.5-9.389,6.87-10.849,17.332" transform="translate(-43.995 -64.396)" fill="none" stroke="#00826f" stroke-linecap="round" stroke-linejoin="round" stroke-width="1.5"/>
          <path id="Trazado_996307" data-name="Trazado 996307" d="M126.554,214.716c2.543,15.987,1,38.792-7.048,46.991" transform="translate(-30.247 -54.345)" fill="none" stroke="#00826f" stroke-linecap="round" stroke-linejoin="round" stroke-width="1.5"/>
          <path id="Trazado_996308" data-name="Trazado 996308" d="M107.883,257.894h50.082s-.556,3.4,3.6,3.451c.005,3.238,2.182,5.008,4.664,5.008,0,0-2.509,6.378-.192,55.406" transform="translate(-27.305 -65.274)" fill="none" stroke="#00826f" stroke-linecap="round" stroke-linejoin="round" stroke-width="1.5"/>
          <path id="Trazado_996309" data-name="Trazado 996309" d="M178.034,251.318a17.932,17.932,0,0,0-5.866,10.452" transform="translate(-43.576 -63.609)" fill="none" stroke="#00826f" stroke-linecap="round" stroke-linejoin="round" stroke-width="1.5"/>
          <path id="Trazado_996310" data-name="Trazado 996310" d="M240.177,378.922c-5.322-1.4-6.441-2.608-10.9-5.531-5.708-3.738-11.7-9.232-13.863-11.037-2.817-2.351-11.272-3.165-14.666,1.746a6.206,6.206,0,0,0-3.645-.722,7.366,7.366,0,0,0-3.106,1.746c-1.74,1.4-8.028,4.44-12.087,4.3-4.029-.143-5.621-4.224-5.621-4.224l-.093-4.46c-1.3-.058-2.211.989-2.389,4.121-.21,3.7-.854,5.89-1.213,11.341-.241,3.67-.678,9.707.192,12.759.66,4.505,8.927,5.334,15.934,5.334h56.1c3.9,0,6.941-3.156,6.871-4.508-.309-5.965-2.767-8.553-11.513-10.861" transform="translate(-43.601 -91.242)" fill="#00826f"/>
          <path id="Trazado_996311" data-name="Trazado 996311" d="M241.031,387.291c2.645-3.405,8.622-5.56,13.594-3.9" transform="translate(-61.006 -96.893)" fill="none" stroke="#303030" stroke-linecap="round" stroke-linejoin="round" stroke-width="1.5"/>
          <path id="Trazado_996312" data-name="Trazado 996312" d="M245.734,376.079c-2.366,1.293-3.693,2.944-5.3,5.605" transform="translate(-60.855 -95.187)" fill="none" stroke="#303030" stroke-linecap="round" stroke-linejoin="round" stroke-width="1.5"/>
          <path id="Trazado_996313" data-name="Trazado 996313" d="M245.863,378.137c-3.044-.132-7.349.745-14.617,1.97" transform="translate(-58.529 -95.704)" fill="none" stroke="#303030" stroke-linecap="round" stroke-linejoin="round" stroke-width="1.5"/>
          <path id="Trazado_996314" data-name="Trazado 996314" d="M237.769,370.712c-2.366,1.293-3.486,2.6-5.09,5.266" transform="translate(-58.892 -93.828)" fill="none" stroke="#303030" stroke-linecap="round" stroke-linejoin="round" stroke-width="1.5"/>
          <path id="Trazado_996315" data-name="Trazado 996315" d="M237.828,372.77c-3.044-.132-7.349.745-14.617,1.97" transform="translate(-56.495 -94.346)" fill="none" stroke="#303030" stroke-linecap="round" stroke-linejoin="round" stroke-width="1.5"/>
          <path id="Trazado_996316" data-name="Trazado 996316" d="M229.791,364.486c-2.366,1.293-3.82,3.585-5.425,6.247" transform="translate(-56.788 -92.252)" fill="none" stroke="#303030" stroke-linecap="round" stroke-linejoin="round" stroke-width="1.5"/>
          <path id="Trazado_996317" data-name="Trazado 996317" d="M229.793,367.4c-3.044-.132-7.349.745-14.617,1.97" transform="translate(-54.462 -92.987)" fill="none" stroke="#303030" stroke-linecap="round" stroke-linejoin="round" stroke-width="1.5"/>
          <path id="Trazado_996318" data-name="Trazado 996318" d="M174.325,379.088a7.357,7.357,0,0,0,2.641,2.336,9.656,9.656,0,0,0,7.21.632c3.723-1.157,10.324-4.531,14.182-5.088,2.806-.4,5.58.773,8.127,2.019,4.707,2.3,12.09,6.6,13.042,8.059s1.728,6.018,2.477,10.412" transform="translate(-44.122 -95.391)" fill="none" stroke="#303030" stroke-linecap="round" stroke-linejoin="round" stroke-width="1.5"/>
          <path id="Trazado_996319" data-name="Trazado 996319" d="M249.159,408.462c-3.469.935-18.9.8-18.9.8H191.081c-7.293,0-14.908-.231-16.768-2.805-1.1-1.518-1.7-3.956-1.384-7.856,3.029,2.673,5.989,3.432,18.45,3.432s39.134.1,45.74,0c4.6-.067,11.75.551,14.718-2.607,1.088,1.452,2.612,7.607-2.679,9.034" transform="translate(-43.748 -100.888)" fill="#fff"/>
          <path id="Trazado_996320" data-name="Trazado 996320" d="M249.159,408.462c-3.469.935-18.9.8-18.9.8H191.081c-7.293,0-14.908-.231-16.768-2.805-1.1-1.518-1.7-3.956-1.384-7.856,3.029,2.673,5.989,3.432,18.45,3.432s39.134.1,45.74,0c4.6-.067,11.75.551,14.718-2.607C252.926,400.88,254.45,407.035,249.159,408.462Z" transform="translate(-43.748 -100.888)" fill="none" stroke="#303030" stroke-linecap="round" stroke-linejoin="round" stroke-width="1.5"/>
          <path id="Trazado_996321" data-name="Trazado 996321" d="M73.818,329.408c-4.059-29.994-5.653-65.556-5.6-64.66H59.945s-.019-8.351-.019-36.953c0,0,33.942-2.2,40.585,2.795,5.837,4.39,5.62,14.269,4.876,33.374-1.27,32.639-4.505,88.949-4.505,88.949H75.648Z" transform="translate(-15.167 -57.533)" fill="#fcc"/>
          <path id="Trazado_996322" data-name="Trazado 996322" d="M76.561,362.973c-.745-4.18-1.987-12.047-2.382-14.9s1.512-3.4,1.512-3.4L76.059,348s4.661,2.864,15.837,2.527,14.482-2.7,14.482-2.7l.2-3.824s1.692.267,1.516,3.907-.89,21.715-.89,21.715l-29.869-.312Z" transform="translate(-18.761 -87.068)" fill="#303030"/>
          <path id="Trazado_996323" data-name="Trazado 996323" d="M99.62,225A17.326,17.326,0,0,0,89.35,219.2V206.846l-46.161-.953c-6.064,19.066-5.376,36.249-1.531,42.5,4.729,7.689,8.953,11.441,16.753,11.441h2.746l2.324,44.791S66.4,307.679,81,307.747c17.968.083,19.4-2.829,19.4-2.829s1.317-25.424,2.745-46.953.249-28.3-3.519-32.963" transform="translate(-9.795 -52.112)" fill="#303030"/>
          <path id="Trazado_996324" data-name="Trazado 996324" d="M73.09,226.683c6.462-2.886,13.387-5.263,20.455-4.879s12.717,2.275,15.973,8.559c4.6,8.887,3,18.959,2.74,23.858q-.339,6.289-.68,12.576" transform="translate(-18.499 -56.129)" fill="none" stroke="#00826f" stroke-linecap="round" stroke-linejoin="round" stroke-width="1.5"/>
          <path id="Trazado_996325" data-name="Trazado 996325" d="M55.333,206.317c-5.517,20.08-5.337,31.624-1.4,38.523,2.669,4.679,9.365,5.2,9.365,5.2s1.138,3.9,4.635,2.894c-1.315,9.223,1.492,52.763,1.492,52.763" transform="translate(-12.927 -52.219)" fill="none" stroke="#00826f" stroke-linecap="round" stroke-linejoin="round" stroke-width="1.5"/>
          <path id="Trazado_996326" data-name="Trazado 996326" d="M77.249,262.314c-5.2,2.775-7.3,8.2-8.286,11.59" transform="translate(-17.455 -66.392)" fill="none" stroke="#00826f" stroke-linecap="round" stroke-linejoin="round" stroke-width="1.5"/>
          <path id="Trazado_996327" data-name="Trazado 996327" d="M69.608,261.1a10.292,10.292,0,0,0-4.18,6.63" transform="translate(-16.56 -66.085)" fill="none" stroke="#00826f" stroke-linecap="round" stroke-linejoin="round" stroke-width="1.5"/>
          <path id="Trazado_996328" data-name="Trazado 996328" d="M109.725,383.52c1.3,4.2,3.77,8.822,4.356,13.175s.654,8.482-2.767,11.239a14.711,14.711,0,0,1-6.4,2.633,38.8,38.8,0,0,1-20.372-.932,15.177,15.177,0,0,1-6.014-4.055c-2.705-2.963-2.615-7.216-2.775-11.226-.145-3.627.329-8.228.379-11.857.058-4.266-.167-7.22-.367-10.562-.33-5.527-2.551-8.347.27-9.146l.653,3.836c1.146.686,2.577-1.4,4.618-3.86,2.554-3.077,7.516-3.805,10.235-4.121,4.75-.55,9.341-.177,12.676,2.418,3.1,2.41,3.008,4.1,3.389,7.609.745,6.85.184,8.583,2.122,14.85" transform="translate(-18.887 -90.718)" fill="#00826f"/>
          <path id="Trazado_996329" data-name="Trazado 996329" d="M109.048,398.09a35.414,35.414,0,0,0-21.1.474" transform="translate(-22.259 -100.408)" fill="none" stroke="#303030" stroke-linecap="round" stroke-linejoin="round" stroke-width="1.5"/>
          <path id="Trazado_996330" data-name="Trazado 996330" d="M108.951,392.975c-4.753-2.451-11.618-4.288-21.388-4.369" transform="translate(-22.162 -98.357)" fill="none" stroke="#303030" stroke-linecap="round" stroke-linejoin="round" stroke-width="1.5"/>
          <path id="Trazado_996331" data-name="Trazado 996331" d="M107.972,387.625c-3.984.733-13.077,1.73-20.027,5.1" transform="translate(-22.259 -98.109)" fill="none" stroke="#303030" stroke-linecap="round" stroke-linejoin="round" stroke-width="1.5"/>
          <path id="Trazado_996332" data-name="Trazado 996332" d="M107.539,382.768c-4.4-2.471-10.755-4.338-19.785-4.46" transform="translate(-22.211 -95.751)" fill="none" stroke="#303030" stroke-linecap="round" stroke-linejoin="round" stroke-width="1.5"/>
          <path id="Trazado_996333" data-name="Trazado 996333" d="M106.617,377.445c-3.679.715-12.077,1.672-18.486,5.012" transform="translate(-22.306 -95.532)" fill="none" stroke="#303030" stroke-linecap="round" stroke-linejoin="round" stroke-width="1.5"/>
          <path id="Trazado_996334" data-name="Trazado 996334" d="M106.258,372.689c-4.124-2.486-10.067-4.378-18.5-4.534" transform="translate(-22.211 -93.181)" fill="none" stroke="#303030" stroke-linecap="round" stroke-linejoin="round" stroke-width="1.5"/>
          <path id="Trazado_996335" data-name="Trazado 996335" d="M105.384,367.388c-3.435.7-11.279,1.627-17.255,4.941" transform="translate(-22.306 -92.987)" fill="none" stroke="#303030" stroke-linecap="round" stroke-linejoin="round" stroke-width="1.5"/>
          <path id="Trazado_996336" data-name="Trazado 996336" d="M75.642,370.7s2.648,3.3,3.31,4.454c1.349,2.348,1.047,5.108.984,7.815s-.318,5.456.3,8.091a41.284,41.284,0,0,1,1.179,4.495,15.553,15.553,0,0,1-.7,5.584c-.763,3.038-1,4.355-1.765,7.393" transform="translate(-19.145 -93.824)" fill="none" stroke="#303030" stroke-linecap="round" stroke-linejoin="round" stroke-width="1.5"/>
          <path id="Trazado_996337" data-name="Trazado 996337" d="M119.7,386.857q.112,3.436.225,6.871a24.384,24.384,0,0,0,.292,3.571,27.379,27.379,0,0,0,1.54,4.816c1.39,3.652,2.608,7.518,2.187,11.4" transform="translate(-30.297 -97.915)" fill="none" stroke="#303030" stroke-linecap="round" stroke-linejoin="round" stroke-width="1.5"/>
          <path id="Trazado_996338" data-name="Trazado 996338" d="M75.882,419.251c.178,2.2,2.475,8.1,14.56,9.856,9.6,1.4,17.631-.525,21.741-3.936,2.832-2.365,3.1-8.162,2.472-14.35l-.072-.024c.252,3.453-.225,6.6-3.008,8.846a14.659,14.659,0,0,1-6.406,2.64,38.778,38.778,0,0,1-20.365-.932,15.121,15.121,0,0,1-6.012-4.056c-2.711-2.967-2.622-7.22-2.774-11.224q-.031-.665-.027-1.366a96.26,96.26,0,0,0-.109,14.546" transform="translate(-19.147 -102.432)" fill="#fff"/>
          <path id="Trazado_996339" data-name="Trazado 996339" d="M75.882,419.251c.178,2.2,2.475,8.1,14.56,9.856,9.6,1.4,17.631-.525,21.741-3.936,2.832-2.365,3.1-8.162,2.472-14.35l-.072-.024c.252,3.453-.225,6.6-3.008,8.846a14.659,14.659,0,0,1-6.406,2.64,38.778,38.778,0,0,1-20.365-.932,15.121,15.121,0,0,1-6.012-4.056c-2.711-2.967-2.622-7.22-2.774-11.224q-.031-.665-.027-1.366A96.26,96.26,0,0,0,75.882,419.251Z" transform="translate(-19.147 -102.432)" fill="none" stroke="#303030" stroke-linecap="round" stroke-linejoin="round" stroke-width="1.5"/>
          <path id="Trazado_996340" data-name="Trazado 996340" d="M92.73,43.879c-1.556,9.844,5.21,21.926,15.516,23.555s20.251-7.811,21.808-17.655S124.515,30.634,114.209,29,94.285,34.034,92.73,43.879" transform="translate(-23.414 -7.279)" fill="#303030"/>
          <path id="Trazado_996341" data-name="Trazado 996341" d="M96.55,63.367c-.253,2.149-.253,4.054,2.107,6.992L95.411,80.517l-5.96,2.019c.8,2.861,1.852,11.378,16.683,13.28s14.887-9.974,14.887-9.974l-6.2-2.684.382-5.859a12.56,12.56,0,0,0,7.67-2c2.489-1.895,3.782-5.4,4.172-10.076a64.988,64.988,0,0,1,.647-7.248,60.085,60.085,0,0,0,1.315-7.931,20.1,20.1,0,0,0-1.809-9.786c-2.434-4.883-11.047-8.634-16.829-6.8a11.815,11.815,0,0,0-5.034,3.416c.353,2.393.476,7.4-4.353,8.9-.025,2.933.153,4.3-1.459,8.16a7.429,7.429,0,0,0-5.731-4.339c-2.881-.414-5.045.99-5.722,3.021-.8,2.409.6,4.443,2.482,5.556a7.4,7.4,0,0,0,6.546.553s-.3,2.5-.549,4.65" transform="translate(-22.233 -8.348)" fill="#fcc"/>
          <path id="Trazado_996342" data-name="Trazado 996342" d="M120.15,91.014c-4.089-.061-9.867-1.632-12.767-3.842,1.5,3.4,6.634,6.21,12.553,7.131Z" transform="translate(-27.179 -22.063)" fill="#303030"/>
          <path id="Trazado_996343" data-name="Trazado 996343" d="M131.832,50.318c.805,2.8,4.661,2.3,6.761,4.921" transform="translate(-33.367 -12.736)" fill="none" stroke="#303030" stroke-linecap="round" stroke-linejoin="round" stroke-width="1.5"/>
          <path id="Trazado_996344" data-name="Trazado 996344" d="M113.2,51.349c3.611-2.043,7.39-.84,8.91-3.118" transform="translate(-28.652 -12.207)" fill="none" stroke="#303030" stroke-linecap="round" stroke-linejoin="round" stroke-width="1.5"/>
          <path id="Trazado_996345" data-name="Trazado 996345" d="M126.653,55.474c.695,2.3,1.191,5.14,1.759,8.069.3,1.526-.128,3.69-3.239,3.409" transform="translate(-31.682 -14.041)" fill="none" stroke="#303030" stroke-linecap="round" stroke-linejoin="round" stroke-width="1.5"/>
          <path id="Trazado_996346" data-name="Trazado 996346" d="M92.272,59.6a4.2,4.2,0,0,1,3.136.026,4.005,4.005,0,0,1,2.478,2.886" transform="translate(-23.354 -15.014)" fill="none" stroke="#303030" stroke-linecap="round" stroke-linejoin="round" stroke-width="1.5"/>
          <path id="Trazado_996347" data-name="Trazado 996347" d="M95.037,61.769a3.1,3.1,0,0,1,3.088.09" transform="translate(-24.054 -15.539)" fill="none" stroke="#303030" stroke-linecap="round" stroke-linejoin="round" stroke-width="1.5"/>
          <path id="Trazado_996348" data-name="Trazado 996348" d="M123.431,76.492a9.745,9.745,0,0,0-5.819-2.468" transform="translate(-29.768 -18.736)" fill="none" stroke="#303030" stroke-linecap="round" stroke-linejoin="round" stroke-width="1.5"/>
          <path id="Trazado_996349" data-name="Trazado 996349" d="M131.312,60.312a3.063,3.063,0,0,1,3.062-1.625c1.317.026,3.159.526,3.319,2.387-.669,1.79-4.868,1.928-6.382-.762" transform="translate(-33.235 -14.853)" fill="#fff"/>
          <path id="Trazado_996350" data-name="Trazado 996350" d="M137.441,61.861a1.667,1.667,0,0,1-2.293.485,1.639,1.639,0,0,1-.585-2.254,1.667,1.667,0,0,1,2.294-.485,1.64,1.64,0,0,1,.584,2.254" transform="translate(-33.999 -15.021)" fill="#303030"/>
          <path id="Trazado_996351" data-name="Trazado 996351" d="M134.385,60.268l1.551.942-1.869-.069Z" transform="translate(-33.933 -15.254)" fill="#fff"/>
          <path id="Trazado_996352" data-name="Trazado 996352" d="M137.938,60.805a3.7,3.7,0,0,0-3.46-1.914,3.769,3.769,0,0,0-3.167,1.473" transform="translate(-33.235 -14.905)" fill="none" stroke="#303030" stroke-linecap="round" stroke-linejoin="round" stroke-width="1.5"/>
          <path id="Trazado_996353" data-name="Trazado 996353" d="M113.909,57.752a3.063,3.063,0,0,1,3.062-1.625c1.317.026,3.159.526,3.319,2.387-.669,1.79-4.868,1.928-6.382-.762" transform="translate(-28.831 -14.206)" fill="#fff"/>
          <path id="Trazado_996354" data-name="Trazado 996354" d="M120.038,59.3a1.666,1.666,0,0,1-2.294.485,1.64,1.64,0,0,1-.585-2.253,1.666,1.666,0,0,1,2.294-.485,1.638,1.638,0,0,1,.585,2.253" transform="translate(-29.594 -14.373)" fill="#303030"/>
          <path id="Trazado_996355" data-name="Trazado 996355" d="M116.982,57.708l1.551.942-1.869-.069Z" transform="translate(-29.528 -14.606)" fill="#fff"/>
          <path id="Trazado_996356" data-name="Trazado 996356" d="M120.535,58.245a3.7,3.7,0,0,0-3.46-1.916,3.772,3.772,0,0,0-3.167,1.474" transform="translate(-28.831 -14.257)" fill="none" stroke="#303030" stroke-linecap="round" stroke-linejoin="round" stroke-width="1.5"/>
          <path id="Trazado_996357" data-name="Trazado 996357" d="M101.978,41.793c-2.8,1.087-6.4.193-9.16-.532a.551.551,0,0,1-.491-.735c.377-4.115,1.984-8.3,4.748-10.465,3.256-2.545,6.1-3.16,9.353-2.638,1.451-1.766,5.054-5.242,14.467-2.76,6.135,1.619,11.136,6.447,13.937,12.141a15.952,15.952,0,0,1,1.75,5.866,8.842,8.842,0,0,1-1.524,5.838,6.238,6.238,0,0,1-5.3,2.682L130,48.907a12.3,12.3,0,0,1-3.872-4.013,20.73,20.73,0,0,1-1.76-6.247,11.257,11.257,0,0,0-1.412-4.764,5.154,5.154,0,0,0-3.286-2.124c-1.483-.269-2.481.3-3.776.919a3.228,3.228,0,0,1-1.238.393,3.424,3.424,0,0,1-1.439-.4,8.679,8.679,0,0,0-3.6-.9,3.653,3.653,0,0,0-3.144,1.7,7.356,7.356,0,0,0-.566,2.681A7.717,7.717,0,0,1,104.5,39.9a5.715,5.715,0,0,1-2.52,1.893" transform="translate(-23.366 -6.024)" fill="#303030"/>
          <path id="Trazado_996358" data-name="Trazado 996358" d="M181.926,147.928c-6.181-.506-10.746-2.231-20.143-5.22-10.72-3.411-15.069-.4-15.069-.4V106.271c10.726,2.588,12.345,4.443,29.031,11.736Z" transform="translate(-37.134 -26.897)" fill="#fff"/>
          <path id="Trazado_996359" data-name="Trazado 996359" d="M181.926,147.928c-6.181-.506-10.746-2.231-20.143-5.22-10.72-3.411-15.069-.4-15.069-.4V106.271c10.726,2.588,12.345,4.443,29.031,11.736Z" transform="translate(-37.134 -26.897)" fill="none" stroke="#303030" stroke-linecap="round" stroke-linejoin="round" stroke-width="1.5"/>
          <path id="Trazado_996360" data-name="Trazado 996360" d="M119.627,179.2c1.768-1.745,1.976-6.529-.155-9.538-1.411-12.257,4.333-25.135,6.887-41.66,2.822-18.254-6.216-23.968-6.216-23.968L103.932,100c-.125,1.827-2.025,2.3-2.705,3.811a22.51,22.51,0,0,1-4.8,6.855,32.628,32.628,0,0,1-3.368-6.376c-4-1.091-8.839-3.74-10.017-6.858L61.932,98.77c-4.056,1.742-11.146,9.663-14.44,24.784-2.53,11.611-4.384,19.986-5.132,31.822-.749,11.864-1.618,19.717,2.5,23.13,13.868,8.764,54.957,13.528,74.763.693" transform="translate(-10.562 -24.66)" fill="#fff"/>
          <path id="Trazado_996361" data-name="Trazado 996361" d="M119.627,179.2c1.768-1.745,1.976-6.529-.155-9.538-1.411-12.257,4.333-25.135,6.887-41.66,2.822-18.254-6.216-23.968-6.216-23.968L103.932,100c-.125,1.827-2.025,2.3-2.705,3.811a22.51,22.51,0,0,1-4.8,6.855,32.628,32.628,0,0,1-3.368-6.376c-4-1.091-8.839-3.74-10.017-6.858L61.932,98.77c-4.056,1.742-11.146,9.663-14.44,24.784-2.53,11.611-4.384,19.986-5.132,31.822-.749,11.864-1.618,19.717,2.5,23.13C58.733,187.27,99.821,192.034,119.627,179.2Z" transform="translate(-10.562 -24.66)" fill="none" stroke="#303030" stroke-linecap="round" stroke-linejoin="round" stroke-width="1.5"/>
          <path id="Trazado_996362" data-name="Trazado 996362" d="M105.794,109.422c-2.69-5.769-5.471-7.45-9.772-1.127-2.2-.883-3.983-3.216-5.5-6.616-1.89-4.237-1.852-6.067-1.852-6.067a52.367,52.367,0,0,0,4.667-4.831C95.463,88.147,97,88.8,97,88.8l-.73,2.155a16.772,16.772,0,0,0,6.071,7.307c2.318,1.5,3.774,6.12,5.971,10.2,2.9-2.206,5.095-7.223,5.366-8.432a27.994,27.994,0,0,1,1.669-4.006l.258-2.941a6.538,6.538,0,0,1,2.787,2.144c.978,1.463,2.43,3.815,2.43,3.815s1.562,6.256-2.306,10.967c-2.736-8.385-7.2.314-7.2.314" transform="translate(-22.443 -22.457)" fill="#fff"/>
          <path id="Trazado_996363" data-name="Trazado 996363" d="M105.794,109.422c-2.69-5.769-5.471-7.45-9.772-1.127-2.2-.883-3.983-3.216-5.5-6.616-1.89-4.237-1.852-6.067-1.852-6.067a52.367,52.367,0,0,0,4.667-4.831C95.463,88.147,97,88.8,97,88.8l-.73,2.155a16.772,16.772,0,0,0,6.071,7.307c2.318,1.5,3.774,6.12,5.971,10.2,2.9-2.206,5.095-7.223,5.366-8.432a27.994,27.994,0,0,1,1.669-4.006l.258-2.941a6.538,6.538,0,0,1,2.787,2.144c.978,1.463,2.43,3.815,2.43,3.815s1.562,6.256-2.306,10.967c-2.736-8.385-7.2.314-7.2.314" transform="translate(-22.443 -22.457)" fill="none" stroke="#303030" stroke-linecap="round" stroke-linejoin="round" stroke-width="1.5"/>
          <path id="Trazado_996364" data-name="Trazado 996364" d="M113.279,115.15c1.365,3.268,2.458,4.02,1.652,8.789s-2.835,12.458-3.212,15.834c-2.3,11.729-4.837,25.923-2.469,30.835s-.656,6.494.084,9.881,4.8,5.541,1.753,11.074" transform="translate(-27.412 -29.145)" fill="none" stroke="#303030" stroke-linecap="round" stroke-linejoin="round" stroke-width="1.5"/>
          <path id="Trazado_996365" data-name="Trazado 996365" d="M116.687,199.248c-15.541,6.77-45.8,1.878-54.06-.977" transform="translate(-15.851 -50.183)" fill="none" stroke="#303030" stroke-linecap="round" stroke-linejoin="round" stroke-width="1.5"/>
          <path id="Trazado_996366" data-name="Trazado 996366" d="M84.709,179.015a4.3,4.3,0,0,0-2.224-2.067,23.377,23.377,0,0,0-5.728-1.8c-.99-.2-1.988-.343-2.982-.517-.67-.117-1.486-.48-.825-1.2a15.1,15.1,0,0,1,4.614-3.09c1.3-.642,2.738-1.244,3.546-2.485a1.447,1.447,0,0,0-1.386-2.4c-4.525.425-9.067,3.057-13.043,5.26-4.321,2.394-9.158,5.065-14.178,3.123-8.312-3.215-16.881-15.887-16.877-15.9s11.256-17.119,12.643-19.351c0,0,9.531-23.441,4.918-36.565-16.149,1.984-18.654,9.611-28.6,25.753C21.51,132.76,13,147.1,11.184,151.358c-3.456,8.113-1.746,13.293,5.863,19.916,5.854,5.1,20.641,14.845,29.307,17.92a23.738,23.738,0,0,0,9.141,1.45c3.944-.211,7.373-2.6,11.3-2.746,1.513-.057,2.7-.175,4.216-.11,2.937.126,4.808.684,6.288-.366a1.911,1.911,0,0,0,.308-2.956,3.572,3.572,0,0,0,3.554-.243,1.733,1.733,0,0,0,.07-3.006,3.373,3.373,0,0,0,2.2.158,1.753,1.753,0,0,0,1.276-2.358" transform="translate(-2.399 -25.821)" fill="#fcc"/>
          <path id="Trazado_996367" data-name="Trazado 996367" d="M91.066,204.706c4.214-.235,7.217.286,10.817,2.489" transform="translate(-23.049 -51.798)" fill="none" stroke="#303030" stroke-linecap="round" stroke-linejoin="round" stroke-width="1.5"/>
          <path id="Trazado_996368" data-name="Trazado 996368" d="M89.154,210.432c4.07-.4,6.414-.012,8.621,1.436" transform="translate(-22.565 -53.224)" fill="none" stroke="#303030" stroke-linecap="round" stroke-linejoin="round" stroke-width="1.5"/>
          <path id="Trazado_996369" data-name="Trazado 996369" d="M31.1,175.105a13.756,13.756,0,0,1,9.675.526" transform="translate(-7.872 -44.157)" fill="none" stroke="#303030" stroke-linecap="round" stroke-linejoin="round" stroke-width="1.5"/>
          <path id="Trazado_996370" data-name="Trazado 996370" d="M29.411,117.81C37.591,104.346,39.219,99.5,55.78,99.223c7.516,17.174-4.44,39.589-4.44,39.589L41.3,155.42c-9.978-2.222-18.7-7.3-23.877-15.966,4.245-7.52,7.4-14.088,11.988-21.644" transform="translate(-4.41 -25.114)" fill="#fff"/>
          <path id="Trazado_996371" data-name="Trazado 996371" d="M29.411,117.81C37.591,104.346,39.219,99.5,55.78,99.223c7.516,17.174-4.44,39.589-4.44,39.589L41.3,155.42c-9.978-2.222-18.7-7.3-23.877-15.966C21.668,131.934,24.819,125.366,29.411,117.81Z" transform="translate(-4.41 -25.114)" fill="none" stroke="#303030" stroke-linecap="round" stroke-linejoin="round" stroke-width="1.5"/>
          <path id="Trazado_996372" data-name="Trazado 996372" d="M169.327,79.7c-2.158-4.4-8.005-16.617-9.244-18.34s-7.674-5.558-11.055-7.913-7.774-5.883-8.426-4.33.1,2.941,1.447,4.307c-.558,2.551,2.837,5.5,5.136,7.246s3.585,4.044,3.3,6-1.852,2.832-3.753,2.917-4.61-1.586-6.763-.862-2.826,1.689-2.553,2.74.976.967,4.21,2.5,4.829,3.363,8,4.782,4.389.9,6.11,4.613,4.575,16.28,6.326,24.167,2.744,13.932,7.73,20.056,12.406,8.489,15.337,4.53c3.708-5.012,4.9-10.389,2.436-20.136S172.055,85.253,169.327,79.7" transform="translate(-34.766 -12.334)" fill="#fcc"/>
          <path id="Trazado_996373" data-name="Trazado 996373" d="M143.577,54.935c.465-.314.872-.757,1.48-.681a4.383,4.383,0,0,1,1.717.767c1.25.8,2.439,1.7,3.625,2.584,2.432,1.817,4.885,3.6,7.262,5.493.559.444,1.356-.344.792-.792-2.592-2.061-5.264-4.016-7.922-5.991a28.616,28.616,0,0,0-3.923-2.687,2.763,2.763,0,0,0-3.6.339c-.594.4-.034,1.373.565.967" transform="translate(-36.133 -13.447)" fill="#303030"/>
          <path id="Trazado_996374" data-name="Trazado 996374" d="M151.716,65.452c1.334,1.011,2.622,2.154,3.921,3.237,1.268,1.058,2.648,1.949,3.445,3.457a7.9,7.9,0,0,1,.8,4.571,8.862,8.862,0,0,0,.935,5.172,22.056,22.056,0,0,0,4.878,6.081" transform="translate(-38.4 -16.566)" fill="#fcc"/>
          <path id="Trazado_996375" data-name="Trazado 996375" d="M151.257,65.735c1.549,1.181,2.984,2.5,4.507,3.714a8.083,8.083,0,0,1,3.127,3.926,7.677,7.677,0,0,1,.3,2.657,14.6,14.6,0,0,0-.036,2.692,11.516,11.516,0,0,0,1.964,4.909,28.423,28.423,0,0,0,4.008,4.532c.519.5,1.312-.291.792-.792-2.5-2.409-5.34-5.3-5.678-8.949a23.885,23.885,0,0,1,.081-2.716,7.838,7.838,0,0,0-3.472-6.818c-1.691-1.355-3.3-2.808-5.025-4.122-.573-.437-1.132.536-.565.967" transform="translate(-38.224 -16.365)" fill="#303030"/>
        </g>
      </g>
      <g id="Grupo_1162410" data-name="Grupo 1162410">
        <g id="Grupo_1162409" data-name="Grupo 1162409" clip-path="url(#clip-path-2)">
          <path id="Trazado_996376" data-name="Trazado 996376" d="M54.809,61.251c-1.964-.506-5.232-2.467-5.65-4.933h0c0-.015,0-.028.007-.042a19.921,19.921,0,1,0-5.62,4.316,13.951,13.951,0,0,0,7.91,2.107c3.357-.069,4.354-1.192,3.355-1.449" transform="translate(-3.67 -5.805)" fill="#fff"/>
          <path id="Trazado_996377" data-name="Trazado 996377" d="M54.809,61.251c-1.964-.506-5.232-2.467-5.65-4.933h0c0-.015,0-.028.007-.042a19.921,19.921,0,1,0-5.62,4.316,13.951,13.951,0,0,0,7.91,2.107C54.811,62.631,55.807,61.508,54.809,61.251Z" transform="translate(-3.67 -5.805)" fill="none" stroke="#303030" stroke-linecap="round" stroke-linejoin="round" stroke-width="1.5"/>
          <path id="Trazado_996378" data-name="Trazado 996378" d="M39.673,57.883a3.49,3.49,0,0,1-2.619-1.074,3.622,3.622,0,0,1-1.041-2.619,3.666,3.666,0,0,1,1.041-2.652,3.492,3.492,0,0,1,2.619-1.074,3.443,3.443,0,0,1,2.6,1.074A3.7,3.7,0,0,1,43.3,54.191a3.654,3.654,0,0,1-1.024,2.619,3.44,3.44,0,0,1-2.6,1.074m-2.64-12.33-.986-12.646h7.218l-.986,12.646a2.631,2.631,0,0,1-5.246,0" transform="translate(-9.115 -8.329)" fill="#ff95fb"/>
        </g>
      </g>
    </g>
  </g>
</svg>
