<svg xmlns="http://www.w3.org/2000/svg" xmlns:xlink="http://www.w3.org/1999/xlink" width="108" height="108" viewBox="0 0 108 108">
  <defs>
    <filter id="Trazado_982547" x="0" y="0" width="108" height="108" filterUnits="userSpaceOnUse">
      <feOffset dy="3" input="SourceAlpha"/>
      <feGaussianBlur stdDeviation="3" result="blur"/>
      <feFlood flood-opacity="0.161"/>
      <feComposite operator="in" in2="blur"/>
      <feComposite in="SourceGraphic"/>
    </filter>
  </defs>
  <g id="Grupo_1159155" data-name="Grupo 1159155" transform="translate(9 6)">
    <g id="Grupo_1159095" data-name="Grupo 1159095" transform="translate(0)">
      <g id="Grupo_1154033" data-name="Grupo 1154033">
        <g id="Grupo_1153177" data-name="Grupo 1153177">
          <g id="Grupo_1149598" data-name="Grupo 1149598">
            <g id="Grupo_1148770" data-name="Grupo 1148770">
              <g id="Grupo_1146954" data-name="Grupo 1146954">
                <g transform="matrix(1, 0, 0, 1, -9, -6)" filter="url(#Trazado_982547)">
                  <g id="Trazado_982547-2" data-name="Trazado 982547" transform="translate(9 6)" fill="#f5fdfa">
                    <path d="M 45.00000762939453 88.5 C 39.12688446044922 88.5 33.43023300170898 87.35007476806641 28.06830787658691 85.08217620849609 C 22.8885326385498 82.89131164550781 18.23630714416504 79.75458526611328 14.24085807800293 75.75914764404297 C 10.24542045593262 71.76370239257812 7.108695030212402 67.11147308349609 4.917832851409912 61.93170166015625 C 2.649932622909546 56.56977462768555 1.500007629394531 50.87312316894531 1.500007629394531 45 C 1.500007629394531 39.12687683105469 2.649932622909546 33.43022537231445 4.917832851409912 28.06830024719238 C 7.108695030212402 22.88852500915527 10.24542045593262 18.23629951477051 14.24085807800293 14.2408504486084 C 18.23630714416504 10.24541282653809 22.8885326385498 7.108687400817871 28.06830787658691 4.917825222015381 C 33.43023300170898 2.649924993515015 39.12688446044922 1.5 45.00000762939453 1.5 C 50.87313079833984 1.5 56.56978225708008 2.649924993515015 61.93170928955078 4.917825222015381 C 67.11148071289062 7.108687400817871 71.76371002197266 10.24541282653809 75.7591552734375 14.2408504486084 C 79.75459289550781 18.23629951477051 82.89131927490234 22.88852500915527 85.08218383789062 28.06830024719238 C 87.35008239746094 33.43022537231445 88.50000762939453 39.12687683105469 88.50000762939453 45 C 88.50000762939453 50.87312316894531 87.35008239746094 56.56977462768555 85.08218383789062 61.93170166015625 C 82.89131927490234 67.11147308349609 79.75459289550781 71.76370239257812 75.7591552734375 75.75914764404297 C 71.76371002197266 79.75458526611328 67.11148071289062 82.89131164550781 61.93170928955078 85.08217620849609 C 56.56978225708008 87.35007476806641 50.87313079833984 88.5 45.00000762939453 88.5 Z" stroke="none"/>
                    <path d="M 45.00000762939453 3 C 39.32872009277344 3 33.82866287231445 4.110054016113281 28.65263748168945 6.299339294433594 C 23.65166473388672 8.414573669433594 19.15969085693359 11.44334411621094 15.30152130126953 15.301513671875 C 11.44335174560547 19.15968322753906 8.414581298828125 23.65165710449219 6.299346923828125 28.65262985229492 C 4.110061645507812 33.82865524291992 3.000007629394531 39.32871246337891 3.000007629394531 45 C 3.000007629394531 50.67128753662109 4.110061645507812 56.17134475708008 6.299346923828125 61.34737396240234 C 8.414581298828125 66.34834289550781 11.44335174560547 70.84031677246094 15.30152130126953 74.698486328125 C 19.15969085693359 78.55665588378906 23.65166473388672 81.58542633056641 28.65263748168945 83.70066070556641 C 33.82866287231445 85.88994598388672 39.32872009277344 87 45.00000762939453 87 C 50.67129516601562 87 56.17135238647461 85.88994598388672 61.34738159179688 83.70066070556641 C 66.34835052490234 81.58542633056641 70.84032440185547 78.55665588378906 74.69849395751953 74.698486328125 C 78.55666351318359 70.84031677246094 81.58543395996094 66.34834289550781 83.70066833496094 61.34737396240234 C 85.88995361328125 56.17134475708008 87.00000762939453 50.67128753662109 87.00000762939453 45 C 87.00000762939453 39.32871246337891 85.88995361328125 33.82865524291992 83.70066833496094 28.65262985229492 C 81.58543395996094 23.65165710449219 78.55666351318359 19.15968322753906 74.69849395751953 15.301513671875 C 70.84032440185547 11.44334411621094 66.34835052490234 8.414573669433594 61.34738159179688 6.299339294433594 C 56.17135238647461 4.110054016113281 50.67129516601562 3 45.00000762939453 3 M 45.00000762939453 0 C 69.85282135009766 0 90.00000762939453 20.14718627929688 90.00000762939453 45 C 90.00000762939453 69.85281372070312 69.85282135009766 90 45.00000762939453 90 C 20.14719390869141 90 7.62939453125e-06 69.85281372070312 7.62939453125e-06 45 C 7.62939453125e-06 20.14718627929688 20.14719390869141 0 45.00000762939453 0 Z" stroke="none" fill="#2e5bb6"/>
                  </g>
                </g>
              </g>
            </g>
          </g>
        </g>
      </g>
    </g>
    <g id="marketing_12349996" transform="translate(-25.341 7.003)">
      <path id="Trazado_994827" data-name="Trazado 994827" d="M95.876,50.79a3.644,3.644,0,0,0-2.24-3.239L91.6,46.582l-.044-7.638a3.309,3.309,0,0,0-3.449-3.111h-.024a3.769,3.769,0,0,0-.48.035V24.249A1.452,1.452,0,0,0,86.153,22.8H79.426a1.452,1.452,0,0,0-1.452,1.452v19.8a11.69,11.69,0,0,1-1.427.416V31.093A1.452,1.452,0,0,0,75.1,29.641H68.364a1.452,1.452,0,0,0-1.452,1.452V44.74a6.974,6.974,0,0,0-1.427.248V37.011a1.452,1.452,0,0,0-1.452-1.452H57.3a1.452,1.452,0,0,0-1.452,1.452V54.266A1.452,1.452,0,0,0,57.3,55.717h4.325a7.029,7.029,0,0,0,4.678,2.946l1.386,6.529A3.418,3.418,0,0,0,71.074,68H71.1a3.369,3.369,0,0,0,3.353-3.388l-.038-5.9.412,0h.04c3.432,0,7.874,2.491,9.934,5.525v.247a2.961,2.961,0,0,0,.9,2.1,3.623,3.623,0,0,0,2.54,1.014h.023a3.634,3.634,0,0,0,2.346-.846,3.02,3.02,0,0,0,1.093-2.3l-.045-7.818,2.029-.991a3.643,3.643,0,0,0,2.2-3.271l-.014-1.57Zm-15-25.09H84.7V38.449a2.845,2.845,0,0,0-.048.539v.057a12.869,12.869,0,0,1-3.777,3.565V25.7Zm-7.234,6.844V44.687l-3.828.021V32.545ZM60.381,51.776a7.044,7.044,0,0,0,.084,1.038H58.754V38.463h3.828V46.64a7,7,0,0,0-2.2,5.136Zm2.9-.018a4.115,4.115,0,0,1,4.087-4.133l5.938-.033.048,8.22-5.937.033a4.123,4.123,0,0,1-4.136-4.087Zm8.265,12.869a.466.466,0,0,1-.465.466c-.123,0-.446,0-.552-.5l-1.242-5.852,2.221-.012.038,5.9Zm4.712-8.73-.049-8.424a16.808,16.808,0,0,0,8.467-4.1l.1,16.521a16.8,16.8,0,0,0-8.514-4Zm11.992,8.791h-.006a.639.639,0,0,1-.543-.223l-.149-25.488a.626.626,0,0,1,.547-.24h.006a.646.646,0,0,1,.546.227L88.8,64.446a.621.621,0,0,1-.55.242Zm4.162-11.665-.773.378-.021-3.593.769.366c.264.125.58.338.582.641l.014,1.564c0,.3-.31.517-.571.644ZM52.972,40.977H46.244a1.452,1.452,0,0,0-1.452,1.452V54.265a1.452,1.452,0,0,0,1.452,1.452h6.728a1.452,1.452,0,0,0,1.452-1.452V42.429A1.452,1.452,0,0,0,52.972,40.977ZM51.52,52.814H47.7V43.88H51.52Zm-6.3-18.668a1.451,1.451,0,0,1,0-2.053L55.35,21.96a1.452,1.452,0,0,1,1.992-.057l3.27,2.915L70.7,14.729a1.452,1.452,0,0,1,1.992-.057l3.27,2.915L82.649,10.9h-.665a1.452,1.452,0,1,1,0-2.9h4.17A1.452,1.452,0,0,1,87.605,9.45v4.173a1.452,1.452,0,1,1-2.9,0v-.669l-7.654,7.654a1.452,1.452,0,0,1-1.992.057l-3.27-2.915L61.7,27.84A1.452,1.452,0,0,1,59.7,27.9l-3.27-2.915-9.163,9.163a1.451,1.451,0,0,1-2.053,0Z"/>
      <path id="Trazado_994828" data-name="Trazado 994828" d="M68.794,304.637h3.824v8.934H68.794Z" transform="translate(-21.098 -260.757)" fill="#eb745e"/>
      <path id="Trazado_994829" data-name="Trazado 994829" d="M432.691,354l-.769-.366.021,3.593.773-.378c.261-.128.572-.343.571-.644l-.014-1.564c0-.3-.318-.516-.582-.641Z" transform="translate(-340.301 -303.827)" fill="#dbd8d7"/>
      <path id="Trazado_994830" data-name="Trazado 994830" d="M251.657,223.087l3.828-.021V210.923h-3.828Z" transform="translate(-181.841 -178.378)" fill="#ffd54f"/>
      <path id="Trazado_994831" data-name="Trazado 994831" d="M247.307,427.373l1.242,5.852c.107.505.43.5.552.5a.466.466,0,0,0,.465-.466l-.038-5.9-2.221.012Z" transform="translate(-178.017 -368.635)" fill="#dbd8d7"/>
      <path id="Trazado_994832" data-name="Trazado 994832" d="M160.211,274.2h1.711a6.987,6.987,0,0,1,2.117-6.174V259.85h-3.828V274.2Z" transform="translate(-101.457 -221.387)" fill="#a2e19f"/>
      <path id="Trazado_994833" data-name="Trazado 994833" d="M201.744,335.352a4.11,4.11,0,1,0,.049,8.22l5.937-.033-.048-8.22Z" transform="translate(-134.373 -287.727)" fill="#eb745e"/>
      <path id="Trazado_994834" data-name="Trazado 994834" d="M398.868,262.116h-.006a.626.626,0,0,0-.547.24l.149,25.488a.639.639,0,0,0,.543.223h.006a.621.621,0,0,0,.551-.242l-.148-25.483a.645.645,0,0,0-.546-.227Z" transform="translate(-310.759 -223.379)" fill="#eb745e"/>
      <path id="Trazado_994835" data-name="Trazado 994835" d="M304.532,304.564l.049,8.424a16.8,16.8,0,0,1,8.514,4l-.1-16.521a16.808,16.808,0,0,1-8.467,4.1Z" transform="translate(-228.32 -257.091)" fill="#dbd8d7"/>
      <path id="Trazado_994836" data-name="Trazado 994836" d="M346.88,167.69v-.057a2.863,2.863,0,0,1,.048-.539V154.345H343.1v16.909a12.868,12.868,0,0,0,3.777-3.565Z" transform="translate(-262.226 -128.644)" fill="#92d2fe"/>
    </g>
  </g>
</svg>
