<svg xmlns="http://www.w3.org/2000/svg" xmlns:xlink="http://www.w3.org/1999/xlink" width="400" height="295" viewBox="0 0 400 295">
  <defs>
    <clipPath id="clip-path">
      <rect id="Rectángulo_411872" data-name="Rectángulo 411872" width="400" height="295" transform="translate(180 10182)" fill="#fff" stroke="#707070" stroke-width="1"/>
    </clipPath>
    <clipPath id="clip-path-2">
      <rect id="Rectángulo_411863" data-name="Rectángulo 411863" width="395.881" height="394.592" fill="none"/>
    </clipPath>
    <clipPath id="clip-path-3">
      <rect id="Rectángulo_411869" data-name="Rectángulo 411869" width="395" height="395" transform="translate(0 -0.408)" fill="none"/>
    </clipPath>
    <clipPath id="clip-path-5">
      <path id="Trazado_995924" data-name="Trazado 995924" d="M290.2,183.968s.057,2.207.179,5.593a270.853,270.853,0,0,0-27.126-2.976c-84.2-15.892-125.74,17.565-125.74,17.565v0c-.067.076-37.155,41.643-47.665,58.477-4.956,6.605-11.12,32.412-7.916,44.1s60.1-8.239,60.1-8.239c-2.754-2.873-4.917-7.339-6.621-12.39l19.342-13.352,7.847,31.211c19.516,21.19,92.283-.837,95.072-6.969,1.084-2.388,2.169-19.646,3.09-39.835,0,.07,0,.117,0,.117s73.052-15.959,79.939-20.967c12.071-1.05-2.134-56.287-2.134-56.287-12.984,8.569-48.372,3.948-48.372,3.948" transform="translate(-81.049 -180.02)" fill="none"/>
    </clipPath>
  </defs>
  <g id="Enmascarar_grupo_1098677" data-name="Enmascarar grupo 1098677" transform="translate(-180 -10182)" clip-path="url(#clip-path)">
    <g id="Grupo_1162278" data-name="Grupo 1162278" transform="translate(180 10182.408)">
      <g id="Grupo_1162269" data-name="Grupo 1162269">
        <g id="Grupo_1162268" data-name="Grupo 1162268" clip-path="url(#clip-path-2)">
          <path id="Trazado_995882" data-name="Trazado 995882" d="M141,75.726c-20.115,11.654-34.923,33.44-35,56.686-.033,10.629,2.846,21.5-.066,31.725-2.6,9.124-9.422,16.319-15.774,23.364a398.83,398.83,0,0,0-33.087,42.054c-6.811,9.967-13.38,20.917-13.618,32.986-.305,15.532,10.558,29.871,24.507,36.708s30.361,7.1,45.592,4.047,29.631-9.205,44.112-14.83c17.985-6.986,36.5-13.263,55.723-14.9a119.367,119.367,0,0,1,47.843,5.719c12.388,4.145,51.836,5.523,73.951-11.609s27.661-65.858,4.232-87.518a169.208,169.208,0,0,0-46.172-30.635c-17.121-7.645-35.235-18.314-40.621-36.273-2.6-8.665-1.862-18.134-4.992-26.622C234.746,51.677,165.112,61.759,141,75.726" transform="translate(-9.161 -13.246)" fill="#f9eae1"/>
          <path id="Trazado_995883" data-name="Trazado 995883" d="M338.691,59.3c-2.741,3.594-4.077,8.08-4.729,12.553-1,6.831-.446,14.089,2.857,20.152,6.114,11.222,19.849,15.748,32.51,17.475,6.869.937,14.747,1.021,19.668-3.862a16.413,16.413,0,0,0,4.364-10.5c.582-7.85-2.829-15.577-7.751-21.721s-11.277-10.948-17.564-15.683c-8.564-6.453-22.017-8.036-29.356,1.587" transform="translate(-70.31 -11.062)" fill="#f9eae1"/>
          <path id="Trazado_995884" data-name="Trazado 995884" d="M438.453,153.656a8.624,8.624,0,1,1-8.624-8.624,8.625,8.625,0,0,1,8.624,8.624" transform="translate(-88.797 -30.575)" fill="#f9eee8"/>
          <path id="Trazado_995885" data-name="Trazado 995885" d="M96.865,416.7a8.624,8.624,0,1,1-8.624-8.624,8.625,8.625,0,0,1,8.624,8.624" transform="translate(-16.785 -86.029)" fill="#f9eee8"/>
          <path id="Trazado_995886" data-name="Trazado 995886" d="M64.011,172.778a8.624,8.624,0,1,1-8.624-8.623,8.625,8.625,0,0,1,8.624,8.623" transform="translate(-9.858 -34.607)" fill="#f9eee8"/>
          <path id="Trazado_995887" data-name="Trazado 995887" d="M321.149,361.322a8.624,8.624,0,1,1-8.624-8.624,8.625,8.625,0,0,1,8.624,8.624" transform="translate(-64.067 -74.355)" fill="#f9eee8"/>
          <path id="Trazado_995888" data-name="Trazado 995888" d="M181.485,157.74a8.624,8.624,0,1,1-8.624-8.623,8.625,8.625,0,0,1,8.624,8.623" transform="translate(-34.624 -31.436)" fill="#f3cd69"/>
          <path id="Trazado_995889" data-name="Trazado 995889" d="M398.139,375.393a8.624,8.624,0,1,1-8.624-8.624,8.624,8.624,0,0,1,8.624,8.624" transform="translate(-80.298 -77.321)" fill="#f3cd69"/>
          <path id="Trazado_995890" data-name="Trazado 995890" d="M345.706,302.926a5.778,5.778,0,1,1-5.778-5.778,5.778,5.778,0,0,1,5.778,5.778" transform="translate(-70.444 -62.644)" fill="#f3cd69"/>
          <path id="Trazado_995891" data-name="Trazado 995891" d="M66.382,288.259a5.778,5.778,0,1,1-5.778-5.778,5.778,5.778,0,0,1,5.778,5.778" transform="translate(-11.558 -59.552)" fill="#f3cd69"/>
          <path id="Trazado_995892" data-name="Trazado 995892" d="M147.332,125.871l-8.754-1.41,2.766,8.23Z" transform="translate(-29.215 -26.238)" fill="#ecae5f"/>
          <path id="Trazado_995893" data-name="Trazado 995893" d="M459.178,75.967l-8.754-1.41,2.766,8.23Z" transform="translate(-94.957 -15.718)" fill="#ecae5f"/>
          <path id="Trazado_995894" data-name="Trazado 995894" d="M136.714,388.415,127.961,387l2.766,8.229Z" transform="translate(-26.976 -81.587)" fill="#ecae5f"/>
          <path id="Trazado_995895" data-name="Trazado 995895" d="M363.054,399.332l-7.773,4.266,7.238,4.793Z" transform="translate(-74.899 -84.186)" fill="#ecae5f"/>
          <path id="Trazado_995896" data-name="Trazado 995896" d="M126.808,50.4c.059-.031.31.267.65.915a11.923,11.923,0,0,1,1.062,3.026,14.229,14.229,0,0,1-2.491,11.422,15,15,0,0,1-6.6,5.071,11.279,11.279,0,0,1-4.733.8,7.526,7.526,0,0,1-4.853-2.088,6.207,6.207,0,0,1-1.555-2.436,5.509,5.509,0,0,1-.133-3.029,6.9,6.9,0,0,1,3.774-4.539,6.747,6.747,0,0,1,3.064-.615,8.216,8.216,0,0,1,3.009.727,9.456,9.456,0,0,1,4.412,4.225,12.521,12.521,0,0,1,1.314,5.821,17.312,17.312,0,0,1-1,5.584,18.067,18.067,0,0,1-6.215,8.536,15.986,15.986,0,0,1-9.035,3.146A15.285,15.285,0,0,1,99.4,85a13.676,13.676,0,0,1-4.874-4.8,13.419,13.419,0,0,1-1.8-4.8c-.431-2.8.145-4.326.236-4.293.2.014-.065,1.548.59,4.117a13.628,13.628,0,0,0,1.989,4.315,12.789,12.789,0,0,0,4.6,4.116,13.948,13.948,0,0,0,7.26,1.512,14.312,14.312,0,0,0,7.912-2.944,16.251,16.251,0,0,0,5.409-7.633,15.39,15.39,0,0,0,.846-4.9,10.461,10.461,0,0,0-1.08-4.813,7.346,7.346,0,0,0-3.385-3.264,5.134,5.134,0,0,0-4.28-.147,4.847,4.847,0,0,0-2.654,3.1,3.709,3.709,0,0,0,1.083,3.56,5.6,5.6,0,0,0,3.585,1.6,9.582,9.582,0,0,0,3.966-.585,13.657,13.657,0,0,0,6.012-4.318,13.32,13.32,0,0,0,2.658-5.59,14.633,14.633,0,0,0,.218-4.76c-.331-2.637-1.057-4-.879-4.078" transform="translate(-19.515 -10.626)" fill="#6d3a75"/>
          <path id="Trazado_995897" data-name="Trazado 995897" d="M420.491,70.815c.055.03-.032.374-.384.943a6.4,6.4,0,0,1-2.094,2.039,9.766,9.766,0,0,1-4.426,1.426,11.459,11.459,0,0,1-6.072-1.161,13.663,13.663,0,0,1-5.6-5,12.106,12.106,0,0,1-1.777-8.514,12.715,12.715,0,0,1,5.13-8.149,10.8,10.8,0,0,1,2.313-1.237,6.724,6.724,0,0,1,2.777-.551,4.189,4.189,0,0,1,1.6.354,3.156,3.156,0,0,1,1.387,1.205,3.461,3.461,0,0,1,.5,1.705,5.288,5.288,0,0,1-.186,1.552,10.133,10.133,0,0,1-2.9,4.645A12.083,12.083,0,0,1,406.24,62.7a15.514,15.514,0,0,1-9.552-.276,13.1,13.1,0,0,1-7.091-5.009,8.176,8.176,0,0,1-1.232-3.919,11.751,11.751,0,0,1,.414-3.643,20.86,20.86,0,0,1,5.348-9.1c1.791-1.744,3.03-2.383,3.1-2.282.11.137-.944,1-2.476,2.852a23.664,23.664,0,0,0-2.435,3.6,20.656,20.656,0,0,0-2.046,5.291,7.881,7.881,0,0,0,.837,6.223,11.471,11.471,0,0,0,6.194,4.082,13.7,13.7,0,0,0,8.281.158,10.053,10.053,0,0,0,3.694-2.185,8.086,8.086,0,0,0,2.277-3.618,2.076,2.076,0,0,0-.056-1.563,1.4,1.4,0,0,0-1.22-.545,4.647,4.647,0,0,0-1.926.394,8.8,8.8,0,0,0-1.877.985A10.808,10.808,0,0,0,402.1,60.9a10.365,10.365,0,0,0,1.345,7.219,12.33,12.33,0,0,0,4.763,4.572,10.484,10.484,0,0,0,5.314,1.318,9.53,9.53,0,0,0,4.074-.949,7.494,7.494,0,0,0,2.168-1.575c.437-.447.653-.717.728-.672" transform="translate(-81.871 -8.108)" fill="#6d3a75"/>
          <path id="Trazado_995898" data-name="Trazado 995898" d="M426.06,414.805c.009-.182,1.4-.1,3.775-.766a17.66,17.66,0,0,0,4.1-1.67,13.532,13.532,0,0,0,4.3-3.753,11.656,11.656,0,0,0,2.158-6.4c-.011-.611.04-1.282-.014-1.87a5.438,5.438,0,0,0-.452-1.713,6.945,6.945,0,0,0-2.4-2.877,6.842,6.842,0,0,0-3.688-1.282,7.223,7.223,0,0,0-3.95,1.069,8.647,8.647,0,0,0-3.042,3.075,7.659,7.659,0,0,0-.828,2.018,1.549,1.549,0,0,0,.159,1.417,1.42,1.42,0,0,0,1.325.248,2.686,2.686,0,0,0,1.408-1.052,10.8,10.8,0,0,0,1.114-1.948,20.565,20.565,0,0,0,.883-2.147c1.013-2.868,1.251-5.912.125-8.3a7.565,7.565,0,0,0-5.739-4.279,7.79,7.79,0,0,0-6.134,1.853,8.546,8.546,0,0,0-2.592,4.836,12.565,12.565,0,0,0,0,4.356c.438,2.4,1.163,3.622,1,3.71-.084.065-1.087-1.022-1.82-3.524a12.354,12.354,0,0,1-.38-4.723A9.646,9.646,0,0,1,418.1,385.3,9.23,9.23,0,0,1,432.832,388a10.552,10.552,0,0,1,1,4.879,16.521,16.521,0,0,1-.926,4.964,22.034,22.034,0,0,1-.956,2.372,12.42,12.42,0,0,1-1.343,2.351,4.784,4.784,0,0,1-2.595,1.84,3.94,3.94,0,0,1-1.735.048,3.143,3.143,0,0,1-1.685-.9,3.055,3.055,0,0,1-.809-1.758,4.789,4.789,0,0,1,.109-1.637,9.69,9.69,0,0,1,1.075-2.625,10.686,10.686,0,0,1,3.831-3.82,9.247,9.247,0,0,1,5.112-1.307,9.08,9.08,0,0,1,7.762,5.49,7.243,7.243,0,0,1,.544,2.3c.048.769-.029,1.443-.04,2.149a13.042,13.042,0,0,1-2.729,7.205,14.246,14.246,0,0,1-4.958,3.9,16.338,16.338,0,0,1-4.477,1.42c-2.548.437-3.981.054-3.956-.06" transform="translate(-87.547 -80.687)" fill="#6d3a75"/>
          <path id="Trazado_995899" data-name="Trazado 995899" d="M86.232,213.45c.038-.112,1.605.5,3.424,2.738a24.551,24.551,0,0,1,2.757,4.374,16.315,16.315,0,0,1,1.168,3.075,10.468,10.468,0,0,1,.313,3.775,10.666,10.666,0,0,1-4.445,7.338,13.31,13.31,0,0,1-9.574,2.171,16.134,16.134,0,0,1-5.134-1.578,11.072,11.072,0,0,1-4.341-3.78,8.288,8.288,0,0,1-1.233-6,6.381,6.381,0,0,1,1.453-2.978,6.5,6.5,0,0,1,2.783-1.881,5.448,5.448,0,0,1,3.461-.047,7.518,7.518,0,0,1,2.753,1.7,14.6,14.6,0,0,1,3.336,4.818,14.952,14.952,0,0,1,.47,10.822,15.225,15.225,0,0,1-6.057,7.688,14.1,14.1,0,0,1-8.2,2.257,12.612,12.612,0,0,1-6.67-2.126,11.885,11.885,0,0,1-3.589-3.834,9.793,9.793,0,0,1-1.181-3.071c-.141-.738-.107-1.137-.046-1.147.2-.053.395,1.544,1.937,3.761a11.784,11.784,0,0,0,3.533,3.269,11.633,11.633,0,0,0,6.045,1.614,12.7,12.7,0,0,0,7.18-2.222,13.54,13.54,0,0,0,5.159-6.833,13.045,13.045,0,0,0-.525-9.327,12.616,12.616,0,0,0-2.854-4.083,5.409,5.409,0,0,0-1.953-1.222,3.261,3.261,0,0,0-2.1.039,4.363,4.363,0,0,0-1.85,1.252,4.22,4.22,0,0,0-.97,1.981,6.2,6.2,0,0,0,.912,4.435,9.066,9.066,0,0,0,3.5,3.08,14.291,14.291,0,0,0,4.458,1.437,11.564,11.564,0,0,0,8.258-1.661,9.15,9.15,0,0,0,3.959-6.058,11.678,11.678,0,0,0-1.061-6.155,28.183,28.183,0,0,0-2.332-4.376,34.426,34.426,0,0,0-2.746-3.241" transform="translate(-12.148 -44.996)" fill="#6d3a75"/>
        </g>
      </g>
      <g id="Grupo_1162271" data-name="Grupo 1162271">
        <g id="Grupo_1162270" data-name="Grupo 1162270" clip-path="url(#clip-path-3)">
          <path id="Trazado_995900" data-name="Trazado 995900" d="M469.311,117.294a74.4,74.4,0,0,0,12.374,27.56c.5.692,1.016,1.375,1.536,2.053-2.252-9.688-2.975-19.672-3.671-29.6a77.226,77.226,0,0,1-.258-10.559.366.366,0,0,0-.4-.469q-6.083-.831-12.22-1.191c-.081.21-.152.422-.229.634,1.431,3.658,2.016,7.7,2.87,11.575" transform="translate(-98.333 -22.154)" fill="#70a77c"/>
          <path id="Trazado_995901" data-name="Trazado 995901" d="M457.249,101.036c3.006,4.507,3.665,10.113,4.831,15.4A74.408,74.408,0,0,0,474.453,144c2.062,2.844,4.323,5.539,6.444,8.341a2.79,2.79,0,0,1,.789,1.981c-.131.853-.983,1.376-1.752,1.767a76.625,76.625,0,0,1-18.323,6.543,4.864,4.864,0,0,1-5.834-1.727,72.679,72.679,0,0,1-13.838-21.322c-1.434-3.4-2.607-6.9-3.778-10.4q-2.047-6.112-4.093-12.223c-1.166-3.482-3.745-6.7.095-8.574,7.125-3.48,15.395-5.572,23.087-7.353" transform="translate(-91.101 -21.3)" fill="#70a77c"/>
          <path id="Trazado_995902" data-name="Trazado 995902" d="M439.407,132.858a98.712,98.712,0,0,1,21.127-23.684,25.214,25.214,0,0,0-3.286-8.138c-7.691,1.78-15.962,3.873-23.087,7.354-3.84,1.875-1.26,5.092-.095,8.574q2.047,6.112,4.093,12.224.617,1.837,1.248,3.671" transform="translate(-91.101 -21.3)" fill="#8cc497"/>
          <path id="Trazado_995903" data-name="Trazado 995903" d="M487.16,171.731a28.164,28.164,0,0,0-3.368-6.091c-3.977-4.971-10.139-7.664-15.257-11.231-5.241-3.655-10.348-13.815-13.1-13.815s-2.587,7-.593,11.422c.807,1.789,3.765,8.947,2.167,9.535-7.541,2.774-12.58-12.258-13.632-13.629,0,0-6.057,12.4-3.971,17.937a33.952,33.952,0,0,0,14.064,16.934c7.5,4.541,19.2,10.7,26.388,19.529.539.661,4.246,7.7,7.274,13,.111-3.173.026-43.6.026-43.6" transform="translate(-92.542 -29.64)" fill="#d5855b"/>
          <path id="Trazado_995904" data-name="Trazado 995904" d="M481.422,153.993c-.087-.009-.021-.457-.465-1.106-.443-.631-1.3-1.547-2.3-2.746a93.25,93.25,0,0,1-8.159-10.618,72.955,72.955,0,0,1-8.339-18.108c-.56-1.8-1.027-3.678-1.463-5.6s-.787-3.873-1.238-5.812a33.583,33.583,0,0,0-1.772-5.7c-.189-.462-.414-.9-.632-1.353l-.361-.652-.12-.214-.043-.069-.043-.069,0-.007-.368.086-1.556.369c-4.157.993-8.181,2.053-11.978,3.312-1.9.629-3.739,1.306-5.5,2.048q-1.322.56-2.59,1.159c-.764.37-1.344.787-1.5,1.31a3.207,3.207,0,0,0,.157,2.05c.25.786.608,1.595.942,2.424.7,1.715,1.142,3.347,1.672,4.916l2.8,8.765c1.664,5.374,3.115,9.65,4.321,12.54,1.186,2.9,1.93,4.473,1.788,4.549-.122.067-1.119-1.376-2.557-4.2a102.337,102.337,0,0,1-5.007-12.4l-3.047-8.682c-.563-1.552-1.059-3.218-1.725-4.752-.339-.8-.724-1.618-1.042-2.554a7.757,7.757,0,0,1-.365-1.527,4,4,0,0,1,.189-1.81,3.789,3.789,0,0,1,.443-.867,5.376,5.376,0,0,1,.631-.682,6.8,6.8,0,0,1,1.418-.912q1.306-.64,2.667-1.232c1.816-.785,3.7-1.5,5.639-2.157,3.877-1.316,7.961-2.406,12.15-3.407l1.567-.37,1.188-.276.388-.09.193-.045.1-.023c.028,0,.035.044.053.064l.379.606.378.6.178.287.1.183.4.733c.242.5.49.992.7,1.5a35.053,35.053,0,0,1,1.859,6.077c.451,2.005.8,3.967,1.192,5.851s.834,3.708,1.354,5.467a76.743,76.743,0,0,0,7.727,17.869c2.835,4.792,5.689,8.329,7.518,10.9a26.392,26.392,0,0,1,2.023,3.059c.378.833.137,1.352.08,1.314" transform="translate(-90.838 -20.972)" fill="#3a201e"/>
          <path id="Trazado_995905" data-name="Trazado 995905" d="M485.657,212.829a7.08,7.08,0,0,1-.993-1.441c-.6-.973-1.463-2.425-2.55-4.307l-1.81-3.129a14.192,14.192,0,0,0-1.076-1.681c-.476-.528-.952-1.092-1.477-1.647a59.367,59.367,0,0,0-7.856-6.819c-3.121-2.289-6.713-4.565-10.658-6.886l-6.144-3.6a34.376,34.376,0,0,1-6.136-4.644,34.9,34.9,0,0,1-5.184-6.227A35.606,35.606,0,0,1,439.7,168.8c-.3-.638-.61-1.282-.874-1.946-.13-.337-.275-.651-.395-1.01l-.31-1.147a21.419,21.419,0,0,1,1.051-8.842q.643-2.131,1.447-4.23c.274-.7.553-1.394.848-2.088l.225-.519.195-.444.23-.5.938-1.976.734,1.1a10.867,10.867,0,0,1,.7,1.3l.764,1.635a35.6,35.6,0,0,0,4.5,7.6,9.985,9.985,0,0,0,3.109,2.633,4.613,4.613,0,0,0,1.8.511,2.859,2.859,0,0,0,.458,0,1.941,1.941,0,0,0,.457-.043,2.885,2.885,0,0,0,.453-.087l.391-.114.008-.006,0,0,.021-.112a3.2,3.2,0,0,0-.016-.754,12.289,12.289,0,0,0-.356-1.733c-.319-1.17-.725-2.33-1.159-3.465-.218-.568-.443-1.132-.677-1.686l-.358-.829c-.129-.3-.247-.593-.357-.891a19.06,19.06,0,0,1-.916-3.63,16.753,16.753,0,0,1-.181-3.681,9.047,9.047,0,0,1,.317-1.863,3.68,3.68,0,0,1,1.093-1.818,2.171,2.171,0,0,1,1.162-.476,2.245,2.245,0,0,1,.646.035,2.892,2.892,0,0,1,.544.195,5.927,5.927,0,0,1,1.525,1.136,25.888,25.888,0,0,1,2.206,2.552c2.655,3.428,4.935,6.818,7.69,9.269.343.3.7.58,1.053.841l1.128.775q1.128.753,2.24,1.448c1.48.93,2.916,1.81,4.26,2.7a33.042,33.042,0,0,1,6.709,5.522,19.248,19.248,0,0,1,3.375,5.577c.7,1.629,1.148,2.915,1.447,3.789a5.178,5.178,0,0,1,.376,1.357c-.11.046-.824-1.75-2.331-4.913a19.59,19.59,0,0,0-3.465-5.264,33.368,33.368,0,0,0-6.67-5.2c-1.346-.844-2.791-1.69-4.3-2.6q-1.129-.679-2.3-1.426l-1.166-.773c-.4-.283-.792-.579-1.166-.9-2.978-2.575-5.321-5.994-7.979-9.339a24.955,24.955,0,0,0-2.1-2.386,4.669,4.669,0,0,0-1.141-.855,1.459,1.459,0,0,0-.247-.091.819.819,0,0,0-.194,0,.707.707,0,0,0-.383.162,2.33,2.33,0,0,0-.6,1.1,7.574,7.574,0,0,0-.247,1.55,15.344,15.344,0,0,0,.193,3.343,17.625,17.625,0,0,0,.863,3.332q.152.4.326.8l.372.849c.245.571.478,1.147.706,1.73.452,1.169.878,2.36,1.226,3.613a13.825,13.825,0,0,1,.409,1.969,4.606,4.606,0,0,1,.015,1.144,3.311,3.311,0,0,1-.072.356,1.857,1.857,0,0,1-.189.429,1.437,1.437,0,0,1-.7.593l-.649.2a4.36,4.36,0,0,1-.612.12,3.069,3.069,0,0,1-.626.061,4.214,4.214,0,0,1-.631,0,6.207,6.207,0,0,1-2.4-.665,11.527,11.527,0,0,1-3.641-3.038,36.808,36.808,0,0,1-4.736-7.953l-.571-1.227h0l-.25.575c-.289.676-.563,1.357-.83,2.035q-.788,2.044-1.413,4.1a20.2,20.2,0,0,0-1.038,8.108l.237.891c.1.307.245.632.365.946.249.635.539,1.249.825,1.86a34.624,34.624,0,0,0,1.958,3.5,33.708,33.708,0,0,0,4.917,5.992,33.278,33.278,0,0,0,5.84,4.506l6.1,3.666a121.937,121.937,0,0,1,10.653,7.122,57.582,57.582,0,0,1,7.836,7.12c.521.582.991,1.173,1.46,1.726a14.127,14.127,0,0,1,1.1,1.833l1.692,3.2c.983,1.915,1.751,3.409,2.286,4.449a7.356,7.356,0,0,1,.712,1.6" transform="translate(-92.335 -29.447)" fill="#3a201e"/>
          <path id="Trazado_995906" data-name="Trazado 995906" d="M482.185,141.379c-.109.02-.324-.627-.552-1.817s-.487-2.919-.743-5.06c-.516-4.283-1.043-10.209-1.507-16.761-.213-3.271-.416-6.387-.6-9.233-.023-.353-.047-.7-.069-1.045l-.019-.254a.2.2,0,0,1,0-.063c0-.016.009-.047-.007-.057a.367.367,0,0,0-.058-.017l-.4-.041-.955-.083c-1.259-.1-2.437-.205-3.511-.316a48.6,48.6,0,0,1-5.078-.726c-1.192-.256-1.827-.519-1.8-.622s.691-.067,1.885-.006,2.926.139,5.071.207l3.516.117.971.041.582.036a2.152,2.152,0,0,1,.834.221l.085.05c-.007.052.024.063.034.1l.091.178a.976.976,0,0,1,.149.4c.026.235.052.473.078.711q.051.521.1,1.055c.26,2.841.5,5.958.731,9.234.463,6.55.809,12.483,1.03,16.779.109,2.147.189,3.885.226,5.087s.036,1.87-.077,1.889" transform="translate(-98.425 -22.181)" fill="#3a201e"/>
          <rect id="Rectángulo_411864" data-name="Rectángulo 411864" width="19.512" height="42.188" transform="translate(290.596 224.433)" fill="#edb453"/>
          <rect id="Rectángulo_411865" data-name="Rectángulo 411865" width="48.253" height="42.188" transform="translate(310.108 224.433)" fill="#f3cb87"/>
          <rect id="Rectángulo_411866" data-name="Rectángulo 411866" width="13.941" height="21.094" transform="translate(328.591 224.433)" fill="#3a201e"/>
          <path id="Trazado_995907" data-name="Trazado 995907" d="M392.658,326.574c-.6,0-1.085-9.444-1.085-21.094s.486-21.094,1.085-21.094,1.085,9.444,1.085,21.094-.485,21.094-1.085,21.094" transform="translate(-82.55 -59.953)" fill="#3a201e"/>
          <path id="Trazado_995908" data-name="Trazado 995908" d="M435.966,337.591c.01.3-3.787.679-9.93.909s-14.629.361-24,.325-17.853-.219-23.991-.464-9.933-.554-9.93-.853,3.8-.534,9.942-.681,14.621-.21,23.987-.172,17.845.157,23.981.31,9.93.324,9.941.626" transform="translate(-77.604 -70.97)" fill="#3a201e"/>
          <path id="Trazado_995909" data-name="Trazado 995909" d="M427.721,269.017c-.859-4.509,6.594-25.139,16.9-31.023l-5.239-2.815L451,233.318l2.018,10.121-4.831-3.593c-9.345,6.426-12.421,23.788-11.4,29.271Z" transform="translate(-90.156 -49.187)" fill="#b974d0"/>
          <path id="Trazado_995910" data-name="Trazado 995910" d="M438.146,257.566a7.97,7.97,0,0,1,.358-1.987,38.162,38.162,0,0,1,1.754-5.359,29.649,29.649,0,0,1,4.351-7.491c.276-.315.546-.645.84-.961s.6-.628.929-.933.662-.606,1.024-.887l.567-.431.5-.378a.3.3,0,0,1,.064-.043l.064.047.128.095.257.189,2.33,1.71,1.165.855.069.05.021.013.037.023c-.535-2.631-1.1-5.417-1.69-8.312l-4.03.65-5.509.874.008.007.007,0,.213.116,1.595.863,1.916,1.037.754.408.094.051c.053.017-.037.038-.049.056l-.181.115-.361.23-1.164.741a23.917,23.917,0,0,0-4.759,4.377,49.74,49.74,0,0,0-6.027,9.136c-1.443,2.751-2.42,5.052-3.069,6.641a17.883,17.883,0,0,1-1.045,2.455c-.032-.009.011-.243.122-.682s.29-1.084.565-1.9a55.475,55.475,0,0,1,2.8-6.828,47.3,47.3,0,0,1,5.934-9.424,24.384,24.384,0,0,1,4.906-4.616l.3-.2c.021-.009,0-.016-.011-.021l-1.225-.65-4.62-2.471,8.631-1.391,5.056-.807c.817,4.156,1.6,8.154,2.346,11.931l-5.555-4.175c-.024-.032-.043-.025-.077.006l-.511.375c-.346.26-.659.555-.985.825s-.6.588-.9.874-.552.609-.823.907a30.616,30.616,0,0,0-4.435,7.188,51.78,51.78,0,0,0-2.006,5.2,10.948,10.948,0,0,1-.678,1.895" transform="translate(-90.504 -49.023)" fill="#3a201e"/>
          <rect id="Rectángulo_411867" data-name="Rectángulo 411867" width="49.746" height="30.013" transform="translate(59.115 121.108)" fill="#e26e3b"/>
          <path id="Trazado_995911" data-name="Trazado 995911" d="M118.264,172.577h-35.1a3.823,3.823,0,0,1-3.824-3.824V153.46h42.748v15.294a3.823,3.823,0,0,1-3.824,3.824" transform="translate(-16.726 -32.352)" fill="#3a201e"/>
          <path id="Trazado_995912" data-name="Trazado 995912" d="M78.1,136.851h9.044L82.934,149.2H70.794Z" transform="translate(-14.925 -28.851)" fill="#61936b"/>
          <path id="Trazado_995913" data-name="Trazado 995913" d="M99.224,136.851,97.305,149.2H86.177l4.216-12.345Z" transform="translate(-18.168 -28.851)" fill="#96cc9e"/>
          <path id="Trazado_995914" data-name="Trazado 995914" d="M70.778,152.494c-.523,4.161,2.566,7.582,5.779,7.721,3.371.145,6.874-3.326,6.361-7.721Z" transform="translate(-14.909 -32.148)" fill="#61936b"/>
          <path id="Trazado_995915" data-name="Trazado 995915" d="M86.158,152.494c-.571,4.082,2.473,7.37,5.428,7.433,3.023.065,6.263-3.24,5.7-7.433Z" transform="translate(-18.149 -32.148)" fill="#96cc9e"/>
          <path id="Trazado_995916" data-name="Trazado 995916" d="M130.373,136.851h-9.044l4.215,12.345h12.14Z" transform="translate(-25.578 -28.851)" fill="#61936b"/>
          <path id="Trazado_995917" data-name="Trazado 995917" d="M110.137,136.851l1.919,12.345h11.128l-4.216-12.345Z" transform="translate(-23.219 -28.851)" fill="#96cc9e"/>
          <path id="Trazado_995918" data-name="Trazado 995918" d="M138.8,152.494c.523,4.161-2.566,7.582-5.779,7.721-3.371.145-6.874-3.326-6.361-7.721Z" transform="translate(-26.691 -32.148)" fill="#61936b"/>
          <path id="Trazado_995919" data-name="Trazado 995919" d="M123.68,152.494c.571,4.082-2.473,7.37-5.428,7.433-3.023.065-6.263-3.24-5.7-7.433Z" transform="translate(-23.714 -32.148)" fill="#96cc9e"/>
          <path id="Trazado_995920" data-name="Trazado 995920" d="M108.059,136.851H102.2L100.278,149.2h9.7Z" transform="translate(-21.14 -28.851)" fill="#61936b"/>
          <path id="Trazado_995921" data-name="Trazado 995921" d="M100.267,152.494c-.429,4.431,2.615,7.583,4.953,7.546,2.308-.036,5.206-3.2,4.746-7.546" transform="translate(-21.129 -32.148)" fill="#61936b"/>
          <rect id="Rectángulo_411868" data-name="Rectángulo 411868" width="59.506" height="2.761" transform="translate(54.235 151.12)" fill="#ecb354"/>
          <path id="Trazado_995922" data-name="Trazado 995922" d="M123.785,153.051c-.009.6-11.878.915-26.512.7s-26.489-.867-26.48-1.466,11.879-.915,26.512-.7,26.489.867,26.48,1.466" transform="translate(-14.924 -31.943)" fill="#3a201e"/>
        </g>
      </g>
      <g id="Grupo_1162273" data-name="Grupo 1162273">
        <g id="Grupo_1162272" data-name="Grupo 1162272" clip-path="url(#clip-path-2)">
          <path id="Trazado_995923" data-name="Trazado 995923" d="M338.573,180.02c-12.984,8.569-48.373,3.948-48.373,3.948s.057,2.207.18,5.593a270.857,270.857,0,0,0-27.127-2.976c-84.2-15.892-125.74,17.565-125.74,17.565v0c-.067.076-37.155,41.643-47.665,58.477-4.956,6.605-11.12,32.412-7.916,44.1s60.1-8.239,60.1-8.239c-2.754-2.873-4.917-7.339-6.621-12.39l19.342-13.352,7.847,31.211c19.516,21.19,92.284-.836,95.072-6.97,1.085-2.387,2.17-19.645,3.09-39.834,0,.07,0,.117,0,.117s73.052-15.96,79.94-20.967c12.071-1.05-2.134-56.287-2.134-56.287" transform="translate(-17.087 -37.951)" fill="#eeb722"/>
        </g>
      </g>
      <g id="Grupo_1162275" data-name="Grupo 1162275" transform="translate(63.963 142.069)">
        <g id="Grupo_1162274" data-name="Grupo 1162274" clip-path="url(#clip-path-5)">
          <circle id="Elipse_12023" data-name="Elipse 12023" cx="22.991" cy="22.991" r="22.991" transform="translate(42.778 34.461) rotate(-79.099)" fill="none" stroke="#f9c98a" stroke-miterlimit="10" stroke-width="3"/>
          <circle id="Elipse_12024" data-name="Elipse 12024" cx="22.991" cy="22.991" r="22.991" transform="matrix(0.23, -0.973, 0.973, 0.23, 80.845, 66.084)" fill="none" stroke="#f9c98a" stroke-miterlimit="10" stroke-width="3"/>
          <circle id="Elipse_12025" data-name="Elipse 12025" cx="22.991" cy="22.991" r="22.991" transform="translate(120.719 33.51) rotate(-82.027)" fill="none" stroke="#f9c98a" stroke-miterlimit="10" stroke-width="3"/>
          <circle id="Elipse_12026" data-name="Elipse 12026" cx="22.991" cy="22.991" r="22.991" transform="translate(146.058 39.107)" fill="none" stroke="#f9c98a" stroke-miterlimit="10" stroke-width="3"/>
          <circle id="Elipse_12027" data-name="Elipse 12027" cx="22.991" cy="22.991" r="22.991" transform="matrix(0.23, -0.973, 0.973, 0.23, 102.699, 113.204)" fill="none" stroke="#f9c98a" stroke-miterlimit="10" stroke-width="3"/>
          <circle id="Elipse_12028" data-name="Elipse 12028" cx="22.991" cy="22.991" r="22.991" transform="translate(172.785 35.103) rotate(-76.717)" fill="none" stroke="#f9c98a" stroke-miterlimit="10" stroke-width="3"/>
          <circle id="Elipse_12029" data-name="Elipse 12029" cx="22.991" cy="22.991" r="22.991" transform="translate(196.972 43.484)" fill="none" stroke="#f9c98a" stroke-miterlimit="10" stroke-width="3"/>
          <circle id="Elipse_12030" data-name="Elipse 12030" cx="22.991" cy="22.991" r="22.991" transform="translate(67.031 107.44)" fill="none" stroke="#f9c98a" stroke-miterlimit="10" stroke-width="3"/>
          <circle id="Elipse_12031" data-name="Elipse 12031" cx="22.991" cy="22.991" r="22.991" transform="translate(154.461 92.995)" fill="none" stroke="#f9c98a" stroke-miterlimit="10" stroke-width="3"/>
          <circle id="Elipse_12032" data-name="Elipse 12032" cx="22.991" cy="22.991" r="22.991" transform="translate(227.171 43.637) rotate(-76.717)" fill="none" stroke="#f9c98a" stroke-miterlimit="10" stroke-width="3"/>
          <circle id="Elipse_12033" data-name="Elipse 12033" cx="22.991" cy="22.991" r="22.991" transform="matrix(0.23, -0.973, 0.973, 0.23, 35.199, 86.806)" fill="none" stroke="#f9c98a" stroke-miterlimit="10" stroke-width="3"/>
          <circle id="Elipse_12034" data-name="Elipse 12034" cx="22.991" cy="22.991" r="22.991" transform="matrix(0.189, -0.982, 0.982, 0.189, 4.526, 141.421)" fill="none" stroke="#f9c98a" stroke-miterlimit="10" stroke-width="3"/>
          <circle id="Elipse_12035" data-name="Elipse 12035" cx="22.991" cy="22.991" r="22.991" transform="matrix(0.189, -0.982, 0.982, 0.189, -18.466, 92.023)" fill="none" stroke="#f9c98a" stroke-miterlimit="10" stroke-width="3"/>
        </g>
      </g>
      <g id="Grupo_1162277" data-name="Grupo 1162277">
        <g id="Grupo_1162276" data-name="Grupo 1162276" clip-path="url(#clip-path-2)">
          <path id="Trazado_995925" data-name="Trazado 995925" d="M177.883,312.126c-.283.052-1.468-4.374-3.225-11.583s-4.04-17.194-6.434-28.254c-1.2-5.53-2.305-10.806-3.28-15.612-.476-2.4-.928-4.691-1.351-6.834-.207-1.069-.4-2.113-.574-3.122s-.318-1.943-.5-2.829a17.386,17.386,0,0,0-1.507-4.557,24.005,24.005,0,0,0-1.965-3.116c-1.219-1.655-1.92-2.582-1.8-2.688.1-.092,1,.627,2.451,2.151a19.391,19.391,0,0,1,2.371,3.06,17.249,17.249,0,0,1,1.944,4.8c.241.919.447,1.883.653,2.874q.333,1.474.689,3.06c.485,2.127,1,4.4,1.544,6.783,1.082,4.78,2.249,10.042,3.446,15.571,2.394,11.06,4.446,21.1,5.813,28.391s2.031,11.849,1.725,11.906" transform="translate(-33.147 -49.23)" fill="#3a201e"/>
          <path id="Trazado_995926" data-name="Trazado 995926" d="M101.841,279.205c-.083-.281,1.611-1.075,4.457-2.032a100.163,100.163,0,0,1,22.949-4.55c3-.2,4.864-.114,4.895.178.061.616-7.208,1.781-16.08,3.553l-11.371,2.3c-2.922.571-4.763.843-4.849.548" transform="translate(-21.469 -57.45)" fill="#3a201e"/>
          <path id="Trazado_995927" data-name="Trazado 995927" d="M110.658,271.071c-.028-.291,1.323-.709,3.558-1.032a52.994,52.994,0,0,1,17.539.676c2.2.495,3.519,1.015,3.468,1.3s-1.453.317-3.67.218-5.261-.29-8.623-.422-6.409-.174-8.63-.244-3.614-.195-3.643-.5" transform="translate(-23.328 -56.837)" fill="#3a201e"/>
          <path id="Trazado_995928" data-name="Trazado 995928" d="M305.9,302.027c-.074-.011-.1-.4-.074-1.14s.107-1.814.19-3.2c.051-1.392.193-3.084.231-5.059.079-1.971.108-4.218.116-6.7s-.026-5.209-.063-8.143-.073-6.074.023-9.4a78.561,78.561,0,0,1,.865-10.432,52.645,52.645,0,0,1,2.928-10.936c1.438-3.612,3.139-6.964,4.747-10.185.406-.808.817-1.612,1.246-2.4l.66-1.177.344-.579.485-.776a22.34,22.34,0,0,1,2.712-3.471l1.273-1.338c.416-.43.975-1.032,1.28-1.313q-.69,3.442-1.385,6.608c-.1.513-.246,1.1-.372,1.577l-.222.856c-.142.569-.307,1.125-.463,1.676-.629,2.2-1.307,4.277-2.025,6.2s-1.443,3.716-2.173,5.351-1.447,3.12-2.143,4.441-1.338,2.493-1.937,3.492-1.131,1.84-1.573,2.516c-.9,1.339-1.453,2.018-1.545,1.961a7.658,7.658,0,0,1,.988-2.285c.361-.731.8-1.612,1.3-2.637s1.073-2.23,1.674-3.576,1.242-2.839,1.89-4.477,1.308-3.42,1.937-5.338,1.251-3.968,1.815-6.141c.141-.544.29-1.091.416-1.652q.1-.42.2-.844a1.117,1.117,0,0,0,.02-.124,1.954,1.954,0,0,0,.021-.264c.013-.043-.035.032-.054.056l-.062.093a1.192,1.192,0,0,0-.077.141l-.516.881q-.307.562-.618,1.131c-.4.766-.8,1.554-1.195,2.358-1.582,3.232-3.245,6.549-4.633,10.039a52.408,52.408,0,0,0-2.845,10.471,81.678,81.678,0,0,0-.966,10.166c-.149,3.27-.174,6.4-.222,9.329s-.1,5.672-.2,8.173-.244,4.764-.44,6.746c-.155,1.985-.421,3.683-.6,5.071-.214,1.385-.44,2.451-.6,3.173s-.285,1.092-.359,1.081" transform="translate(-64.471 -47.597)" fill="#3a201e"/>
          <path id="Trazado_995929" data-name="Trazado 995929" d="M376.874,222.623c-.2.223-2.211-1.2-5.294-3.7S364.349,212.838,360,208.6c-1.078-1.068-2.128-2.114-3.116-3.152s-1.926-2.053-2.812-3.027c-1.753-1.967-3.273-3.791-4.481-5.377-.616-.783-1.136-1.522-1.594-2.168s-.833-1.217-1.122-1.7c-.582-.956-.846-1.525-.727-1.615s.609.3,1.391,1.093l1.4,1.453,1.822,1.941c1.343,1.442,2.963,3.137,4.773,5.006.915.925,1.862,1.91,2.87,2.9l3.114,3.088c4.3,4.2,8.271,7.95,11.083,10.74s4.469,4.614,4.269,4.838" transform="translate(-72.969 -40.381)" fill="#3a201e"/>
          <path id="Trazado_995930" data-name="Trazado 995930" d="M364.833,225.173c-.466.354-4.816-4.624-9.109-11.524s-6.861-12.989-6.338-13.252c.546-.279,3.929,5.3,8.18,12.1,4.236,6.811,7.758,12.3,7.267,12.673" transform="translate(-73.642 -42.245)" fill="#3a201e"/>
          <path id="Trazado_995931" data-name="Trazado 995931" d="M228.407,175.8c.821.7-.032,12.351,1.508,12.351s-.29-11.648.742-13.054c.839-1.144,9.671-7.709,13.577-9.811V152.494a16.791,16.791,0,0,1-1.906.362l-18.06,2.244a16.645,16.645,0,0,1-10.481-2.158v16.219a155.485,155.485,0,0,1,14.62,6.635" transform="translate(-45.07 -32.148)" fill="#b16656"/>
          <path id="Trazado_995932" data-name="Trazado 995932" d="M244.235,162.166v-9.671a16.955,16.955,0,0,1-1.905.362L224.268,155.1a16.643,16.643,0,0,1-10.48-2.158V166.3c10.128,2.022,20.636-.066,30.447-4.132" transform="translate(-45.07 -32.148)" fill="#3a201e"/>
          <path id="Trazado_995933" data-name="Trazado 995933" d="M191.294,65.916l9.724,53.865A16.714,16.714,0,0,0,219.526,133.4l18.061-2.244a16.715,16.715,0,0,0,14.653-16.587V51.973s-34.858-11.02-60.946,13.943" transform="translate(-40.328 -10.446)" fill="#b16656"/>
          <path id="Trazado_995934" data-name="Trazado 995934" d="M203.234,134.865a16.714,16.714,0,0,0,18.509,13.617l18.06-2.244a16.713,16.713,0,0,0,14.654-16.586V121.1l-1.645,1.719a19.6,19.6,0,0,0-4.824,8.678l-.434,1.687a8.567,8.567,0,0,1-7.185,6.364l-18.049,2.366a8.567,8.567,0,0,1-8.794-4.7l-.268-.54a19.611,19.611,0,0,0-8.7-8.793l-2.672-1.357-.079.437Z" transform="translate(-42.544 -25.53)" fill="#6c458c"/>
          <path id="Trazado_995935" data-name="Trazado 995935" d="M201.143,112.182a11.064,11.064,0,1,1-12.579-9.306,11.064,11.064,0,0,1,12.579,9.306" transform="translate(-37.765 -21.662)" fill="#b16656"/>
          <path id="Trazado_995936" data-name="Trazado 995936" d="M223.326,114.037a10.192,10.192,0,1,1-10.192-10.192,10.192,10.192,0,0,1,10.192,10.192" transform="translate(-42.783 -21.892)" fill="#ab5146"/>
          <path id="Trazado_995937" data-name="Trazado 995937" d="M264.064,100.569a10.192,10.192,0,1,0,0,15.711Z" transform="translate(-52.151 -20.709)" fill="#ab5146"/>
          <path id="Trazado_995938" data-name="Trazado 995938" d="M254.047,73.608c.15,0,.293,1.821.422,5.113s.247,8.056.345,13.943.178,12.9.233,20.681q.018,2.919.036,5.977A18.306,18.306,0,0,1,254,125.8a17.775,17.775,0,0,1-12.587,11.151c-.572.144-1.159.213-1.735.32-.563.083-1.1.138-1.642.208l-6.412.781-6.191.742c-2.036.215-3.948.547-6.063.581a17.5,17.5,0,0,1-10.832-3.753A16.854,16.854,0,0,1,204.951,132a18.569,18.569,0,0,1-1.266-2.126c-.174-.365-.322-.736-.481-1.1a7.686,7.686,0,0,1-.406-1.095c-.114-.368-.238-.728-.339-1.088q-.118-.55-.233-1.086c-.17-.725-.236-1.374-.354-2.037q-.309-1.963-.583-3.7c-.343-2.3-.639-4.295-.884-5.936-.457-3.262-.64-5.08-.493-5.106s.612,1.739,1.324,4.956c.345,1.623.763,3.592,1.247,5.871q.35,1.721.748,3.671c.14.638.245,1.346.422,1.978q.122.488.247.986c.1.327.23.651.345.983a6.681,6.681,0,0,0,.4.985c.155.324.3.657.466.983a17.155,17.155,0,0,0,1.2,1.892,15.353,15.353,0,0,0,3.317,3.369,15.8,15.8,0,0,0,9.722,3.18c1.778-.046,3.812-.4,5.821-.638l6.184-.8,6.409-.813c.538-.071,1.1-.131,1.623-.211.505-.1,1.022-.155,1.524-.285a15.756,15.756,0,0,0,11.088-9.779,16.347,16.347,0,0,0,1-5.743q.018-3.055.036-5.977c.054-7.784.134-14.794.233-20.681s.215-10.651.345-13.943.272-5.113.422-5.113" transform="translate(-42.135 -15.518)" fill="#3a201e"/>
          <path id="Trazado_995939" data-name="Trazado 995939" d="M187.953,87.216a29.307,29.307,0,0,1,4.879.361s-.077,6.641,3.641,6.11-4.259-30.72-4.259-30.72c.852.537,10.77,6.553,21.639,1.809a23.674,23.674,0,0,0,12.455-13.583,12.32,12.32,0,0,0,8.012,4.786,12.114,12.114,0,0,0,7.747-1.6c.425,1.778.466,14.476,8.411,14.886,9.054.466,9.634-6.741,9.029-9.308,11.763,1.334,8.01-20.147-5.046-15.316,2.281-1.463,2.237-7.081-1.278-9.16-5.366-3.175-8.461,1.258-9.168,2.963.605-17.394-28.088-8.924-27.8,1.859-13.831-19.254-36.883,4.235-30.455,15.4-3.292-2.813-10.737.4-9.353,8.347,1.028,5.9,4.277,6.286,7.7,4.426,0,0,.962,12.314,3.85,18.735" transform="translate(-37.154 -6.002)" fill="#6c458c"/>
          <path id="Trazado_995940" data-name="Trazado 995940" d="M191.331,120.147c-.017.1-.353.159-.89-.051a4.392,4.392,0,0,1-1.817-1.511,4.045,4.045,0,0,1-.724-1.6,1.9,1.9,0,0,1,.167-1.253,1.708,1.708,0,0,1,.5-.555,3.089,3.089,0,0,1,.518-.305,5.629,5.629,0,0,1,2.147-.426,8.007,8.007,0,0,1,1.11.053l.285.041c.016,0,.008,0,.008,0v0h.006s0,.007,0-.009l-.024-.184-.056-.44c-.043-.287-.132-.545-.188-.814a5.189,5.189,0,0,0-.3-.691,2.4,2.4,0,0,0-1.977-1.3,4.44,4.44,0,0,0-1.848.314c-.446.159-.689.309-.781.218-.069-.061.03-.376.442-.747a3.791,3.791,0,0,1,2.17-.926,3.515,3.515,0,0,1,1.735.3,3.635,3.635,0,0,1,1.53,1.362,5.941,5.941,0,0,1,.492.953c.1.335.224.682.29,1.034l.086.532.047.309c.014.148.017.325.025.488q.041.986.084,2l-.346-.16-.6-.278-.294-.137-.263-.084a3.07,3.07,0,0,0-.507-.136l-.222-.035a7.3,7.3,0,0,0-.893-.066,4.692,4.692,0,0,0-1.572.212,1.688,1.688,0,0,0-.264.129c-.046.023-.077.044-.069.047s-.031,0-.029.019c-.048.02-.074.189-.069.365a3.29,3.29,0,0,0,.364,1.166,5.763,5.763,0,0,0,1.17,1.578c.343.323.586.471.558.591" transform="translate(-39.516 -23.18)" fill="#3a201e"/>
          <path id="Trazado_995941" data-name="Trazado 995941" d="M234.968,96.505c.1.054-.035.511-.234,1.321a9.336,9.336,0,0,0-.256,1.453c-.038.53.012,1.209.365,1.434.066.079.2.1.3.155.152.029.309.067.489.085a10.521,10.521,0,0,0,1.2.033c.857-.02,1.794-.11,2.777-.223s2.02-.26,3.092-.428l1.632-.268c.1-.017.035-.006.055-.01h0v0l0,0,.044-.165c.032-.125.074-.248.1-.376a9.589,9.589,0,0,0-.006-3.089,18.372,18.372,0,0,0-.764-2.913c-.65-1.844-1.413-3.484-2-4.893a25.651,25.651,0,0,1-1.246-3.43c-.215-.844-.239-1.335-.139-1.363s.343.387.731,1.136.969,1.821,1.692,3.158a46.542,46.542,0,0,1,2.37,4.87,17.668,17.668,0,0,1,.93,3.166,10.606,10.606,0,0,1,.033,3.66c-.028.157-.079.311-.118.465l-.182.666c-.088.26-.075.634-.444.586l-.782.135-1.671.249c-1.1.148-2.16.265-3.18.343a25.771,25.771,0,0,1-2.932.079,10.429,10.429,0,0,1-1.382-.142,5.357,5.357,0,0,1-.7-.189,2.073,2.073,0,0,1-.687-.45,1.966,1.966,0,0,1-.57-1.312,3.679,3.679,0,0,1,.091-1.1,6.775,6.775,0,0,1,.561-1.536c.4-.786.734-1.151.829-1.1" transform="translate(-49.221 -17.671)" fill="#3a201e"/>
          <path id="Trazado_995942" data-name="Trazado 995942" d="M221.454,90.472c3.259-.292,5.727,8.151.825,8.933-3.97.633-5.121-8.546-.825-8.933" transform="translate(-46.11 -19.071)" fill="#3a201e"/>
          <path id="Trazado_995943" data-name="Trazado 995943" d="M252.225,84.789c3.259-.292,5.727,8.15.825,8.932-3.97.634-5.121-8.547-.825-8.932" transform="translate(-52.597 -17.873)" fill="#3a201e"/>
          <path id="Trazado_995944" data-name="Trazado 995944" d="M223.531,81.81c.493-.178-2.045-4.027-4.18-4.027-2.63,0-11.835,6.32-12.579,7.931-.491,1.064,2.149,3.132,3.036,2.974,1.208-.217,7.434-4.616,13.722-6.877" transform="translate(-43.578 -16.398)" fill="#3a201e"/>
          <path id="Trazado_995945" data-name="Trazado 995945" d="M243.844,78.369c-.522-.047.962-4.412,3.028-4.951,2.545-.664,13.047,3.128,14.173,4.5.743.906-1.289,3.574-2.188,3.644-1.223.1-8.358-2.589-15.013-3.191" transform="translate(-51.384 -15.461)" fill="#3a201e"/>
          <path id="Trazado_995946" data-name="Trazado 995946" d="M223.93,106.884s8.355,5.795,17.4,5.512c0,0-1.413,7.844-11.591,6.007s-5.811-11.52-5.811-11.52" transform="translate(-47.012 -22.533)" fill="#fbefdf"/>
          <path id="Trazado_995947" data-name="Trazado 995947" d="M205.361,170.321c3.335.293,20.162,8.015,20.983,8.718s-.032,12.351,1.508,12.351-.29-11.648.742-13.054,14.161-11.019,15.333-10.433,1.173,13.011,1.173,13.011-11.051,12.778-17.248,12.778-23.778-9.364-23.778-9.364-.543-14.168,1.287-14.007" transform="translate(-43.006 -35.391)" fill="#f9c98a"/>
          <path id="Trazado_995948" data-name="Trazado 995948" d="M215.856,188.674a11.3,11.3,0,0,1,2.75.89c1.739.637,4.251,1.627,7.428,2.535.795.219,1.633.425,2.5.578a7.186,7.186,0,0,0,2.615.077,14.883,14.883,0,0,0,5.34-2.7,52.211,52.211,0,0,0,5.286-4.468q1.315-1.25,2.623-2.608l1.3-1.38,1.083-1.2q-.009-.823-.021-1.658-.021-.988-.044-1.989c-.039-1.413-.1-2.809-.185-4.175a24.932,24.932,0,0,0-.48-3.9l-.034-.12s0-.009-.006-.01H246c.011-.006-.018.007-.1.039-.064.025-.129.051-.2.085-.545.249-1.1.564-1.647.881-1.088.645-2.142,1.323-3.16,2-2.035,1.358-3.941,2.706-5.694,4-.875.648-1.715,1.282-2.493,1.911a13.617,13.617,0,0,0-1.059.927c-.153.078-.226.574-.275.991-.148,1.773-.058,3.487-.048,4.958.024,1.481.033,2.764-.016,3.816a9.178,9.178,0,0,1-.341,2.429,1.01,1.01,0,0,1-.38.573c-.147.088-.238.028-.243.017-.017-.036.074-.046.139-.146a1.116,1.116,0,0,0,.166-.526,13.331,13.331,0,0,0,.025-2.346c-.048-1.032-.149-2.3-.26-3.775a44.55,44.55,0,0,1-.189-5.1,5.685,5.685,0,0,1,.1-.779,2.718,2.718,0,0,1,.125-.447,2.879,2.879,0,0,1,.148-.278c.052-.072.1-.129.155-.194a13.531,13.531,0,0,1,1.15-1.085c.784-.676,1.614-1.342,2.483-2.023,1.739-1.356,3.629-2.755,5.669-4.166,1.021-.706,2.082-1.411,3.2-2.1.567-.339,1.141-.674,1.789-.979.078-.039.166-.076.254-.112a2.451,2.451,0,0,1,.364-.131l.463-.11c.146.017.293.02.44.049a1.136,1.136,0,0,1,.215.055l.179.137c.1.111.234.18.3.335a2.985,2.985,0,0,1,.216.429c.059.186.095.279.115.365a25.236,25.236,0,0,1,.557,4.207c.1,1.4.157,2.811.2,4.24q.021,1.01.043,2.008.008,1.153.017,2.29l-.86.968-.664.72-1.337,1.4q-1.34,1.372-2.7,2.633a50.612,50.612,0,0,1-5.52,4.517,15.716,15.716,0,0,1-5.958,2.787,8.246,8.246,0,0,1-3.059-.174,26.521,26.521,0,0,1-2.595-.708,59.51,59.51,0,0,1-7.348-3.036,9.878,9.878,0,0,1-2.514-1.44" transform="translate(-45.506 -35.184)" fill="#3a201e"/>
          <path id="Trazado_995949" data-name="Trazado 995949" d="M226.776,188.626c-.11.009-.272-.686-.413-1.953s-.232-3.114-.424-5.333c-.026-.275-.057-.557-.1-.828a3.623,3.623,0,0,0-.073-.392.716.716,0,0,0-.041-.148.116.116,0,0,0-.021-.036c-.021-.032-.06-.027-.167-.1l-.407-.2c-.272-.141-.573-.275-.868-.416-1.2-.556-2.488-1.139-3.854-1.738-2.73-1.2-5.747-2.5-8.932-3.784-1.593-.631-3.157-1.245-4.666-1.73-.37-.1-.749-.223-1.1-.309-.477-.085-.315-.075-.365-.064-.007.008,0,0,0,0a1.464,1.464,0,0,0-.08.2,4.43,4.43,0,0,0-.143.474c-.083.336-.149.69-.2,1.045a73.8,73.8,0,0,0-.509,7.833c-.024,1.116-.047,2.135-.067,3.045,0,.14-.006.137-.009.2.009.043-.039.124.019.14.084.056.137.095.338.211l.9.542c1.08.663,1.655,1.078,1.6,1.178s-.721-.123-1.9-.616l-.972-.419-.734-.339a.511.511,0,0,1-.1-.056l-.009-.118-.017-.244c-.01-.15-.021-.3-.031-.458-.069-.9-.131-1.928-.174-3.064a55.715,55.715,0,0,1,.174-8.047c.047-.386.109-.781.2-1.19a5.968,5.968,0,0,1,.177-.638,2.921,2.921,0,0,1,.136-.344,1.481,1.481,0,0,1,.316-.479c.063-.066.124-.138.191-.2s.153-.1.232-.148a.831.831,0,0,1,.266-.063l.069-.011.017,0c0-.045.009-.013.013-.023l.034,0,.137-.008a1.521,1.521,0,0,1,.271.034l.221.037.338.058c.425.1.82.213,1.234.324,1.6.491,3.181,1.1,4.8,1.743,3.224,1.3,6.237,2.645,8.952,3.931q2.037.962,3.831,1.894c.3.159.589.3.88.473l.435.246c.139.117.435.219.546.476a.885.885,0,0,1,.179.369,1.516,1.516,0,0,1,.069.294,4.516,4.516,0,0,1,.065.495c.032.317.045.613.054.9.047,2.3-.05,4.116-.092,5.385s-.107,1.966-.221,1.975" transform="translate(-42.836 -35.836)" fill="#3a201e"/>
          <path id="Trazado_995950" data-name="Trazado 995950" d="M226.964,187.6c0,1.859-.794,3.365-1.773,3.365s-1.772-1.507-1.772-3.365.793-3.365,1.772-3.365,1.773,1.507,1.773,3.365" transform="translate(-47.1 -38.839)" fill="#3a201e"/>
          <path id="Trazado_995951" data-name="Trazado 995951" d="M242.382,186.114c.163,1.851-.5,3.422-1.471,3.508s-1.9-1.346-2.061-3.2.5-3.422,1.471-3.508,1.9,1.346,2.061,3.2" transform="translate(-50.348 -38.561)" fill="#3a201e"/>
          <path id="Trazado_995952" data-name="Trazado 995952" d="M342.41,153.348s27.147,8.4,41.32-1.337c0,0-13.589-36.075-15.4-42.62s-2.674-29.551-6.374-35.477C359.7,70.3,353,69.692,352.219,69.978c-3.565-2-7.479-1.453-7.34-.917-4.7-3.462-8.382-.881-8.221,2.057-3.54-8.277-15.28-19.485-17.506-17.352-2.357,2.257,8.213,21.527,10.125,26.568.9,2.384-5.889,9.62-5.764,11.577.548,8.574,16.269,20.8,16.934,22.854,1.278,3.932,1.963,38.583,1.963,38.583" transform="translate(-67.211 -11.279)" fill="#b16656"/>
          <path id="Trazado_995953" data-name="Trazado 995953" d="M342.121,149.808a13.914,13.914,0,0,1-.225-2.437c-.081-1.62-.2-3.974-.351-7-.151-3.042-.335-6.756-.549-11.064q-.174-3.233-.425-6.9c-.092-1.218-.187-2.47-.311-3.751a28.25,28.25,0,0,0-.549-3.821l-.025-.112-.032-.055a.612.612,0,0,0-.088-.144,3.958,3.958,0,0,0-.274-.359c-.2-.246-.432-.495-.667-.742-.47-.494-.964-.989-1.469-1.486l-3.11-3.061a86.264,86.264,0,0,1-6.3-6.868,37.145,37.145,0,0,1-2.876-4.048,16.672,16.672,0,0,1-2.069-4.811,9.984,9.984,0,0,1-.215-1.371A3.3,3.3,0,0,1,323,90.192a22.312,22.312,0,0,1,1.379-2.325c.969-1.477,1.992-2.922,2.873-4.432a10.186,10.186,0,0,0,1.046-2.273,2.179,2.179,0,0,0,.082-.5,1.481,1.481,0,0,0-.009-.188,1.659,1.659,0,0,0-.062-.185c-.16-.407-.337-.821-.522-1.235-.742-1.66-1.559-3.334-2.373-5.029-1.633-3.39-3.317-6.855-4.872-10.474a57.189,57.189,0,0,1-2.129-5.615,12.488,12.488,0,0,1-.618-3.153,2.449,2.449,0,0,1,.019-.467,1.962,1.962,0,0,1,.095-.515,1.586,1.586,0,0,1,.268-.575,1.448,1.448,0,0,1,.523-.489,2.034,2.034,0,0,1,.63-.23,4.157,4.157,0,0,1,.565-.018c.164.023.336.043.493.076l.441.125a11.952,11.952,0,0,1,2.863,1.582,30.16,30.16,0,0,1,2.454,1.969A50.478,50.478,0,0,1,330.57,60.7a52.539,52.539,0,0,1,3.344,4.222q.775,1.1,1.478,2.238c.23.384.461.766.676,1.159l.149.272h0v0l0,.006,0,0,.011-.023a3.82,3.82,0,0,1,.4-.563,4.546,4.546,0,0,1,1.1-.936,4.961,4.961,0,0,1,2.678-.683,6.752,6.752,0,0,1,2.563.568,9.486,9.486,0,0,1,1.139.563c.186.1.35.225.526.337.062.041.042.028.046.032l0,0,0,0c.039-.016-.116.049.255-.118a5.046,5.046,0,0,1,.737-.225,7.905,7.905,0,0,1,1.424-.191,10.851,10.851,0,0,1,2.767.217,8.848,8.848,0,0,1,2.621.976,4.361,4.361,0,0,1,.6.392l.291.213.182.169c.016.019.013.013.024.012-.055.01.129-.025.248-.046a3.419,3.419,0,0,1,.368-.04,9.616,9.616,0,0,1,5.25,1.243,8.16,8.16,0,0,1,3.523,3.946,26.65,26.65,0,0,1,1.467,4.726c.365,1.568.641,3.124.893,4.663.5,3.079.868,6.089,1.207,9.016s.652,5.767.963,8.524a62.052,62.052,0,0,0,1.274,7.847c1.482,4.908,3.139,9.449,4.568,13.567,2.915,8.223,5.253,14.815,6.868,19.372.8,2.272,1.408,4.032,1.8,5.228a9.609,9.609,0,0,1,.537,1.846,9.587,9.587,0,0,1-.809-1.744c-.485-1.163-1.181-2.892-2.062-5.133-1.761-4.484-4.281-11.016-7.321-19.214-1.5-4.115-3.206-8.584-4.779-13.584a62.234,62.234,0,0,1-1.4-8.022q-.5-4.134-1.039-8.519c-.361-2.917-.747-5.909-1.263-8.943-.259-1.516-.541-3.046-.9-4.564a25.43,25.43,0,0,0-1.394-4.433,6.6,6.6,0,0,0-2.9-3.234,8.127,8.127,0,0,0-4.355-1.028,2.156,2.156,0,0,0-.26.028,2.406,2.406,0,0,0-.372.086l-.3.087-.148.043c-.048.006-.1.054-.138,0l-.451-.417-.283-.263-.223-.159a2.973,2.973,0,0,0-.464-.3,7.3,7.3,0,0,0-2.154-.789,9.242,9.242,0,0,0-2.36-.178,6.271,6.271,0,0,0-1.143.155,2.964,2.964,0,0,0-1.38.7l-.911-.605c-.151-.1-.294-.209-.451-.29a8.008,8.008,0,0,0-.946-.465,5.171,5.171,0,0,0-1.97-.441,3.357,3.357,0,0,0-1.823.456,2.915,2.915,0,0,0-.693.594,2.2,2.2,0,0,0-.279.406,2.471,2.471,0,0,0-.238.548c-.055.235-.064.566-.1.844l-.777.189-.78.178-.578-1.224c-.1-.2-.2-.394-.305-.583l-.164-.3c-.2-.371-.423-.736-.642-1.1q-.671-1.089-1.42-2.146a51.093,51.093,0,0,0-3.24-4.088,49.233,49.233,0,0,0-4.276-4.32,28.792,28.792,0,0,0-2.319-1.866,10.627,10.627,0,0,0-2.434-1.367c-.382-.144-.8-.15-.8-.092,0,.006-.006.006-.016,0s-.066-.064-.017-.013c.017.02.018.024.018.024a.028.028,0,0,1,0,.009c-.012-.017-.026.048-.041.1a.618.618,0,0,0-.037.222,1.187,1.187,0,0,0-.011.282,11.18,11.18,0,0,0,.544,2.707,55.952,55.952,0,0,0,2.055,5.453c1.525,3.574,3.189,7.032,4.808,10.428.809,1.7,1.618,3.378,2.371,5.084.188.427.37.859.543,1.3a3,3,0,0,1,.139.47,2.9,2.9,0,0,1,.03.494,3.6,3.6,0,0,1-.135.844,11.436,11.436,0,0,1-1.215,2.643c-.942,1.591-1.984,3.039-2.944,4.484a21.373,21.373,0,0,0-1.3,2.15,2.211,2.211,0,0,0-.285.862,8.48,8.48,0,0,0,.176,1.16,15.384,15.384,0,0,0,1.866,4.407,36.212,36.212,0,0,0,2.737,3.92A86.771,86.771,0,0,0,334.937,108l3.07,3.094c.5.507,1,1.014,1.48,1.534.241.261.477.526.709.811a5.046,5.046,0,0,1,.342.463,1.782,1.782,0,0,1,.276.611,27.957,27.957,0,0,1,.537,4.056c.106,1.3.182,2.557.254,3.783q.194,3.677.3,6.923c.149,4.321.226,8.043.274,11.084s.058,5.4.046,7.006a13.624,13.624,0,0,1-.1,2.446" transform="translate(-66.996 -11.064)" fill="#3a201e"/>
          <path id="Trazado_995954" data-name="Trazado 995954" d="M353.607,108.106c-.1,0-.212-.561-.336-1.555-.017-.124-.028-.256-.051-.393l-.109-.424q-.11-.449-.235-.96a6.918,6.918,0,0,0-.383-1.062l-.223-.572c-.082-.193-.208-.372-.312-.566a6.836,6.836,0,0,0-.748-1.162,7.405,7.405,0,0,0-.988-1.13,11.913,11.913,0,0,0-2.691-1.984A18.447,18.447,0,0,0,344,96.911q-.966-.264-1.994-.453l-.518-.084-.265-.043-.518-.062-2.163-.245.822-1.151.415-.588c.128-.181.288-.446.318-.494.236-.383.455-.781.657-1.189a14.275,14.275,0,0,0,.986-2.588,12.376,12.376,0,0,0,.343-4.984,11.314,11.314,0,0,0-1.544-4.369c-.195-.311-.41-.621-.62-.895s-.363-.357-.418-.357a.743.743,0,0,0-.484.239,8.567,8.567,0,0,0-.686.713c-.946,1.043-1.812,2.029-2.6,2.934-3.132,3.629-4.971,5.976-5.165,5.838-.173-.12,1.338-2.711,4.273-6.564.736-.961,1.559-2,2.471-3.094a9.111,9.111,0,0,1,.781-.87,2.083,2.083,0,0,1,1.506-.625,1.739,1.739,0,0,1,.9.327,2.98,2.98,0,0,1,.554.526c.273.334.514.664.752,1.02a12.52,12.52,0,0,1,1.857,4.945,13.61,13.61,0,0,1-.351,5.641,15.327,15.327,0,0,1-1.11,2.882c-.227.453-.474.892-.739,1.312-.1.152-.057.088-.068.1l-.006,0-.015.013a.29.29,0,0,0,.064.017l.856.157q1.094.221,2.126.533a18.755,18.755,0,0,1,3.789,1.63,12.525,12.525,0,0,1,2.892,2.343,8.133,8.133,0,0,1,1.031,1.328,7.477,7.477,0,0,1,.74,1.347c.1.223.219.43.293.649l.193.646a6.916,6.916,0,0,1,.3,1.182q.067.555.128,1.043c.017.158.034.309.051.456s-.008.285-.012.416c-.046,1.048-.118,1.6-.215,1.6" transform="translate(-69.687 -16.439)" fill="#3a201e"/>
          <path id="Trazado_995955" data-name="Trazado 995955" d="M347.961,71.52c.013-.054.126-.073.342-.054a2.372,2.372,0,0,1,.914.245,5.3,5.3,0,0,1,2.434,2.461,11.149,11.149,0,0,1,.9,2.188,19.442,19.442,0,0,1,.594,2.6c.161.92.259,1.887.347,2.887s.138,2.014.188,3.083a26.276,26.276,0,0,1-.047,3.151,11.5,11.5,0,0,1-.6,2.985,5.038,5.038,0,0,1-.307.7,3.53,3.53,0,0,1-.412.66,3.64,3.64,0,0,1-.546.581,3.389,3.389,0,0,1-.694.416,3.688,3.688,0,0,1-1.389.249,4.5,4.5,0,0,1-1.232-.162,4.964,4.964,0,0,1-1.8-.988,6.352,6.352,0,0,1-1.007-1.083c-.466-.65-.626-1.059-.543-1.126s.428.212,1,.692a5.966,5.966,0,0,0,2.608,1.385,3.56,3.56,0,0,0,.911.027,2.576,2.576,0,0,0,.887-.223,2.611,2.611,0,0,0,1.1-1.616,17.82,17.82,0,0,0,.436-5.583c-.052-1.038-.1-2.051-.152-3.033-.065-.973-.129-1.91-.241-2.787a22.7,22.7,0,0,0-.413-2.461,12.1,12.1,0,0,0-.631-2.035,5.6,5.6,0,0,0-1.72-2.418,4.809,4.809,0,0,0-.693-.478c-.167-.115-.254-.2-.241-.259" transform="translate(-72.75 -15.065)" fill="#3a201e"/>
          <path id="Trazado_995956" data-name="Trazado 995956" d="M358.7,72.988c.009-.055.114-.087.324-.09a2.1,2.1,0,0,1,.877.24,3.638,3.638,0,0,1,1.1.938,6.454,6.454,0,0,1,.918,1.615c1.021,2.533,1.293,6.2,1.013,10.154-.076.991-.182,1.956-.337,2.892a8.985,8.985,0,0,1-.836,2.76,3.913,3.913,0,0,1-2.124,1.919,2.679,2.679,0,0,1-1.406.1,3.288,3.288,0,0,1-1.117-.471,5.317,5.317,0,0,1-2.065-2.506c-.268-.717-.245-1.147-.146-1.174.115-.035.3.324.7.874a5.89,5.89,0,0,0,2.077,1.808,1.649,1.649,0,0,0,1.483.1,2.631,2.631,0,0,0,1.258-1.333,8.243,8.243,0,0,0,.6-2.324c.125-.883.217-1.814.29-2.768a31.093,31.093,0,0,0-.477-9.655,5.117,5.117,0,0,0-1.284-2.408c-.477-.425-.868-.548-.844-.674" transform="translate(-74.803 -15.368)" fill="#3a201e"/>
          <path id="Trazado_995957" data-name="Trazado 995957" d="M371.458,79.367c.219.027.333,1.117.425,2.9.039.894.063,1.96.034,3.154-.014.6-.046,1.226-.1,1.885a11.629,11.629,0,0,1-.35,2.1,7.19,7.19,0,0,1-2.073,3.674,3.935,3.935,0,0,1-1.823.853,2.954,2.954,0,0,1-1.788-.241,3.413,3.413,0,0,1-1.092-.865,4.484,4.484,0,0,1-.547-.807c-.242-.465-.305-.754-.216-.818s.335.1.711.423a4.664,4.664,0,0,0,1.575,1,1.9,1.9,0,0,0,1.075-.011,2.809,2.809,0,0,0,1.121-.666,6.584,6.584,0,0,0,1.5-3,12.752,12.752,0,0,0,.327-1.812c.077-.617.139-1.223.193-1.8.111-1.161.205-2.218.313-3.107.2-1.779.5-2.889.726-2.862" transform="translate(-76.713 -16.732)" fill="#3a201e"/>
          <path id="Trazado_995958" data-name="Trazado 995958" d="M336.758,68c.17-.137.713.2,1.391.935a15.136,15.136,0,0,1,2.149,3.18,19.457,19.457,0,0,1,1.432,3.519c.264.936.329,1.555.127,1.652s-.642-.361-1.174-1.174-1.162-1.969-1.828-3.245-1.252-2.428-1.658-3.287-.618-1.437-.438-1.581" transform="translate(-70.98 -14.328)" fill="#3a201e"/>
          <path id="Trazado_995959" data-name="Trazado 995959" d="M346.168,133.77c6.149,1.351,25.086-3.97,28.538-10.518l2,6.32c-4.378,10.187-24.021,13.485-30.035,11.194Z" transform="translate(-72.978 -25.984)" fill="#6d3a75"/>
          <path id="Trazado_995960" data-name="Trazado 995960" d="M346.071,181.5s35.1,6.456,48.373-3.948l-2.057-9.235s-19.472,9.892-46.252,2.36Z" transform="translate(-72.957 -35.484)" fill="#f9c98a"/>
          <path id="Trazado_995961" data-name="Trazado 995961" d="M345.918,181.081c-.149,0-.281-1.622-.393-4.554q-.037-1.107-.08-2.441c-.022-.971-.046-2.024-.071-3.153q-.006-.62-.013-1.262c-.1-.335.231-.133.414-.118l.634.145,2.08.47c1.147.232,2.339.578,3.629.744a73.305,73.305,0,0,0,18.139,1.037,66.727,66.727,0,0,0,10.618-1.492c1.819-.387,3.644-.891,5.475-1.455.907-.3,1.83-.594,2.728-.95.453-.17.907-.343,1.349-.535l.492-.206.691-.323,1.386-.664.229,1.03q.747,3.367,1.475,6.648.391,1.773.777,3.52c.038.069-.016.1-.071.134l-.148.1-.294.208-.582.414-.653.459c-.422.286-.869.517-1.3.775a33.946,33.946,0,0,1-10.748,3.438,70.151,70.151,0,0,1-10.035.855c-3.144.062-6.066-.045-8.725-.22a116.318,116.318,0,0,1-12.511-1.493c-2.927-.527-4.518-.969-4.491-1.115s1.659.01,4.6.278,7.2.64,12.47.8c2.633.077,5.516.092,8.6-.045a73.217,73.217,0,0,0,9.748-1.027,45.715,45.715,0,0,0,5.1-1.23,27.324,27.324,0,0,0,4.953-2.1c.384-.235.789-.446,1.161-.7l.526-.376a.04.04,0,0,0,.01-.009l-.5-2.2q-.556-2.485-1.128-5.037c-.01,0,.036-.015-.021.008l-.178.074c-.472.2-.947.384-1.422.561-.944.372-1.9.669-2.846.981-1.9.578-3.794,1.087-5.674,1.473a65.675,65.675,0,0,1-10.956,1.409,69.362,69.362,0,0,1-18.547-1.529c-1.308-.219-2.51-.62-3.666-.91l-.851-.23-.253-.073-.159-.05-.17-.053c-.051-.009-.142-.069-.122.016-.008.11-.015.22-.023.327-.083,1.975-.155,3.682-.214,5.093-.147,2.931-.3,4.55-.447,4.55" transform="translate(-72.804 -35.064)" fill="#3a201e"/>
          <path id="Trazado_995962" data-name="Trazado 995962" d="M186.348,190.017s9.015,38.71,15.292,41.091,42.638-8.874,45.452-15.584,0-32.611,0-32.611l9.514.9s-4.1,36.261,3.04,60.717,15.986,38.837,15.568,53.074c0,0,8.672,26.791,7.807,43.891,0,0-90.647,20.5-118.784,3.184,0,0,7.073-28.016,12.483-38.838,8.87-13.177,17.167-40.918,13.177-61.378-3.807-19.522-9.4-46.084-11.764-51.654a5.979,5.979,0,0,1,8.215-2.79" transform="translate(-34.624 -38.561)" fill="#e26e3b"/>
          <path id="Trazado_995963" data-name="Trazado 995963" d="M242.234,341.009c.023.148-.818.414-2.364.769-.773.182-1.722.378-2.831.564s-2.371.418-3.775.6c-2.8.4-6.162.75-9.9,1.005-1.871.1-3.835.23-5.875.26-2.039.066-4.151.054-6.315.043-2.162-.055-4.274-.108-6.31-.237-2.038-.094-4-.282-5.864-.441-3.73-.371-7.076-.821-9.866-1.311-1.4-.223-2.652-.489-3.755-.713s-2.046-.447-2.812-.652c-1.533-.4-2.367-.694-2.339-.841s.912-.136,2.484.009l6.629.676c2.793.292,6.122.58,9.821.838,1.851.1,3.791.247,5.807.311,2.015.1,4.1.136,6.239.19,2.138.012,4.225.039,6.242,0,2.017,0,3.961-.086,5.814-.132,3.7-.144,7.041-.329,9.842-.535l6.646-.472c1.575-.1,2.46-.081,2.483.068" transform="translate(-37.995 -71.667)" fill="#3a201e"/>
          <path id="Trazado_995964" data-name="Trazado 995964" d="M253.7,182.913c.148-.016.468,1.577.847,4.481s.823,7.118,1.1,12.359c.126,2.622.208,5.5.1,8.612a36.171,36.171,0,0,1-.455,4.858c-.087.424-.122.843-.254,1.28s-.27.878-.406,1.32a6.973,6.973,0,0,1-1.81,2.368,25.54,25.54,0,0,1-4.58,3.087c-1.622.887-3.312,1.7-5.051,2.466-3.482,1.532-7.162,2.9-10.98,4.141s-7.6,2.293-11.3,3.126q-2.777.63-5.512,1.035a28.388,28.388,0,0,1-5.5.357,6.383,6.383,0,0,1-.716-.077,3.988,3.988,0,0,1-.739-.142,3.739,3.739,0,0,1-1.487-.712,8.682,8.682,0,0,1-1.832-2.1,30.489,30.489,0,0,1-2.293-4.342c-1.256-2.859-2.206-5.579-3.024-8.074-1.62-4.995-2.683-9.1-3.367-11.945s-.949-4.449-.807-4.487.7,1.484,1.62,4.255,2.214,6.791,4,11.673c.9,2.435,1.926,5.093,3.21,7.828A29.689,29.689,0,0,0,206.7,228.3a6.951,6.951,0,0,0,1.439,1.619,1.739,1.739,0,0,0,.792.352,2.465,2.465,0,0,0,.52.088,4.738,4.738,0,0,0,.567.051,27.288,27.288,0,0,0,5.066-.41c1.75-.279,3.539-.634,5.348-1.059,3.622-.844,7.343-1.9,11.1-3.117s7.39-2.556,10.8-4.026c1.7-.739,3.352-1.509,4.913-2.339a24.166,24.166,0,0,0,4.243-2.763,5.184,5.184,0,0,0,1.327-1.613q.174-.539.347-1.07c.119-.354.162-.763.247-1.138a35.815,35.815,0,0,0,.534-4.6c.182-3.023.191-5.872.163-8.47-.075-5.2-.292-9.419-.4-12.336s-.155-4.537,0-4.553" transform="translate(-41.235 -38.561)" fill="#3a201e"/>
          <path id="Trazado_995965" data-name="Trazado 995965" d="M183.281,202.84c.14-.038.689,1.424,1.488,4.123s1.839,6.633,3.014,11.518,2.5,10.72,3.877,17.216c.672,3.253,1.378,6.666,2.109,10.2q.264,1.331.531,2.684.219,1.389.441,2.8a28.467,28.467,0,0,1,.318,2.851c.065.96.194,1.924.206,2.9a87.693,87.693,0,0,1-2.064,21.7A104.827,104.827,0,0,1,188,295.8a68.472,68.472,0,0,1-5.324,10.716,26.473,26.473,0,0,1-1.84,2.686c-.454.59-.721.878-.783.837-.317-.2,3.177-5.37,6.514-14.787a118.684,118.684,0,0,0,4.679-16.832,91.656,91.656,0,0,0,1.853-21.2c-.01-.943-.137-1.87-.2-2.8a27.312,27.312,0,0,0-.3-2.746q-.206-1.354-.409-2.688-.258-1.351-.511-2.679L189.7,236.1c-1.284-6.5-2.442-12.352-3.416-17.285-.98-4.887-1.776-8.855-2.336-11.647-.545-2.752-.817-4.284-.668-4.325" transform="translate(-37.953 -42.762)" fill="#3a201e"/>
          <path id="Trazado_995966" data-name="Trazado 995966" d="M312.645,372.128c-.15-.008-.282-.641-.393-1.765-.069-.563-.077-1.248-.179-2.043s-.182-1.7-.271-2.7c-.448-3.99-1.252-9.48-2.478-15.5-2.411-12.049-5.068-21.7-4.486-21.884.556-.189,4.17,9.253,6.615,21.462a89.87,89.87,0,0,1,1.881,15.829c-.007,1.026-.024,1.953-.048,2.765a20.486,20.486,0,0,1-.189,2.083c-.148,1.14-.3,1.76-.451,1.752" transform="translate(-64.248 -69.197)" fill="#3a201e"/>
          <path id="Trazado_995967" data-name="Trazado 995967" d="M253.111,343.526s-3.543-20.244-2.746-21.682,28.942-7.6,29.763-5.752,3.747,22.743,3.747,22.743-12.357,6.826-30.764,4.692" transform="translate(-52.756 -66.565)" fill="#755dfe"/>
          <path id="Trazado_995968" data-name="Trazado 995968" d="M286.873,346.114l-1.832.339a1.263,1.263,0,0,1-1.471-1.012l-.035-.187a1.262,1.262,0,0,1,1.011-1.471l1.832-.34a1.263,1.263,0,0,1,1.472,1.012l.035.188a1.263,1.263,0,0,1-1.012,1.471" transform="translate(-59.769 -72.399)" fill="#aac9fe"/>
          <path id="Trazado_995969" data-name="Trazado 995969" d="M279.218,347.532l-1.832.339a1.263,1.263,0,0,1-1.471-1.011l-.035-.188a1.262,1.262,0,0,1,1.011-1.471l1.832-.339a1.262,1.262,0,0,1,1.472,1.011l.034.188a1.261,1.261,0,0,1-1.011,1.471" transform="translate(-58.155 -72.698)" fill="#aac9fe"/>
          <path id="Trazado_995970" data-name="Trazado 995970" d="M262.243,350.677l-1.832.339a1.263,1.263,0,0,1-1.471-1.011l-.035-.188a1.262,1.262,0,0,1,1.011-1.471l1.832-.339a1.262,1.262,0,0,1,1.472,1.011l.035.188a1.263,1.263,0,0,1-1.012,1.471" transform="translate(-54.577 -73.361)" fill="#aac9fe"/>
          <path id="Trazado_995971" data-name="Trazado 995971" d="M270.027,349.243l-1.832.339a1.263,1.263,0,0,1-1.471-1.012l-.035-.187a1.263,1.263,0,0,1,1.012-1.472l1.832-.339A1.263,1.263,0,0,1,271,347.584l.035.188a1.263,1.263,0,0,1-1.012,1.471" transform="translate(-56.218 -73.059)" fill="#aac9fe"/>
          <path id="Trazado_995972" data-name="Trazado 995972" d="M256.3,334.9c1.985.567,22.184-3.8,23.324-4.883s.062-9-1.245-9.6-22.818,3.876-23.608,4.936.51,9.256,1.53,9.548" transform="translate(-53.658 -67.537)" fill="#3a201e"/>
          <path id="Trazado_995973" data-name="Trazado 995973" d="M261.156,344.806l-1.832.339a1.263,1.263,0,0,1-1.471-1.011l-.035-.188a1.262,1.262,0,0,1,1.012-1.471l1.832-.34a1.263,1.263,0,0,1,1.472,1.012l.035.188a1.263,1.263,0,0,1-1.012,1.471" transform="translate(-54.348 -72.123)" fill="#de3300"/>
          <path id="Trazado_995974" data-name="Trazado 995974" d="M268.8,343.39l-1.832.339a1.263,1.263,0,0,1-1.471-1.011l-.035-.188a1.262,1.262,0,0,1,1.011-1.471l1.832-.34a1.264,1.264,0,0,1,1.472,1.012l.035.188a1.263,1.263,0,0,1-1.012,1.471" transform="translate(-55.958 -71.825)" fill="#aac9fe"/>
          <path id="Trazado_995975" data-name="Trazado 995975" d="M277.441,341.54l-1.832.339a1.263,1.263,0,0,1-1.471-1.011l-.035-.188a1.262,1.262,0,0,1,1.011-1.471l1.832-.34a1.262,1.262,0,0,1,1.471,1.012l.035.188a1.262,1.262,0,0,1-1.011,1.471" transform="translate(-57.781 -71.435)" fill="#aac9fe"/>
          <path id="Trazado_995976" data-name="Trazado 995976" d="M285.668,339.606l-1.832.339a1.263,1.263,0,0,1-1.471-1.011l-.035-.188a1.262,1.262,0,0,1,1.011-1.471l1.832-.34a1.264,1.264,0,0,1,1.472,1.012l.035.188a1.263,1.263,0,0,1-1.012,1.471" transform="translate(-59.515 -71.027)" fill="#aac9fe"/>
          <path id="Trazado_995977" data-name="Trazado 995977" d="M252.775,375.033c-.072.02-.214-.256-.419-.8a21.891,21.891,0,0,1-.714-2.45c-.245-1.078-.512-2.4-.765-3.951s-.491-3.314-.706-5.271-.421-4.1-.6-6.41q-.118-1.732-.245-3.577-.052-.923-.107-1.873-.03-.642-.058-1.292l-.035-.921-.017-.465-.008-.234a1.36,1.36,0,0,1,.223.009l2.955.211,1.984.084c1.338.036,2.7.057,4.093.017a78.047,78.047,0,0,0,8.578-.662c.881-.117,1.754-.24,2.615-.395.864-.134,1.716-.3,2.559-.473.846-.155,1.672-.363,2.5-.545s1.626-.414,2.427-.614,1.577-.455,2.352-.675l2.271-.729,2.185-.778,3.1-1.219q.309,1.088.614,2.154l.075.264.042.166.077.312.153.62c.193.824.377,1.631.518,2.426.3,1.586.511,3.105.642,4.541s.2,2.786.217,4.034-.015,2.4-.087,3.434-.155,1.959-.265,2.758-.227,1.477-.331,2.024c-.23,1.093-.418,1.664-.518,1.649s-.118-.616-.081-1.717q.021-.85.051-2.022c.021-.793.024-1.7,0-2.718s-.064-2.136-.149-3.35-.216-2.521-.419-3.9-.453-2.848-.8-4.37c-.163-.762-.366-1.536-.577-2.325-.1-.354-.2-.713-.3-1.075l-.112-.318-.114.061-1.019.425-2.229.846-2.321.79c-.793.239-1.592.5-2.409.728s-1.644.463-2.489.658-1.694.417-2.563.582c-.866.18-1.741.358-2.63.5-.885.162-1.784.29-2.69.41a73.362,73.362,0,0,1-8.829.636c-1.43.026-2.836-.013-4.21-.072-.687-.041-1.367-.069-2.038-.122l-.887-.08-.077-.016c-.022,0-.01.039-.017.062l0,.021v.011l0,.108.013.473q.03.943.058,1.862.07,1.834.135,3.559c.1,2.3.206,4.434.331,6.383s.256,3.709.382,5.255.278,2.869.392,3.955q.194,1.566.308,2.493c.065.574.066.888-.006.908" transform="translate(-52.515 -72.103)" fill="#3a201e"/>
          <path id="Trazado_995978" data-name="Trazado 995978" d="M250,238.659s1.4,23.7,4.074,23.877,30.114-3.742,31.361-5.168-1.96-24.768-3.563-25.48-30.243,5.168-31.871,6.771" transform="translate(-52.704 -48.873)" fill="#f3f2f0"/>
          <path id="Trazado_995979" data-name="Trazado 995979" d="M286.487,240.693c.1.59-2.464,1.522-5.729,2.08s-5.992.531-6.093-.059,2.464-1.522,5.728-2.08,5.993-.532,6.094.059" transform="translate(-57.903 -50.645)" fill="#3a201e"/>
          <path id="Trazado_995980" data-name="Trazado 995980" d="M288.683,247.5c.112.589-2.817,1.64-6.543,2.348s-6.837.8-6.949.216,2.817-1.641,6.543-2.349,6.837-.8,6.949-.215" transform="translate(-58.014 -52.096)" fill="#3a201e"/>
          <path id="Trazado_995981" data-name="Trazado 995981" d="M289.381,254.774c.152.579-2.65,1.732-6.26,2.574s-6.632,1.048-6.752.461,2.682-1.74,6.26-2.574,6.6-1.041,6.752-.461" transform="translate(-58.262 -53.641)" fill="#3a201e"/>
          <path id="Trazado_995982" data-name="Trazado 995982" d="M268.045,229.523l.762,7.3,4.462-.762-1.085-7.189Z" transform="translate(-56.508 -48.249)" fill="#3a201e"/>
          <path id="Trazado_995983" data-name="Trazado 995983" d="M269.812,256.829c-.3.958-11.035,2.622-11.7,2.14s-2.619-13.4-2.143-14.235,10.747-2.985,11.6-2.284,2.544,13.42,2.243,14.378" transform="translate(-53.948 -51.083)" fill="#3a201e"/>
          <path id="Trazado_995984" data-name="Trazado 995984" d="M146.194,263.544s-2,29.045,10.35,41.015c0,0,31.133-17.843,37.752-19.359s29.577-8.56,35.663-11.99c3.71-2.091,5.095-7.616,4.845-8.406,2.156-3.472,1.788-7.406,1.246-7.292,3.67-4.541,1.256-8.334-1.686-8.3,8.428-3.165,14.362-8.457,12.331-10.776-2.15-2.455-12.814,2.166-17.23,2.665-2.534.286-10.293,1.056-10.293,1.056s4.6-12.851-.481-14.088c-1.874-.455-3.848,6.169-10.995,12.079-6.849,5.664-12.423,14.629-14.5,15.2-3.986,1.1-47,8.2-47,8.2" transform="translate(-30.795 -48.075)" fill="#b16656"/>
          <path id="Trazado_995985" data-name="Trazado 995985" d="M153.019,262.384a5.238,5.238,0,0,1,1.473-.42c.979-.219,2.432-.518,4.322-.888,3.781-.741,9.308-1.767,16.268-3.053l11.472-2.134c2.075-.394,4.235-.8,6.439-1.271.271-.06.56-.114.819-.181l.4-.1.2-.048c.066-.017.07-.041.109-.058a4.97,4.97,0,0,0,1.085-.893c.778-.8,1.533-1.718,2.3-2.64a87.065,87.065,0,0,1,10.475-11.411,35.872,35.872,0,0,0,5.543-5.8c.84-1.087,1.63-2.232,2.439-3.417.407-.593.817-1.2,1.3-1.812a6.369,6.369,0,0,1,.9-.941,3.468,3.468,0,0,1,.331-.24,2.632,2.632,0,0,1,.472-.221,1.937,1.937,0,0,1,1.035-.058c.3.1.446.137.656.225a5.459,5.459,0,0,1,.567.319,3.817,3.817,0,0,1,.908.9,5.523,5.523,0,0,1,.867,2.124,13.822,13.822,0,0,1,.066,4.09,31.243,31.243,0,0,1-.706,3.908q-.233.964-.509,1.92l-.106.371.039-.006,1.539-.161,3.244-.338,3.274-.34a13.866,13.866,0,0,0,1.552-.222c.513-.1,1.038-.229,1.564-.365,2.111-.548,4.258-1.229,6.472-1.815,1.108-.3,2.235-.571,3.4-.782a11.605,11.605,0,0,1,3.783-.178,3.57,3.57,0,0,1,1.495.578,2.683,2.683,0,0,1,1.053,1.54,3.13,3.13,0,0,1-.088,1.694,5.354,5.354,0,0,1-.605,1.271,14.381,14.381,0,0,1-3.4,3.454,31.042,31.042,0,0,1-3.868,2.485c-.665.362-1.335.71-2.016,1.03l-.859.4-.012,0s-.023.006-.015.006a.025.025,0,0,1,.014.006l.006,0c-.024-.024.029.024.081.066l.14.122a2.148,2.148,0,0,1,.253.269,4.765,4.765,0,0,1,.79,1.227,5.451,5.451,0,0,1,.418,2.751,7.706,7.706,0,0,1-.749,2.5c-.174.389-.411.727-.616,1.089-.1.145-.152.208-.216.3l.008.013a2.348,2.348,0,0,1,.208.4,4.627,4.627,0,0,1,.36,1.194,6.633,6.633,0,0,1-.024,2.33,7.287,7.287,0,0,1-.758,2.153,7.088,7.088,0,0,1-.642.957,5.389,5.389,0,0,1-.384.434c-.056.058-.155.167-.177.184l-.083.07s-.013.006-.012.012v.017a10,10,0,0,1-.576,2.456,14.366,14.366,0,0,1-.977,2.193,10.948,10.948,0,0,1-3.123,3.685,25.538,25.538,0,0,1-4.063,2.029c-1.338.556-2.667,1.067-3.985,1.561-5.279,1.934-10.371,3.563-15.206,5.033s-9.422,2.775-13.722,3.789a44.325,44.325,0,0,0-5.781,2.275c-1.839.835-3.583,1.678-5.238,2.49-6.613,3.266-11.809,6.014-15.391,7.856-1.79.925-3.173,1.631-4.117,2.092a5.6,5.6,0,0,1-1.478.624,5.58,5.58,0,0,1,1.307-.931c.889-.561,2.218-1.366,3.958-2.386,3.483-2.033,8.583-4.959,15.143-8.4,1.642-.855,3.377-1.743,5.22-2.626a44.125,44.125,0,0,1,5.995-2.481c4.266-1.086,8.786-2.458,13.586-3.975s9.848-3.207,15.048-5.166c1.3-.5,2.6-1.013,3.894-1.565a24.793,24.793,0,0,0,3.666-1.844,9,9,0,0,0,2.5-3.027,12.5,12.5,0,0,0,.831-1.9,11.281,11.281,0,0,0,.481-1.929l.176-.582q.094-.288.187-.578l.284-.245a1.512,1.512,0,0,0,.16-.164,3.153,3.153,0,0,0,.258-.294,4.968,4.968,0,0,0,.438-.661,5.215,5.215,0,0,0,.527-1.529,4.575,4.575,0,0,0,.015-1.592,2.622,2.622,0,0,0-.211-.7,1.527,1.527,0,0,0-.286-.461l-.658-.774,1.092-1.5c.155-.287.354-.561.48-.856a5.648,5.648,0,0,0,.538-1.784,3.331,3.331,0,0,0-.251-1.67,2.628,2.628,0,0,0-.436-.674.817.817,0,0,0-.135-.145l-.213-.182c-.247-.255-.9-.32-1.39-.465l-.16-.8c-.018-.08-.052-.244-.054-.238a.285.285,0,0,1-.018-.078l-.038-.228-.129-.739c.712-.266,1.368-.56,2.057-.84l.65-.294.484-.227c.644-.3,1.276-.635,1.9-.978a29.093,29.093,0,0,0,3.595-2.316,12.476,12.476,0,0,0,2.88-2.889,1.983,1.983,0,0,0,.421-1.291.526.526,0,0,0-.2-.286,1.508,1.508,0,0,0-.615-.211,9.8,9.8,0,0,0-3.029.176c-1.072.193-2.151.454-3.228.74-2.158.569-4.293,1.242-6.492,1.81-.552.14-1.106.275-1.683.388a15.723,15.723,0,0,1-1.731.245l-3.285.333-8.113.82.663-1.885c.106-.313.2-.616.292-.907l.186-.613c.178-.607.343-1.217.492-1.826a29.323,29.323,0,0,0,.679-3.644,11.938,11.938,0,0,0-.019-3.458,3.547,3.547,0,0,0-.512-1.331,1.794,1.794,0,0,0-.4-.41c-.075-.054-.163-.087-.241-.139-.073-.032-.225-.072-.219-.079a.048.048,0,0,0-.033,0,.068.068,0,0,0-.019.009c-.023.023-.064.036-.109.081a4.48,4.48,0,0,0-.6.631c-.414.515-.819,1.1-1.226,1.683-.814,1.174-1.644,2.36-2.53,3.487a37.534,37.534,0,0,1-5.883,6.046,87.421,87.421,0,0,0-10.375,11.059c-.8.926-1.567,1.844-2.44,2.716a5.83,5.83,0,0,1-1.657,1.239,2.258,2.258,0,0,1-.287.114l-.221.051-.441.1c-.3.071-.571.116-.855.175-2.251.439-4.413.81-6.5,1.168-4.174.71-8.029,1.333-11.526,1.889-6.994,1.111-12.554,1.942-16.37,2.476-1.908.266-3.38.457-4.378.566a5.212,5.212,0,0,1-1.529.081" transform="translate(-32.259 -47.805)" fill="#3a201e"/>
          <path id="Trazado_995986" data-name="Trazado 995986" d="M262.722,251.517c.221.2-.065.848-.8,1.451a10.466,10.466,0,0,1-3.092,1.687,11.946,11.946,0,0,1-3.392.757c-.906.052-1.544-.136-1.567-.436s.4-.628,1.166-1.046a24.828,24.828,0,0,1,3.044-1.312c1.2-.445,2.309-.785,3.109-1s1.3-.311,1.528-.1" transform="translate(-53.521 -53)" fill="#3a201e"/>
          <path id="Trazado_995987" data-name="Trazado 995987" d="M142.363,270.242s-.024,35.689,12.6,46.869l8.713-3.687s-13.239-17.37-10.657-45.069Z" transform="translate(-30.012 -56.573)" fill="#f9c98a"/>
          <path id="Trazado_995988" data-name="Trazado 995988" d="M142.312,270.091a24.694,24.694,0,0,1,4.429-1.1l5.3-1.078,1.233-.234c.313-.154.165.212.185.392q-.017.326-.032.656-.041.932-.085,1.921c-.028,1.174-.161,2.41-.1,3.713a72.784,72.784,0,0,0,2.2,18.092,66.6,66.6,0,0,0,3.38,10.221c.71,1.727,1.537,3.44,2.426,5.148.465.841.918,1.7,1.433,2.526.249.417.5.834.779,1.245l.2.31.121.18.22.309.889,1.233-.954.4-5.975,2.524L154.8,317.88c-.061.05-.1,0-.144-.046l-.129-.126-.256-.249-.41-.4-.54-.53c-.352-.358-.657-.751-.984-1.123a33.806,33.806,0,0,1-5.29-9.87,70.48,70.48,0,0,1-2.665-9.678c-.635-3.072-1.067-5.959-1.385-8.6a122.585,122.585,0,0,1-.87-12.554,20.324,20.324,0,0,1,.182-4.614,32.6,32.6,0,0,1,.451,4.584c.241,2.947.608,7.212,1.378,12.43.388,2.608.882,5.454,1.564,8.47a72.7,72.7,0,0,0,2.753,9.443,45.683,45.683,0,0,0,2.133,4.829,27.561,27.561,0,0,0,2.979,4.544c.3.34.588.706.911,1.031l.495.479.109.107c.006.006.006,0,.006,0l2.238-.953,5.051-2.142-.293-.451c-.279-.417-.541-.849-.8-1.282-.533-.856-1-1.74-1.473-2.609-.908-1.758-1.748-3.519-2.465-5.292a65.669,65.669,0,0,1-3.364-10.48,69.806,69.806,0,0,1-1.891-18.461c-.027-1.323.144-2.575.214-3.762q.063-.78.122-1.515l.018-.171c0-.05.042-.151-.039-.114l-.332.043-5.228.786a24.694,24.694,0,0,1-4.539.484" transform="translate(-29.962 -56.422)" fill="#3a201e"/>
        </g>
      </g>
    </g>
  </g>
</svg>
