<svg xmlns="http://www.w3.org/2000/svg" xmlns:xlink="http://www.w3.org/1999/xlink" width="113" height="113" viewBox="0 0 113 113">
  <defs>
    <filter id="Trazado_982547" x="0" y="0" width="113" height="113" filterUnits="userSpaceOnUse">
      <feOffset dy="3" input="SourceAlpha"/>
      <feGaussianBlur stdDeviation="3" result="blur"/>
      <feFlood flood-opacity="0.161"/>
      <feComposite operator="in" in2="blur"/>
      <feComposite in="SourceGraphic"/>
    </filter>
  </defs>
  <g id="Grupo_1162287" data-name="Grupo 1162287" transform="translate(-323.882 -10819.154)">
    <g id="Grupo_1162127" data-name="Grupo 1162127" transform="translate(332.882 10825.154)">
      <g id="Grupo_1152576" data-name="Grupo 1152576" transform="translate(0)">
        <g id="Grupo_1148633" data-name="Grupo 1148633">
          <g id="Grupo_1148525" data-name="Grupo 1148525">
            <g transform="matrix(1, 0, 0, 1, -9, -6)" filter="url(#Trazado_982547)">
              <g id="Trazado_982547-2" data-name="Trazado 982547" transform="translate(9 6)" fill="#e8edf7">
                <path d="M 47.5 93.5 C 41.28937149047852 93.5 35.26533508300781 92.28397369384766 29.59518623352051 89.88570404052734 C 24.11771965026855 87.56893157958984 19.19813346862793 84.25196075439453 14.97309303283691 80.02691650390625 C 10.74804019927979 75.80186462402344 7.431066513061523 70.88229370117188 5.114293098449707 65.40481567382812 C 2.716026782989502 59.73468017578125 1.5 53.71062850952148 1.5 47.5 C 1.5 41.28937149047852 2.716026782989502 35.26533508300781 5.114293098449707 29.59518623352051 C 7.431066513061523 24.11771965026855 10.74804019927979 19.19813346862793 14.97309303283691 14.97309303283691 C 19.19813346862793 10.74804019927979 24.11771965026855 7.431066513061523 29.59518623352051 5.114293098449707 C 35.26533508300781 2.716026782989502 41.28937149047852 1.5 47.5 1.5 C 53.71062850952148 1.5 59.73468017578125 2.716026782989502 65.40481567382812 5.114293098449707 C 70.88229370117188 7.431066513061523 75.80186462402344 10.74804019927979 80.02691650390625 14.97309303283691 C 84.25196075439453 19.19813346862793 87.56893157958984 24.11771965026855 89.88570404052734 29.59518623352051 C 92.28397369384766 35.26533508300781 93.5 41.28937149047852 93.5 47.5 C 93.5 53.71062850952148 92.28397369384766 59.73468017578125 89.88570404052734 65.40481567382812 C 87.56893157958984 70.88229370117188 84.25196075439453 75.80186462402344 80.02691650390625 80.02691650390625 C 75.80186462402344 84.25196075439453 70.88229370117188 87.56893157958984 65.40481567382812 89.88570404052734 C 59.73468017578125 92.28397369384766 53.71062850952148 93.5 47.5 93.5 Z" stroke="none"/>
                <path d="M 47.5 3 C 41.49121475219727 3 35.66376876831055 4.176155090332031 30.17950439453125 6.495796203613281 C 24.88084411621094 8.736953735351562 20.12152099609375 11.94598388671875 16.03375244140625 16.03375244140625 C 11.94598388671875 20.12152099609375 8.736953735351562 24.88084411621094 6.495796203613281 30.17950439453125 C 4.176155090332031 35.66376876831055 3 41.49121475219727 3 47.5 C 3 53.50878524780273 4.176155090332031 59.33623123168945 6.495796203613281 64.82049560546875 C 8.736953735351562 70.11915588378906 11.94598388671875 74.87847900390625 16.03375244140625 78.96624755859375 C 20.12152099609375 83.05401611328125 24.88084411621094 86.26304626464844 30.17950439453125 88.50419616699219 C 35.66376876831055 90.82384490966797 41.49121475219727 92 47.5 92 C 53.50878524780273 92 59.33623123168945 90.82384490966797 64.82049560546875 88.50419616699219 C 70.11915588378906 86.26304626464844 74.87847900390625 83.05401611328125 78.96624755859375 78.96624755859375 C 83.05401611328125 74.87847900390625 86.26304626464844 70.11915588378906 88.50419616699219 64.82049560546875 C 90.82384490966797 59.33623123168945 92 53.50878524780273 92 47.5 C 92 41.49121475219727 90.82384490966797 35.66376876831055 88.50419616699219 30.17950439453125 C 86.26304626464844 24.88084411621094 83.05401611328125 20.12152099609375 78.96624755859375 16.03375244140625 C 74.87847900390625 11.94598388671875 70.11915588378906 8.736953735351562 64.82049560546875 6.495796203613281 C 59.33623123168945 4.176155090332031 53.50878524780273 3 47.5 3 M 47.5 0 C 73.7335205078125 0 95 21.2664794921875 95 47.5 C 95 73.7335205078125 73.7335205078125 95 47.5 95 C 21.2664794921875 95 0 73.7335205078125 0 47.5 C 0 21.2664794921875 21.2664794921875 0 47.5 0 Z" stroke="none" fill="#2e5bb6"/>
              </g>
            </g>
          </g>
        </g>
      </g>
    </g>
    <g id="solution_2464068" transform="translate(350 10841)">
      <g id="Grupo_1162285" data-name="Grupo 1162285">
        <g id="Grupo_1162279" data-name="Grupo 1162279">
          <path id="Trazado_995989" data-name="Trazado 995989" d="M58,55v7H40V55a1,1,0,0,1,1-1H57a.989.989,0,0,1,1,1Z" fill="#5cd6b3"/>
        </g>
        <g id="Grupo_1162280" data-name="Grupo 1162280">
          <path id="Trazado_995990" data-name="Trazado 995990" d="M61,34a3,3,0,0,0-3,3v3.49a3,3,0,0,1-1.2,2.41l-1.08.81A6.745,6.745,0,0,1,54.62,42,6.677,6.677,0,0,1,54,39.17V38H38v1.38A37.1,37.1,0,0,0,41,54H57a1.04,1.04,0,0,1,.69.27A17.058,17.058,0,0,0,62,42.93V35a1,1,0,0,0-1-1Z" fill="#f0d0b4"/>
        </g>
        <g id="Grupo_1162281" data-name="Grupo 1162281">
          <path id="Trazado_995991" data-name="Trazado 995991" d="M62,27.9V35a1,1,0,0,0-1-1,3,3,0,0,0-3,3v1H32V27.9a4.712,4.712,0,0,1-1,.1,5,5,0,0,1,0-10,4.712,4.712,0,0,1,1,.1V8H42.1A4.712,4.712,0,0,1,42,7,5,5,0,0,1,52,7a4.712,4.712,0,0,1-.1,1H60a2.006,2.006,0,0,1,2,2v8.1a4.712,4.712,0,0,0-1-.1,5,5,0,0,0,0,10A4.712,4.712,0,0,0,62,27.9Z" fill="#fcd770"/>
        </g>
        <g id="Grupo_1162282" data-name="Grupo 1162282">
          <path id="Trazado_995992" data-name="Trazado 995992" d="M31,18a4.712,4.712,0,0,1,1,.1V8H21.9A4.712,4.712,0,0,0,22,7,5,5,0,0,0,12,7a4.712,4.712,0,0,0,.1,1H4a2.006,2.006,0,0,0-2,2v8.1A4.712,4.712,0,0,1,3,18,5,5,0,0,1,3,28a4.712,4.712,0,0,1-1-.1V38H32V27.9a4.712,4.712,0,0,1-1,.1,5,5,0,0,1,0-10Z" fill="#ffeaa7"/>
        </g>
        <g id="Grupo_1162283" data-name="Grupo 1162283">
          <path id="Trazado_995993" data-name="Trazado 995993" d="M24,55v7H6V55a.989.989,0,0,1,1-1H23A1,1,0,0,1,24,55Z" fill="#5cd6b3"/>
        </g>
        <g id="Grupo_1162284" data-name="Grupo 1162284">
          <path id="Trazado_995994" data-name="Trazado 995994" d="M22,34a2.006,2.006,0,0,1,2-2,2.015,2.015,0,0,1,2,2v5.38A37.1,37.1,0,0,1,23,54H7a1.04,1.04,0,0,0-.69.27A17.058,17.058,0,0,1,2,42.93V35a1,1,0,0,1,1-1,3,3,0,0,1,3,3v5.01A2,2,0,0,0,8.01,44h.05A1.942,1.942,0,0,0,10,42.06V30a2.015,2.015,0,0,1,2-2,2.006,2.006,0,0,1,2,2V28a2.015,2.015,0,0,1,2-2,2.006,2.006,0,0,1,2,2v2a2.015,2.015,0,0,1,2-2,2.006,2.006,0,0,1,2,2Z" fill="#f0d0b4"/>
        </g>
      </g>
      <g id="Grupo_1162286" data-name="Grupo 1162286">
        <path id="Trazado_995995" data-name="Trazado 995995" d="M61,19a3.671,3.671,0,0,1,.785.077L63,19.344V10a3,3,0,0,0-3-3H53A6,6,0,0,0,41,7H23A6,6,0,0,0,11,7H4a3,3,0,0,0-3,3v9.344l1.215-.267A3.671,3.671,0,0,1,3,19a4,4,0,0,1,0,8,3.73,3.73,0,0,1-.787-.077L1,26.658V42.929A18.032,18.032,0,0,0,5.11,54.374,1.97,1.97,0,0,0,5,55v8H25V55a1.99,1.99,0,0,0-.716-1.521A37.856,37.856,0,0,0,27,39.384V39H37v.384a37.856,37.856,0,0,0,2.716,14.1A1.99,1.99,0,0,0,39,55v8H59V55a1.969,1.969,0,0,0-.11-.626A18.036,18.036,0,0,0,63,42.929V26.658l-1.213.265A3.73,3.73,0,0,1,61,27a4,4,0,0,1,0-8ZM23,61H7V55H23Zm2-21.616A35.887,35.887,0,0,1,22.323,53H7a2.015,2.015,0,0,0-.4.04A16.039,16.039,0,0,1,3,42.929V35a2,2,0,0,1,2,2v5.01A3.015,3.015,0,0,0,8.055,45,2.945,2.945,0,0,0,11,42.059V30a1,1,0,0,1,2,0V41h2V28a1,1,0,0,1,2,0V41h2V30a1,1,0,0,1,2,0V41h2V34a1,1,0,0,1,2,0ZM9,42.06a.934.934,0,0,1-.276.664A.974.974,0,0,1,8.01,43,.991.991,0,0,1,7,42.006V39H9ZM24,31a2.966,2.966,0,0,0-1,.184V30a2.99,2.99,0,0,0-4.116-2.78,2.983,2.983,0,0,0-5.768,0A2.99,2.99,0,0,0,9,30v7H7v0a4,4,0,0,0-4-4V29A6,6,0,0,0,3,17V10A1,1,0,0,1,4,9h9.342l-.265-1.213A3.73,3.73,0,0,1,13,7a4,4,0,0,1,8,0,3.73,3.73,0,0,1-.077.787L20.658,9H31v8a6,6,0,0,0,0,12v8H27V34A3,3,0,0,0,24,31ZM57,61H41V55H57Zm4-18.071a16.044,16.044,0,0,1-3.6,10.112A1.943,1.943,0,0,0,57,53H41.677A35.88,35.88,0,0,1,39,39.384V39h2v4H54.008c.111.2.231.39.359.578A5.022,5.022,0,0,0,53,47h2a3.015,3.015,0,0,1,1.2-2.4l1.2-.9A4.027,4.027,0,0,0,59,40.493V37A2.007,2.007,0,0,1,61,35ZM56.2,42.1l-.273.205A5.813,5.813,0,0,1,55,39.171V39h2v1.492a2.018,2.018,0,0,1-.8,1.608ZM53.224,41H51V39h2v.171A7.821,7.821,0,0,0,53.224,41ZM49,41H47V39h2Zm-4,0H43V39h2ZM61,29v4a4.007,4.007,0,0,0-4,4H33V26.658l-1.213.265A3.73,3.73,0,0,1,31,27a4,4,0,0,1,0-8,3.671,3.671,0,0,1,.785.077L33,19.344V9H43.342l-.265-1.213A3.73,3.73,0,0,1,43,7a4,4,0,0,1,8,0,3.73,3.73,0,0,1-.077.787L50.658,9H60a1,1,0,0,1,1,1v7a6,6,0,0,0,0,12Z"/>
        <path id="Trazado_995996" data-name="Trazado 995996" d="M43.059,44.5l-.5-.336-1.109,1.664.5.336A4.6,4.6,0,0,1,44,50h2a6.592,6.592,0,0,0-2.941-5.5Z"/>
      </g>
    </g>
  </g>
</svg>
