<svg xmlns="http://www.w3.org/2000/svg" xmlns:xlink="http://www.w3.org/1999/xlink" width="113" height="113" viewBox="0 0 113 113">
  <defs>
    <filter id="Trazado_982547" x="0" y="0" width="113" height="113" filterUnits="userSpaceOnUse">
      <feOffset dy="3" input="SourceAlpha"/>
      <feGaussianBlur stdDeviation="3" result="blur"/>
      <feFlood flood-opacity="0.161"/>
      <feComposite operator="in" in2="blur"/>
      <feComposite in="SourceGraphic"/>
    </filter>
  </defs>
  <g id="Grupo_1162340" data-name="Grupo 1162340" transform="translate(-743.882 -10819.154)">
    <g id="Grupo_1162128" data-name="Grupo 1162128" transform="translate(752.882 10825.154)">
      <g id="Grupo_1152576" data-name="Grupo 1152576" transform="translate(0)">
        <g id="Grupo_1148633" data-name="Grupo 1148633">
          <g id="Grupo_1148525" data-name="Grupo 1148525">
            <g transform="matrix(1, 0, 0, 1, -9, -6)" filter="url(#Trazado_982547)">
              <g id="Trazado_982547-2" data-name="Trazado 982547" transform="translate(9 6)" fill="#e8edf7">
                <path d="M 47.5 93.5 C 41.28937149047852 93.5 35.26533508300781 92.28397369384766 29.59518623352051 89.88570404052734 C 24.11771965026855 87.56893157958984 19.19813346862793 84.25196075439453 14.97309303283691 80.02691650390625 C 10.74804019927979 75.80186462402344 7.431066513061523 70.88229370117188 5.114293098449707 65.40481567382812 C 2.716026782989502 59.73468017578125 1.5 53.71062850952148 1.5 47.5 C 1.5 41.28937149047852 2.716026782989502 35.26533508300781 5.114293098449707 29.59518623352051 C 7.431066513061523 24.11771965026855 10.74804019927979 19.19813346862793 14.97309303283691 14.97309303283691 C 19.19813346862793 10.74804019927979 24.11771965026855 7.431066513061523 29.59518623352051 5.114293098449707 C 35.26533508300781 2.716026782989502 41.28937149047852 1.5 47.5 1.5 C 53.71062850952148 1.5 59.73468017578125 2.716026782989502 65.40481567382812 5.114293098449707 C 70.88229370117188 7.431066513061523 75.80186462402344 10.74804019927979 80.02691650390625 14.97309303283691 C 84.25196075439453 19.19813346862793 87.56893157958984 24.11771965026855 89.88570404052734 29.59518623352051 C 92.28397369384766 35.26533508300781 93.5 41.28937149047852 93.5 47.5 C 93.5 53.71062850952148 92.28397369384766 59.73468017578125 89.88570404052734 65.40481567382812 C 87.56893157958984 70.88229370117188 84.25196075439453 75.80186462402344 80.02691650390625 80.02691650390625 C 75.80186462402344 84.25196075439453 70.88229370117188 87.56893157958984 65.40481567382812 89.88570404052734 C 59.73468017578125 92.28397369384766 53.71062850952148 93.5 47.5 93.5 Z" stroke="none"/>
                <path d="M 47.5 3 C 41.49121475219727 3 35.66376876831055 4.176155090332031 30.17950439453125 6.495796203613281 C 24.88084411621094 8.736953735351562 20.12152099609375 11.94598388671875 16.03375244140625 16.03375244140625 C 11.94598388671875 20.12152099609375 8.736953735351562 24.88084411621094 6.495796203613281 30.17950439453125 C 4.176155090332031 35.66376876831055 3 41.49121475219727 3 47.5 C 3 53.50878524780273 4.176155090332031 59.33623123168945 6.495796203613281 64.82049560546875 C 8.736953735351562 70.11915588378906 11.94598388671875 74.87847900390625 16.03375244140625 78.96624755859375 C 20.12152099609375 83.05401611328125 24.88084411621094 86.26304626464844 30.17950439453125 88.50419616699219 C 35.66376876831055 90.82384490966797 41.49121475219727 92 47.5 92 C 53.50878524780273 92 59.33623123168945 90.82384490966797 64.82049560546875 88.50419616699219 C 70.11915588378906 86.26304626464844 74.87847900390625 83.05401611328125 78.96624755859375 78.96624755859375 C 83.05401611328125 74.87847900390625 86.26304626464844 70.11915588378906 88.50419616699219 64.82049560546875 C 90.82384490966797 59.33623123168945 92 53.50878524780273 92 47.5 C 92 41.49121475219727 90.82384490966797 35.66376876831055 88.50419616699219 30.17950439453125 C 86.26304626464844 24.88084411621094 83.05401611328125 20.12152099609375 78.96624755859375 16.03375244140625 C 74.87847900390625 11.94598388671875 70.11915588378906 8.736953735351562 64.82049560546875 6.495796203613281 C 59.33623123168945 4.176155090332031 53.50878524780273 3 47.5 3 M 47.5 0 C 73.7335205078125 0 95 21.2664794921875 95 47.5 C 95 73.7335205078125 73.7335205078125 95 47.5 95 C 21.2664794921875 95 0 73.7335205078125 0 47.5 C 0 21.2664794921875 21.2664794921875 0 47.5 0 Z" stroke="none" fill="#2e5bb6"/>
              </g>
            </g>
          </g>
        </g>
      </g>
    </g>
    <g id="work_10885928" transform="translate(454 10810.648)">
      <g id="Icon">
        <path id="Trazado_995997" data-name="Trazado 995997" d="M349,68v0a3,3,0,0,1-3,3h0a3,3,0,0,1-3-3v0h-2c-4.678,0-8.674,3.735-10.264,9H334v8h24V77h3.264c-1.59-5.265-5.586-9-10.264-9Z" fill="#9ebff4" fill-rule="evenodd"/>
        <g id="Grupo_1162288" data-name="Grupo 1162288">
          <path id="Trazado_995998" data-name="Trazado 995998" d="M353,53.312A2.311,2.311,0,0,0,350.688,51h-9.376A2.311,2.311,0,0,0,339,53.312V59a7,7,0,0,0,14,0V53.312Z" fill="#fbea99" fill-rule="evenodd"/>
          <path id="Trazado_995999" data-name="Trazado 995999" d="M373,38.312A2.311,2.311,0,0,0,370.688,36h-9.376A2.311,2.311,0,0,0,359,38.312V44a7,7,0,0,0,14,0V38.312Z" fill="#fbea99" fill-rule="evenodd"/>
          <path id="Trazado_996000" data-name="Trazado 996000" d="M319,38.312A2.311,2.311,0,0,1,321.312,36h9.376A2.311,2.311,0,0,1,333,38.312V44a7,7,0,0,1-14,0V38.312Z" fill="#fbea99" fill-rule="evenodd"/>
          <path id="Trazado_996001" data-name="Trazado 996001" d="M359,40h-2a2,2,0,0,0,0,4h2Z" fill="#fbea99" fill-rule="evenodd"/>
          <path id="Trazado_996002" data-name="Trazado 996002" d="M333,40h2a2,2,0,0,1,0,4h-2Z" fill="#fbea99" fill-rule="evenodd"/>
          <path id="Trazado_996003" data-name="Trazado 996003" d="M373,40h2a2,2,0,0,1,0,4h-2Z" fill="#fbea99" fill-rule="evenodd"/>
          <path id="Trazado_996004" data-name="Trazado 996004" d="M319,40h-2a2,2,0,0,0,0,4h2Z" fill="#fbea99" fill-rule="evenodd"/>
        </g>
        <g id="Grupo_1162289" data-name="Grupo 1162289" transform="translate(284)">
          <path id="Trazado_996005" data-name="Trazado 996005" d="M75,40H73a1.983,1.983,0,0,0-1,.268V38a7,7,0,0,1,7-7h6a7,7,0,0,1,7,7v2.268A1.983,1.983,0,0,0,91,40H89V38.312A2.311,2.311,0,0,0,86.688,36H77.312A2.311,2.311,0,0,0,75,38.312Z" fill="#595959" fill-rule="evenodd"/>
        </g>
        <g id="Grupo_1162290" data-name="Grupo 1162290" transform="translate(408) rotate(180)">
          <path id="Trazado_996006" data-name="Trazado 996006" d="M75-40H73a1.983,1.983,0,0,1-1-.268V-38a7,7,0,0,0,2.05,4.95A7,7,0,0,0,79-31h6a7,7,0,0,0,4.95-2.05A7,7,0,0,0,92-38v-2.268A1.983,1.983,0,0,1,91-40H89v1.688a2.316,2.316,0,0,1-.677,1.635A2.316,2.316,0,0,1,86.688-36H77.312a2.316,2.316,0,0,1-1.635-.677A2.316,2.316,0,0,1,75-38.312Z" fill="#595959" fill-rule="evenodd"/>
        </g>
        <path id="Trazado_996007" data-name="Trazado 996007" d="M376,87a2,2,0,0,0-2-2H318a2,2,0,0,0-2,2v4a2,2,0,0,0,2,2h56a2,2,0,0,0,2-2Z" fill="#55a37b" fill-rule="evenodd"/>
        <g id="Grupo_1162291" data-name="Grupo 1162291" transform="translate(-50 -13.286)">
          <circle id="Elipse_12036" data-name="Elipse 12036" cx="4.001" cy="4.001" r="4.001" transform="translate(392.049 98.298)" fill="#e6e6e6"/>
        </g>
        <g id="Grupo_1162292" data-name="Grupo 1162292" transform="translate(-67 -13.286)">
          <circle id="Elipse_12037" data-name="Elipse 12037" cx="4.001" cy="4.001" r="4.001" transform="translate(392.049 98.298)" fill="#e6e6e6"/>
        </g>
        <g id="Grupo_1162293" data-name="Grupo 1162293" transform="translate(-33 -13.286)">
          <circle id="Elipse_12038" data-name="Elipse 12038" cx="4.001" cy="4.001" r="4.001" transform="translate(392.049 98.298)" fill="#e6e6e6"/>
        </g>
        <g id="Grupo_1162294" data-name="Grupo 1162294" transform="translate(-68 -19)">
          <path id="Trazado_996008" data-name="Trazado 996008" d="M408,96.018h12v8H408Z" fill="#ee6158" fill-rule="evenodd"/>
        </g>
        <g id="Grupo_1162295" data-name="Grupo 1162295" transform="translate(-50 -19)">
          <path id="Trazado_996009" data-name="Trazado 996009" d="M408,96.018h12v8H408Z" fill="#ee6158" fill-rule="evenodd"/>
        </g>
        <g id="Grupo_1162296" data-name="Grupo 1162296" transform="translate(-86 -19)">
          <path id="Trazado_996010" data-name="Trazado 996010" d="M408,96.018h12v8H408Z" fill="#ee6158" fill-rule="evenodd"/>
        </g>
        <g id="Grupo_1162297" data-name="Grupo 1162297" transform="translate(0 -1)">
          <path id="Trazado_996011" data-name="Trazado 996011" d="M344,78h4v4h-4Z" fill="#e6e6e6" fill-rule="evenodd"/>
        </g>
        <g id="Grupo_1162298" data-name="Grupo 1162298" transform="translate(18 -1)">
          <path id="Trazado_996012" data-name="Trazado 996012" d="M344,78h4v4h-4Z" fill="#e6e6e6" fill-rule="evenodd"/>
        </g>
        <g id="Grupo_1162299" data-name="Grupo 1162299" transform="translate(-18 -1)">
          <path id="Trazado_996013" data-name="Trazado 996013" d="M344,78h4v4h-4Z" fill="#e6e6e6" fill-rule="evenodd"/>
        </g>
        <path id="Trazado_996014" data-name="Trazado 996014" d="M339,55h-2.038A1.963,1.963,0,0,0,335,56.962v0A2.037,2.037,0,0,0,337.036,59H339Z" fill="#fbea99" fill-rule="evenodd"/>
        <path id="Trazado_996015" data-name="Trazado 996015" d="M353,55h2.038A1.963,1.963,0,0,1,357,56.962v0A2.037,2.037,0,0,1,354.964,59H353Z" fill="#fbea99" fill-rule="evenodd"/>
        <g id="Grupo_1162300" data-name="Grupo 1162300" transform="translate(273 -18)">
          <path id="Trazado_996016" data-name="Trazado 996016" d="M80,75V71.312A2.311,2.311,0,0,0,77.688,69H68.312A2.312,2.312,0,0,0,67,69.408V65.8A1.8,1.8,0,0,1,68.8,64H79a4,4,0,0,1,4,4v5.252A1.959,1.959,0,0,0,82.038,73H80Z" fill="#595959" fill-rule="evenodd"/>
        </g>
        <g id="Grupo_1162301" data-name="Grupo 1162301" transform="translate(273 -18)">
          <path id="Trazado_996017" data-name="Trazado 996017" d="M67.049,65.38A1.815,1.815,0,0,0,67,65.8v3.608a2.312,2.312,0,0,0-1,1.9V73H64a1.983,1.983,0,0,0-1,.268V70c0-2.613,1.67-3.835,4-4.659Z" fill="#595959" fill-rule="evenodd"/>
        </g>
        <path id="Trazado_996018" data-name="Trazado 996018" d="M343,65.326V68a3,3,0,0,0,3,3h0a3,3,0,0,0,3-3V65.326a7.014,7.014,0,0,1-6,0Z" fill="#fbea99" fill-rule="evenodd"/>
        <g id="Grupo_1162302" data-name="Grupo 1162302" transform="translate(246.455 -22.929)">
          <path id="Trazado_996019" data-name="Trazado 996019" d="M87.565,61.216a3.311,3.311,0,0,0-3.314-3.31H74.874a3.311,3.311,0,0,0-3.314,3.31V66.9a8,8,0,0,0,16,0Zm-8,11.684a6,6,0,0,1-6-6V61.216A1.313,1.313,0,0,1,74.874,59.9h9.377a1.313,1.313,0,0,1,1.312,1.312V66.9a6,6,0,0,1-6,6Z" fill-rule="evenodd"/>
        </g>
        <g id="Grupo_1162303" data-name="Grupo 1162303" transform="translate(266.455 -7.929)">
          <path id="Trazado_996020" data-name="Trazado 996020" d="M87.565,61.216a3.311,3.311,0,0,0-3.314-3.31H74.874a3.311,3.311,0,0,0-3.314,3.31V66.9a8,8,0,0,0,16,0Zm-8,11.684a6,6,0,0,1-6-6V61.216A1.313,1.313,0,0,1,74.874,59.9h9.377a1.313,1.313,0,0,1,1.312,1.312V66.9a6,6,0,0,1-6,6Z" fill-rule="evenodd"/>
        </g>
        <g id="Grupo_1162304" data-name="Grupo 1162304" transform="translate(286.455 -22.929)">
          <path id="Trazado_996021" data-name="Trazado 996021" d="M87.565,61.216a3.311,3.311,0,0,0-3.314-3.31H74.874a3.311,3.311,0,0,0-3.314,3.31V66.9a8,8,0,0,0,16,0Zm-8,11.684a6,6,0,0,1-6-6V61.216A1.313,1.313,0,0,1,74.874,59.9h9.377a1.313,1.313,0,0,1,1.312,1.312V66.9a6,6,0,0,1-6,6Z" fill-rule="evenodd"/>
        </g>
        <g id="Grupo_1162305" data-name="Grupo 1162305" transform="translate(318.5 -15)">
          <circle id="Elipse_12039" data-name="Elipse 12039" cx="1" cy="1" r="1" transform="translate(44 57)"/>
        </g>
        <g id="Grupo_1162306" data-name="Grupo 1162306" transform="translate(373.5 -15) rotate(180)">
          <circle id="Elipse_12040" data-name="Elipse 12040" cx="1" cy="1" r="1" transform="translate(44 -59)"/>
        </g>
        <g id="Grupo_1162307" data-name="Grupo 1162307" transform="translate(322.5 -15)">
          <circle id="Elipse_12041" data-name="Elipse 12041" cx="1" cy="1" r="1" transform="translate(44 57)"/>
        </g>
        <g id="Grupo_1162308" data-name="Grupo 1162308" transform="translate(369.5 -15) rotate(180)">
          <circle id="Elipse_12042" data-name="Elipse 12042" cx="1" cy="1" r="1" transform="translate(44 -59)"/>
        </g>
        <g id="Grupo_1162309" data-name="Grupo 1162309" transform="translate(322.833 97.25)">
          <path id="Trazado_996022" data-name="Trazado 996022" d="M38.87-56.551l1.5.5a1,1,0,0,0,1.265-.633A1,1,0,0,0,41-57.949l-1.5-.5a1,1,0,0,0-1.265.633A1,1,0,0,0,38.87-56.551Z" fill-rule="evenodd"/>
        </g>
        <g id="Grupo_1162310" data-name="Grupo 1162310" transform="translate(369.167 97.25) rotate(180)">
          <path id="Trazado_996023" data-name="Trazado 996023" d="M39.5,58.449l1.5-.5a1,1,0,1,0-.632-1.9l-1.5.5a1,1,0,1,0,.632,1.9Z" fill-rule="evenodd"/>
        </g>
        <g id="Grupo_1162311" data-name="Grupo 1162311" transform="translate(408.167 97.25) rotate(180)">
          <path id="Trazado_996024" data-name="Trazado 996024" d="M39.5,58.449l1.5-.5a1,1,0,1,0-.632-1.9l-1.5.5a1,1,0,1,0,.632,1.9Z" fill-rule="evenodd"/>
        </g>
        <g id="Grupo_1162312" data-name="Grupo 1162312" transform="translate(283.833 97.25)">
          <path id="Trazado_996025" data-name="Trazado 996025" d="M38.87-56.551l1.5.5a1,1,0,0,0,1.265-.633A1,1,0,0,0,41-57.949l-1.5-.5a1,1,0,0,0-1.265.633A1,1,0,0,0,38.87-56.551Z" fill-rule="evenodd"/>
        </g>
        <g id="Grupo_1162313" data-name="Grupo 1162313" transform="translate(304 -18)">
          <path id="Trazado_996026" data-name="Trazado 996026" d="M56,58a1,1,0,0,0-1-1H53a3,3,0,0,0,0,6h2a1,1,0,0,0,1-1Zm-2,1v2H53a1,1,0,0,1-1-1h0a1,1,0,0,1,1-1Z" fill-rule="evenodd"/>
        </g>
        <g id="Grupo_1162314" data-name="Grupo 1162314" transform="translate(388 -18) rotate(180)">
          <path id="Trazado_996027" data-name="Trazado 996027" d="M55-57a1,1,0,0,0,1-1v-4a1,1,0,0,0-1-1H53a3,3,0,0,0-3,3,3,3,0,0,0,3,3Zm-1-2H53a1,1,0,0,1-1-1,1,1,0,0,1,1-1h1Z" fill-rule="evenodd"/>
        </g>
        <g id="Grupo_1162315" data-name="Grupo 1162315" transform="translate(428 -18) rotate(180)">
          <path id="Trazado_996028" data-name="Trazado 996028" d="M55-57a1,1,0,0,0,1-1v-4a1,1,0,0,0-1-1H53a3,3,0,0,0-3,3,3,3,0,0,0,3,3Zm-1-2H53a1,1,0,0,1-1-1,1,1,0,0,1,1-1h1Z" fill-rule="evenodd"/>
        </g>
        <g id="Grupo_1162316" data-name="Grupo 1162316" transform="translate(264 -18)">
          <path id="Trazado_996029" data-name="Trazado 996029" d="M56,58a1,1,0,0,0-1-1H53a3,3,0,0,0-3,3h0a3,3,0,0,0,3,3h2a1,1,0,0,0,1-1Zm-2,1v2H53a1,1,0,0,1,0-2Z" fill-rule="evenodd"/>
        </g>
        <g id="Grupo_1162317" data-name="Grupo 1162317" transform="translate(284)">
          <path id="Trazado_996030" data-name="Trazado 996030" d="M90,41.5V41h1a.992.992,0,0,1,.5.133,1,1,0,0,0,1.5-.865V38a8,8,0,0,0-8-8H79a8,8,0,0,0-8,8v2.268a1,1,0,0,0,1.5.865A.992.992,0,0,1,73,41h2a1,1,0,0,0,1-1V38.312A1.311,1.311,0,0,1,77.312,37h9.376A1.311,1.311,0,0,1,88,38.312V41.5ZM90,39v-.688A3.312,3.312,0,0,0,86.688,35H77.312A3.312,3.312,0,0,0,74,38.312V39H73V38a6,6,0,0,1,6-6h6a6,6,0,0,1,6,6v1Z" fill-rule="evenodd"/>
        </g>
        <g id="Grupo_1162318" data-name="Grupo 1162318" transform="translate(408) rotate(180)">
          <path id="Trazado_996031" data-name="Trazado 996031" d="M89-42.5a1,1,0,0,1,1,1v.5h1a.992.992,0,0,0,.5-.133,1,1,0,0,1,1,0,1,1,0,0,1,.5.866V-38a8,8,0,0,1-2.343,5.657A8,8,0,0,1,85-30H79a8,8,0,0,1-5.657-2.343A8,8,0,0,1,71-38v-2.268a1,1,0,0,1,.5-.866,1,1,0,0,1,1,0A.992.992,0,0,0,73-41h2a1,1,0,0,1,1,1v1.688a1.312,1.312,0,0,0,.384.928,1.312,1.312,0,0,0,.928.384h9.376a1.312,1.312,0,0,0,.928-.384A1.312,1.312,0,0,0,88-38.312V-41.5ZM73-39h1v.688a3.313,3.313,0,0,0,.97,2.342,3.313,3.313,0,0,0,2.342.97h9.376a3.313,3.313,0,0,0,2.342-.97A3.313,3.313,0,0,0,90-38.312V-39h1v1a6,6,0,0,1-1.757,4.243A6,6,0,0,1,85-32H79a6,6,0,0,1-4.243-1.757A6,6,0,0,1,73-38Z" fill-rule="evenodd"/>
        </g>
        <g id="Grupo_1162319" data-name="Grupo 1162319" transform="translate(11.161 -13.286)">
          <path id="Trazado_996032" data-name="Trazado 996032" d="M365.936,100.3a3,3,0,0,0-3-3H306.921a3,3,0,0,0-3,3v4a3,3,0,0,0,3,3h56.014a3,3,0,0,0,3-3Zm-2,0v4a1,1,0,0,1-1,1H306.921a1,1,0,0,1-1-1v-4a1,1,0,0,1,1-1h56.014A1,1,0,0,1,363.936,100.3Z" fill-rule="evenodd"/>
        </g>
        <g id="Grupo_1162320" data-name="Grupo 1162320" transform="translate(-50 -13.286)">
          <path id="Trazado_996033" data-name="Trazado 996033" d="M396.049,97.3a5,5,0,1,0,5,5A5,5,0,0,0,396.049,97.3Zm0,2a3,3,0,1,1-3,3A3,3,0,0,1,396.049,99.3Z" fill-rule="evenodd"/>
        </g>
        <g id="Grupo_1162321" data-name="Grupo 1162321" transform="translate(-67 -13.286)">
          <path id="Trazado_996034" data-name="Trazado 996034" d="M396.049,97.3a5,5,0,1,0,5,5A5,5,0,0,0,396.049,97.3Zm0,2a3,3,0,1,1-3,3A3,3,0,0,1,396.049,99.3Z" fill-rule="evenodd"/>
        </g>
        <g id="Grupo_1162322" data-name="Grupo 1162322" transform="translate(-33 -13.286)">
          <path id="Trazado_996035" data-name="Trazado 996035" d="M396.049,97.3a5,5,0,1,0,5,5A5,5,0,0,0,396.049,97.3Zm0,2a3,3,0,1,1-3,3A3,3,0,0,1,396.049,99.3Z" fill-rule="evenodd"/>
        </g>
        <g id="Grupo_1162323" data-name="Grupo 1162323" transform="translate(-68 -19)">
          <path id="Trazado_996036" data-name="Trazado 996036" d="M421,96.018a1,1,0,0,0-1-1H408a1,1,0,0,0-1,1v8a1,1,0,0,0,1,1h12a1,1,0,0,0,1-1Zm-2,1v6H409v-6Z" fill-rule="evenodd"/>
        </g>
        <g id="Grupo_1162324" data-name="Grupo 1162324" transform="translate(-50 -19)">
          <path id="Trazado_996037" data-name="Trazado 996037" d="M421,96.018a1,1,0,0,0-1-1H408a1,1,0,0,0-1,1v8a1,1,0,0,0,1,1h12a1,1,0,0,0,1-1Zm-2,1v6H409v-6Z" fill-rule="evenodd"/>
        </g>
        <g id="Grupo_1162325" data-name="Grupo 1162325" transform="translate(-86 -19)">
          <path id="Trazado_996038" data-name="Trazado 996038" d="M421,96.018a1,1,0,0,0-1-1H408a1,1,0,0,0-1,1v8a1,1,0,0,0,1,1h12a1,1,0,0,0,1-1Zm-2,1v6H409v-6Z" fill-rule="evenodd"/>
        </g>
        <g id="Grupo_1162326" data-name="Grupo 1162326" transform="translate(-57.667 -1)">
          <path id="Trazado_996039" data-name="Trazado 996039" d="M396.78,79h14a1,1,0,1,0,0-2h-14a1,1,0,1,0,0,2Z" fill-rule="evenodd"/>
        </g>
        <g id="Grupo_1162327" data-name="Grupo 1162327" transform="translate(-39.667 -1)">
          <path id="Trazado_996040" data-name="Trazado 996040" d="M396.78,79h14a1,1,0,1,0,0-2h-14a1,1,0,1,0,0,2Z" fill-rule="evenodd"/>
        </g>
        <g id="Grupo_1162328" data-name="Grupo 1162328" transform="translate(-75.667 -1)">
          <path id="Trazado_996041" data-name="Trazado 996041" d="M396.78,79h14a1,1,0,1,0,0-2h-14a1,1,0,1,0,0,2Z" fill-rule="evenodd"/>
        </g>
        <g id="Grupo_1162329" data-name="Grupo 1162329" transform="translate(0 -1)">
          <path id="Trazado_996042" data-name="Trazado 996042" d="M349,78a1,1,0,0,0-1-1h-4a1,1,0,0,0-1,1v4a1,1,0,0,0,1,1h4a1,1,0,0,0,1-1Zm-2,1v2h-2V79Z" fill-rule="evenodd"/>
        </g>
        <g id="Grupo_1162330" data-name="Grupo 1162330" transform="translate(18 -1)">
          <path id="Trazado_996043" data-name="Trazado 996043" d="M349,78a1,1,0,0,0-1-1h-4a1,1,0,0,0-1,1v4a1,1,0,0,0,1,1h4a1,1,0,0,0,1-1Zm-2,1v2h-2V79Z" fill-rule="evenodd"/>
        </g>
        <g id="Grupo_1162331" data-name="Grupo 1162331" transform="translate(-18 -1)">
          <path id="Trazado_996044" data-name="Trazado 996044" d="M349,78a1,1,0,0,0-1-1h-4a1,1,0,0,0-1,1v4a1,1,0,0,0,1,1h4a1,1,0,0,0,1-1Zm-2,1v2h-2V79Z" fill-rule="evenodd"/>
        </g>
        <path id="Trazado_996045" data-name="Trazado 996045" d="M348,68v0a1,1,0,0,1,1-1h2c5.085,0,9.492,3.987,11.222,9.711A1,1,0,0,1,361.264,78H359v7a1,1,0,0,1-1,1H334a1,1,0,0,1-1-1V78h-2.264c-.317,0-1.049-.986-.958-1.289C331.508,70.987,335.915,67,341,67h2c-.552,0,1,.091,1,1v.011A2,2,0,0,0,346,70h0a2,2,0,0,0,2-2Zm1.873,1H351c3.879,0,7.191,2.872,8.854,7H358a1,1,0,0,0-1,1v7H335V77a1,1,0,0,0-1-1h-1.854c1.663-4.128,4.975-7,8.854-7h1.127A4,4,0,0,0,346,72h0a4,4,0,0,0,3.871-3Z" fill-rule="evenodd"/>
        <g id="Grupo_1162332" data-name="Grupo 1162332" transform="translate(299)">
          <circle id="Elipse_12043" data-name="Elipse 12043" cx="1" cy="1" r="1" transform="translate(44 57)"/>
        </g>
        <g id="Grupo_1162333" data-name="Grupo 1162333" transform="translate(303)">
          <circle id="Elipse_12044" data-name="Elipse 12044" cx="1" cy="1" r="1" transform="translate(44 57)"/>
        </g>
        <g id="Grupo_1162334" data-name="Grupo 1162334" transform="translate(303.333 -2.25)">
          <path id="Trazado_996046" data-name="Trazado 996046" d="M39.5,58.449l1.5-.5a1,1,0,1,0-.632-1.9l-1.5.5a1,1,0,1,0,.632,1.9Z" fill-rule="evenodd"/>
        </g>
        <g id="Grupo_1162335" data-name="Grupo 1162335" transform="translate(388.667 -2.25) rotate(180)">
          <path id="Trazado_996047" data-name="Trazado 996047" d="M38.87-56.551l1.5.5a1,1,0,0,0,1.265-.633A1,1,0,0,0,41-57.949l-1.5-.5a1,1,0,0,0-1.265.633A1,1,0,0,0,38.87-56.551Z" fill-rule="evenodd"/>
        </g>
        <g id="Grupo_1162336" data-name="Grupo 1162336" transform="translate(284 -3)">
          <path id="Trazado_996048" data-name="Trazado 996048" d="M56,58a1,1,0,0,0-1-1H52.962A2.964,2.964,0,0,0,50,59.962v0A3.036,3.036,0,0,0,53.036,63H55a1,1,0,0,0,1-1Zm-2,1v2h-.964A1.036,1.036,0,0,1,52,59.964v0A.963.963,0,0,1,52.962,59Z" fill-rule="evenodd"/>
        </g>
        <g id="Grupo_1162337" data-name="Grupo 1162337" transform="translate(408 -3) rotate(180)">
          <path id="Trazado_996049" data-name="Trazado 996049" d="M55-57a1,1,0,0,0,1-1v-4a1,1,0,0,0-1-1H53.036A3.036,3.036,0,0,0,50-59.964v0a2.958,2.958,0,0,0,.868,2.094A2.958,2.958,0,0,0,52.962-57Zm-1-2H52.962a.959.959,0,0,1-.68-.282.959.959,0,0,1-.282-.68v0A1.036,1.036,0,0,1,53.036-61H54Z" fill-rule="evenodd"/>
        </g>
        <g id="Grupo_1162338" data-name="Grupo 1162338" transform="translate(273 -18)">
          <path id="Trazado_996050" data-name="Trazado 996050" d="M79,71.312A1.311,1.311,0,0,0,77.688,70H68.312a1.308,1.308,0,0,0-.744.232A1,1,0,0,1,66,69.408V65.8A2.8,2.8,0,0,1,68.8,63H79a5,5,0,0,1,5,5v5.252a1,1,0,0,1-1.49.872A.956.956,0,0,0,82.038,74H81v1H79ZM82,72H81v-.688A3.312,3.312,0,0,0,77.688,68H68.312q-.158,0-.312.015V65.8a.8.8,0,0,1,.8-.8H79a3,3,0,0,1,3,3Z" fill-rule="evenodd"/>
        </g>
        <g id="Grupo_1162339" data-name="Grupo 1162339" transform="translate(273 -18)">
          <path id="Trazado_996051" data-name="Trazado 996051" d="M67.617,64.555c.225.175.4,1.058.4,1.058A.766.766,0,0,0,68,65.8v3.608a1,1,0,0,1-.433.824,1.392,1.392,0,0,0-.183.152,1.312,1.312,0,0,0-.384.928V73a1,1,0,0,1-1,1H64a.992.992,0,0,0-.5.133,1,1,0,0,1-1.5-.865V70c0-3.1,1.9-4.624,4.667-5.6-.459.162.053-.546.95.156ZM66,66.856v2.085l-.03.029A3.313,3.313,0,0,0,65,71.312V72H64V70a3.332,3.332,0,0,1,2-3.144Z" fill-rule="evenodd"/>
        </g>
        <path id="Trazado_996052" data-name="Trazado 996052" d="M346,65a5.977,5.977,0,0,1-2.571-.577,1,1,0,0,0-1.429.9V68a4,4,0,0,0,4,4h0a4,4,0,0,0,4-4V65.326a1,1,0,0,0-1.429-.9A5.977,5.977,0,0,1,346,65Zm-2,1.748a8.063,8.063,0,0,0,4,0V68a2,2,0,0,1-2,2h0a2,2,0,0,1-2-2Z" fill-rule="evenodd"/>
      </g>
    </g>
  </g>
</svg>
