<svg xmlns="http://www.w3.org/2000/svg" xmlns:xlink="http://www.w3.org/1999/xlink" width="113" height="113" viewBox="0 0 113 113">
  <defs>
    <filter id="Trazado_982547" x="0" y="0" width="113" height="113" filterUnits="userSpaceOnUse">
      <feOffset dy="3" input="SourceAlpha"/>
      <feGaussianBlur stdDeviation="3" result="blur"/>
      <feFlood flood-opacity="0.161"/>
      <feComposite operator="in" in2="blur"/>
      <feComposite in="SourceGraphic"/>
    </filter>
  </defs>
  <g id="Grupo_1162341" data-name="Grupo 1162341" transform="translate(-1163.882 -10819.154)">
    <g id="Grupo_1162129" data-name="Grupo 1162129" transform="translate(1172.882 10825.154)">
      <g id="Grupo_1152576" data-name="Grupo 1152576" transform="translate(0)">
        <g id="Grupo_1148633" data-name="Grupo 1148633">
          <g id="Grupo_1148525" data-name="Grupo 1148525">
            <g transform="matrix(1, 0, 0, 1, -9, -6)" filter="url(#Trazado_982547)">
              <g id="Trazado_982547-2" data-name="Trazado 982547" transform="translate(9 6)" fill="#e8edf7">
                <path d="M 47.5 93.5 C 41.28937149047852 93.5 35.26533508300781 92.28397369384766 29.59518623352051 89.88570404052734 C 24.11771965026855 87.56893157958984 19.19813346862793 84.25196075439453 14.97309303283691 80.02691650390625 C 10.74804019927979 75.80186462402344 7.431066513061523 70.88229370117188 5.114293098449707 65.40481567382812 C 2.716026782989502 59.73468017578125 1.5 53.71062850952148 1.5 47.5 C 1.5 41.28937149047852 2.716026782989502 35.26533508300781 5.114293098449707 29.59518623352051 C 7.431066513061523 24.11771965026855 10.74804019927979 19.19813346862793 14.97309303283691 14.97309303283691 C 19.19813346862793 10.74804019927979 24.11771965026855 7.431066513061523 29.59518623352051 5.114293098449707 C 35.26533508300781 2.716026782989502 41.28937149047852 1.5 47.5 1.5 C 53.71062850952148 1.5 59.73468017578125 2.716026782989502 65.40481567382812 5.114293098449707 C 70.88229370117188 7.431066513061523 75.80186462402344 10.74804019927979 80.02691650390625 14.97309303283691 C 84.25196075439453 19.19813346862793 87.56893157958984 24.11771965026855 89.88570404052734 29.59518623352051 C 92.28397369384766 35.26533508300781 93.5 41.28937149047852 93.5 47.5 C 93.5 53.71062850952148 92.28397369384766 59.73468017578125 89.88570404052734 65.40481567382812 C 87.56893157958984 70.88229370117188 84.25196075439453 75.80186462402344 80.02691650390625 80.02691650390625 C 75.80186462402344 84.25196075439453 70.88229370117188 87.56893157958984 65.40481567382812 89.88570404052734 C 59.73468017578125 92.28397369384766 53.71062850952148 93.5 47.5 93.5 Z" stroke="none"/>
                <path d="M 47.5 3 C 41.49121475219727 3 35.66376876831055 4.176155090332031 30.17950439453125 6.495796203613281 C 24.88084411621094 8.736953735351562 20.12152099609375 11.94598388671875 16.03375244140625 16.03375244140625 C 11.94598388671875 20.12152099609375 8.736953735351562 24.88084411621094 6.495796203613281 30.17950439453125 C 4.176155090332031 35.66376876831055 3 41.49121475219727 3 47.5 C 3 53.50878524780273 4.176155090332031 59.33623123168945 6.495796203613281 64.82049560546875 C 8.736953735351562 70.11915588378906 11.94598388671875 74.87847900390625 16.03375244140625 78.96624755859375 C 20.12152099609375 83.05401611328125 24.88084411621094 86.26304626464844 30.17950439453125 88.50419616699219 C 35.66376876831055 90.82384490966797 41.49121475219727 92 47.5 92 C 53.50878524780273 92 59.33623123168945 90.82384490966797 64.82049560546875 88.50419616699219 C 70.11915588378906 86.26304626464844 74.87847900390625 83.05401611328125 78.96624755859375 78.96624755859375 C 83.05401611328125 74.87847900390625 86.26304626464844 70.11915588378906 88.50419616699219 64.82049560546875 C 90.82384490966797 59.33623123168945 92 53.50878524780273 92 47.5 C 92 41.49121475219727 90.82384490966797 35.66376876831055 88.50419616699219 30.17950439453125 C 86.26304626464844 24.88084411621094 83.05401611328125 20.12152099609375 78.96624755859375 16.03375244140625 C 74.87847900390625 11.94598388671875 70.11915588378906 8.736953735351562 64.82049560546875 6.495796203613281 C 59.33623123168945 4.176155090332031 53.50878524780273 3 47.5 3 M 47.5 0 C 73.7335205078125 0 95 21.2664794921875 95 47.5 C 95 73.7335205078125 73.7335205078125 95 47.5 95 C 21.2664794921875 95 0 73.7335205078125 0 47.5 C 0 21.2664794921875 21.2664794921875 0 47.5 0 Z" stroke="none" fill="#2e5bb6"/>
              </g>
            </g>
          </g>
        </g>
      </g>
    </g>
    <g id="social-distancing_4199293" transform="translate(1188.382 10839.555)">
      <path id="Trazado_996053" data-name="Trazado 996053" d="M26.073,22V36.256H23.018A1.018,1.018,0,0,1,22,35.238v-11.2Z" transform="translate(0.33 0.366)" fill="#ffcbbe"/>
      <path id="Trazado_996054" data-name="Trazado 996054" d="M26.092,25.128,21,24.11,26.092,18Z" transform="translate(0.311 0.293)" fill="#ffa403"/>
      <path id="Trazado_996055" data-name="Trazado 996055" d="M38,22V36.256h3.055a1.018,1.018,0,0,0,1.018-1.018v-11.2Z" transform="translate(0.623 0.366)" fill="#ffcbbe"/>
      <path id="Trazado_996056" data-name="Trazado 996056" d="M38,25.128l5.092-1.018L38,18Z" transform="translate(0.623 0.293)" fill="#ffa403"/>
      <path id="Trazado_996057" data-name="Trazado 996057" d="M38.238,34.33H26.018L25,17.018,32.128,16l7.128,1.018Z" transform="translate(0.385 0.256)" fill="#ffc740"/>
      <path id="Trazado_996058" data-name="Trazado 996058" d="M26,34H38.22V48.256H26Z" transform="translate(0.403 0.586)" fill="#acabb1"/>
      <path id="Trazado_996059" data-name="Trazado 996059" d="M26.037,48h6.11v4.073H24V50.037A2.037,2.037,0,0,1,26.037,48Z" transform="translate(0.366 0.843)" fill="#3e3d42"/>
      <path id="Trazado_996060" data-name="Trazado 996060" d="M38.11,48H32v4.073h8.147V50.037A2.037,2.037,0,0,0,38.11,48Z" transform="translate(0.513 0.843)" fill="#3e3d42"/>
      <path id="Trazado_996061" data-name="Trazado 996061" d="M35.11,13v4.073a3.055,3.055,0,0,1-6.11,0V13Z" transform="translate(0.458 0.202)" fill="#ffcbbe"/>
      <path id="Trazado_996062" data-name="Trazado 996062" d="M32.092,17.183A5.092,5.092,0,0,1,27,12.092V7H37.183v5.092A5.092,5.092,0,0,1,32.092,17.183Z" transform="translate(0.421 0.092)" fill="#ffddce"/>
      <path id="Trazado_996063" data-name="Trazado 996063" d="M37.22,8.092H29.073A4.073,4.073,0,0,1,25,4.018V3h8.147A4.073,4.073,0,0,1,37.22,7.073Z" transform="translate(0.385 0.018)" fill="#3e3d42"/>
      <path id="Trazado_996064" data-name="Trazado 996064" d="M10.073,33V45.22H7.018A1.018,1.018,0,0,1,6,44.2V33Z" transform="translate(0.037 0.568)" fill="#ffcbbe"/>
      <path id="Trazado_996065" data-name="Trazado 996065" d="M10.092,34.128,5,33.11,10.092,27Z" transform="translate(0.018 0.458)" fill="#5bcbfa"/>
      <path id="Trazado_996066" data-name="Trazado 996066" d="M22,34.128l5.092-1.018L22,27Z" transform="translate(0.33 0.458)" fill="#5bcbfa"/>
      <path id="Trazado_996067" data-name="Trazado 996067" d="M22.238,43.33H10.018L9,26.018,16.128,25l7.128,1.018Z" transform="translate(0.092 0.421)" fill="#48a3d2"/>
      <path id="Trazado_996068" data-name="Trazado 996068" d="M10,43H22.22V58.275H10Z" transform="translate(0.11 0.751)" fill="#365e7d"/>
      <path id="Trazado_996069" data-name="Trazado 996069" d="M10.037,57h6.11v4.073H8V59.037A2.037,2.037,0,0,1,10.037,57Z" transform="translate(0.073 1.008)" fill="#3e3d42"/>
      <path id="Trazado_996070" data-name="Trazado 996070" d="M22.11,57H16v4.073h8.147V59.037A2.037,2.037,0,0,0,22.11,57Z" transform="translate(0.22 1.008)" fill="#3e3d42"/>
      <path id="Trazado_996071" data-name="Trazado 996071" d="M42.092,34.128,37,33.11,42.092,27Z" transform="translate(0.605 0.458)" fill="#16bb87"/>
      <path id="Trazado_996072" data-name="Trazado 996072" d="M54,33V45.22h3.055A1.018,1.018,0,0,0,58.073,44.2V33Z" transform="translate(0.916 0.568)" fill="#ffcbbe"/>
      <path id="Trazado_996073" data-name="Trazado 996073" d="M54,34.128l5.092-1.018L54,27Z" transform="translate(0.916 0.458)" fill="#16bb87"/>
      <path id="Trazado_996074" data-name="Trazado 996074" d="M54.238,43.33H42.018L41,26.018,48.128,25l7.128,1.018Z" transform="translate(0.678 0.421)" fill="#0beaa2"/>
      <path id="Trazado_996075" data-name="Trazado 996075" d="M42,43H54.22V58.275H42Z" transform="translate(0.696 0.751)" fill="#365e7d"/>
      <path id="Trazado_996076" data-name="Trazado 996076" d="M42.037,57h6.11v4.073H40V59.037A2.037,2.037,0,0,1,42.037,57Z" transform="translate(0.659 1.008)" fill="#3e3d42"/>
      <path id="Trazado_996077" data-name="Trazado 996077" d="M54.11,57H48v4.073h8.147V59.037A2.037,2.037,0,0,0,54.11,57Z" transform="translate(0.806 1.008)" fill="#3e3d42"/>
      <circle id="Elipse_12045" data-name="Elipse 12045" cx="14.256" cy="14.256" r="14.256" transform="translate(18.256 27.458)" fill="#ec455a"/>
      <path id="Trazado_996078" data-name="Trazado 996078" d="M19.11,22v4.073a3.055,3.055,0,0,1-6.11,0V22Z" transform="translate(0.165 0.366)" fill="#ffcbbe"/>
      <path id="Trazado_996079" data-name="Trazado 996079" d="M16.092,26.183A5.092,5.092,0,0,1,11,21.092V16l10.183,1.018v4.073a5.092,5.092,0,0,1-5.092,5.092Z" transform="translate(0.128 0.256)" fill="#ffddce"/>
      <path id="Trazado_996080" data-name="Trazado 996080" d="M21.22,17.092H13.073A4.073,4.073,0,0,1,9,13.018V12h8.147a4.073,4.073,0,0,1,4.073,4.073Z" transform="translate(0.092 0.183)" fill="#3e3d42"/>
      <path id="Trazado_996081" data-name="Trazado 996081" d="M51.11,22v4.073a3.055,3.055,0,1,1-6.11,0V22Z" transform="translate(0.751 0.366)" fill="#ffcbbe"/>
      <path id="Trazado_996082" data-name="Trazado 996082" d="M48.092,26.183A5.092,5.092,0,0,1,43,21.092V16l10.183,1.018v4.073a5.092,5.092,0,0,1-5.092,5.092Z" transform="translate(0.714 0.256)" fill="#ffddce"/>
      <path id="Trazado_996083" data-name="Trazado 996083" d="M53.22,17.092H45.073A4.073,4.073,0,0,1,41,13.018V12h8.147a4.073,4.073,0,0,1,4.073,4.073Z" transform="translate(0.678 0.183)" fill="#3e3d42"/>
      <path id="Trazado_996084" data-name="Trazado 996084" d="M60.792,32.916l-3.941-4.735.1-1.68a1.018,1.018,0,0,0-.876-1.069l-2.444-.346a6.078,6.078,0,0,0,1.283-3.737V16.256a5.092,5.092,0,0,0-5.092-5.092H41.678a1.018,1.018,0,0,0-1.018,1.018V13.2A5.043,5.043,0,0,0,42.7,17.244v3.238L40.629,17.9l.031-.56a1.018,1.018,0,0,0-.876-1.069L37.34,15.92a6.078,6.078,0,0,0,1.283-3.737V7.092A5.092,5.092,0,0,0,33.531,2H25.385a1.018,1.018,0,0,0-1.018,1.018V4.037A5.077,5.077,0,0,0,26.4,8.09v4.094a6.078,6.078,0,0,0,1.283,3.737l-2.444.346a1.018,1.018,0,0,0-.876,1.069l.031.56L22.33,20.483V16.256a5.092,5.092,0,0,0-5.092-5.092H9.092a1.018,1.018,0,0,0-1.018,1.018V13.2a5.043,5.043,0,0,0,2.037,4.043v4.1a6.078,6.078,0,0,0,1.283,3.737l-2.444.346A1.018,1.018,0,0,0,8.073,26.5l.1,1.68L4.234,32.916a1.018,1.018,0,0,0-.173.988,1,1,0,0,0,.754.662l.2.041V44.769a2.043,2.043,0,0,0,2.037,2.037H9.092V57.173a3.065,3.065,0,0,0-2.037,2.872v2.037A1.018,1.018,0,0,0,8.073,63.1H24.366a1.018,1.018,0,0,0,1.018-1.018V60.044a3.065,3.065,0,0,0-2.037-2.872V53.9a15.154,15.154,0,0,0,18.33,0v3.269a3.065,3.065,0,0,0-2.037,2.872v2.037A1.018,1.018,0,0,0,40.659,63.1H56.953a1.018,1.018,0,0,0,1.018-1.018V60.044a3.065,3.065,0,0,0-2.037-2.872V46.806h2.037a2.043,2.043,0,0,0,2.037-2.037V34.607l.2-.041a1,1,0,0,0,.754-.662,1.018,1.018,0,0,0-.173-.988Zm-5.927-5.6-.906,15.417H47.737c.02-.336.051-.672.051-1.018a15.228,15.228,0,0,0-4.847-11.13l-.193-3.269,2.016-.285a4.057,4.057,0,0,0,8.085,0ZM43.1,24.59l.463-.116a6.454,6.454,0,0,0,.418.611l-.684.1Zm5.7.831a4.073,4.073,0,0,1-4.073-4.073V18.191a5.568,5.568,0,0,0,1.018.1h7.128v3.055A4.073,4.073,0,0,1,48.806,25.421Zm1.986,1.7a2.037,2.037,0,0,1-3.971,0,6.035,6.035,0,0,0,3.971,0ZM49.824,13.2a3.064,3.064,0,0,1,3.055,3.055H45.751A3.064,3.064,0,0,1,42.7,13.2Zm-9.379,7.729,1.487,1.853-1.619.4Zm-.255,4.389,1.027-.258.143.429a1,1,0,0,0-.7,1.01l.143,2.4c-.255-.173-.53-.336-.794-.489ZM26.4,4.037h7.128a3.064,3.064,0,0,1,3.055,3.055H29.458A3.055,3.055,0,0,1,26.4,4.037Zm6.11,12.22a4.073,4.073,0,0,1-4.073-4.073V9.026a4.8,4.8,0,0,0,1.018.1h7.128v3.055A4.073,4.073,0,0,1,32.513,16.256Zm1.986,1.7a2.037,2.037,0,0,1-3.971,0A6.035,6.035,0,0,0,34.5,17.957Zm-6.028-.092a4.057,4.057,0,0,0,8.085,0l2.016.285-.55,9.328a15.129,15.129,0,0,0-11.018,0l-.55-9.328Zm-3.442,10.55c-.275.153-.55.316-.8.489l.143-2.4a1,1,0,0,0-.7-1.01l.144-.431,1.037.26Zm-.448-7.485.132,2.25-1.619-.4Zm-3.116,3.544.463.116-.2.592-.684-.1a6.455,6.455,0,0,0,.418-.611ZM10.11,13.2h7.128a3.064,3.064,0,0,1,3.055,3.055H13.165A3.064,3.064,0,0,1,10.11,13.2Zm6.11,12.22a4.073,4.073,0,0,1-4.073-4.073V18.191a5.568,5.568,0,0,0,1.018.1h7.128v3.055A4.073,4.073,0,0,1,16.22,25.421Zm1.986,1.7a2.037,2.037,0,0,1-3.971,0A6.035,6.035,0,0,0,18.206,27.122Zm-6.028-.092a4.057,4.057,0,0,0,8.085,0l2.016.285-.193,3.269a15.228,15.228,0,0,0-4.847,11.13c0,.346.031.682.051,1.018H11.067l-.906-15.417ZM6.892,32.906l1.456-1.752.122,2.067Zm.163,11.863V35.014l1.538.305.5,8.462v.988ZM15.2,61.063H9.092V60.044a1.018,1.018,0,0,1,1.018-1.018H15.2Zm0-4.073H11.128V44.769h6.415a15.208,15.208,0,0,0,3.768,7.291v4.929H17.238V45.93H15.2Zm8.147,4.073h-6.11V59.026H22.33a1.018,1.018,0,0,1,1.018,1.018Zm9.165-6.11A13.238,13.238,0,1,1,45.751,41.714,13.238,13.238,0,0,1,32.513,54.953Zm15.275,6.11h-6.11V60.044A1.018,1.018,0,0,1,42.7,59.026h5.092Zm0-4.073H43.714V52.061a15.208,15.208,0,0,0,3.768-7.291H53.9v12.22H49.824V45.93H47.788Zm8.147,4.073h-6.11V59.026h5.092a1.018,1.018,0,0,1,1.018,1.018Zm2.037-16.293H55.934v-.988l.5-8.462,1.538-.305ZM56.555,33.222l.122-2.067,1.456,1.752Z"/>
      <path id="Trazado_996085" data-name="Trazado 996085" d="M38.623,33.222,32.142,39.7l-6.481-6.481-1.44,1.44L30.7,41.142l-6.481,6.481,1.44,1.44,6.481-6.481,6.481,6.481,1.44-1.44-6.481-6.481,6.481-6.481Z" transform="translate(0.37 0.572)"/>
    </g>
  </g>
</svg>
