<svg xmlns="http://www.w3.org/2000/svg" xmlns:xlink="http://www.w3.org/1999/xlink" width="108" height="108" viewBox="0 0 108 108">
  <defs>
    <filter id="Trazado_982547" x="0" y="0" width="108" height="108" filterUnits="userSpaceOnUse">
      <feOffset dy="3" input="SourceAlpha"/>
      <feGaussianBlur stdDeviation="3" result="blur"/>
      <feFlood flood-opacity="0.161"/>
      <feComposite operator="in" in2="blur"/>
      <feComposite in="SourceGraphic"/>
    </filter>
  </defs>
  <g id="Grupo_1162436" data-name="Grupo 1162436" transform="translate(-616 -1281)">
    <g id="Grupo_1162136" data-name="Grupo 1162136" transform="translate(625 1287)">
      <g id="Grupo_1159095" data-name="Grupo 1159095" transform="translate(0)">
        <g id="Grupo_1154033" data-name="Grupo 1154033">
          <g id="Grupo_1153177" data-name="Grupo 1153177">
            <g id="Grupo_1149598" data-name="Grupo 1149598">
              <g id="Grupo_1148770" data-name="Grupo 1148770">
                <g id="Grupo_1146954" data-name="Grupo 1146954">
                  <g transform="matrix(1, 0, 0, 1, -9, -6)" filter="url(#Trazado_982547)">
                    <g id="Trazado_982547-2" data-name="Trazado 982547" transform="translate(9 6)" fill="#f5fdfa">
                      <path d="M 45.00000762939453 88.5 C 39.12688446044922 88.5 33.43023300170898 87.35007476806641 28.06830787658691 85.08217620849609 C 22.8885326385498 82.89131164550781 18.23630714416504 79.75458526611328 14.24085807800293 75.75914764404297 C 10.24542045593262 71.76370239257812 7.108695030212402 67.11147308349609 4.917832851409912 61.93170166015625 C 2.649932622909546 56.56977462768555 1.500007629394531 50.87312316894531 1.500007629394531 45 C 1.500007629394531 39.12687683105469 2.649932622909546 33.43022537231445 4.917832851409912 28.06830024719238 C 7.108695030212402 22.88852500915527 10.24542045593262 18.23629951477051 14.24085807800293 14.2408504486084 C 18.23630714416504 10.24541282653809 22.8885326385498 7.108687400817871 28.06830787658691 4.917825222015381 C 33.43023300170898 2.649924993515015 39.12688446044922 1.5 45.00000762939453 1.5 C 50.87313079833984 1.5 56.56978225708008 2.649924993515015 61.93170928955078 4.917825222015381 C 67.11148071289062 7.108687400817871 71.76371002197266 10.24541282653809 75.7591552734375 14.2408504486084 C 79.75459289550781 18.23629951477051 82.89131927490234 22.88852500915527 85.08218383789062 28.06830024719238 C 87.35008239746094 33.43022537231445 88.50000762939453 39.12687683105469 88.50000762939453 45 C 88.50000762939453 50.87312316894531 87.35008239746094 56.56977462768555 85.08218383789062 61.93170166015625 C 82.89131927490234 67.11147308349609 79.75459289550781 71.76370239257812 75.7591552734375 75.75914764404297 C 71.76371002197266 79.75458526611328 67.11148071289062 82.89131164550781 61.93170928955078 85.08217620849609 C 56.56978225708008 87.35007476806641 50.87313079833984 88.5 45.00000762939453 88.5 Z" stroke="none"/>
                      <path d="M 45.00000762939453 3 C 39.32872009277344 3 33.82866287231445 4.110054016113281 28.65263748168945 6.299339294433594 C 23.65166473388672 8.414573669433594 19.15969085693359 11.44334411621094 15.30152130126953 15.301513671875 C 11.44335174560547 19.15968322753906 8.414581298828125 23.65165710449219 6.299346923828125 28.65262985229492 C 4.110061645507812 33.82865524291992 3.000007629394531 39.32871246337891 3.000007629394531 45 C 3.000007629394531 50.67128753662109 4.110061645507812 56.17134475708008 6.299346923828125 61.34737396240234 C 8.414581298828125 66.34834289550781 11.44335174560547 70.84031677246094 15.30152130126953 74.698486328125 C 19.15969085693359 78.55665588378906 23.65166473388672 81.58542633056641 28.65263748168945 83.70066070556641 C 33.82866287231445 85.88994598388672 39.32872009277344 87 45.00000762939453 87 C 50.67129516601562 87 56.17135238647461 85.88994598388672 61.34738159179688 83.70066070556641 C 66.34835052490234 81.58542633056641 70.84032440185547 78.55665588378906 74.69849395751953 74.698486328125 C 78.55666351318359 70.84031677246094 81.58543395996094 66.34834289550781 83.70066833496094 61.34737396240234 C 85.88995361328125 56.17134475708008 87.00000762939453 50.67128753662109 87.00000762939453 45 C 87.00000762939453 39.32871246337891 85.88995361328125 33.82865524291992 83.70066833496094 28.65262985229492 C 81.58543395996094 23.65165710449219 78.55666351318359 19.15968322753906 74.69849395751953 15.301513671875 C 70.84032440185547 11.44334411621094 66.34835052490234 8.414573669433594 61.34738159179688 6.299339294433594 C 56.17135238647461 4.110054016113281 50.67129516601562 3 45.00000762939453 3 M 45.00000762939453 0 C 69.85282135009766 0 90.00000762939453 20.14718627929688 90.00000762939453 45 C 90.00000762939453 69.85281372070312 69.85282135009766 90 45.00000762939453 90 C 20.14719390869141 90 7.62939453125e-06 69.85281372070312 7.62939453125e-06 45 C 7.62939453125e-06 20.14718627929688 20.14719390869141 0 45.00000762939453 0 Z" stroke="none" fill="#ee9865"/>
                    </g>
                  </g>
                </g>
              </g>
            </g>
          </g>
        </g>
      </g>
    </g>
    <g id="analyzing_2973762" transform="translate(642.267 1301.266)">
      <g id="Grupo_1162434" data-name="Grupo 1162434" transform="translate(1.862 1.862)">
        <g id="Grupo_1162412" data-name="Grupo 1162412" transform="translate(37.945 34.495)">
          <path id="Trazado_996379" data-name="Trazado 996379" d="M51.174,42.862V59.248H46V42.862A.865.865,0,0,1,46.862,42h3.45A.865.865,0,0,1,51.174,42.862Z" transform="translate(-46 -42)" fill="#ffeaa7"/>
        </g>
        <g id="Grupo_1162413" data-name="Grupo 1162413" transform="translate(46.568 25.871)">
          <path id="Trazado_996380" data-name="Trazado 996380" d="M61.174,32.862V57.871H56V32.862A.865.865,0,0,1,56.862,32h3.45A.865.865,0,0,1,61.174,32.862Z" transform="translate(-56 -32)" fill="#ffeaa7"/>
        </g>
        <g id="Grupo_1162414" data-name="Grupo 1162414" transform="translate(0 25.871)">
          <path id="Trazado_996381" data-name="Trazado 996381" d="M7.174,32.862V57.871H2V32.862A.865.865,0,0,1,2.862,32h3.45A.865.865,0,0,1,7.174,32.862Z" transform="translate(-2 -32)" fill="#ffeaa7"/>
        </g>
        <g id="Grupo_1162415" data-name="Grupo 1162415" transform="translate(8.624 34.495)">
          <path id="Trazado_996382" data-name="Trazado 996382" d="M17.174,42.862V59.248H12V42.862A.865.865,0,0,1,12.862,42h3.45A.865.865,0,0,1,17.174,42.862Z" transform="translate(-12 -42)" fill="#ffeaa7"/>
        </g>
        <g id="Grupo_1162416" data-name="Grupo 1162416" transform="translate(18.972 48.293)">
          <path id="Trazado_996383" data-name="Trazado 996383" d="M24,58H34.349v3.45H24Z" transform="translate(-24 -58)" fill="#b4dd7f"/>
        </g>
        <g id="Grupo_1162417" data-name="Grupo 1162417" transform="translate(27.596 34.495)">
          <path id="Trazado_996384" data-name="Trazado 996384" d="M38.665,44.941a1.686,1.686,0,0,1-1.216.509H35.725A1.73,1.73,0,0,1,34,43.725,1.737,1.737,0,0,1,35.725,42H37.45a1.73,1.73,0,0,1,1.725,1.725A1.686,1.686,0,0,1,38.665,44.941Z" transform="translate(-34 -42)" fill="#f0d0b4"/>
        </g>
        <g id="Grupo_1162418" data-name="Grupo 1162418" transform="translate(27.596 37.945)">
          <path id="Trazado_996385" data-name="Trazado 996385" d="M37.45,46a1.73,1.73,0,0,1,1.725,1.725A1.737,1.737,0,0,1,37.45,49.45H35.725A1.73,1.73,0,0,1,34,47.725,1.737,1.737,0,0,1,35.725,46Z" transform="translate(-34 -46)" fill="#f0d0b4"/>
        </g>
        <g id="Grupo_1162419" data-name="Grupo 1162419" transform="translate(27.596 41.394)">
          <path id="Trazado_996386" data-name="Trazado 996386" d="M37.45,50a1.73,1.73,0,0,1,1.725,1.725A1.737,1.737,0,0,1,37.45,53.45H35.725A1.73,1.73,0,0,1,34,51.725,1.737,1.737,0,0,1,35.725,50Z" transform="translate(-34 -50)" fill="#f0d0b4"/>
        </g>
        <g id="Grupo_1162420" data-name="Grupo 1162420" transform="translate(17.248 34.495)">
          <path id="Trazado_996387" data-name="Trazado 996387" d="M32.349,50.624a1.73,1.73,0,0,0,1.725,1.725h1.552a8.677,8.677,0,0,1-1.259,3.018l-.293.431H23.725l-1.6-6.373A4.462,4.462,0,0,1,22,48.364,4.383,4.383,0,0,1,23.57,45l3.251-2.708A1.282,1.282,0,0,1,27.631,42a1.316,1.316,0,0,1,.259.026A1.276,1.276,0,0,1,28.9,43.268v.75a3.453,3.453,0,0,1-1.009,2.441l-.716.716v3.45A1.73,1.73,0,0,0,28.9,52.349h1.725A1.73,1.73,0,0,0,32.349,50.624Z" transform="translate(-22 -42)" fill="#f0d0b4"/>
        </g>
        <g id="Grupo_1162421" data-name="Grupo 1162421" transform="translate(22.422 34.288)">
          <path id="Trazado_996388" data-name="Trazado 996388" d="M28.759,41.76a17.255,17.255,0,0,0,2.691.207,16.266,16.266,0,0,0,1.725-.086v8.71a1.73,1.73,0,0,1-1.725,1.725H29.725A1.73,1.73,0,0,1,28,50.591v-3.45l.716-.716a3.453,3.453,0,0,0,1.009-2.441v-.75a1.276,1.276,0,0,0-1.009-1.242Z" transform="translate(-28 -41.76)" fill="#969faa"/>
        </g>
        <g id="Grupo_1162422" data-name="Grupo 1162422" transform="translate(8.624)">
          <path id="Trazado_996389" data-name="Trazado 996389" d="M29.248,2a17.248,17.248,0,0,1,1.725,34.409,16.266,16.266,0,0,1-1.725.086,17.248,17.248,0,0,1,0-34.5Z" transform="translate(-12 -2)" fill="#fcd770"/>
        </g>
        <g id="Grupo_1162423" data-name="Grupo 1162423" transform="translate(16.747 27.596)">
          <path id="Trazado_996390" data-name="Trazado 996390" d="M21.92,34H39.668A13.791,13.791,0,0,1,21.42,34Z" transform="translate(-21.42 -34)" fill="#69d6f4"/>
        </g>
        <g id="Grupo_1162424" data-name="Grupo 1162424" transform="translate(12.47 3.45)">
          <path id="Trazado_996391" data-name="Trazado 996391" d="M22.2,10.312a1.829,1.829,0,0,0-1.294,3.122l2.915,2.915h-6.9a.867.867,0,0,0-.466.138,13.806,13.806,0,0,1,26.8,0,.867.867,0,0,0-.466-.138H35.9l2.915-2.915a1.829,1.829,0,0,0-2.587-2.587l-5.83,5.83a1.828,1.828,0,0,0-.535,1.294,1.828,1.828,0,0,0-.535-1.294l-5.83-5.83a1.828,1.828,0,0,0-1.294-.535Z" transform="translate(-16.46 -6)" fill="#69d6f4"/>
        </g>
        <g id="Grupo_1162425" data-name="Grupo 1162425" transform="translate(13.798 17.248)">
          <path id="Trazado_996392" data-name="Trazado 996392" d="M18,22l.733,8.77a1.72,1.72,0,0,0,1.716,1.578H39.7a1.72,1.72,0,0,0,1.716-1.578L42.147,22Z" transform="translate(-18 -22)" fill="#e6e9ed"/>
        </g>
        <g id="Grupo_1162426" data-name="Grupo 1162426" transform="translate(31.046 20.697)">
          <path id="Trazado_996393" data-name="Trazado 996393" d="M41.45,26.862V32.9H38V26.862A.865.865,0,0,1,38.862,26h1.725A.865.865,0,0,1,41.45,26.862Z" transform="translate(-38 -26)" fill="#ff826e"/>
        </g>
        <g id="Grupo_1162427" data-name="Grupo 1162427" transform="translate(24.147 20.697)">
          <path id="Trazado_996394" data-name="Trazado 996394" d="M33.45,26.862V32.9H30V26.862A.865.865,0,0,1,30.862,26h1.725A.865.865,0,0,1,33.45,26.862Z" transform="translate(-30 -26)" fill="#ff826e"/>
        </g>
        <g id="Grupo_1162428" data-name="Grupo 1162428" transform="translate(17.248 20.697)">
          <path id="Trazado_996395" data-name="Trazado 996395" d="M25.45,26.862V32.9H22V26.862A.865.865,0,0,1,22.862,26h1.725A.865.865,0,0,1,25.45,26.862Z" transform="translate(-22 -26)" fill="#ff826e"/>
        </g>
        <g id="Grupo_1162429" data-name="Grupo 1162429" transform="translate(24.043 15.419)">
          <path id="Trazado_996396" data-name="Trazado 996396" d="M33.536,21.708H29.88a1.826,1.826,0,0,0,1.828-1.828,1.825,1.825,0,0,0,1.828,1.828Z" transform="translate(-29.88 -19.88)" fill="#aab2bd"/>
        </g>
        <g id="Grupo_1162430" data-name="Grupo 1162430" transform="translate(27.7 13.798)">
          <path id="Trazado_996397" data-name="Trazado 996397" d="M46.09,18.862v1.725a.865.865,0,0,1-.862.862H34.12a1.828,1.828,0,0,0,1.294-.535L38.328,18h6.9a.867.867,0,0,1,.466.138A.859.859,0,0,1,46.09,18.862Z" transform="translate(-34.12 -18)" fill="#aab2bd"/>
        </g>
        <g id="Grupo_1162431" data-name="Grupo 1162431" transform="translate(12.073 13.798)">
          <path id="Trazado_996398" data-name="Trazado 996398" d="M27.97,21.45H16.862A.865.865,0,0,1,16,20.587V18.862a.859.859,0,0,1,.4-.724A.867.867,0,0,1,16.862,18h6.9l2.915,2.915a1.828,1.828,0,0,0,1.294.535Z" transform="translate(-16 -18)" fill="#aab2bd"/>
        </g>
        <g id="Grupo_1162432" data-name="Grupo 1162432" transform="translate(25.871 7.761)">
          <path id="Trazado_996399" data-name="Trazado 996399" d="M41.486,12.828a1.828,1.828,0,0,1-.535,1.294l-2.915,2.915-2.915,2.915a1.829,1.829,0,0,1-2.587-2.587l5.83-5.83a1.828,1.828,0,0,1,3.122,1.294Z" transform="translate(-32 -11)" fill="#ff826e"/>
        </g>
        <g id="Grupo_1162433" data-name="Grupo 1162433" transform="translate(16.385 7.761)">
          <path id="Trazado_996400" data-name="Trazado 996400" d="M29.951,17.364a1.829,1.829,0,0,1-2.587,2.587L24.45,17.037l-2.915-2.915a1.829,1.829,0,0,1,2.587-2.587Z" transform="translate(-21 -11)" fill="#ff826e"/>
        </g>
      </g>
      <g id="Grupo_1162435" data-name="Grupo 1162435" transform="translate(1 1)">
        <path id="Trazado_996401" data-name="Trazado 996401" d="M29.66,34.321a14.632,14.632,0,0,0,9.428-3.45h.195A2.6,2.6,0,0,0,41.862,28.5l.665-7.976H42.6A1.726,1.726,0,0,0,44.321,18.8V17.073a1.718,1.718,0,0,0-.511-1.223,14.652,14.652,0,0,0-28.3,0A1.718,1.718,0,0,0,15,17.073V18.8a1.726,1.726,0,0,0,1.725,1.725h.069l.665,7.976a2.6,2.6,0,0,0,2.578,2.372h.195a14.637,14.637,0,0,0,9.429,3.45Zm-6.037-5.174H21.9V23.972h1.725ZM29.66,32.6a12.922,12.922,0,0,1-6.438-1.725H36.1A12.922,12.922,0,0,1,29.66,32.6Zm.862-3.45H28.8V23.972h1.725Zm6.9,0H35.7V23.972h1.725ZM42.6,18.8H34.329l1.725-1.725H42.6Zm-15.449-.283-5.828-5.828a.967.967,0,0,1,1.368-1.368l5.828,5.828a.967.967,0,0,1-1.368,1.368ZM20.1,13.907l1.442,1.442H17.465a12.869,12.869,0,0,1,1.86-3.473c0,.043-.013.084-.013.128A2.674,2.674,0,0,0,20.1,13.907Zm10.423,3.925a.963.963,0,0,1,.283-.684l5.828-5.828A.967.967,0,0,1,38,12.687l-5.828,5.828a.967.967,0,0,1-1.651-.684ZM40,11.876a12.869,12.869,0,0,1,1.86,3.473H37.779l1.442-1.442a2.674,2.674,0,0,0,.788-1.9c0-.044-.011-.085-.013-.128ZM37.443,9.325c-.043,0-.083-.013-.126-.013a2.674,2.674,0,0,0-1.9.788L29.66,15.854,23.907,10.1A2.674,2.674,0,0,0,22,9.312c-.043,0-.083.01-.126.013a12.949,12.949,0,0,1,15.566,0ZM16.725,17.073h6.542L24.991,18.8H16.725Zm2.453,11.282-.653-7.833H40.8l-.653,7.833a.867.867,0,0,1-.859.791h-.138V23.972a1.726,1.726,0,0,0-1.725-1.725H35.7a1.726,1.726,0,0,0-1.725,1.725v5.174H32.248V23.972a1.726,1.726,0,0,0-1.725-1.725H28.8a1.726,1.726,0,0,0-1.725,1.725v5.174H25.349V23.972a1.726,1.726,0,0,0-1.725-1.725H21.9a1.726,1.726,0,0,0-1.725,1.725v5.174h-.138A.867.867,0,0,1,19.177,28.356Z" transform="translate(-2.927 -1.55)"/>
        <path id="Trazado_996402" data-name="Trazado 996402" d="M52.743,26.871h-3.45A1.726,1.726,0,0,0,47.568,28.6V52.743H45.844V37.22A1.726,1.726,0,0,0,44.119,35.5h-3.45a1.726,1.726,0,0,0-1.725,1.725V52.743h-6.9V50.417l.145-.217a9.351,9.351,0,0,0,1.223-2.682,2.574,2.574,0,0,0,1.409-4.261,2.548,2.548,0,0,0,0-3.45,2.567,2.567,0,0,0-.459-3.861,18.107,18.107,0,1,0-11.607.562L20.132,38.7A5.237,5.237,0,0,0,18.4,43.988l1.569,6.274v2.481h-3.45V37.22A1.726,1.726,0,0,0,14.8,35.5h-3.45A1.726,1.726,0,0,0,9.624,37.22V52.743H7.9V28.6a1.726,1.726,0,0,0-1.725-1.725H2.725A1.726,1.726,0,0,0,1,28.6V54.467H54.467V28.6a1.726,1.726,0,0,0-1.725-1.725ZM6.174,52.743H2.725V28.6h3.45Zm34.5-15.523h3.45V52.743h-3.45Zm-7.761,8.624H31.183a.862.862,0,1,1,0-1.725h1.725a.862.862,0,1,1,0,1.725Zm0-6.9H31.183a.862.862,0,1,1,0-1.725h1.725a.862.862,0,1,1,0,1.725Zm.862,2.587a.864.864,0,0,1-.862.862H31.183a.862.862,0,0,1,0-1.725h1.725A.864.864,0,0,1,33.77,41.532ZM11.349,19.11A16.385,16.385,0,1,1,27.734,35.5,16.4,16.4,0,0,1,11.349,19.11ZM27.734,37.22c.291,0,.574-.03.862-.044v7.805a.864.864,0,0,1-.862.862H26.009a.864.864,0,0,1-.862-.862V41.889l.462-.462a4.282,4.282,0,0,0,1.263-3.048v-.755a2.156,2.156,0,0,0-.05-.45c.3.016.6.047.912.047Zm-6.5,2.8,3.249-2.707a.419.419,0,0,1,.662.31v.755a2.6,2.6,0,0,1-.757,1.829l-.968.968v3.807a2.59,2.59,0,0,0,2.587,2.587h1.725a2.57,2.57,0,0,0,1.725-.673,2.566,2.566,0,0,0,1.725.673h.4a7.6,7.6,0,0,1-.833,1.674l-.033.051H21.508l-1.431-5.724a3.51,3.51,0,0,1,1.158-3.55Zm.461,11h8.624v1.725H21.7ZM11.349,37.22H14.8V52.743h-3.45ZM52.743,52.743h-3.45V28.6h3.45Z" transform="translate(-1 -1)"/>
      </g>
    </g>
  </g>
</svg>
