<svg xmlns="http://www.w3.org/2000/svg" xmlns:xlink="http://www.w3.org/1999/xlink" width="108" height="108" viewBox="0 0 108 108">
  <defs>
    <filter id="Trazado_982547" x="0" y="0" width="108" height="108" filterUnits="userSpaceOnUse">
      <feOffset dy="3" input="SourceAlpha"/>
      <feGaussianBlur stdDeviation="3" result="blur"/>
      <feFlood flood-opacity="0.161"/>
      <feComposite operator="in" in2="blur"/>
      <feComposite in="SourceGraphic"/>
    </filter>
  </defs>
  <g id="Grupo_1162176" data-name="Grupo 1162176" transform="translate(-196 -1339)">
    <g id="Grupo_1159153" data-name="Grupo 1159153" transform="translate(0 62)">
      <g id="Grupo_1159095" data-name="Grupo 1159095" transform="translate(205 1283)">
        <g id="Grupo_1154033" data-name="Grupo 1154033">
          <g id="Grupo_1153177" data-name="Grupo 1153177">
            <g id="Grupo_1149598" data-name="Grupo 1149598">
              <g id="Grupo_1148770" data-name="Grupo 1148770">
                <g id="Grupo_1146954" data-name="Grupo 1146954">
                  <g transform="matrix(1, 0, 0, 1, -9, -6)" filter="url(#Trazado_982547)">
                    <g id="Trazado_982547-2" data-name="Trazado 982547" transform="translate(9 6)" fill="#f5fdfa">
                      <path d="M 45 88.5 C 39.12687683105469 88.5 33.43022537231445 87.35007476806641 28.06830024719238 85.08217620849609 C 22.88852500915527 82.89131164550781 18.23629951477051 79.75458526611328 14.2408504486084 75.75914764404297 C 10.24541282653809 71.76370239257812 7.108687400817871 67.11147308349609 4.917825222015381 61.93170166015625 C 2.649924993515015 56.56977462768555 1.5 50.87312316894531 1.5 45 C 1.5 39.12687683105469 2.649924993515015 33.43022537231445 4.917825222015381 28.06830024719238 C 7.108687400817871 22.88852500915527 10.24541282653809 18.23629951477051 14.2408504486084 14.2408504486084 C 18.23629951477051 10.24541282653809 22.88852500915527 7.108687400817871 28.06830024719238 4.917825222015381 C 33.43022537231445 2.649924993515015 39.12687683105469 1.5 45 1.5 C 50.87312316894531 1.5 56.56977462768555 2.649924993515015 61.93170166015625 4.917825222015381 C 67.11147308349609 7.108687400817871 71.76370239257812 10.24541282653809 75.75914764404297 14.2408504486084 C 79.75458526611328 18.23629951477051 82.89131164550781 22.88852500915527 85.08217620849609 28.06830024719238 C 87.35007476806641 33.43022537231445 88.5 39.12687683105469 88.5 45 C 88.5 50.87312316894531 87.35007476806641 56.56977462768555 85.08217620849609 61.93170166015625 C 82.89131164550781 67.11147308349609 79.75458526611328 71.76370239257812 75.75914764404297 75.75914764404297 C 71.76370239257812 79.75458526611328 67.11147308349609 82.89131164550781 61.93170166015625 85.08217620849609 C 56.56977462768555 87.35007476806641 50.87312316894531 88.5 45 88.5 Z" stroke="none"/>
                      <path d="M 45 3 C 39.32871246337891 3 33.82865524291992 4.110054016113281 28.65262985229492 6.299339294433594 C 23.65165710449219 8.414573669433594 19.15968322753906 11.44334411621094 15.301513671875 15.301513671875 C 11.44334411621094 19.15968322753906 8.414573669433594 23.65165710449219 6.299339294433594 28.65262985229492 C 4.110054016113281 33.82865524291992 3 39.32871246337891 3 45 C 3 50.67128753662109 4.110054016113281 56.17134475708008 6.299339294433594 61.34737396240234 C 8.414573669433594 66.34834289550781 11.44334411621094 70.84031677246094 15.301513671875 74.698486328125 C 19.15968322753906 78.55665588378906 23.65165710449219 81.58542633056641 28.65262985229492 83.70066070556641 C 33.82865524291992 85.88994598388672 39.32871246337891 87 45 87 C 50.67128753662109 87 56.17134475708008 85.88994598388672 61.34737396240234 83.70066070556641 C 66.34834289550781 81.58542633056641 70.84031677246094 78.55665588378906 74.698486328125 74.698486328125 C 78.55665588378906 70.84031677246094 81.58542633056641 66.34834289550781 83.70066070556641 61.34737396240234 C 85.88994598388672 56.17134475708008 87 50.67128753662109 87 45 C 87 39.32871246337891 85.88994598388672 33.82865524291992 83.70066070556641 28.65262985229492 C 81.58542633056641 23.65165710449219 78.55665588378906 19.15968322753906 74.698486328125 15.301513671875 C 70.84031677246094 11.44334411621094 66.34834289550781 8.414573669433594 61.34737396240234 6.299339294433594 C 56.17134475708008 4.110054016113281 50.67128753662109 3 45 3 M 45 0 C 69.85281372070312 0 90 20.14718627929688 90 45 C 90 69.85281372070312 69.85281372070312 90 45 90 C 20.14718627929688 90 0 69.85281372070312 0 45 C 0 20.14718627929688 20.14718627929688 0 45 0 Z" stroke="none" fill="#ee9865"/>
                    </g>
                  </g>
                </g>
              </g>
            </g>
          </g>
        </g>
      </g>
    </g>
    <g id="support_994285" transform="translate(225.913 1362.913)">
      <path id="Trazado_994807" data-name="Trazado 994807" d="M339.616,8.533H327.879a3.612,3.612,0,0,0-3.612,3.612v9.029a3.612,3.612,0,0,0,3.612,3.612h2.709V29.3l4.514-4.514h4.514a3.612,3.612,0,0,0,3.612-3.612V12.145A3.612,3.612,0,0,0,339.616,8.533Z" transform="translate(-289.957 -7.63)" fill="#f0e4d6"/>
      <path id="Trazado_994808" data-name="Trazado 994808" d="M352.007,13.466A27.171,27.171,0,0,1,336.06,28.293a3.578,3.578,0,0,0,2.364.9h2.709v4.514l4.514-4.514h4.514a3.612,3.612,0,0,0,3.612-3.612V16.556A3.6,3.6,0,0,0,352.007,13.466Z" transform="translate(-300.502 -12.041)" fill="#ebdcca"/>
      <path id="Trazado_994809" data-name="Trazado 994809" d="M45.551,275.456,54.579,258.3H47.356l-4.514,8.126V259.2a5.417,5.417,0,0,0-5.417-5.417H32.007a2.708,2.708,0,0,1-2.709-2.709v-3.612H22.075v3.612a2.708,2.708,0,0,1-2.709,2.709H13.949A5.417,5.417,0,0,0,8.532,259.2v16.252Z" transform="translate(-7.629 -221.283)" fill="#fec9a3"/>
      <g id="Grupo_1162173" data-name="Grupo 1162173" transform="translate(4.515 40.545)">
        <path id="Trazado_994810" data-name="Trazado 994810" d="M46.249,396.826H44.443v-2.4a9,9,0,0,1-.373-10.187l.66-1.04,1.525.968-.66,1.039a7.193,7.193,0,0,0,.456,8.348.9.9,0,0,1,.2.564v2.709Z" transform="translate(-42.669 -383.198)" fill="#f5b789"/>
        <path id="Trazado_994811" data-name="Trazado 994811" d="M266.584,396.826h-1.806v-2.709a.9.9,0,0,1,.2-.564,7.192,7.192,0,0,0,.456-8.347l-.66-1.04,1.525-.968.66,1.04a9,9,0,0,1-.373,10.187Z" transform="translate(-241.272 -383.198)" fill="#f5b789"/>
      </g>
      <path id="Trazado_994812" data-name="Trazado 994812" d="M76.481,30.2V21.173A12.64,12.64,0,0,0,63.84,8.533h0A12.64,12.64,0,0,0,51.2,21.173V30.2a5.417,5.417,0,0,0,5.417,5.417H71.064A5.417,5.417,0,0,0,76.481,30.2Z" transform="translate(-45.783 -7.63)" fill="#f9b44d"/>
      <path id="Trazado_994813" data-name="Trazado 994813" d="M140.146,8.533a12.642,12.642,0,0,0-3.612.53,12.642,12.642,0,0,1,9.029,12.11V30.2a5.417,5.417,0,0,1-5.417,5.417h7.223a5.417,5.417,0,0,0,5.417-5.417V21.173A12.641,12.641,0,0,0,140.146,8.533Z" transform="translate(-122.088 -7.63)" fill="#f7aa36"/>
      <path id="Trazado_994814" data-name="Trazado 994814" d="M383.593,304.084h-8.126a5.417,5.417,0,0,1,5.417-5.417h8.126A5.417,5.417,0,0,1,383.593,304.084Z" transform="translate(-335.74 -267.066)" fill="#fec9a3"/>
      <g id="Grupo_1162174" data-name="Grupo 1162174" transform="translate(37.921 4.514)">
        <rect id="Rectángulo_411823" data-name="Rectángulo 411823" width="6.32" height="1.806" fill="#ccbfb0"/>
        <rect id="Rectángulo_411824" data-name="Rectángulo 411824" width="3.612" height="1.806" transform="translate(8.126)" fill="#ccbfb0"/>
        <rect id="Rectángulo_411825" data-name="Rectángulo 411825" width="11.738" height="1.806" transform="translate(0 3.612)" fill="#ccbfb0"/>
        <rect id="Rectángulo_411826" data-name="Rectángulo 411826" width="6.32" height="1.806" transform="translate(0 7.223)" fill="#ccbfb0"/>
      </g>
      <path id="Trazado_994815" data-name="Trazado 994815" d="M143.762,251.125v-3.658h-7.228v3.658a8.06,8.06,0,0,0,7.232,0Z" transform="translate(-122.088 -221.283)" fill="#f7c097"/>
      <path id="Trazado_994816" data-name="Trazado 994816" d="M93.867,90.221v3.888a8.126,8.126,0,1,0,16.252,0V86.885a8.082,8.082,0,0,0-.972-3.855Z" transform="translate(-83.935 -74.245)" fill="#fec9a3"/>
      <rect id="Rectángulo_411827" data-name="Rectángulo 411827" width="12.64" height="9.932" transform="translate(11.738 37.921)" fill="#e8594a"/>
      <path id="Trazado_994817" data-name="Trazado 994817" d="M47.357,311.714l-4.514,8.126v-7.223a5.417,5.417,0,0,0-5.417-5.417H34.536l-8.848,11.737-8.4-11.737H13.95a5.417,5.417,0,0,0-5.417,5.417v16.252H45.551l9.029-17.155Z" transform="translate(-7.63 -274.696)" fill="#4398d1"/>
      <path id="Trazado_994818" data-name="Trazado 994818" d="M169.488,312h-7.223l-4.514,8.126v-7.223a5.417,5.417,0,0,0-4.822-5.383c-1.625,12.612-9.2,18.708-15.891,21.635h23.422Z" transform="translate(-122.538 -274.986)" fill="#3f8fc4"/>
      <g id="Grupo_1162175" data-name="Grupo 1162175" transform="translate(4.515 40.545)">
        <path id="Trazado_994819" data-name="Trazado 994819" d="M46.249,396.826H44.443v-2.4a9,9,0,0,1-.373-10.187l.66-1.04,1.525.968-.66,1.039a7.193,7.193,0,0,0,.456,8.348.9.9,0,0,1,.2.564v2.709Z" transform="translate(-42.669 -383.198)" fill="#3685ba"/>
        <path id="Trazado_994820" data-name="Trazado 994820" d="M266.584,396.826h-1.806v-2.709a.9.9,0,0,1,.2-.564,7.192,7.192,0,0,0,.456-8.347l-.66-1.04,1.525-.968.66,1.04a9,9,0,0,1-.373,10.187Z" transform="translate(-241.272 -383.198)" fill="#3685ba"/>
      </g>
      <path id="Trazado_994821" data-name="Trazado 994821" d="M178.793,94.107V86.884a8.082,8.082,0,0,0-.972-3.855l-2.292,1.078a12.585,12.585,0,0,1,.555,3.68v9.029a5.417,5.417,0,0,1-5.417,5.417,8.125,8.125,0,0,0,8.126-8.126Z" transform="translate(-152.609 -74.244)" fill="#f7c097"/>
      <path id="Trazado_994822" data-name="Trazado 994822" d="M63.432,27.989h-.9V29.8h.9a6.327,6.327,0,0,0,6.32-6.32V13.543a13.543,13.543,0,0,0-27.087,0v9.932a6.327,6.327,0,0,0,6.32,6.32h.9V27.99h-.9a4.52,4.52,0,0,1-4.514-4.514V13.543a11.738,11.738,0,0,1,23.475,0v9.932A4.52,4.52,0,0,1,63.432,27.989Z" transform="translate(-38.152)"/>
      <path id="Trazado_994823" data-name="Trazado 994823" d="M46.254,384.166l-1.525-.968-.66,1.04a9,9,0,0,0,.373,10.187v2.4h1.806v-2.709a.9.9,0,0,0-.2-.564,7.193,7.193,0,0,1-.456-8.348Z" transform="translate(-38.153 -342.653)"/>
      <path id="Trazado_994824" data-name="Trazado 994824" d="M331.985,0H320.247a4.52,4.52,0,0,0-4.514,4.514v9.029a4.52,4.52,0,0,0,4.514,4.514h1.806v3.612a.9.9,0,0,0,.557.834.9.9,0,0,0,.984-.2l4.25-4.25h4.141a4.52,4.52,0,0,0,4.514-4.515V4.514A4.52,4.52,0,0,0,331.985,0Zm2.709,13.543a2.708,2.708,0,0,1-2.709,2.709h-4.514a.9.9,0,0,0-.638.265l-2.973,2.973V17.155a.9.9,0,0,0-.9-.9h-2.709a2.708,2.708,0,0,1-2.709-2.709V4.514a2.708,2.708,0,0,1,2.709-2.709h11.738a2.708,2.708,0,0,1,2.709,2.709Z" transform="translate(-282.326)"/>
      <rect id="Rectángulo_411828" data-name="Rectángulo 411828" width="6.32" height="1.806" transform="translate(37.921 4.514)"/>
      <rect id="Rectángulo_411829" data-name="Rectángulo 411829" width="3.612" height="1.806" transform="translate(46.047 4.514)"/>
      <rect id="Rectángulo_411830" data-name="Rectángulo 411830" width="11.738" height="1.806" transform="translate(37.921 8.126)"/>
      <rect id="Rectángulo_411831" data-name="Rectángulo 411831" width="6.32" height="1.806" transform="translate(37.921 11.738)"/>
      <path id="Trazado_994825" data-name="Trazado 994825" d="M264.778,394.118v2.709h1.806v-2.4a9,9,0,0,0,.373-10.187l-.66-1.04-1.525.968.66,1.04a7.192,7.192,0,0,1-.456,8.347A.9.9,0,0,0,264.778,394.118Z" transform="translate(-236.757 -342.653)"/>
      <path id="Trazado_994826" data-name="Trazado 994826" d="M1.806,104.542a4.52,4.52,0,0,1,4.514-4.514H9.193l8.13,11.36a.9.9,0,0,0,.722.377h.012a.9.9,0,0,0,.722-.361l8.577-11.376H29.8a4.52,4.52,0,0,1,4.514,4.514v7.223A.9.9,0,0,0,36,112.2l4.256-7.661h5.176l-8.8,16.252h2.054l8.807-16.252h.361a6.327,6.327,0,0,0,6.32-6.32.9.9,0,0,0-.9-.9H45.145a6.32,6.32,0,0,0-6.308,6.063l-2.721,4.9v-3.739a6.327,6.327,0,0,0-6.32-6.32H26.5l-.024-.019-.016.019H24.378a1.805,1.805,0,0,1-1.806-1.806V94.292a9.029,9.029,0,0,0,4.514-7.807V79.261A9.044,9.044,0,0,0,26,74.976a.9.9,0,0,0-1.174-.388L9.547,81.779a.9.9,0,0,0-.518.817v3.889a9.029,9.029,0,0,0,4.514,7.807v2.124a1.805,1.805,0,0,1-1.806,1.806H6.32A6.327,6.327,0,0,0,0,104.542v16.252H1.806Zm43.339-5.417h7.133a4.522,4.522,0,0,1-4.424,3.612H40.72A4.522,4.522,0,0,1,45.144,99.125ZM18.077,109.338l-2.786-3.893h5.721ZM10.835,86.485V83.169l13.941-6.56a7.227,7.227,0,0,1,.5,2.653v7.223a7.223,7.223,0,1,1-14.446,0Zm.9,13.543a3.612,3.612,0,0,0,3.612-3.612V95.1a9.017,9.017,0,0,0,5.417,0v1.319a3.612,3.612,0,0,0,3.612,3.612H25.1l-2.723,3.612H13.995l-2.585-3.612Z" transform="translate(0 -66.621)"/>
    </g>
  </g>
</svg>
