<svg xmlns="http://www.w3.org/2000/svg" xmlns:xlink="http://www.w3.org/1999/xlink" width="400" height="272" viewBox="0 0 400 272">
  <defs>
    <clipPath id="clip-path">
      <rect id="Rectángulo_411902" data-name="Rectángulo 411902" width="400" height="272" transform="translate(915 1296)" fill="#fff" stroke="#707070" stroke-width="1"/>
    </clipPath>
    <clipPath id="clip-path-2">
      <rect id="Rectángulo_411901" data-name="Rectángulo 411901" width="365.578" height="405.224" fill="none"/>
    </clipPath>
    <clipPath id="clip-path-5">
      <rect id="Rectángulo_411874" data-name="Rectángulo 411874" width="33.592" height="109.471" fill="none"/>
    </clipPath>
    <clipPath id="clip-path-6">
      <rect id="Rectángulo_411889" data-name="Rectángulo 411889" width="365.578" height="365.578" fill="none"/>
    </clipPath>
    <clipPath id="clip-path-7">
      <rect id="Rectángulo_411882" data-name="Rectángulo 411882" width="248.908" height="313.263" fill="none"/>
    </clipPath>
    <clipPath id="clip-path-8">
      <rect id="Rectángulo_411883" data-name="Rectángulo 411883" width="6.329" height="21.284" fill="none"/>
    </clipPath>
    <clipPath id="clip-path-9">
      <rect id="Rectángulo_411884" data-name="Rectángulo 411884" width="13.654" height="8.722" fill="none"/>
    </clipPath>
    <clipPath id="clip-path-10">
      <rect id="Rectángulo_411886" data-name="Rectángulo 411886" width="33.191" height="13.319" fill="none"/>
    </clipPath>
    <clipPath id="clip-path-11">
      <rect id="Rectángulo_411887" data-name="Rectángulo 411887" width="52.116" height="55.064" fill="none"/>
    </clipPath>
    <clipPath id="clip-path-12">
      <rect id="Rectángulo_411888" data-name="Rectángulo 411888" width="8.998" height="49.533" fill="none"/>
    </clipPath>
    <clipPath id="clip-path-13">
      <path id="Trazado_996183" data-name="Trazado 996183" d="M188.578,392.491a505.476,505.476,0,0,0-8.857,78.131h113.5a201.084,201.084,0,0,0-34.8-79.9Z" transform="translate(-179.721 -390.719)" fill="none"/>
    </clipPath>
    <clipPath id="clip-path-15">
      <rect id="Rectángulo_411890" data-name="Rectángulo 411890" width="75.725" height="16.683" fill="none"/>
    </clipPath>
    <clipPath id="clip-path-16">
      <rect id="Rectángulo_411891" data-name="Rectángulo 411891" width="13.239" height="15.727" fill="none"/>
    </clipPath>
    <clipPath id="clip-path-17">
      <rect id="Rectángulo_411892" data-name="Rectángulo 411892" width="34.827" height="76.803" fill="none"/>
    </clipPath>
    <clipPath id="clip-path-19">
      <rect id="Rectángulo_411894" data-name="Rectángulo 411894" width="39.149" height="39.15" fill="none"/>
    </clipPath>
    <clipPath id="clip-path-20">
      <rect id="Rectángulo_411895" data-name="Rectángulo 411895" width="42.495" height="36.518" fill="none"/>
    </clipPath>
    <clipPath id="clip-path-21">
      <rect id="Rectángulo_411896" data-name="Rectángulo 411896" width="42.226" height="54.712" fill="none"/>
    </clipPath>
    <clipPath id="clip-path-22">
      <rect id="Rectángulo_411897" data-name="Rectángulo 411897" width="42.2" height="46.937" fill="none"/>
    </clipPath>
  </defs>
  <g id="Enmascarar_grupo_1098678" data-name="Enmascarar grupo 1098678" transform="translate(-915 -1296)" clip-path="url(#clip-path)">
    <g id="Grupo_1162400" data-name="Grupo 1162400" transform="translate(949.422 1219)">
      <g id="Grupo_1162399" data-name="Grupo 1162399" clip-path="url(#clip-path-2)">
        <g id="Grupo_1162346" data-name="Grupo 1162346">
          <g id="Grupo_1162345" data-name="Grupo 1162345" clip-path="url(#clip-path-2)">
            <path id="Trazado_996100" data-name="Trazado 996100" d="M283.307,151.563a74.355,74.355,0,0,0-56.094-26.513c-20.942-.092-40.814,8.712-59.541,18.087-26.329,13.181-51.959,27.86-75.956,44.921-17.858,12.7-35.357,27.412-44.529,47.312-12.849,27.881-6.659,61.972,10.292,87.568s43.271,43.675,70.969,56.916c23.594,11.278,49.492,19.619,75.543,17.351,25.219-2.193,48.815-14.282,68.324-30.413,31.447-26,53.783-63.917,57.2-104.576s-19.028-77.858-46.21-110.653" transform="translate(-10.841 -33.619)" fill="#9cd6b4"/>
          </g>
        </g>
        <g id="Grupo_1162351" data-name="Grupo 1162351">
          <g id="Grupo_1162350" data-name="Grupo 1162350" clip-path="url(#clip-path-2)">
            <path id="Trazado_996101" data-name="Trazado 996101" d="M444.379,187.755c-.84-.84.067-3.11,2.027-5.07s4.23-2.868,5.07-2.028-.067,3.11-2.027,5.069-4.23,2.868-5.07,2.028" transform="translate(-119.384 -48.484)" fill="#e6ebee"/>
            <path id="Trazado_996102" data-name="Trazado 996102" d="M447.943,247.412c.276-1.156,2.685-1.572,5.381-.929s4.659,2.1,4.383,3.257-2.686,1.571-5.381.929-4.658-2.1-4.383-3.257" transform="translate(-120.42 -66.184)" fill="#e6ebee"/>
            <path id="Trazado_996103" data-name="Trazado 996103" d="M448.282,256.447c.672-.719,2.255-.333,3.537.864s1.778,2.75,1.107,3.469-2.256.333-3.538-.863-1.778-2.751-1.106-3.47" transform="translate(-120.437 -68.847)" fill="#e6ebee"/>
            <path id="Trazado_996104" data-name="Trazado 996104" d="M131.009,225.6c-.245-1.163,1.754-2.569,4.467-3.143s5.11-.094,5.355,1.069-1.755,2.569-4.466,3.143-5.109.094-5.356-1.069" transform="translate(-35.215 -59.743)" fill="#e6ebee"/>
            <path id="Trazado_996105" data-name="Trazado 996105" d="M135.124,234.175c.3-.938,1.9-1.266,3.567-.733s2.784,1.725,2.486,2.662-1.9,1.266-3.568.733-2.784-1.725-2.484-2.662" transform="translate(-36.314 -62.691)" fill="#e6ebee"/>
            <path id="Trazado_996106" data-name="Trazado 996106" d="M365.06,191.792c.714-.95,3.089-.371,5.305,1.294s3.434,3.785,2.721,4.734-3.089.371-5.305-1.293-3.434-3.784-2.721-4.735" transform="translate(-98.09 -51.439)" fill="#e6ebee"/>
            <path id="Trazado_996107" data-name="Trazado 996107" d="M374.551,178.5c.932-.315,2.144.775,2.707,2.436s.265,3.265-.668,3.58-2.144-.775-2.707-2.436-.265-3.265.668-3.58" transform="translate(-100.44 -47.973)" fill="#e6ebee"/>
            <path id="Trazado_996108" data-name="Trazado 996108" d="M49.182,246.978c-.164-1.177,1.4-2.367,3.5-2.659s3.931.426,4.1,1.6-1.4,2.367-3.5,2.659-3.931-.426-4.1-1.6" transform="translate(-13.219 -65.666)" fill="#e6ebee"/>
            <path id="Trazado_996109" data-name="Trazado 996109" d="M392.294,143.668a3.869,3.869,0,1,0,.086,5.745,3.921,3.921,0,0,0-.086-5.745" transform="translate(-103.755 -38.381)" fill="#9cd6b4"/>
            <path id="Trazado_996110" data-name="Trazado 996110" d="M462.468,399.08a3.869,3.869,0,1,0,.086,5.745,3.921,3.921,0,0,0-.086-5.745" transform="translate(-122.621 -107.047)" fill="#9cd6b4"/>
            <path id="Trazado_996111" data-name="Trazado 996111" d="M63.749,417.9a3.869,3.869,0,1,0,.086,5.745,3.921,3.921,0,0,0-.086-5.745" transform="translate(-15.427 -112.106)" fill="#9cd6b4"/>
            <path id="Trazado_996112" data-name="Trazado 996112" d="M406.367,108.492a8.92,8.92,0,1,0,.2,13.244,9.038,9.038,0,0,0-.2-13.244" transform="translate(-105.305 -28.606)" fill="#9cd6b4"/>
            <path id="Trazado_996113" data-name="Trazado 996113" d="M41.45,52.005a3.87,3.87,0,1,0,.086,5.745,3.922,3.922,0,0,0-.086-5.745" transform="translate(-9.432 -13.738)" fill="#9cd6b4"/>
            <path id="Trazado_996114" data-name="Trazado 996114" d="M47.352,204.544a3.761,3.761,0,1,0,.083,5.583,3.81,3.81,0,0,0-.083-5.583" transform="translate(-11.067 -54.754)" fill="#9cd6b4"/>
            <path id="Trazado_996115" data-name="Trazado 996115" d="M450.954,342.649a1.88,1.88,0,1,0-.738,3.27,1.946,1.946,0,0,0,.738-3.27" transform="translate(-120.411 -92.019)" fill="#9cd6b4"/>
            <path id="Trazado_996116" data-name="Trazado 996116" d="M60.635,197.807a1.88,1.88,0,1,0-.738,3.27,1.946,1.946,0,0,0,.738-3.27" transform="translate(-15.476 -53.079)" fill="#9cd6b4"/>
            <path id="Trazado_996117" data-name="Trazado 996117" d="M370.409,130.841a1.88,1.88,0,1,0-.738,3.27,1.946,1.946,0,0,0,.738-3.27" transform="translate(-98.757 -35.075)" fill="#9cd6b4"/>
            <path id="Trazado_996118" data-name="Trazado 996118" d="M70.806,431.221a1.88,1.88,0,1,0-.738,3.27,1.946,1.946,0,0,0,.738-3.27" transform="translate(-18.21 -115.831)" fill="#9cd6b4"/>
            <g id="Grupo_1162349" data-name="Grupo 1162349" transform="translate(83.877 226.983)" opacity="0.12" style="mix-blend-mode: multiply;isolation: isolate">
              <g id="Grupo_1162348" data-name="Grupo 1162348">
                <g id="Grupo_1162347" data-name="Grupo 1162347" clip-path="url(#clip-path-5)">
                  <path id="Trazado_996119" data-name="Trazado 996119" d="M146.726,318.558l-3.344-.042.025-1.966.053-4.244a1.605,1.605,0,0,0-1.584-1.625l-18.825-.237a1.6,1.6,0,0,0-1.625,1.584l-.053,4.244-.025,1.966L118,318.2a1.6,1.6,0,0,0-1.625,1.584l-.034,2.639a1.6,1.6,0,0,0,1.584,1.625l3.648.046-1.07,85.033-2.51-.032a3.188,3.188,0,0,0-3.227,3.148l-.052,4.115a3.188,3.188,0,0,0,3.148,3.227l26.447.333a3.187,3.187,0,0,0,3.227-3.147l.052-4.115a3.187,3.187,0,0,0-3.148-3.227l-2.509-.032L143,324.361l3.648.046a1.6,1.6,0,0,0,1.625-1.584l.034-2.639a1.6,1.6,0,0,0-1.584-1.625m-11.674,90.748-9.982-.126,2.32.029,1.07-85.032,7.663.1Z" transform="translate(-114.718 -310.444)" fill="#1e324d"/>
                </g>
              </g>
            </g>
            <rect id="Rectángulo_411875" data-name="Rectángulo 411875" width="6.882" height="85.034" transform="translate(87.747 240.076)" fill="#787bd6"/>
            <line id="Línea_731" data-name="Línea 731" y2="85.034" transform="translate(89.727 240.076)" fill="none" stroke="#1e324d" stroke-linecap="round" stroke-linejoin="round" stroke-width="1"/>
            <rect id="Rectángulo_411876" data-name="Rectángulo 411876" width="6.882" height="85.034" transform="translate(102.294 240.076)" fill="#787bd6"/>
            <line id="Línea_732" data-name="Línea 732" y2="85.034" transform="translate(106.906 240.076)" fill="none" stroke="#1e324d" stroke-linecap="round" stroke-linejoin="round" stroke-width="1"/>
            <path id="Trazado_996120" data-name="Trazado 996120" d="M141.856,444.653H115.407a3.188,3.188,0,0,0-3.188,3.188v4.115a3.188,3.188,0,0,0,3.188,3.188h26.449a3.188,3.188,0,0,0,3.188-3.188v-4.115a3.188,3.188,0,0,0-3.188-3.188" transform="translate(-30.169 -119.542)" fill="#1e324d"/>
            <path id="Trazado_996121" data-name="Trazado 996121" d="M130.857,446.586h4.8a1.432,1.432,0,0,1,1.432,1.432v4.8a1.432,1.432,0,0,1-1.432,1.432h-4.8a1.432,1.432,0,0,1-1.432-1.432v-4.8a1.432,1.432,0,0,1,1.432-1.432" transform="translate(-34.795 -120.062)" fill="#fabf4b"/>
            <path id="Trazado_996122" data-name="Trazado 996122" d="M131.938,453.519v-4.084l-.654.349v-.879c.019-.009.079-.045.181-.107l.279-.167q.125-.076.261-.165a1.922,1.922,0,0,0,.186-.133h.935v5.185Z" transform="translate(-35.295 -120.532)" fill="#ff8f4a"/>
            <path id="Trazado_996123" data-name="Trazado 996123" d="M136.066,451.5a1.3,1.3,0,0,1-.817-.243.846.846,0,0,1-.315-.71v-1.364a.845.845,0,0,1,.315-.712,1.3,1.3,0,0,1,.817-.242,1.319,1.319,0,0,1,.825.244.838.838,0,0,1,.32.71v1.364a.841.841,0,0,1-.32.71,1.323,1.323,0,0,1-.825.243m0-.663c.146,0,.219-.093.219-.278v-1.388c0-.186-.074-.279-.219-.279s-.21.093-.21.279v1.388a.328.328,0,0,0,.056.209.188.188,0,0,0,.154.069" transform="translate(-36.276 -120.503)" fill="#ff8f4a"/>
            <path id="Trazado_996124" data-name="Trazado 996124" d="M143.158,320.346H114.433a1.605,1.605,0,0,0-1.6,1.6v2.639a1.6,1.6,0,0,0,1.6,1.6h28.725a1.6,1.6,0,0,0,1.6-1.6v-2.639a1.605,1.605,0,0,0-1.6-1.6" transform="translate(-30.333 -86.123)" fill="#fabf4b"/>
            <path id="Trazado_996125" data-name="Trazado 996125" d="M140.029,309.656H121.2a1.6,1.6,0,0,0-1.6,1.6v4.244h22.036v-4.244a1.605,1.605,0,0,0-1.6-1.6" transform="translate(-32.153 -83.249)" fill="#fabf4b"/>
            <rect id="Rectángulo_411877" data-name="Rectángulo 411877" width="22.036" height="1.967" transform="translate(87.444 232.256)" fill="#1e324d"/>
            <rect id="Rectángulo_411878" data-name="Rectángulo 411878" width="6.882" height="16.497" transform="translate(245.282 308.613)" fill="#787bd6"/>
            <line id="Línea_733" data-name="Línea 733" y2="16.497" transform="translate(247.262 308.613)" fill="none" stroke="#1e324d" stroke-linecap="round" stroke-linejoin="round" stroke-width="1"/>
            <rect id="Rectángulo_411879" data-name="Rectángulo 411879" width="6.883" height="16.497" transform="translate(259.829 308.613)" fill="#787bd6"/>
            <line id="Línea_734" data-name="Línea 734" y2="16.497" transform="translate(264.441 308.613)" fill="none" stroke="#1e324d" stroke-linecap="round" stroke-linejoin="round" stroke-width="1"/>
            <path id="Trazado_996126" data-name="Trazado 996126" d="M357.316,440.652h-26.45a3.188,3.188,0,0,0-3.188,3.188v7.04a3.188,3.188,0,0,0,3.188,3.187h26.45a3.187,3.187,0,0,0,3.187-3.187v-7.04a3.188,3.188,0,0,0-3.187-3.188" transform="translate(-88.095 -118.467)" fill="#1e324d"/>
            <path id="Trazado_996127" data-name="Trazado 996127" d="M334.37,444.257h4.8a1.432,1.432,0,0,1,1.432,1.432v4.8a1.432,1.432,0,0,1-1.432,1.432h-4.8a1.432,1.432,0,0,1-1.432-1.432v-4.8a1.432,1.432,0,0,1,1.432-1.432" transform="translate(-89.508 -119.436)" fill="#fabf4b"/>
            <path id="Trazado_996128" data-name="Trazado 996128" d="M335.451,451.19v-4.084l-.654.35v-.879c.019-.01.079-.045.181-.107l.279-.167q.125-.076.261-.164a1.915,1.915,0,0,0,.186-.133h.935v5.185Z" transform="translate(-90.008 -119.906)" fill="#ff8f4a"/>
            <path id="Trazado_996129" data-name="Trazado 996129" d="M339.579,449.17a1.3,1.3,0,0,1-.818-.243.847.847,0,0,1-.314-.71v-1.364a.847.847,0,0,1,.314-.712,1.3,1.3,0,0,1,.818-.242,1.319,1.319,0,0,1,.826.244.837.837,0,0,1,.319.71v1.364a.84.84,0,0,1-.319.71,1.323,1.323,0,0,1-.826.243m0-.663c.146,0,.219-.093.219-.278v-1.388c0-.186-.074-.279-.219-.279s-.21.093-.21.279v1.388a.326.326,0,0,0,.056.209.188.188,0,0,0,.154.069" transform="translate(-90.989 -119.877)" fill="#ff8f4a"/>
            <path id="Trazado_996130" data-name="Trazado 996130" d="M360.293,449.826H348.22a1.8,1.8,0,0,0,0,3.592h12.073a1.8,1.8,0,0,0,0-3.592" transform="translate(-93.134 -120.933)" fill="#fabf4b"/>
            <line id="Línea_735" data-name="Línea 735" x2="12.66" transform="translate(254.792 331.285)" fill="none" stroke="#1e324d" stroke-linecap="round" stroke-linejoin="round" stroke-width="1"/>
            <path id="Trazado_996131" data-name="Trazado 996131" d="M358.618,414.083H329.893a1.605,1.605,0,0,0-1.6,1.6v2.639a1.6,1.6,0,0,0,1.6,1.6h28.725a1.6,1.6,0,0,0,1.6-1.6v-2.639a1.605,1.605,0,0,0-1.6-1.6" transform="translate(-88.258 -111.324)" fill="#fabf4b"/>
            <path id="Trazado_996132" data-name="Trazado 996132" d="M355.489,403.394H336.662a1.6,1.6,0,0,0-1.6,1.6v4.244h22.036V405a1.605,1.605,0,0,0-1.6-1.6" transform="translate(-90.078 -108.45)" fill="#fabf4b"/>
            <rect id="Rectángulo_411880" data-name="Rectángulo 411880" width="22.036" height="1.967" transform="translate(244.979 300.792)" fill="#1e324d"/>
          </g>
        </g>
        <g id="Grupo_1162371" data-name="Grupo 1162371" transform="translate(0 0.001)">
          <g id="Grupo_1162370" data-name="Grupo 1162370" clip-path="url(#clip-path-6)">
            <g id="Grupo_1162354" data-name="Grupo 1162354" transform="translate(43.938 73.222)" opacity="0.12" style="mix-blend-mode: multiply;isolation: isolate">
              <g id="Grupo_1162353" data-name="Grupo 1162353">
                <g id="Grupo_1162352" data-name="Grupo 1162352" clip-path="url(#clip-path-7)">
                  <path id="Trazado_996133" data-name="Trazado 996133" d="M304.055,276.838c-3.671-7.116-8.854-13.334-14.244-19.254-11.808-12.97-25.468-25.2-42.281-30.2a64.416,64.416,0,0,0-10.266-2.134,86.13,86.13,0,0,0-13.151-.589,26.249,26.249,0,0,0,12.452-8.788c2.375,1.3,5.549,3.241,8.813,2.793a9.353,9.353,0,0,0,6.468-4.838,27.707,27.707,0,0,0,2.647-7.9,29.329,29.329,0,0,0-8.34-57.669c1.067-2.118,2.06-3.074,2.664-4.274a4.315,4.315,0,0,0,.142-3.877A4.511,4.511,0,0,0,244.921,138a13.269,13.269,0,0,0-4.627,1.134c2.162-5.5,3.866-11.6,3.677-17.812s-2.506-12.589-7.315-16.519c-4.587-3.749-10.836-4.84-16.757-4.631a46.315,46.315,0,0,0-38.781,24.66c-1.449-1.208-3.269-2.963-5.536-3.007a5.629,5.629,0,0,0-4.867,3.331,12.231,12.231,0,0,0-.91,6.091,20.3,20.3,0,0,0-10.764-5.114,14.757,14.757,0,0,0-10.7,2.612c-3.423,2.6-5.259,6.8-6.278,10.98a40.6,40.6,0,0,0,3.436,28.153c-7.809,4.6-11.695,13.871-9.453,21.848a19.1,19.1,0,0,0,18.665,13.493,22.037,22.037,0,0,0-1.217,8.152,11.215,11.215,0,0,0,3.463,7.466c2.251,2.022,5.34,2.824,8.341,3.209a39.515,39.515,0,0,0,22.685-3.96c0,.67,0,1.341.009,2.011l0,0L178.5,227.75l0,0c-5.888-.175-11.625,0-17.077,1.886a28.025,28.025,0,0,0-3.154,1.311,29.15,29.15,0,0,0-12.8,12.271,30.072,30.072,0,0,0-2.393,22.14,275.95,275.95,0,0,0,9.7,29.8q-.136,1.249-.276,2.5c-.505,4.5-1.007,9.2-.376,13.637a35.727,35.727,0,0,0-8.412-3.945c-4.841-1.436-10.445-1.229-14.5,1.776a11.812,11.812,0,0,0-3.009-1.891,3.194,3.194,0,0,0-3.688.573c-1.978-1.221-4.017-2.339-6.1-3.372-.088-2.3-.855-3.736-2.3-4.255a2.909,2.909,0,0,0-1.057-.163l-.034,0h-.009a1.116,1.116,0,0,0-.233.036,3.807,3.807,0,0,0-2.375,1.27c-.1.11-.169.23-.253.345-1.806-.7-3.637-1.331-5.492-1.887a92.949,92.949,0,0,0-3.709-9.041c-.45-.914-1.139-1.947-2.158-1.914a1.881,1.881,0,0,0-1.593,1.413,3.745,3.745,0,0,0-.132,1.2l-.824.03-1.5-41.2a4.769,4.769,0,0,0-4.94-4.592l-21.571.787a4.769,4.769,0,0,0-4.592,4.94l1.5,41.2-1.978.072a3.189,3.189,0,0,0-3.071,3.3l.285,7.814a3.19,3.19,0,0,0,3.3,3.071l10.05-.367c.137.126.278.248.42.364l.226.182q-.715.045-1.429.117c-.583.06-1.259.193-1.519.718-.388.779.458,1.59,1.213,2.019,5.849,3.327,12.715,4.211,19.218,5.936a73.8,73.8,0,0,1,12.161,4.426,19.754,19.754,0,0,0-.928,9.416,4.814,4.814,0,0,0,1.438,3.112,3.351,3.351,0,0,0,1.968.765h0a4.1,4.1,0,0,0,1.1-.084,4.409,4.409,0,0,0,1.455-.594,7.829,7.829,0,0,0,2.522-3.023,32.385,32.385,0,0,0,1.939-4.288c.594.39,1.186.784,1.768,1.192a3.176,3.176,0,0,0,1.165,1.781C117.994,329.7,120,331.16,120,331.16c-1.466,5.08.522,10.69,4,14.675s8.251,6.592,13.08,8.744a103.953,103.953,0,0,0,15.185,5.381,473.923,473.923,0,0,0-3.8,53.083,244.706,244.706,0,0,0,32.5-.393c26.689-2.009,53.925-7.8,75.9-23.07a194.115,194.115,0,0,0-8.466-28.926q6.24-5.786,12.131-11.934c.071.035.14.074.212.107a3.552,3.552,0,0,0,4.047-.694L271.2,341.7a14.224,14.224,0,0,0,1.906.141c8.135.029,14.432-6.795,19.61-13.066,7.079-8.57,14.435-17.75,15.986-28.756,1.116-7.929-.976-16.064-4.647-23.181M109.6,328.769a5.883,5.883,0,0,1-1.758,2.2,2.082,2.082,0,0,1-1.2.325h0a1.1,1.1,0,0,1-.655-.238,2.893,2.893,0,0,1-.659-1.712,17.489,17.489,0,0,1,.744-8.1c1.877.944,3.706,1.976,5.5,3.075a30.415,30.415,0,0,1-1.968,4.445m2.777-26.2a1.35,1.35,0,0,1,.729-.292h0a.656.656,0,0,1,.246.034,1.305,1.305,0,0,1,.659.988c-.544-.246-1.085-.5-1.635-.73m149.336-9.435c-2.184,7.7-10.2,12.764-12.036,20.548-1.091,4.617.224,9.247,2.678,13.392-1.3.86-2.619,1.75-4.007,2.781a3.559,3.559,0,0,0-1.428,3.037c-1.777.434-3.559.844-5.351,1.214-1.689.348-3.385.659-5.084.95q-3.358-6.022-7.148-11.789c.5-.31.991-.63,1.471-.973,9.128-6.531,13.095-18.214,14.285-29.374.885-8.288.548-16.678,1.032-24.987a37.349,37.349,0,0,1,7.937,5.011c5.82,4.9,9.728,12.868,7.65,20.189" transform="translate(-60.094 -100.146)" fill="#1e324d"/>
                </g>
              </g>
            </g>
            <path id="Trazado_996134" data-name="Trazado 996134" d="M214.809,214.67a36.776,36.776,0,0,1-25.7,7.091c-2.8-.3-5.7-.984-7.835-2.822a10.452,10.452,0,0,1-3.376-6.887,20.512,20.512,0,0,1,.971-7.619,17.8,17.8,0,0,1-17.661-12.2c-2.249-7.386,1.186-16.1,8.37-20.545a37.831,37.831,0,0,1-3.766-26.161c.866-3.913,2.492-7.863,5.63-10.355a13.749,13.749,0,0,1,9.915-2.648,18.925,18.925,0,0,1,10.132,4.55,11.4,11.4,0,0,1,.725-5.693,5.245,5.245,0,0,1,4.468-3.2c2.114-.005,3.844,1.594,5.218,2.691a43.162,43.162,0,0,1,35.638-23.754c5.511-.314,11.356.578,15.705,3.979,4.559,3.565,6.845,9.464,7.147,15.244s-1.165,11.505-3.069,16.67a12.379,12.379,0,0,1,4.288-1.15,4.206,4.206,0,0,1,3.8,1.889,4.024,4.024,0,0,1-.054,3.615c-.539,1.13-1.446,2.041-2.4,4.036a27.334,27.334,0,0,1,8.926,53.563,25.811,25.811,0,0,1-2.307,7.411,8.719,8.719,0,0,1-5.929,4.637c-3.031.483-6.028-1.266-8.267-2.426a24.555,24.555,0,0,1-19.608,9.868c-7.6-.042-15.074-3.911-20.967-9.783" transform="translate(-43.156 -28.783)" fill="#d669a2"/>
            <path id="Trazado_996135" data-name="Trazado 996135" d="M197.075,195.14a6,6,0,0,0-6.683.059,8.392,8.392,0,0,0-3.446,5.974,14.251,14.251,0,0,0,1.1,6.953,12.635,12.635,0,0,0,4.6,6.126,6.885,6.885,0,0,0,7.351.277Z" transform="translate(-50.237 -52.197)" fill="#85473d"/>
            <g id="Grupo_1162357" data-name="Grupo 1162357" transform="translate(143.43 141.977)" opacity="0.12" style="mix-blend-mode: multiply;isolation: isolate">
              <g id="Grupo_1162356" data-name="Grupo 1162356">
                <g id="Grupo_1162355" data-name="Grupo 1162355" clip-path="url(#clip-path-8)">
                  <path id="Trazado_996136" data-name="Trazado 996136" d="M196.682,194.182a51.47,51.47,0,0,0,1.416,21.191,6.142,6.142,0,0,0,4.4-.836l-2.921-19.389a5.306,5.306,0,0,0-2.9-.966" transform="translate(-196.169 -194.182)" fill="#1e324d"/>
                </g>
              </g>
            </g>
            <path id="Trazado_996137" data-name="Trazado 996137" d="M229.58,238.333a205.949,205.949,0,0,0,1.233,25.121s13.622-1.367,14.141-1.551a197.136,197.136,0,0,0-2.822-26.483Z" transform="translate(-61.717 -63.292)" fill="#85473d"/>
            <g id="Grupo_1162360" data-name="Grupo 1162360" transform="translate(167.849 172.129)" opacity="0.12" style="mix-blend-mode: multiply;isolation: isolate">
              <g id="Grupo_1162359" data-name="Grupo 1162359">
                <g id="Grupo_1162358" data-name="Grupo 1162358" clip-path="url(#clip-path-9)">
                  <path id="Trazado_996138" data-name="Trazado 996138" d="M243.221,242.368q-.484-3.483-1.089-6.948l-12.552,2.913q-.033,2.773.012,5.546a28.008,28.008,0,0,0,13.629-1.511" transform="translate(-229.567 -235.421)" fill="#1e324d"/>
                </g>
              </g>
            </g>
            <path id="Trazado_996139" data-name="Trazado 996139" d="M254.49,202.9a12.749,12.749,0,0,0,8.269,4.012c5.664.555,11.865-1.119,15.217-5.718a13.2,13.2,0,0,0,1.815-11.723,13.5,13.5,0,0,0-8.4-8.41,13.807,13.807,0,0,0-11.8,1.552c-.944,1.542-1.862,3.688-3.1,5.626a4.639,4.639,0,0,1-1.79,1.818,2.4,2.4,0,0,1-3.032-.884,4.137,4.137,0,0,1-.249-2.506c.3-2.59.74-5.164.922-8.063-4.421,1.8-9.768.154-13.085-3.279a18.784,18.784,0,0,1-4.853-12.593c-1.8-1.391-4.523-.51-6.17,1.059s-2.668,3.691-4.233,5.343a10.967,10.967,0,0,1-8.676,3.344,10.519,10.519,0,0,1-7.973-4.7c-.713,5.2-3.787,10.035-7.982,14.151-.578,5.493-1.156,11.038-.523,16.524s2.588,10.986,6.447,14.935a24.8,24.8,0,0,0,11.571,6.3,33.777,33.777,0,0,0,26.609-4.056A30.694,30.694,0,0,0,254.49,202.9" transform="translate(-53.385 -43.564)" fill="#85473d"/>
            <path id="Trazado_996140" data-name="Trazado 996140" d="M201.88,208.878a7.872,7.872,0,0,0-3.194-.165c.044.755.1,1.508.191,2.261a27.838,27.838,0,0,0,3.878,11.669,7.609,7.609,0,0,0,4.238-5.159,7.236,7.236,0,0,0-5.112-8.606" transform="translate(-53.416 -56.087)" fill="#a85a4d"/>
            <path id="Trazado_996141" data-name="Trazado 996141" d="M273.488,215.269a7.238,7.238,0,0,0-5.112-8.607,7.757,7.757,0,0,0-5.544.59,7.351,7.351,0,0,0,3.616,13.852c.121,0,.24-.016.36-.026a30.714,30.714,0,0,0,3.908-6.251,10.7,10.7,0,0,0,2.265,1.915,6.848,6.848,0,0,0,.507-1.473" transform="translate(-69.611 -55.49)" fill="#a85a4d"/>
            <path id="Trazado_996142" data-name="Trazado 996142" d="M286.028,199.461a20.336,20.336,0,0,1,7.121-.856,14.981,14.981,0,0,0-3.371,2.865,5.06,5.06,0,0,0-1.155,4.137,3.1,3.1,0,0,0,3.206,2.465" transform="translate(-76.897 -53.385)" fill="none" stroke="#6e3a31" stroke-linecap="round" stroke-linejoin="round" stroke-width="1"/>
            <path id="Trazado_996143" data-name="Trazado 996143" d="M228.437,195.436q-.961,1.9-1.922,3.79a2.542,2.542,0,0,0-.389,1.335,1.725,1.725,0,0,0,1.308,1.376,5.093,5.093,0,0,0,2,.022" transform="translate(-60.791 -52.543)" fill="none" stroke="#6e3a31" stroke-linecap="round" stroke-linejoin="round" stroke-width="1"/>
            <path id="Trazado_996144" data-name="Trazado 996144" d="M240.355,208.226a143.86,143.86,0,0,0-21.425,5.27,10.452,10.452,0,0,0,18.337,3.939c2.009-2.542,2.723-5.84,3.088-9.21" transform="translate(-58.858 -55.981)" fill="#1e324d"/>
            <path id="Trazado_996145" data-name="Trazado 996145" d="M220.665,217.1a62.408,62.408,0,0,0,19.3-6.175c.168-.887.3-1.791.395-2.7A143.973,143.973,0,0,0,218.93,213.5a10.234,10.234,0,0,0,1.735,3.607" transform="translate(-58.858 -55.981)" fill="#fff"/>
            <path id="Trazado_996146" data-name="Trazado 996146" d="M233.875,221.869a5.13,5.13,0,0,0-3.412,3.018,10.752,10.752,0,0,0,7.983-1.981,5.355,5.355,0,0,0-4.57-1.038" transform="translate(-61.959 -59.609)" fill="#ff5255"/>
            <path id="Trazado_996147" data-name="Trazado 996147" d="M204.468,190.343c.6,1.677,1.207,3.353,1.819,5.328a7.673,7.673,0,0,1,9,.051" transform="translate(-54.97 -51.173)" fill="none" stroke="#1e324d" stroke-linecap="round" stroke-linejoin="round" stroke-width="1"/>
            <line id="Línea_736" data-name="Línea 736" x1="0.58" y1="3.738" transform="translate(153.048 139.644)" fill="none" stroke="#1e324d" stroke-linecap="round" stroke-linejoin="round" stroke-width="1"/>
            <path id="Trazado_996148" data-name="Trazado 996148" d="M213.984,192.009c-.009.9-.026,1.807-.034,2.7" transform="translate(-57.519 -51.621)" fill="none" stroke="#1e324d" stroke-linecap="round" stroke-linejoin="round" stroke-width="1"/>
            <path id="Trazado_996149" data-name="Trazado 996149" d="M208.905,178.283a12.152,12.152,0,0,0-5.343,1.28c-1.03.566-2.066,1.546-1.894,2.708a2.216,2.216,0,0,0,1.484,1.644,5.06,5.06,0,0,0,2.3.159,19.679,19.679,0,0,0,5.8-1.674,4.934,4.934,0,0,0,1.59-.989,1.883,1.883,0,0,0,.557-1.715,1.92,1.92,0,0,0-1.373-1.264,10.652,10.652,0,0,0-3.119-.15" transform="translate(-54.212 -47.922)" fill="#d669a2"/>
            <path id="Trazado_996150" data-name="Trazado 996150" d="M261.188,191.419c-.667,1.653-1.333,3.306-2.019,5.256a7.67,7.67,0,0,0-8.993-.288" transform="translate(-67.258 -51.463)" fill="none" stroke="#1e324d" stroke-linecap="round" stroke-linejoin="round" stroke-width="1"/>
            <path id="Trazado_996151" data-name="Trazado 996151" d="M259.376,195.6l.722-3.714" transform="translate(-69.732 -51.588)" fill="none" stroke="#1e324d" stroke-linecap="round" stroke-linejoin="round" stroke-width="1"/>
            <path id="Trazado_996152" data-name="Trazado 996152" d="M255.628,192.724c-.026.9-.043,1.807-.069,2.7" transform="translate(-68.706 -51.813)" fill="none" stroke="#1e324d" stroke-linecap="round" stroke-linejoin="round" stroke-width="1"/>
            <path id="Trazado_996153" data-name="Trazado 996153" d="M256.9,179.078a12.153,12.153,0,0,1,5.291,1.48c1.008.6,2.006,1.624,1.791,2.778a2.216,2.216,0,0,1-1.546,1.587,5.053,5.053,0,0,1-2.3.073A19.731,19.731,0,0,1,254.4,183.1a4.958,4.958,0,0,1-1.551-1.048,1.884,1.884,0,0,1-.492-1.734,1.918,1.918,0,0,1,1.42-1.212,10.633,10.633,0,0,1,3.123-.032" transform="translate(-67.83 -48.12)" fill="#d669a2"/>
            <path id="Trazado_996154" data-name="Trazado 996154" d="M116.1,409.814a1.209,1.209,0,0,1-.318.031,3.491,3.491,0,0,1-2.064-.752,5.009,5.009,0,0,1-1.566-3.205,20.56,20.56,0,0,1,.8-9.955,1.174,1.174,0,1,1,2.225.753,18.193,18.193,0,0,0-.7,8.813,3.008,3.008,0,0,0,.724,1.766,1.141,1.141,0,0,0,.687.232,1.175,1.175,0,0,1,.22,2.317" transform="translate(-30.077 -106.23)" fill="#fff"/>
            <path id="Trazado_996155" data-name="Trazado 996155" d="M110.209,363.119a96.928,96.928,0,0,0-4.061-9.323c-.489-.941-1.229-2-2.289-1.943a1.959,1.959,0,0,0-1.625,1.506,5.76,5.76,0,0,0,.009,2.348q.718,5.034,1.438,10.07c-.341-.182-2.61,4.092-2.61,4.092s11.759,11.431,13.559-5.372c-1.462-.5-2.933-.967-4.422-1.378" transform="translate(-27.173 -94.594)" fill="#85473d"/>
            <path id="Trazado_996156" data-name="Trazado 996156" d="M121.2,373.259a1.174,1.174,0,0,1-1.388-1.494,8.408,8.408,0,0,1,1.432-3.008,3.931,3.931,0,0,1,2.694-1.419,1.175,1.175,0,0,1,.138,2.346,1.579,1.579,0,0,0-1.035.587,6.433,6.433,0,0,0-.986,2.195,1.172,1.172,0,0,1-.854.793" transform="translate(-32.197 -98.757)" fill="#fff"/>
            <path id="Trazado_996157" data-name="Trazado 996157" d="M57.046,293.593l22.371-2a4.961,4.961,0,0,1,5.386,4.5l4.581,51.1-32.257,2.891-4.58-51.1a4.962,4.962,0,0,1,4.5-5.386" transform="translate(-14.121 -78.387)" fill="#fff"/>
            <g id="Grupo_1162363" data-name="Grupo 1162363" transform="translate(42.07 258.371)" opacity="0.12" style="mix-blend-mode: multiply;isolation: isolate">
              <g id="Grupo_1162362" data-name="Grupo 1162362">
                <g id="Grupo_1162361" data-name="Grupo 1162361" clip-path="url(#clip-path-10)">
                  <rect id="Rectángulo_411885" data-name="Rectángulo 411885" width="32.386" height="10.47" transform="translate(0 2.891) rotate(-5.121)" fill="#1e324d"/>
                </g>
              </g>
            </g>
            <path id="Trazado_996158" data-name="Trazado 996158" d="M63.691,336.426l.2-7.349-1.46.131-.181-2.755,1.788-.16.069-3.082-2.1.189-.184-2.794,2.525-.226.15-6.019,2.906-.26-.163,6.02,2.078-.186.15-6.018,2.894-.26-.176,6.021,1.394-.125.184,2.794-1.8.161-.082,3.083L74,325.4l.181,2.755-2.446.219-.216,7.35-2.854.256.189-7.348-2.091.188-.216,7.35Zm3.2-10.389,2.117-.19.082-3.083-2.1.189Z" transform="translate(-16.62 -84.325)" fill="#fabf4b"/>
            <path id="Trazado_996159" data-name="Trazado 996159" d="M85.581,334.557l-1.552-17.321L81.1,318.771l-.3-3.353q.982-.578,2.182-1.4a7.712,7.712,0,0,0,1.628-1.358l3.537-.317,1.955,21.805Z" transform="translate(-21.723 -83.973)" fill="#fabf4b"/>
            <path id="Trazado_996160" data-name="Trazado 996160" d="M91.552,370.645,55.193,373.9a3.319,3.319,0,0,1-3.6-3.009l-.726-8.1a3.318,3.318,0,0,1,3.009-3.6l36.359-3.26a3.319,3.319,0,0,1,3.6,3.009l.727,8.1a3.319,3.319,0,0,1-3.009,3.6" transform="translate(-13.671 -95.687)" fill="#1e324d"/>
            <path id="Trazado_996161" data-name="Trazado 996161" d="M59.293,362.088l29.216-2.619a2.556,2.556,0,1,1,.456,5.091l-29.216,2.619a2.556,2.556,0,0,1-.456-5.091" transform="translate(-15.315 -96.639)" fill="#fabf4b"/>
            <line id="Línea_737" data-name="Línea 737" y1="0.861" x2="9.611" transform="translate(44.792 267.77)" fill="none" stroke="#1e324d" stroke-linecap="round" stroke-linejoin="round" stroke-width="1"/>
            <line id="Línea_738" data-name="Línea 738" y1="0.277" x2="3.089" transform="translate(57.207 267.241)" fill="none" stroke="#1e324d" stroke-linecap="round" stroke-linejoin="round" stroke-width="1"/>
            <path id="Trazado_996162" data-name="Trazado 996162" d="M90.142,382.718a49.37,49.37,0,0,1-10.288-6.793" transform="translate(-21.468 -101.066)" fill="none" stroke="#6e3a31" stroke-linecap="round" stroke-linejoin="round" stroke-width="1"/>
            <path id="Trazado_996163" data-name="Trazado 996163" d="M86.358,384.989c-5.485-1.482-11.13-3.042-15.65-6.47" transform="translate(-19.009 -101.763)" fill="none" stroke="#6e3a31" stroke-linecap="round" stroke-linejoin="round" stroke-width="1"/>
            <path id="Trazado_996164" data-name="Trazado 996164" d="M105.313,367.593c-5.479,9.293-13.56,5.373-13.56,5.373a35.8,35.8,0,0,1-15.672-8c-1.125-.989-2.676-2.116-3.955-1.336a2.252,2.252,0,0,0-.891,2.261,5.543,5.543,0,0,0,1.095,2.3,26.319,26.319,0,0,0,3.909,4.351q-2.546-.71-5.015-1.666c-1.049-.408-2.436-.771-3.144.106a1.751,1.751,0,0,0-.086,1.848,4.448,4.448,0,0,0,1.318,1.424c.078.063.158.124.238.184q-.744.064-1.484.154c-.606.075-1.305.229-1.565.782-.385.82.512,1.642,1.309,2.073,6.159,3.33,13.322,4.1,20.127,5.745a77.04,77.04,0,0,1,26.613,12.2l7.056-20.047a78.12,78.12,0,0,0-16.294-7.756" transform="translate(-17.854 -97.692)" fill="#85473d"/>
            <path id="Trazado_996165" data-name="Trazado 996165" d="M117.957,402.257a4.271,4.271,0,0,1-1.145.113,1.175,1.175,0,1,1,.1-2.347,2.16,2.16,0,0,0,1.239-.366,6.125,6.125,0,0,0,1.78-2.332c4-7.72,4.384-16.939,4.227-24.94-.018-.889-.159-2.42-.915-2.672a.7.7,0,0,0-.257-.031,1.175,1.175,0,0,1-.14-2.345,3.02,3.02,0,0,1,1.14.147c1.621.541,2.468,2.174,2.52,4.856.163,8.295-.243,17.88-4.489,26.066a8.15,8.15,0,0,1-2.556,3.2,4.588,4.588,0,0,1-1.5.65" transform="translate(-31.101 -98.756)" fill="#fff"/>
            <path id="Trazado_996166" data-name="Trazado 996166" d="M103.537,380.833c-2.214-1-4.646-2.234-5.43-4.534a7.718,7.718,0,0,1,.144-4.38,27.122,27.122,0,0,1,2.074-5.484c.352-.692.959-1.478,1.714-1.3.711.168.938,1.059.973,1.791a14.7,14.7,0,0,1-.853,5.681,6.006,6.006,0,0,1,10.118-.83" transform="translate(-26.305 -98.159)" fill="#85473d"/>
            <path id="Trazado_996167" data-name="Trazado 996167" d="M103.537,380.833c-2.214-1-4.646-2.234-5.43-4.534a7.718,7.718,0,0,1,.144-4.38,27.122,27.122,0,0,1,2.074-5.484c.352-.692.959-1.478,1.714-1.3.711.168.938,1.059.973,1.791a14.7,14.7,0,0,1-.853,5.681,6.006,6.006,0,0,1,10.118-.83" transform="translate(-26.305 -98.159)" fill="none" stroke="#6e3a31" stroke-linecap="round" stroke-linejoin="round" stroke-width="1"/>
            <path id="Trazado_996168" data-name="Trazado 996168" d="M181.654,433.488a108.307,108.307,0,0,1-28.887-7.655c-5.073-2.131-10.1-4.736-13.8-8.8s-5.9-9.86-4.487-15.177c0,0-2.123-1.476-3.751-2.651a3.323,3.323,0,0,1-1.24-3.63,116.586,116.586,0,0,1,6.479-17.246,3.33,3.33,0,0,1,4.428-1.5,12.271,12.271,0,0,1,3.172,1.9c4.156-3.217,9.98-3.558,15.049-2.172s9.572,4.28,14,7.119,8.952,5.7,14.042,7.015Z" transform="translate(-34.775 -101.027)" fill="#fabf4b"/>
            <path id="Trazado_996169" data-name="Trazado 996169" d="M138.387,400.546a1.738,1.738,0,1,0,.261,2.7A1.724,1.724,0,0,0,138.387,400.546Z" transform="translate(-36.488 -107.615)" fill="none" stroke="#1e324d" stroke-linecap="round" stroke-linejoin="round" stroke-width="1"/>
            <path id="Trazado_996170" data-name="Trazado 996170" d="M154.771,420.052a3.687,3.687,0,1,0,2.106,5.243,3.417,3.417,0,0,0,.258-2.651,3.567,3.567,0,0,0-2.365-2.592" transform="translate(-40.317 -112.885)" fill="#787bd6"/>
            <path id="Trazado_996171" data-name="Trazado 996171" d="M161.733,384.379a3.687,3.687,0,1,0,2.106,5.243,3.417,3.417,0,0,0,.258-2.651,3.568,3.568,0,0,0-2.365-2.592" transform="translate(-42.189 -103.295)" fill="#787bd6"/>
            <path id="Trazado_996172" data-name="Trazado 996172" d="M177.685,406.548a3.687,3.687,0,1,0,2.106,5.242,3.417,3.417,0,0,0,.258-2.651,3.565,3.565,0,0,0-2.365-2.591" transform="translate(-46.477 -109.255)" fill="#787bd6"/>
            <g id="Grupo_1162366" data-name="Grupo 1162366" transform="translate(99.76 277.397)" opacity="0.12" style="mix-blend-mode: multiply;isolation: isolate">
              <g id="Grupo_1162365" data-name="Grupo 1162365">
                <g id="Grupo_1162364" data-name="Grupo 1162364" clip-path="url(#clip-path-11)">
                  <path id="Trazado_996173" data-name="Trazado 996173" d="M136.441,409.948A19.287,19.287,0,0,0,140.87,418c3.7,4.067,8.731,6.673,13.8,8.8a108.307,108.307,0,0,0,28.887,7.655l5-42.8c-5.089-1.311-9.618-4.176-14.041-7.014a79.807,79.807,0,0,0-9.031-5.246c-.522,6.076,2.25,12.543,8.116,17.463a182.564,182.564,0,0,0-5.332,24.305,87.449,87.449,0,0,1-31.829-11.216" transform="translate(-136.441 -379.396)" fill="#1e324d"/>
                </g>
              </g>
            </g>
            <path id="Trazado_996174" data-name="Trazado 996174" d="M183.556,348.666a312.331,312.331,0,0,1-16.863-44.851,31.286,31.286,0,0,1,1.994-23.088,30.337,30.337,0,0,1,13.046-13.053s6.738,18.659,7.578,36.7-5.755,44.29-5.755,44.29" transform="translate(-44.461 -71.963)" fill="#fabf4b"/>
            <path id="Trazado_996175" data-name="Trazado 996175" d="M168.756,285.963a3.575,3.575,0,0,0,1.566,1.468,3.823,3.823,0,0,0,4.8-1.608,3.419,3.419,0,0,0,.259-2.652,3.567,3.567,0,0,0-2.365-2.592,3.372,3.372,0,0,0-1.138-.148,29.213,29.213,0,0,0-2.28,3.725c-.3.59-.577,1.195-.839,1.806" transform="translate(-45.369 -75.393)" fill="#787bd6"/>
            <g id="Grupo_1162369" data-name="Grupo 1162369" transform="translate(128.249 219.091)" opacity="0.12" style="mix-blend-mode: multiply;isolation: isolate">
              <g id="Grupo_1162368" data-name="Grupo 1162368">
                <g id="Grupo_1162367" data-name="Grupo 1162367" clip-path="url(#clip-path-12)">
                  <path id="Trazado_996176" data-name="Trazado 996176" d="M178.083,318.065a96.963,96.963,0,0,0-2.677,12.885c2.233,6.147,4.67,12.222,7.265,18.234,3.088-17.822,1.753-33.907-1.666-49.533-1.008,6.265-1.3,12.2-2.922,18.414" transform="translate(-175.406 -299.651)" fill="#1e324d"/>
                </g>
              </g>
            </g>
            <path id="Trazado_996177" data-name="Trazado 996177" d="M306.842,411.9q-3.506.8-7.047,1.445l3.917,5.857,4.709-3.885Z" transform="translate(-80.598 -110.739)" fill="#85473d"/>
            <path id="Trazado_996178" data-name="Trazado 996178" d="M188.474,392.491a499.436,499.436,0,0,0-8.884,110.881c38.426,6.223,78.424,2.469,116.692-8.767A200.919,200.919,0,0,0,258.314,390.72Z" transform="translate(-48.212 -105.044)" fill="#787bd6"/>
          </g>
        </g>
        <g id="Grupo_1162373" data-name="Grupo 1162373" transform="translate(131.404 285.676)">
          <g id="Grupo_1162372" data-name="Grupo 1162372" clip-path="url(#clip-path-13)">
            <path id="Trazado_996179" data-name="Trazado 996179" d="M209.809,404.449a494.784,494.784,0,0,0-1.383,109.126" transform="translate(-186.802 -394.41)" fill="none" stroke="#5b5ebd" stroke-linecap="round" stroke-linejoin="round" stroke-width="1"/>
            <path id="Trazado_996180" data-name="Trazado 996180" d="M241.154,402.292a684.685,684.685,0,0,0,5.1,110.721" transform="translate(-196.124 -393.83)" fill="none" stroke="#5b5ebd" stroke-linecap="round" stroke-linejoin="round" stroke-width="1"/>
            <path id="Trazado_996181" data-name="Trazado 996181" d="M261.972,401.751a1087.846,1087.846,0,0,1,10.142,110.113" transform="translate(-201.834 -393.685)" fill="none" stroke="#5b5ebd" stroke-linecap="round" stroke-linejoin="round" stroke-width="1"/>
            <path id="Trazado_996182" data-name="Trazado 996182" d="M277.979,397.685a241.342,241.342,0,0,1,27.937,110.151" transform="translate(-206.137 -392.592)" fill="none" stroke="#5b5ebd" stroke-linecap="round" stroke-linejoin="round" stroke-width="1"/>
          </g>
        </g>
        <g id="Grupo_1162384" data-name="Grupo 1162384" transform="translate(0 0.001)">
          <g id="Grupo_1162383" data-name="Grupo 1162383" clip-path="url(#clip-path-6)">
            <g id="Grupo_1162376" data-name="Grupo 1162376" transform="translate(138.807 285.676)" opacity="0.12" style="mix-blend-mode: multiply;isolation: isolate">
              <g id="Grupo_1162375" data-name="Grupo 1162375">
                <g id="Grupo_1162374" data-name="Grupo 1162374" clip-path="url(#clip-path-15)">
                  <path id="Trazado_996184" data-name="Trazado 996184" d="M229.811,406.953c17.007-1.345,28.46-5.735,35.76-9.9q-2.154-3.207-4.43-6.33L191.3,392.49q-.76,3.972-1.454,7.957c3.512,2.971,13.763,8.577,39.964,6.506" transform="translate(-189.846 -390.719)" fill="#1e324d"/>
                </g>
              </g>
            </g>
            <path id="Trazado_996185" data-name="Trazado 996185" d="M278.858,292.215c-1.573,11.573-.25,23.355-1.239,34.994s-4.854,23.881-14.2,30.88c-5.649,4.228-12.683,6.085-19.564,7.644-14.586,3.307-30.054,5.653-44.31,1.133-6.586-2.087-13.015-5.927-16.187-12.064-3.212-6.211-2.588-13.621-1.959-20.585,1.387-15.347,2.414-30.8,1.084-46.153l3.425-23.38a29.326,29.326,0,0,1,3.251-1.434c10.8-3.991,22.835-1.492,34.9-2.367,14.464-2.715,29.411-5.416,43.894-3.894Z" transform="translate(-48.631 -68.972)" fill="#fabf4b"/>
            <path id="Trazado_996186" data-name="Trazado 996186" d="M280.831,381.961a3.687,3.687,0,1,0,2.106,5.243,3.417,3.417,0,0,0,.257-2.651,3.563,3.563,0,0,0-2.364-2.592" transform="translate(-74.207 -102.645)" fill="#787bd6"/>
            <path id="Trazado_996187" data-name="Trazado 996187" d="M274.638,280.686a3.687,3.687,0,1,0,2.106,5.243,3.417,3.417,0,0,0,.258-2.651,3.566,3.566,0,0,0-2.364-2.592" transform="translate(-72.542 -75.417)" fill="#787bd6"/>
            <path id="Trazado_996188" data-name="Trazado 996188" d="M311.658,350.5a3.681,3.681,0,0,0-2.566,6.879,3.508,3.508,0,0,0,1.772.281c.284-1.743.5-3.491.652-5.226.055-.644.1-1.288.141-1.933" transform="translate(-82.529 -94.197)" fill="#787bd6"/>
            <path id="Trazado_996189" data-name="Trazado 996189" d="M215.3,293.676a3.687,3.687,0,1,0,2.106,5.243,3.417,3.417,0,0,0,.258-2.651,3.566,3.566,0,0,0-2.365-2.592" transform="translate(-56.589 -78.91)" fill="#787bd6"/>
            <path id="Trazado_996190" data-name="Trazado 996190" d="M204.948,389.667a3.421,3.421,0,0,0,.258-2.651,3.564,3.564,0,0,0-2.365-2.592,3.687,3.687,0,1,0,2.106,5.243" transform="translate(-53.24 -103.307)" fill="#787bd6"/>
            <path id="Trazado_996191" data-name="Trazado 996191" d="M271.892,337.6a3.822,3.822,0,0,0,4.8-1.609,3.42,3.42,0,0,0,.259-2.651,3.567,3.567,0,0,0-2.364-2.592,3.687,3.687,0,0,0-2.691,6.852" transform="translate(-72.528 -88.875)" fill="#787bd6"/>
            <path id="Trazado_996192" data-name="Trazado 996192" d="M195.532,341.121a3.823,3.823,0,0,0,4.8-1.609,3.417,3.417,0,0,0,.258-2.651,3.563,3.563,0,0,0-2.365-2.592,3.687,3.687,0,0,0-2.69,6.852" transform="translate(-51.998 -89.823)" fill="#787bd6"/>
            <path id="Trazado_996193" data-name="Trazado 996193" d="M246.472,269.023c-1.306,1.9-2.267,4.029-3.67,5.859s-3.408,3.4-5.711,3.495a7.286,7.286,0,0,1-5.383-2.468A21.581,21.581,0,0,1,228.4,270.8l8.432-8.325Z" transform="translate(-61.404 -70.566)" fill="#1e324d"/>
            <path id="Trazado_996194" data-name="Trazado 996194" d="M234.182,280.921a539.886,539.886,0,0,0-7.276,69.5l9.207,12.557s9.778-13.7,10.726-15.125a435.6,435.6,0,0,0-7.7-67.027,15.921,15.921,0,0,1-4.955.1" transform="translate(-61.002 -75.498)" fill="#1e324d"/>
            <path id="Trazado_996195" data-name="Trazado 996195" d="M252.391,255.818a55,55,0,0,1-8.646,12.545c-3.564-2.988-6.88-5.831-10-8.873a70.865,70.865,0,0,1-9.136,9.578,78.587,78.587,0,0,1-8.173-10.081l9.7-8.179,7.589,7.409,6.4-8.79Z" transform="translate(-58.187 -67.057)" fill="#fff"/>
            <g id="Grupo_1162379" data-name="Grupo 1162379" transform="translate(216.353 227.551)" opacity="0.12" style="mix-blend-mode: multiply;isolation: isolate">
              <g id="Grupo_1162378" data-name="Grupo 1162378">
                <g id="Grupo_1162377" data-name="Grupo 1162377" clip-path="url(#clip-path-16)">
                  <path id="Trazado_996196" data-name="Trazado 996196" d="M308.948,326.949c-.013-4.363-.035-8.724.2-13.066l-13.24-2.661,13.043,15.727" transform="translate(-295.906 -311.222)" fill="#1e324d"/>
                </g>
              </g>
            </g>
            <path id="Trazado_996197" data-name="Trazado 996197" d="M278.858,303.8c-1.573,11.573-.25,23.355-1.239,34.994s-4.854,23.881-14.2,30.88c-5.649,4.228-12.683,6.085-19.564,7.644-14.586,3.307-30.054,5.653-44.31,1.133-6.586-2.087-13.015-5.927-16.187-12.064-3.212-6.211-2.588-13.621-1.959-20.585,1.387-15.347,2.414-30.8,1.084-46.153" transform="translate(-48.631 -80.56)" fill="none" stroke="#1e324d" stroke-linecap="round" stroke-linejoin="round" stroke-width="1"/>
            <path id="Trazado_996198" data-name="Trazado 996198" d="M324.457,423.971q-7.374,8.184-15.336,15.812a5.36,5.36,0,0,1-1.97,1.38,1.85,1.85,0,0,1-2.15-.649,2.587,2.587,0,0,1,.362-2.459,19.967,19.967,0,0,1,4.356-5.345,51.512,51.512,0,0,1-14.052,7.129,3.685,3.685,0,0,1-1.865.231,1.339,1.339,0,0,1-1.116-1.326,1.981,1.981,0,0,1,.763-1.129l5.648-5.154a31.165,31.165,0,0,1-7.122,2.091,5.816,5.816,0,0,1-2.493.018,2.25,2.25,0,0,1-1.687-1.676c-.213-1.348,1.163-2.354,2.355-3.016l12.908-7.156a52.191,52.191,0,0,1-15.713,4.879,5.1,5.1,0,0,1-2.245-.058,1.9,1.9,0,0,1-1.383-1.614c-.029-1.032,1.012-1.727,1.924-2.213l16.115-8.59.764-3.877q3.542-.81,7.047-1.783Z" transform="translate(-76.276 -110.083)" fill="#85473d"/>
            <path id="Trazado_996199" data-name="Trazado 996199" d="M304.752,439.387a31.173,31.173,0,0,0,7.013-4.16" transform="translate(-81.931 -117.009)" fill="none" stroke="#6e3a31" stroke-linecap="round" stroke-linejoin="round" stroke-width="1"/>
            <path id="Trazado_996200" data-name="Trazado 996200" d="M315.037,436.037q-2.917,2.953-5.916,5.827a5.346,5.346,0,0,1-1.97,1.38,1.852,1.852,0,0,1-2.15-.649,2.589,2.589,0,0,1,.362-2.459,19.985,19.985,0,0,1,4.356-5.346,51.506,51.506,0,0,1-14.051,7.13,3.688,3.688,0,0,1-1.866.231,1.339,1.339,0,0,1-1.116-1.325,1.98,1.98,0,0,1,.763-1.13l5.648-5.154a31.125,31.125,0,0,1-7.121,2.091,5.807,5.807,0,0,1-2.493.018,2.247,2.247,0,0,1-1.686-1.675c-.213-1.348,1.163-2.355,2.355-3.016l12.908-7.156a52.223,52.223,0,0,1-15.714,4.879,5.1,5.1,0,0,1-2.245-.059,1.9,1.9,0,0,1-1.383-1.613c-.028-1.033,1.012-1.727,1.924-2.214l16.115-8.59" transform="translate(-76.275 -112.164)" fill="none" stroke="#6e3a31" stroke-linecap="round" stroke-linejoin="round" stroke-width="1"/>
            <path id="Trazado_996201" data-name="Trazado 996201" d="M323.669,400.489c-1.711,1.176-3.422,2.352-5.248,3.771a3.7,3.7,0,0,0-1.174,4.279,28.268,28.268,0,0,0,14.491,15.182,3.7,3.7,0,0,0,4.2-.813L343.2,415.3Z" transform="translate(-85.22 -107.67)" fill="#fabf4b"/>
            <path id="Trazado_996202" data-name="Trazado 996202" d="M340.491,422.46a1.739,1.739,0,1,0,.261,2.705A1.725,1.725,0,0,0,340.491,422.46Z" transform="translate(-90.822 -113.506)" fill="none" stroke="#1e324d" stroke-linecap="round" stroke-linejoin="round" stroke-width="1"/>
            <path id="Trazado_996203" data-name="Trazado 996203" d="M295.033,296.685c7.575,2.312,15.354,4.731,21.518,9.7s10.409,13.17,8.411,20.833c-2.1,8.056-10.322,13.508-12.062,21.648-1.708,7.994,3.425,15.892,9.444,21.424,4.329,3.98,9.68,7.455,15.559,7.349,8.463-.152,14.861-7.392,20.109-14.032,7.173-9.074,14.621-18.789,15.987-30.275.984-8.274-1.375-16.691-5.354-24.013s-9.509-13.674-15.25-19.713c-12.575-13.229-27.061-25.646-44.664-30.469A67.1,67.1,0,0,0,298,257.149a88.6,88.6,0,0,0-5.066,21.191c-1.238,11.658,2.1,18.345,2.1,18.345" transform="translate(-78.68 -69.134)" fill="#fabf4b"/>
            <path id="Trazado_996204" data-name="Trazado 996204" d="M316.648,279.541a3.823,3.823,0,0,0,4.8-1.609,3.42,3.42,0,0,0,.259-2.651,3.566,3.566,0,0,0-2.365-2.592,3.687,3.687,0,0,0-2.691,6.852" transform="translate(-84.56 -73.268)" fill="#787bd6"/>
            <path id="Trazado_996205" data-name="Trazado 996205" d="M344.237,392.913a3.687,3.687,0,1,0,2.106,5.243,3.417,3.417,0,0,0,.258-2.651,3.566,3.566,0,0,0-2.365-2.592" transform="translate(-91.254 -105.589)" fill="#787bd6"/>
            <path id="Trazado_996206" data-name="Trazado 996206" d="M327.075,325.129a3.684,3.684,0,0,0,2.093-1.711,3.42,3.42,0,0,0,.258-2.651,3.568,3.568,0,0,0-2.365-2.592,3.824,3.824,0,0,0-4.576,2.157,3.289,3.289,0,0,0-.191.78c.76.515,1.5,1.057,2.224,1.638a25.955,25.955,0,0,1,2.557,2.379" transform="translate(-86.647 -85.496)" fill="#787bd6"/>
            <path id="Trazado_996207" data-name="Trazado 996207" d="M383.748,383.919a3.823,3.823,0,0,0,4.8-1.609,3.417,3.417,0,0,0,.258-2.651,3.563,3.563,0,0,0-2.364-2.592,3.687,3.687,0,0,0-2.691,6.852" transform="translate(-102.599 -101.329)" fill="#787bd6"/>
            <path id="Trazado_996208" data-name="Trazado 996208" d="M359.817,355.817a3.417,3.417,0,0,0,.258-2.651,3.564,3.564,0,0,0-2.365-2.592,3.687,3.687,0,1,0,2.106,5.243" transform="translate(-94.876 -94.206)" fill="#787bd6"/>
            <path id="Trazado_996209" data-name="Trazado 996209" d="M371.77,311.217a3.421,3.421,0,0,0,.258-2.651,3.564,3.564,0,0,0-2.365-2.592,3.687,3.687,0,1,0,2.106,5.243" transform="translate(-98.09 -82.216)" fill="#787bd6"/>
            <g id="Grupo_1162382" data-name="Grupo 1162382" transform="translate(260.715 231.599)" opacity="0.12" style="mix-blend-mode: multiply;isolation: isolate">
              <g id="Grupo_1162381" data-name="Grupo 1162381">
                <g id="Grupo_1162380" data-name="Grupo 1162380" clip-path="url(#clip-path-17)">
                  <path id="Trazado_996210" data-name="Trazado 996210" d="M385.83,325.347a68.118,68.118,0,0,0-5.618-8.588c5.185,13.232,2.106,26.768-3.278,43.973a78.629,78.629,0,0,1-20.355,32.83c7.73-.913,13.683-7.683,18.617-13.927,7.173-9.075,14.62-18.789,15.987-30.275.984-8.275-1.375-16.691-5.354-24.013" transform="translate(-356.579 -316.759)" fill="#1e324d"/>
                </g>
              </g>
            </g>
            <path id="Trazado_996211" data-name="Trazado 996211" d="M354.538,397.418c8.464-.152,14.862-7.392,20.109-14.032,7.173-9.074,14.621-18.789,15.987-30.275.912-7.672-1.049-15.467-4.511-22.4" transform="translate(-95.316 -88.911)" fill="none" stroke="#1e324d" stroke-linecap="round" stroke-linejoin="round" stroke-width="1"/>
            <path id="Trazado_996212" data-name="Trazado 996212" d="M295.9,311.222a106.152,106.152,0,0,1,13.251,4.708" transform="translate(-79.552 -83.671)" fill="none" stroke="#1e324d" stroke-linecap="round" stroke-linejoin="round" stroke-width="1"/>
          </g>
        </g>
        <g id="Grupo_1162398" data-name="Grupo 1162398">
          <g id="Grupo_1162397" data-name="Grupo 1162397" clip-path="url(#clip-path-2)">
            <g id="Grupo_1162387" data-name="Grupo 1162387" transform="translate(52.928 162.165)" opacity="0.12" style="mix-blend-mode: multiply;isolation: isolate">
              <g id="Grupo_1162386" data-name="Grupo 1162386">
                <g id="Grupo_1162385" data-name="Grupo 1162385" clip-path="url(#clip-path-19)">
                  <path id="Trazado_996213" data-name="Trazado 996213" d="M96.467,222.289a19.633,19.633,0,1,0,15.067,18.622,19.787,19.787,0,0,0-15.067-18.622" transform="translate(-72.389 -221.793)" fill="#1e324d"/>
                </g>
              </g>
            </g>
            <path id="Trazado_996214" data-name="Trazado 996214" d="M92.695,217.519a19.633,19.633,0,1,0,15.067,18.622,19.787,19.787,0,0,0-15.067-18.622" transform="translate(-18.447 -58.345)" fill="#787bd6"/>
            <path id="Trazado_996215" data-name="Trazado 996215" d="M105.072,227.571a26.393,26.393,0,0,1,1.4,10.243,19.166,19.166,0,0,1-6.107,12.952A19.527,19.527,0,0,1,85.088,255,33.957,33.957,0,0,1,73.7,251.073c.178.244.349.493.54.728a19.633,19.633,0,0,0,34.89-12.823,19.875,19.875,0,0,0-4.054-11.407" transform="translate(-19.813 -61.181)" fill="#1e324d"/>
            <path id="Trazado_996216" data-name="Trazado 996216" d="M74.133,225.066a18.373,18.373,0,0,0-2.607,3.241,20.187,20.187,0,0,0-1.861,16.906" transform="translate(-18.447 -60.508)" fill="none" stroke="#1e324d" stroke-linecap="round" stroke-linejoin="round" stroke-width="1"/>
            <path id="Trazado_996217" data-name="Trazado 996217" d="M93.631,217.092A20.355,20.355,0,0,0,81.963,219.7" transform="translate(-22.035 -58.345)" fill="none" stroke="#1e324d" stroke-linecap="round" stroke-linejoin="round" stroke-width="1"/>
            <path id="Trazado_996218" data-name="Trazado 996218" d="M97,226.642a.374.374,0,0,0-.461-.215,23.53,23.53,0,0,0-8.816,5.435.376.376,0,0,0,.1.624c1.151.494,2.348.949,3.652,1.386A27.059,27.059,0,0,1,80.323,246.29a.376.376,0,0,0,.131.7,10.458,10.458,0,0,0,1.64.128A13.432,13.432,0,0,0,91,243.426a21.856,21.856,0,0,0,5.321-8.161c1.144.281,2.311.538,3.472.767a.376.376,0,0,0,.437-.464A70.9,70.9,0,0,0,97,226.642" transform="translate(-21.544 -60.869)" fill="#fabf4b"/>
            <g id="Grupo_1162390" data-name="Grupo 1162390" transform="translate(284.373 141.086)" opacity="0.12" style="mix-blend-mode: multiply;isolation: isolate">
              <g id="Grupo_1162389" data-name="Grupo 1162389">
                <g id="Grupo_1162388" data-name="Grupo 1162388" clip-path="url(#clip-path-20)">
                  <path id="Trazado_996219" data-name="Trazado 996219" d="M423.441,194.026q-12.718-.734-25.457-1.06a8.5,8.5,0,0,0-8.68,7.834,104.839,104.839,0,0,0,.292,20.545,8.487,8.487,0,0,0,7.923,7.544c7.96.448,15.964.646,24.1.578a8.447,8.447,0,0,0,8.322-7.535c.66-6.131,1.088-12.387,1.479-18.96a8.47,8.47,0,0,0-7.975-8.947" transform="translate(-388.936 -192.963)" fill="#1e324d"/>
                </g>
              </g>
            </g>
            <path id="Trazado_996220" data-name="Trazado 996220" d="M418.636,190.064q-12.732-.418-25.475-.427a8.5,8.5,0,0,0-8.484,8.048,104.945,104.945,0,0,0,.8,20.532,8.489,8.489,0,0,0,8.108,7.345c7.969.249,15.975.248,24.1-.02a8.449,8.449,0,0,0,8.132-7.74c.508-6.146.78-12.41,1.007-18.991a8.47,8.47,0,0,0-8.195-8.746" transform="translate(-103.371 -50.983)" fill="#fabf4b"/>
            <path id="Trazado_996221" data-name="Trazado 996221" d="M385.929,229.2a8.475,8.475,0,0,0,8.043,7c7.969.25,15.975.249,24.1-.02a8.445,8.445,0,0,0,7.768-5.917,109.942,109.942,0,0,1-39.915-1.059" transform="translate(-103.755 -61.619)" fill="#1e324d"/>
            <path id="Trazado_996222" data-name="Trazado 996222" d="M384.677,200.643a106.2,106.2,0,0,0,.385,17.127" transform="translate(-103.37 -53.942)" fill="none" stroke="#1e324d" stroke-linecap="round" stroke-linejoin="round" stroke-width="1"/>
            <path id="Trazado_996223" data-name="Trazado 996223" d="M409.733,189.789q-7.491-.147-14.982-.152a8.446,8.446,0,0,0-4.339,1.189" transform="translate(-104.96 -50.983)" fill="none" stroke="#1e324d" stroke-linecap="round" stroke-linejoin="round" stroke-width="1"/>
            <path id="Trazado_996224" data-name="Trazado 996224" d="M403.772,203.249v12.209l14.6.184.276-12.393Z" transform="translate(-108.552 -54.642)" fill="#fff"/>
            <path id="Trazado_996225" data-name="Trazado 996225" d="M413.955,208.721a1.233,1.233,0,0,1-1-.5,53.2,53.2,0,0,1-4.8-7.994,1.236,1.236,0,1,1,2.214-1.1,53.735,53.735,0,0,0,3.491,6.085c1.927-3.193,4.012-6.327,6.21-9.338a1.236,1.236,0,1,1,2,1.458,125.766,125.766,0,0,0-7.051,10.777,1.235,1.235,0,0,1-1,.612h-.066" transform="translate(-109.697 -52.523)" fill="#ff5255"/>
            <path id="Trazado_996226" data-name="Trazado 996226" d="M116.524,154.231a4.322,4.322,0,0,1-3.466,1.24,4.276,4.276,0,0,1-3.455-1.246,5.939,5.939,0,0,1-1.043-3.864v-.807a5.775,5.775,0,0,1,1.021-3.824,4.418,4.418,0,0,1,3.477-1.171,4.489,4.489,0,0,1,3.49,1.159,5.642,5.642,0,0,1,1.032,3.79v.877a5.847,5.847,0,0,1-1.056,3.847m-4.072-1.367a1.506,1.506,0,0,0,1.212,0,1.013,1.013,0,0,0,.386-.328,1.573,1.573,0,0,0,.214-.589,5.2,5.2,0,0,0,.092-.749q.018-.364.018-.975v-.577q0-.646-.012-.97a4.766,4.766,0,0,0-.08-.7,1.164,1.164,0,0,0-.208-.537,1.069,1.069,0,0,0-.387-.271,1.855,1.855,0,0,0-1.257,0,1.03,1.03,0,0,0-.387.276,1.147,1.147,0,0,0-.2.531,5.676,5.676,0,0,0-.08.7q-.018.336-.018.958v.6q0,.612.018.975a5.1,5.1,0,0,0,.092.75,1.524,1.524,0,0,0,.213.582,1.043,1.043,0,0,0,.387.323m2.993,10.855,5.814-19.125h2.18l-5.814,19.125Zm10.393.034a4.278,4.278,0,0,1-3.449-1.245,5.918,5.918,0,0,1-1.05-3.864v-.808a5.776,5.776,0,0,1,1.021-3.824,4.42,4.42,0,0,1,3.477-1.171,4.483,4.483,0,0,1,3.49,1.16,5.638,5.638,0,0,1,1.032,3.789v.877a5.843,5.843,0,0,1-1.056,3.847,4.323,4.323,0,0,1-3.466,1.24m-.605-2.607a1.514,1.514,0,0,0,1.212,0,1.025,1.025,0,0,0,.386-.329,1.6,1.6,0,0,0,.213-.588,5.2,5.2,0,0,0,.092-.75q.018-.363.018-.975v-.577q0-.646-.012-.969a4.875,4.875,0,0,0-.081-.7,1.145,1.145,0,0,0-.208-.537,1.069,1.069,0,0,0-.386-.271,1.869,1.869,0,0,0-1.258,0,1.042,1.042,0,0,0-.386.277,1.149,1.149,0,0,0-.2.531,5.808,5.808,0,0,0-.081.7q-.016.335-.017.958v.6q0,.612.017.975a5.226,5.226,0,0,0,.093.75,1.5,1.5,0,0,0,.214.582,1.029,1.029,0,0,0,.386.323" transform="translate(-29.186 -38.864)" fill="#1e3e73"/>
            <path id="Trazado_996227" data-name="Trazado 996227" d="M424.762,276.055l-6.857-9.9a.457.457,0,0,0-.367-.194h0a.452.452,0,0,0-.366.188l-7.134,9.9a.452.452,0,0,0,.366.715h3.447v21.544a.451.451,0,0,0,.452.451h6.194a.451.451,0,0,0,.451-.451V276.764h3.447a.451.451,0,0,0,.371-.708" transform="translate(-110.212 -71.502)" fill="#d669a2"/>
            <path id="Trazado_996228" data-name="Trazado 996228" d="M437.1,285.108H431a.415.415,0,0,0-.415.415V303.48a.416.416,0,0,0,.415.416h6.1a.416.416,0,0,0,.415-.416V285.523a.415.415,0,0,0-.415-.415" transform="translate(-115.761 -76.65)" fill="#1e3e73"/>
            <path id="Trazado_996229" data-name="Trazado 996229" d="M452.189,294.986h-6.1a.415.415,0,0,0-.415.415v10.735a.415.415,0,0,0,.415.415h6.1a.415.415,0,0,0,.415-.415V295.4a.415.415,0,0,0-.415-.415" transform="translate(-119.816 -79.305)" fill="#1e3e73"/>
            <g id="Grupo_1162393" data-name="Grupo 1162393" transform="translate(123.225 280.775)" opacity="0.12" style="mix-blend-mode: multiply;isolation: isolate">
              <g id="Grupo_1162392" data-name="Grupo 1162392">
                <g id="Grupo_1162391" data-name="Grupo 1162391" clip-path="url(#clip-path-21)">
                  <path id="Trazado_996230" data-name="Trazado 996230" d="M206.932,440.517l-34.312-.667a3.9,3.9,0,0,0-3.979,3.828l-.105,5.414a3.9,3.9,0,0,0,3.828,3.979l34.312.667a3.9,3.9,0,0,0,3.979-3.828l.105-5.413a3.9,3.9,0,0,0-3.828-3.979" transform="translate(-168.535 -399.026)" fill="#1e324d"/>
                  <path id="Trazado_996231" data-name="Trazado 996231" d="M205,395.509a3.988,3.988,0,0,0-3.9-3.674h-.046l.05-2.632a4.949,4.949,0,0,0-4.847-5.039l-7.545-.147a4.95,4.95,0,0,0-5.039,4.848l-.051,2.632h-.047a3.988,3.988,0,0,0-4.038,3.521l-3.882,29.846,32.063.623Zm-6.138-3.718-13.045-.254.051-2.632a2.754,2.754,0,0,1,2.8-2.7l7.546.146a2.754,2.754,0,0,1,2.7,2.8Z" transform="translate(-170.451 -384.015)" fill="#1e324d"/>
                </g>
              </g>
            </g>
            <path id="Trazado_996232" data-name="Trazado 996232" d="M203.881,454.138H169.562a3.9,3.9,0,0,1-3.9-3.9V444.82a3.9,3.9,0,0,1,3.9-3.9h34.319a3.9,3.9,0,0,1,3.9,3.9v5.414a3.9,3.9,0,0,1-3.9,3.9" transform="translate(-44.536 -118.538)" fill="#1e324d"/>
            <path id="Trazado_996233" data-name="Trazado 996233" d="M174.261,445.826h28.971A1.073,1.073,0,0,1,204.3,446.9v3.9a1.072,1.072,0,0,1-1.073,1.073H174.261a1.072,1.072,0,0,1-1.073-1.073v-3.9a1.073,1.073,0,0,1,1.073-1.073" transform="translate(-46.561 -119.858)" fill="#fabf4b"/>
            <line id="Línea_739" data-name="Línea 739" x2="15.843" transform="translate(129.774 329.688)" fill="none" stroke="#1e324d" stroke-linecap="round" stroke-linejoin="round" stroke-width="1"/>
            <line id="Línea_740" data-name="Línea 740" x2="3.969" transform="translate(148.264 329.688)" fill="none" stroke="#1e324d" stroke-linecap="round" stroke-linejoin="round" stroke-width="1"/>
            <path id="Trazado_996234" data-name="Trazado 996234" d="M201.3,395.891a3.988,3.988,0,0,0-3.969-3.6h-.047V389.66a4.949,4.949,0,0,0-4.943-4.944H184.8a4.949,4.949,0,0,0-4.943,4.944v2.633h-.047a3.989,3.989,0,0,0-3.969,3.6l-3.3,29.916H204.6Zm-19.256-6.231a2.753,2.753,0,0,1,2.75-2.751h7.548a2.753,2.753,0,0,1,2.749,2.751v2.633H182.047Z" transform="translate(-46.385 -103.429)" fill="#fff"/>
            <line id="Línea_741" data-name="Línea 741" x1="3.064" y2="29.278" transform="translate(131.119 291.541)" fill="none" stroke="#a9dbea" stroke-linecap="round" stroke-linejoin="round" stroke-width="1"/>
            <path id="Trazado_996235" data-name="Trazado 996235" d="M187.227,424.38V413.543l-1.735.928v-2.332c.05-.026.21-.121.482-.284s.517-.311.739-.444.452-.28.692-.436a4.894,4.894,0,0,0,.494-.354h2.481v13.76Z" transform="translate(-49.868 -110.393)" fill="#787bd6"/>
            <path id="Trazado_996236" data-name="Trazado 996236" d="M198.18,419.019a3.438,3.438,0,0,1-2.17-.648,2.243,2.243,0,0,1-.835-1.884v-3.618a2.239,2.239,0,0,1,.835-1.889,3.45,3.45,0,0,1,2.17-.643,3.5,3.5,0,0,1,2.191.648,2.225,2.225,0,0,1,.847,1.883v3.618a2.23,2.23,0,0,1-.847,1.884,3.507,3.507,0,0,1-2.191.648m.008-1.761c.387,0,.581-.246.581-.738v-3.684q0-.74-.581-.741-.557,0-.556.741v3.684a.862.862,0,0,0,.149.555.494.494,0,0,0,.407.183" transform="translate(-52.472 -110.317)" fill="#787bd6"/>
            <g id="Grupo_1162396" data-name="Grupo 1162396" transform="translate(283.125 289.549)" opacity="0.12" style="mix-blend-mode: multiply;isolation: isolate">
              <g id="Grupo_1162395" data-name="Grupo 1162395">
                <g id="Grupo_1162394" data-name="Grupo 1162394" clip-path="url(#clip-path-22)">
                  <path id="Trazado_996237" data-name="Trazado 996237" d="M425.582,429.732l-3.318-.047.279-19.631a13.841,13.841,0,1,0-27.679-.394l-.279,19.631-3.318-.047a3.9,3.9,0,0,0-3.959,3.848l-.077,5.413a3.9,3.9,0,0,0,3.848,3.959l34.315.488a3.9,3.9,0,0,0,3.959-3.848l.077-5.413a3.9,3.9,0,0,0-3.848-3.959" transform="translate(-387.23 -396.016)" fill="#1e324d"/>
                </g>
              </g>
            </g>
            <path id="Trazado_996238" data-name="Trazado 996238" d="M422.8,454.138H388.477a3.9,3.9,0,0,1-3.9-3.9V444.82a3.9,3.9,0,0,1,3.9-3.9H422.8a3.9,3.9,0,0,1,3.9,3.9v5.414a3.9,3.9,0,0,1-3.9,3.9" transform="translate(-103.39 -118.538)" fill="#1e324d"/>
            <path id="Trazado_996239" data-name="Trazado 996239" d="M408.293,395.134h0a13.842,13.842,0,0,1,13.841,13.842v19.632H394.451V408.976a13.842,13.842,0,0,1,13.842-13.842" transform="translate(-106.046 -106.23)" fill="#fabf4b"/>
            <path id="Trazado_996240" data-name="Trazado 996240" d="M393.176,445.826h28.97a1.074,1.074,0,0,1,1.073,1.073v3.9a1.073,1.073,0,0,1-1.073,1.073h-28.97A1.072,1.072,0,0,1,392.1,450.8v-3.9a1.073,1.073,0,0,1,1.073-1.073" transform="translate(-105.415 -119.858)" fill="#fabf4b"/>
            <line id="Línea_742" data-name="Línea 742" x2="15.843" transform="translate(289.835 329.688)" fill="none" stroke="#1e324d" stroke-linecap="round" stroke-linejoin="round" stroke-width="1"/>
            <line id="Línea_743" data-name="Línea 743" x2="3.969" transform="translate(308.325 329.688)" fill="none" stroke="#1e324d" stroke-linecap="round" stroke-linejoin="round" stroke-width="1"/>
            <path id="Trazado_996241" data-name="Trazado 996241" d="M398.53,428.912l4-22.037H408.8l3.961,22.037h-4.931l-.691-4.4h-2.858l-.665,4.4Zm6.18-7.51h1.981l-1-8.227Z" transform="translate(-107.143 -109.386)" fill="#ff8f4a"/>
            <path id="Trazado_996242" data-name="Trazado 996242" d="M421.727,417.741v-2.528h-2.3v-1.571h2.3V411.2h1.828v2.442h2.31v1.571h-2.31v2.528Z" transform="translate(-112.76 -110.549)" fill="#ff8f4a"/>
            <rect id="Rectángulo_411898" data-name="Rectángulo 411898" width="365.578" height="29.977" transform="translate(0 335.6)" fill="#e6ebee"/>
            <rect id="Rectángulo_411899" data-name="Rectángulo 411899" width="365.578" height="6.485" transform="translate(0 335.6)" fill="#c0c4c7"/>
          </g>
        </g>
      </g>
    </g>
  </g>
</svg>
