<svg xmlns="http://www.w3.org/2000/svg" xmlns:xlink="http://www.w3.org/1999/xlink" width="108" height="108" viewBox="0 0 108 108">
  <defs>
    <filter id="Trazado_982547" x="0" y="0" width="108" height="108" filterUnits="userSpaceOnUse">
      <feOffset dy="3" input="SourceAlpha"/>
      <feGaussianBlur stdDeviation="3" result="blur"/>
      <feFlood flood-opacity="0.161"/>
      <feComposite operator="in" in2="blur"/>
      <feComposite in="SourceGraphic"/>
    </filter>
  </defs>
  <g id="Grupo_1162438" data-name="Grupo 1162438" transform="translate(-197 -2376)">
    <g id="Grupo_1162146" data-name="Grupo 1162146" transform="translate(206 2382)">
      <g id="Grupo_1159095" data-name="Grupo 1159095" transform="translate(0)">
        <g id="Grupo_1154033" data-name="Grupo 1154033">
          <g id="Grupo_1153177" data-name="Grupo 1153177">
            <g id="Grupo_1149598" data-name="Grupo 1149598">
              <g id="Grupo_1148770" data-name="Grupo 1148770">
                <g id="Grupo_1146954" data-name="Grupo 1146954">
                  <g transform="matrix(1, 0, 0, 1, -9, -6)" filter="url(#Trazado_982547)">
                    <g id="Trazado_982547-2" data-name="Trazado 982547" transform="translate(9 6)" fill="#f5fdfa">
                      <path d="M 45.00000762939453 88.5 C 39.12688446044922 88.5 33.43023300170898 87.35007476806641 28.06830787658691 85.08217620849609 C 22.8885326385498 82.89131164550781 18.23630714416504 79.75458526611328 14.24085807800293 75.75914764404297 C 10.24542045593262 71.76370239257812 7.108695030212402 67.11147308349609 4.917832851409912 61.93170166015625 C 2.649932622909546 56.56977462768555 1.500007629394531 50.87312316894531 1.500007629394531 45 C 1.500007629394531 39.12687683105469 2.649932622909546 33.43022537231445 4.917832851409912 28.06830024719238 C 7.108695030212402 22.88852500915527 10.24542045593262 18.23629951477051 14.24085807800293 14.2408504486084 C 18.23630714416504 10.24541282653809 22.8885326385498 7.108687400817871 28.06830787658691 4.917825222015381 C 33.43023300170898 2.649924993515015 39.12688446044922 1.5 45.00000762939453 1.5 C 50.87313079833984 1.5 56.56978225708008 2.649924993515015 61.93170928955078 4.917825222015381 C 67.11148071289062 7.108687400817871 71.76371002197266 10.24541282653809 75.7591552734375 14.2408504486084 C 79.75459289550781 18.23629951477051 82.89131927490234 22.88852500915527 85.08218383789062 28.06830024719238 C 87.35008239746094 33.43022537231445 88.50000762939453 39.12687683105469 88.50000762939453 45 C 88.50000762939453 50.87312316894531 87.35008239746094 56.56977462768555 85.08218383789062 61.93170166015625 C 82.89131927490234 67.11147308349609 79.75459289550781 71.76370239257812 75.7591552734375 75.75914764404297 C 71.76371002197266 79.75458526611328 67.11148071289062 82.89131164550781 61.93170928955078 85.08217620849609 C 56.56978225708008 87.35007476806641 50.87313079833984 88.5 45.00000762939453 88.5 Z" stroke="none"/>
                      <path d="M 45.00000762939453 3 C 39.32872009277344 3 33.82866287231445 4.110054016113281 28.65263748168945 6.299339294433594 C 23.65166473388672 8.414573669433594 19.15969085693359 11.44334411621094 15.30152130126953 15.301513671875 C 11.44335174560547 19.15968322753906 8.414581298828125 23.65165710449219 6.299346923828125 28.65262985229492 C 4.110061645507812 33.82865524291992 3.000007629394531 39.32871246337891 3.000007629394531 45 C 3.000007629394531 50.67128753662109 4.110061645507812 56.17134475708008 6.299346923828125 61.34737396240234 C 8.414581298828125 66.34834289550781 11.44335174560547 70.84031677246094 15.30152130126953 74.698486328125 C 19.15969085693359 78.55665588378906 23.65166473388672 81.58542633056641 28.65263748168945 83.70066070556641 C 33.82866287231445 85.88994598388672 39.32872009277344 87 45.00000762939453 87 C 50.67129516601562 87 56.17135238647461 85.88994598388672 61.34738159179688 83.70066070556641 C 66.34835052490234 81.58542633056641 70.84032440185547 78.55665588378906 74.69849395751953 74.698486328125 C 78.55666351318359 70.84031677246094 81.58543395996094 66.34834289550781 83.70066833496094 61.34737396240234 C 85.88995361328125 56.17134475708008 87.00000762939453 50.67128753662109 87.00000762939453 45 C 87.00000762939453 39.32871246337891 85.88995361328125 33.82865524291992 83.70066833496094 28.65262985229492 C 81.58543395996094 23.65165710449219 78.55666351318359 19.15968322753906 74.69849395751953 15.301513671875 C 70.84032440185547 11.44334411621094 66.34835052490234 8.414573669433594 61.34738159179688 6.299339294433594 C 56.17135238647461 4.110054016113281 50.67129516601562 3 45.00000762939453 3 M 45.00000762939453 0 C 69.85282135009766 0 90.00000762939453 20.14718627929688 90.00000762939453 45 C 90.00000762939453 69.85281372070312 69.85282135009766 90 45.00000762939453 90 C 20.14719390869141 90 7.62939453125e-06 69.85281372070312 7.62939453125e-06 45 C 7.62939453125e-06 20.14718627929688 20.14719390869141 0 45.00000762939453 0 Z" stroke="none" fill="#2e5bb6"/>
                    </g>
                  </g>
                </g>
              </g>
            </g>
          </g>
        </g>
      </g>
    </g>
    <g id="Layer_6" data-name="Layer 6" transform="translate(222.665 2398.665)">
      <path id="Trazado_996403" data-name="Trazado 996403" d="M6,33H25.313V52.313H6Z" transform="translate(-0.489 -3.787)" fill="#c49a6c"/>
      <path id="Trazado_996404" data-name="Trazado 996404" d="M11,43.145V37h4.389a1.756,1.756,0,0,1,1.756,1.756,2.993,2.993,0,0,1,2.116-.878,2.271,2.271,0,0,1,2.273,2.272v3Z" transform="translate(-1.099 -4.275)" fill="#58595b"/>
      <path id="Trazado_996405" data-name="Trazado 996405" d="M55.534,43.145V37H51.145a1.756,1.756,0,0,0-1.756,1.756,2.993,2.993,0,0,0-2.116-.878A2.271,2.271,0,0,0,45,40.15v3Z" transform="translate(-5.253 -4.275)" fill="#58595b"/>
      <path id="Trazado_996406" data-name="Trazado 996406" d="M38.534,43.145V40.511A3.511,3.511,0,0,0,35.023,37h-.878a1.756,1.756,0,0,0-1.756,1.756,2.993,2.993,0,0,0-2.116-.878A2.271,2.271,0,0,0,28,40.15v3Z" transform="translate(-3.176 -4.275)" fill="#58595b"/>
      <path id="Trazado_996407" data-name="Trazado 996407" d="M11,9.145V6.511A3.511,3.511,0,0,1,14.511,3h.878a1.756,1.756,0,0,1,1.756,1.756,2.993,2.993,0,0,1,2.116-.878A2.271,2.271,0,0,1,21.534,6.15v3Z" transform="translate(-1.099 -0.122)" fill="#58595b"/>
      <path id="Trazado_996408" data-name="Trazado 996408" d="M56.969,4.756V25.824a1.761,1.761,0,0,1-1.756,1.756H35.023a1.761,1.761,0,0,1-1.756-1.756v-7.9L28,14.412,33.267,10.9V4.756A1.761,1.761,0,0,1,35.023,3H55.213A1.761,1.761,0,0,1,56.969,4.756Z" transform="translate(-3.176 -0.122)" fill="#ffcd00"/>
      <path id="Trazado_996409" data-name="Trazado 996409" d="M36,27.946H56.191a1.761,1.761,0,0,0,1.756-1.756V6A22.01,22.01,0,0,1,36,27.946Z" transform="translate(-4.153 -0.489)" fill="#ebbf00"/>
      <path id="Trazado_996410" data-name="Trazado 996410" d="M39.634,13a2.634,2.634,0,0,0,0,5.267h4.389V13Z" transform="translate(-4.275 -1.344)" fill="#ed1c24"/>
      <path id="Trazado_996411" data-name="Trazado 996411" d="M45,12.634V17.9l7.023,2.634V10Z" transform="translate(-5.253 -0.977)" fill="#d1d3d4"/>
      <path id="Trazado_996412" data-name="Trazado 996412" d="M41,23.389a1.756,1.756,0,1,0,3.511,0V19H41Z" transform="translate(-4.764 -2.077)" fill="#58595b"/>
      <path id="Trazado_996413" data-name="Trazado 996413" d="M54.756,8A1.756,1.756,0,0,0,53,9.756V20.29a1.756,1.756,0,0,0,3.511,0V9.756A1.756,1.756,0,0,0,54.756,8Z" transform="translate(-6.23 -0.733)" fill="#ed1c24"/>
      <path id="Trazado_996414" data-name="Trazado 996414" d="M3,27H27.58v5.267H3Z" transform="translate(-0.122 -3.054)" fill="#8b5e3c"/>
      <path id="Trazado_996415" data-name="Trazado 996415" d="M3,55H27.58v5.267H3Z" transform="translate(-0.122 -6.474)" fill="#8b5e3c"/>
      <g id="Grupo_1162437" data-name="Grupo 1162437" transform="translate(9.023 9.023)">
        <path id="Trazado_996416" data-name="Trazado 996416" d="M10,11.317a1.317,1.317,0,0,0,1.317,1.317h1.317V10H11.317A1.317,1.317,0,0,0,10,11.317Z" transform="translate(-10 -10)" fill="#ffb8a5"/>
        <path id="Trazado_996417" data-name="Trazado 996417" d="M22.317,12.634a1.317,1.317,0,0,0,0-2.634H21v2.634Z" transform="translate(-11.344 -10)" fill="#ffb8a5"/>
        <path id="Trazado_996418" data-name="Trazado 996418" d="M44,45.317a1.317,1.317,0,0,0,1.317,1.317h1.317V44H45.317A1.317,1.317,0,0,0,44,45.317Z" transform="translate(-14.153 -14.153)" fill="#ffb8a5"/>
        <path id="Trazado_996419" data-name="Trazado 996419" d="M56.317,46.634a1.317,1.317,0,0,0,0-2.634H55v2.634Z" transform="translate(-15.497 -14.153)" fill="#ffb8a5"/>
        <path id="Trazado_996420" data-name="Trazado 996420" d="M28.317,44a1.317,1.317,0,0,0,0,2.634h1.317V44Z" transform="translate(-12.077 -14.153)" fill="#ffb8a5"/>
        <path id="Trazado_996421" data-name="Trazado 996421" d="M39.317,46.634a1.317,1.317,0,0,0,0-2.634H38v2.634Z" transform="translate(-13.42 -14.153)" fill="#ffb8a5"/>
      </g>
      <path id="Trazado_996422" data-name="Trazado 996422" d="M19.145,9H13.878A.878.878,0,0,0,13,9.878v2.634a3.511,3.511,0,1,0,7.023,0V9.878A.878.878,0,0,0,19.145,9Z" transform="translate(-1.344 -0.855)" fill="#ffbcab"/>
      <path id="Trazado_996423" data-name="Trazado 996423" d="M53.145,43H47.878a.878.878,0,0,0-.878.878v2.634a3.511,3.511,0,0,0,7.023,0V43.878A.878.878,0,0,0,53.145,43Z" transform="translate(-5.497 -5.008)" fill="#ffbcab"/>
      <path id="Trazado_996424" data-name="Trazado 996424" d="M36.145,43H30.878a.878.878,0,0,0-.878.878v2.634a3.511,3.511,0,0,0,7.023,0V43.878A.878.878,0,0,0,36.145,43Z" transform="translate(-3.42 -5.008)" fill="#ffbcab"/>
      <path id="Trazado_996425" data-name="Trazado 996425" d="M19.145,43H13.878a.878.878,0,0,0-.878.878v2.634a3.511,3.511,0,0,0,7.023,0V43.878A.878.878,0,0,0,19.145,43Z" transform="translate(-1.344 -5.008)" fill="#ffbcab"/>
      <path id="Trazado_996426" data-name="Trazado 996426" d="M10,45.317a1.317,1.317,0,0,0,1.317,1.317h1.317V44H11.317A1.317,1.317,0,0,0,10,45.317Z" transform="translate(-0.977 -5.13)" fill="#ffb8a5"/>
      <path id="Trazado_996427" data-name="Trazado 996427" d="M22.317,46.634a1.317,1.317,0,0,0,0-2.634H21v2.634Z" transform="translate(-2.321 -5.13)" fill="#ffb8a5"/>
      <path id="Trazado_996428" data-name="Trazado 996428" d="M19.29,19a3.511,3.511,0,0,1-7.023,0A5.267,5.267,0,0,0,7,24.267v1.756H24.557V24.267A5.267,5.267,0,0,0,19.29,19Z" transform="translate(-0.611 -2.077)" fill="#ed1c24"/>
      <path id="Trazado_996429" data-name="Trazado 996429" d="M16.511,22.2a3.511,3.511,0,0,0,3.511-3.511h-.878a.878.878,0,0,1-.878-.878V16.46a3.489,3.489,0,0,1-3.511,0v1.352a.878.878,0,0,1-.878.878H13A3.511,3.511,0,0,0,16.511,22.2Z" transform="translate(-1.344 -1.766)" fill="#ffb8a5"/>
      <path id="Trazado_996430" data-name="Trazado 996430" d="M33.511,56.2a3.511,3.511,0,0,0,3.511-3.511h-.878a.878.878,0,0,1-.878-.878V50.46a3.489,3.489,0,0,1-3.511,0v1.352a.878.878,0,0,1-.878.878H30A3.511,3.511,0,0,0,33.511,56.2Z" transform="translate(-3.42 -5.919)" fill="#ffb8a5"/>
      <path id="Trazado_996431" data-name="Trazado 996431" d="M53.29,53a3.511,3.511,0,0,1-7.023,0A5.267,5.267,0,0,0,41,58.267v1.756H58.557V58.267A5.267,5.267,0,0,0,53.29,53Z" transform="translate(-4.764 -6.23)" fill="#ffcd00"/>
      <path id="Trazado_996432" data-name="Trazado 996432" d="M50.511,56.2a3.511,3.511,0,0,0,3.511-3.511h-.878a.878.878,0,0,1-.878-.878V50.46a3.489,3.489,0,0,1-3.511,0v1.352a.878.878,0,0,1-.878.878H47A3.511,3.511,0,0,0,50.511,56.2Z" transform="translate(-5.497 -5.919)" fill="#ffb8a5"/>
      <path id="Trazado_996433" data-name="Trazado 996433" d="M19.29,53a3.511,3.511,0,0,1-7.023,0A5.267,5.267,0,0,0,7,58.267v1.756H24.557V58.267A5.267,5.267,0,0,0,19.29,53Z" transform="translate(-0.611 -6.23)" fill="#7ed63e"/>
      <path id="Trazado_996434" data-name="Trazado 996434" d="M16.511,56.2a3.511,3.511,0,0,0,3.511-3.511h-.878a.878.878,0,0,1-.878-.878V50.46a3.489,3.489,0,0,1-3.511,0v1.352a.878.878,0,0,1-.878.878H13A3.511,3.511,0,0,0,16.511,56.2Z" transform="translate(-1.344 -5.919)" fill="#ffb8a5"/>
      <path id="Trazado_996435" data-name="Trazado 996435" d="M36.29,53a3.511,3.511,0,0,1-7.023,0A5.267,5.267,0,0,0,24,58.267v1.756H41.557V58.267A5.267,5.267,0,0,0,36.29,53Z" transform="translate(-2.687 -6.23)" fill="#006df0"/>
      <path id="Trazado_996436" data-name="Trazado 996436" d="M6,33H25.313v1.756H6Z" transform="translate(-0.489 -3.787)" fill="#a97c50"/>
      <path id="Trazado_996437" data-name="Trazado 996437" d="M55.091,2H34.9a2.641,2.641,0,0,0-2.634,2.634V10.3l-4.872,3.257a.869.869,0,0,0,0,1.457l4.872,3.257V25.7A2.641,2.641,0,0,0,34.9,28.335H55.091A2.641,2.641,0,0,0,57.725,25.7V4.634A2.641,2.641,0,0,0,55.091,2Zm.878,23.7a.878.878,0,0,1-.878.878H34.9a.878.878,0,0,1-.878-.878V17.8a.878.878,0,0,0-.4-.729l-4.17-2.783,4.17-2.783a.878.878,0,0,0,.4-.729V4.634a.878.878,0,0,1,.878-.878H55.091a.878.878,0,0,1,.878.878Z" transform="translate(-3.054 0)" fill="#231f20"/>
      <path id="Trazado_996438" data-name="Trazado 996438" d="M52.679,7a2.634,2.634,0,0,0-2.546,1.993l-6.391,2.4H39.511a3.511,3.511,0,1,0,0,7.023v3.511a2.634,2.634,0,0,0,5.267,0V18.8l5.355,2.01a2.628,2.628,0,0,0,5.179-.641V9.634A2.641,2.641,0,0,0,52.679,7ZM43.023,21.923a.878.878,0,0,1-1.756,0V18.412h1.756Zm0-5.267H39.511a1.756,1.756,0,1,1,0-3.511h3.511ZM50.046,18.9l-5.267-1.975V12.873L50.046,10.9Zm3.511,1.264a.878.878,0,0,1-1.756,0V9.634a.878.878,0,0,1,1.756,0Z" transform="translate(-4.153 -0.611)" fill="#231f20"/>
      <path id="Trazado_996439" data-name="Trazado 996439" d="M48.526,45.892h-.878v-.9a4.4,4.4,0,0,0,1.668-2.607h.527a2.188,2.188,0,0,0,1.317-3.942V32.725a.878.878,0,0,0-.878-.878H45.892a2.644,2.644,0,0,0-2.239,1.247,3.892,3.892,0,0,0-1.633-.369,3.154,3.154,0,0,0-3.151,3.151v2.563a2.188,2.188,0,0,0,1.317,3.942h.527a4.4,4.4,0,0,0,1.668,2.607v.9H41.5a6.145,6.145,0,0,0-3.942,1.448A6.11,6.11,0,0,0,33.6,45.892h-.878v-.9a4.4,4.4,0,0,0,1.668-2.607h.527a2.188,2.188,0,0,0,1.317-3.942v-2.2a4.389,4.389,0,0,0-4.389-4.389h-.878a2.644,2.644,0,0,0-2.239,1.247,3.892,3.892,0,0,0-1.633-.369,3.154,3.154,0,0,0-3.151,3.151v2.563a2.188,2.188,0,0,0,1.317,3.942h.527a4.4,4.4,0,0,0,1.668,2.607v.9H26.58a6.11,6.11,0,0,0-3.959,1.448,6.145,6.145,0,0,0-3.942-1.448H17.8v-.9a4.4,4.4,0,0,0,1.668-2.607H20a2.188,2.188,0,0,0,1.317-3.942V35.876a3.154,3.154,0,0,0-3.151-3.151,3.892,3.892,0,0,0-1.633.369,2.644,2.644,0,0,0-2.239-1.247H9.9a.878.878,0,0,0-.878.878v5.715a2.188,2.188,0,0,0,1.317,3.942h.527a4.4,4.4,0,0,0,1.668,2.607v.9h-.878a6.107,6.107,0,0,0-4.31,1.773c-.026,0-.053-.018-.079-.018H6.389V30.091H23.946v1.756a.878.878,0,1,0,1.756,0V30.091h1.756a.878.878,0,0,0,.878-.878V23.946a.878.878,0,0,0-.878-.878H24.824v-.878a6.152,6.152,0,0,0-6.145-6.145H17.8v-.9a4.4,4.4,0,0,0,1.668-2.607H20a2.188,2.188,0,0,0,1.317-3.942V6.029a3.154,3.154,0,0,0-3.151-3.151,3.892,3.892,0,0,0-1.633.369A2.644,2.644,0,0,0,14.29,2h-.878A4.389,4.389,0,0,0,9.023,6.389v2.2a2.188,2.188,0,0,0,1.317,3.942h.527a4.4,4.4,0,0,0,1.668,2.607v.9h-.878a6.152,6.152,0,0,0-6.145,6.145v.878H2.878A.878.878,0,0,0,2,23.946v5.267a.878.878,0,0,0,.878.878H4.634V47.648H2.878A.878.878,0,0,0,2,48.526v5.267a.878.878,0,0,0,.878.878H53.793a.878.878,0,0,0,.878-.878V52.037a6.152,6.152,0,0,0-6.145-6.145ZM17.8,11.656a2.634,2.634,0,1,1-5.267,0V9.023H17.8Zm-.158,6.127a2.614,2.614,0,0,1-4.951,0,1.748,1.748,0,0,0,1.6-1.738v-.088a4.433,4.433,0,0,0,1.756,0v.088a1.748,1.748,0,0,0,1.6,1.738Zm2.792-7.444a.439.439,0,0,1-.439.439h-.439V9.9H20A.439.439,0,0,1,20.435,10.34Zm-9.656.439H10.34a.439.439,0,0,1,0-.878h.439Zm.246-2.634h-.246V6.389a2.641,2.641,0,0,1,2.634-2.634h.878a.878.878,0,0,1,.878.878.866.866,0,0,0,.544.808.878.878,0,0,0,.957-.184,2.129,2.129,0,0,1,1.492-.623,1.394,1.394,0,0,1,1.4,1.4V8.145h-.246a1.745,1.745,0,0,0-1.51-.878H12.534a1.745,1.745,0,0,0-1.51.878ZM7.267,22.191a4.384,4.384,0,0,1,3.617-4.31,4.389,4.389,0,0,0,8.568,0,4.384,4.384,0,0,1,3.617,4.31v.878H21.313v-.878a.878.878,0,1,0-1.756,0v.878H10.778v-.878a.878.878,0,1,0-1.756,0v.878H7.267ZM5.511,52.037v.878H3.756V49.4H6.108A6.162,6.162,0,0,0,5.511,52.037Zm-1.756-23.7V24.824H26.58v3.511ZM47.648,41.5a2.634,2.634,0,0,1-5.267,0V38.87h5.267Zm-.158,6.127a2.614,2.614,0,0,1-4.951,0,1.748,1.748,0,0,0,1.6-1.738V45.8a4.433,4.433,0,0,0,1.756,0v.088A1.748,1.748,0,0,0,47.49,47.631Zm2.792-7.444a.439.439,0,0,1-.439.439H49.4v-.878h.439A.439.439,0,0,1,50.282,40.186Zm-9.656.439h-.439a.439.439,0,1,1,0-.878h.439Zm.246-2.634h-.246V35.876a1.394,1.394,0,0,1,1.4-1.4,2.129,2.129,0,0,1,1.492.623.878.878,0,0,0,.957.184.866.866,0,0,0,.544-.808.878.878,0,0,1,.878-.878H49.4v4.389h-.246a1.745,1.745,0,0,0-1.51-.878H42.381A1.745,1.745,0,0,0,40.871,37.992ZM32.725,41.5a2.634,2.634,0,0,1-5.267,0V38.87h5.267Zm-.158,6.127a2.614,2.614,0,0,1-4.951,0,1.748,1.748,0,0,0,1.6-1.738V45.8a4.433,4.433,0,0,0,1.756,0v.088a1.748,1.748,0,0,0,1.6,1.738Zm2.792-7.444a.439.439,0,0,1-.439.439H34.48v-.878h.439A.439.439,0,0,1,35.358,40.186Zm-9.656.439h-.439a.439.439,0,0,1,0-.878H25.7Zm.246-2.634H25.7V35.876a1.394,1.394,0,0,1,1.4-1.4,2.129,2.129,0,0,1,1.492.623.878.878,0,0,0,.957.184.866.866,0,0,0,.544-.808.878.878,0,0,1,.878-.878h.878a2.641,2.641,0,0,1,2.634,2.634v1.756h-.246a1.745,1.745,0,0,0-1.51-.878H27.458A1.745,1.745,0,0,0,25.948,37.992ZM17.8,41.5a2.634,2.634,0,1,1-5.267,0V38.87H17.8Zm-.158,6.127a2.614,2.614,0,0,1-4.951,0,1.748,1.748,0,0,0,1.6-1.738V45.8a4.433,4.433,0,0,0,1.756,0v.088A1.748,1.748,0,0,0,17.643,47.631Zm2.792-7.444a.439.439,0,0,1-.439.439h-.439v-.878H20A.439.439,0,0,1,20.435,40.186Zm-9.656.439H10.34a.439.439,0,0,1,0-.878h.439Zm.246-2.634h-.246V33.6H14.29a.878.878,0,0,1,.878.878.866.866,0,0,0,.544.808.878.878,0,0,0,.957-.184,2.129,2.129,0,0,1,1.492-.623,1.394,1.394,0,0,1,1.4,1.4v2.116h-.246a1.745,1.745,0,0,0-1.51-.878H12.534a1.745,1.745,0,0,0-1.51.878Zm9.411,14.046v.878H10.778v-.878a.878.878,0,1,0-1.756,0v.878H7.267v-.878a4.384,4.384,0,0,1,3.617-4.31,4.389,4.389,0,0,0,8.568,0,4.363,4.363,0,0,1,2,.922,6.158,6.158,0,0,0-1.018,3.388Zm17.557.878H36.236v-.878a.878.878,0,0,0-1.756,0v.878H25.7v-.878a.878.878,0,1,0-1.756,0v.878H22.191v-.878a4.384,4.384,0,0,1,3.617-4.31,4.389,4.389,0,0,0,8.568,0,4.384,4.384,0,0,1,3.617,4.31Zm14.923,0H51.16v-.878a.878.878,0,1,0-1.756,0v.878H39.747v-.878a6.158,6.158,0,0,0-1.018-3.389,4.363,4.363,0,0,1,2-.922,4.389,4.389,0,0,0,8.568,0,4.384,4.384,0,0,1,3.617,4.31Z" transform="translate(0)" fill="#231f20"/>
    </g>
  </g>
</svg>
