<svg xmlns="http://www.w3.org/2000/svg" width="41.389" height="30.033" viewBox="0 0 41.389 30.033">
  <path id="cost-saving_17765441" d="M28.213,18A15.212,15.212,0,0,0,15.5,24.826H5.449A3.435,3.435,0,0,0,2,28.238a3.389,3.389,0,0,0,1.4,2.73,3.361,3.361,0,0,0,0,5.461,3.361,3.361,0,0,0,0,5.461A3.389,3.389,0,0,0,2,44.62a3.435,3.435,0,0,0,3.449,3.413H17.866a3.429,3.429,0,0,0,3.044-1.858A15.064,15.064,0,1,0,28.213,18ZM3.38,28.238a2.061,2.061,0,0,1,2.069-2.048H14.7a14.787,14.787,0,0,0-1.409,4.1H5.449A2.061,2.061,0,0,1,3.38,28.238Zm0,5.461a2.061,2.061,0,0,1,2.069-2.048H13.1c-.041.45-.066.9-.066,1.365a14.873,14.873,0,0,0,.256,2.73H5.449A2.061,2.061,0,0,1,3.38,33.7Zm0,5.461a2.061,2.061,0,0,1,2.069-2.048h8.166a14.872,14.872,0,0,0,1.888,4.1H5.449A2.061,2.061,0,0,1,3.38,39.16Zm14.486,7.508H5.449a2.048,2.048,0,1,1,0-4.1H16.515a15.247,15.247,0,0,0,3.227,2.9,2.069,2.069,0,0,1-1.877,1.2Zm10.347,0a13.652,13.652,0,1,1,13.8-13.651A13.74,13.74,0,0,1,28.213,46.668Zm5.518-17.747a.69.69,0,0,0,1.38,0c0-2.518-2.676-4.522-6.208-4.755V22.778a.69.69,0,0,0-1.38,0v1.389c-3.532.233-6.208,2.237-6.208,4.755s2.676,4.522,6.208,4.755v6.818c-2.679-.218-4.829-1.676-4.829-3.382a.69.69,0,0,0-1.38,0c0,2.518,2.676,4.522,6.208,4.755v1.389a.69.69,0,0,0,1.38,0V41.866c3.532-.233,6.208-2.237,6.208-4.755S32.435,32.59,28.9,32.357V25.539C31.582,25.757,33.731,27.215,33.731,28.921ZM27.523,32.3c-2.679-.218-4.829-1.676-4.829-3.382s2.149-3.164,4.829-3.382Zm6.208,4.809c0,1.706-2.149,3.164-4.829,3.382V33.73c2.679.218,4.829,1.676,4.829,3.382Z" transform="translate(-2 -18)"/>
</svg>
