<svg xmlns="http://www.w3.org/2000/svg" width="1030" height="286.979" viewBox="0 0 1030 286.979">
  <g id="Grupo_1162472" data-name="Grupo 1162472" transform="translate(-285 -7490)">
    <g id="Grupo_1162123" data-name="Grupo 1162123">
      <g id="Fondo" transform="translate(285 7490)" fill="#f3f3f3" stroke="#aeaeae" stroke-width="1">
        <rect width="1030" height="285" stroke="none"/>
        <rect x="0.5" y="0.5" width="1029" height="284" fill="none"/>
      </g>
      <path id="Trazado_994735" data-name="Trazado 994735" d="M1087.134,7490v286.979" transform="translate(-286.634)" fill="none" stroke="#aeaeae" stroke-width="1"/>
      <path id="Trazado_996480" data-name="Trazado 996480" d="M1.6,0V-12.69H2.9l5.094,11.5H7.47l5.094-11.5h1.3V0H12.492V-10.764h.54L8.226,0h-.99L2.412-10.764h.54V0ZM20.576.162a4.371,4.371,0,0,1-2.259-.567,3.776,3.776,0,0,1-1.485-1.62,5.554,5.554,0,0,1-.522-2.493,5.541,5.541,0,0,1,.522-2.5,3.787,3.787,0,0,1,1.485-1.611A4.371,4.371,0,0,1,20.576-9.2a4.407,4.407,0,0,1,2.277.567A3.844,3.844,0,0,1,24.347-7.02a5.461,5.461,0,0,1,.531,2.5,5.475,5.475,0,0,1-.531,2.493,3.833,3.833,0,0,1-1.494,1.62A4.407,4.407,0,0,1,20.576.162Zm0-1.188a2.551,2.551,0,0,0,2.052-.891,3.922,3.922,0,0,0,.756-2.6,3.92,3.92,0,0,0-.765-2.619,2.557,2.557,0,0,0-2.043-.891,2.531,2.531,0,0,0-2.034.891,3.953,3.953,0,0,0-.756,2.619,3.922,3.922,0,0,0,.756,2.6A2.531,2.531,0,0,0,20.576-1.026ZM27.148,0V-6.948q0-.5-.045-1.035T27-9.036h1.4l.18,1.98h-.216a3.127,3.127,0,0,1,1.269-1.593A3.723,3.723,0,0,1,31.666-9.2a3.2,3.2,0,0,1,2.421.855,3.781,3.781,0,0,1,.819,2.691V0H33.448V-5.562a2.787,2.787,0,0,0-.513-1.863,2.01,2.01,0,0,0-1.593-.585,2.63,2.63,0,0,0-2,.774,2.875,2.875,0,0,0-.738,2.07V0ZM41.405.162a4.371,4.371,0,0,1-2.259-.567,3.776,3.776,0,0,1-1.485-1.62,5.554,5.554,0,0,1-.522-2.493,5.541,5.541,0,0,1,.522-2.5,3.787,3.787,0,0,1,1.485-1.611A4.371,4.371,0,0,1,41.405-9.2a4.407,4.407,0,0,1,2.277.567A3.844,3.844,0,0,1,45.176-7.02a5.461,5.461,0,0,1,.531,2.5,5.475,5.475,0,0,1-.531,2.493,3.833,3.833,0,0,1-1.494,1.62A4.407,4.407,0,0,1,41.405.162Zm0-1.188a2.551,2.551,0,0,0,2.052-.891,3.922,3.922,0,0,0,.756-2.6,3.92,3.92,0,0,0-.765-2.619,2.557,2.557,0,0,0-2.043-.891,2.531,2.531,0,0,0-2.034.891,3.953,3.953,0,0,0-.756,2.619,3.922,3.922,0,0,0,.756,2.6A2.531,2.531,0,0,0,41.405-1.026Zm6.572,4.914V-6.948q0-.5-.045-1.035t-.1-1.053h1.4l.2,2.142h-.216a2.933,2.933,0,0,1,1.17-1.683A3.564,3.564,0,0,1,52.5-9.2a3.9,3.9,0,0,1,2.115.558,3.767,3.767,0,0,1,1.4,1.6,5.754,5.754,0,0,1,.5,2.52,5.8,5.8,0,0,1-.495,2.5,3.747,3.747,0,0,1-1.4,1.611A3.9,3.9,0,0,1,52.5.162,3.571,3.571,0,0,1,50.407-.45a2.894,2.894,0,0,1-1.17-1.674h.2V3.888Zm4.23-4.914a2.577,2.577,0,0,0,2.061-.891,3.89,3.89,0,0,0,.765-2.6,3.92,3.92,0,0,0-.765-2.619,2.577,2.577,0,0,0-2.061-.891,2.557,2.557,0,0,0-2.043.891A3.92,3.92,0,0,0,49.4-4.518a3.89,3.89,0,0,0,.765,2.6A2.557,2.557,0,0,0,52.207-1.026ZM62.487.162a4.371,4.371,0,0,1-2.259-.567,3.776,3.776,0,0,1-1.485-1.62,5.554,5.554,0,0,1-.522-2.493,5.541,5.541,0,0,1,.522-2.5,3.787,3.787,0,0,1,1.485-1.611A4.371,4.371,0,0,1,62.487-9.2a4.407,4.407,0,0,1,2.277.567A3.844,3.844,0,0,1,66.258-7.02a5.461,5.461,0,0,1,.531,2.5,5.475,5.475,0,0,1-.531,2.493,3.833,3.833,0,0,1-1.494,1.62A4.407,4.407,0,0,1,62.487.162Zm0-1.188a2.551,2.551,0,0,0,2.052-.891,3.922,3.922,0,0,0,.756-2.6,3.92,3.92,0,0,0-.765-2.619,2.557,2.557,0,0,0-2.043-.891,2.531,2.531,0,0,0-2.034.891A3.953,3.953,0,0,0,59.7-4.518a3.922,3.922,0,0,0,.756,2.6A2.531,2.531,0,0,0,62.487-1.026ZM69.059,0V-13.248h1.458V0Zm4.286,0V-9.036H74.8V0Zm-.18-11.088v-1.638h1.8v1.638ZM81.338.162a4.371,4.371,0,0,1-2.259-.567,3.776,3.776,0,0,1-1.485-1.62,5.554,5.554,0,0,1-.522-2.493,5.541,5.541,0,0,1,.522-2.5,3.787,3.787,0,0,1,1.485-1.611A4.371,4.371,0,0,1,81.338-9.2a4.407,4.407,0,0,1,2.277.567A3.844,3.844,0,0,1,85.109-7.02a5.461,5.461,0,0,1,.531,2.5,5.475,5.475,0,0,1-.531,2.493,3.833,3.833,0,0,1-1.494,1.62A4.407,4.407,0,0,1,81.338.162Zm0-1.188a2.551,2.551,0,0,0,2.052-.891,3.922,3.922,0,0,0,.756-2.6,3.92,3.92,0,0,0-.765-2.619,2.557,2.557,0,0,0-2.043-.891,2.531,2.531,0,0,0-2.034.891,3.953,3.953,0,0,0-.756,2.619,3.922,3.922,0,0,0,.756,2.6A2.531,2.531,0,0,0,81.338-1.026ZM1.116,59.646a7.967,7.967,0,0,1,.693-3.465,5.152,5.152,0,0,1,2-2.241,5.942,5.942,0,0,1,3.141-.792,5.882,5.882,0,0,1,3.1.792,5.247,5.247,0,0,1,2.025,2.241A8.726,8.726,0,0,1,12.06,63.1a5.372,5.372,0,0,1-2.025,2.259,5.784,5.784,0,0,1-3.087.8,5.843,5.843,0,0,1-3.132-.8,5.275,5.275,0,0,1-2-2.259A7.894,7.894,0,0,1,1.116,59.646Zm1.566,0a6.055,6.055,0,0,0,1.08,3.825,3.8,3.8,0,0,0,3.186,1.377,3.83,3.83,0,0,0,3.141-1.377,5.883,5.883,0,0,0,1.125-3.825A5.871,5.871,0,0,0,10.1,55.821a3.847,3.847,0,0,0-3.15-1.359,3.825,3.825,0,0,0-3.186,1.359A6.009,6.009,0,0,0,2.682,59.646ZM15.32,66V52.752h1.458V66Zm4.286,0V56.964h1.458V66Zm-.18-11.088V53.274h1.8v1.638Zm8.444,15.1a7.708,7.708,0,0,1-2.16-.288,5.5,5.5,0,0,1-1.782-.882l.432-1.1a6.1,6.1,0,0,0,1.1.63,5.605,5.605,0,0,0,1.116.351,6.141,6.141,0,0,0,1.224.117,2.691,2.691,0,0,0,2.016-.7,2.745,2.745,0,0,0,.684-2V63.5h.18a2.907,2.907,0,0,1-1.188,1.683,3.616,3.616,0,0,1-2.106.621,4.081,4.081,0,0,1-2.151-.549,3.64,3.64,0,0,1-1.4-1.566,5.437,5.437,0,0,1-.495-2.4,5.334,5.334,0,0,1,.495-2.376,3.651,3.651,0,0,1,1.4-1.557,4.081,4.081,0,0,1,2.151-.549,3.643,3.643,0,0,1,2.115.612,2.885,2.885,0,0,1,1.179,1.692l-.18-.18.162-1.962h1.422q-.072.522-.108,1.053t-.036,1.035v6.894A4.105,4.105,0,0,1,30.9,68.988,4.133,4.133,0,0,1,27.869,70.014Zm-.216-5.4a2.6,2.6,0,0,0,2.07-.873,4.356,4.356,0,0,0,0-4.905,2.608,2.608,0,0,0-2.07-.864,2.642,2.642,0,0,0-2.07.864,4.272,4.272,0,0,0,0,4.905A2.629,2.629,0,0,0,27.653,64.614Zm10.8,1.548A4.371,4.371,0,0,1,36.2,65.6a3.776,3.776,0,0,1-1.485-1.62,6.236,6.236,0,0,1,0-4.995A3.787,3.787,0,0,1,36.2,57.369a4.819,4.819,0,0,1,4.536,0,3.844,3.844,0,0,1,1.494,1.611,6.139,6.139,0,0,1,0,4.995,3.833,3.833,0,0,1-1.494,1.62A4.407,4.407,0,0,1,38.455,66.162Zm0-1.188a2.551,2.551,0,0,0,2.052-.891,4.859,4.859,0,0,0-.009-5.22,2.557,2.557,0,0,0-2.043-.891,2.531,2.531,0,0,0-2.034.891,4.883,4.883,0,0,0,0,5.22A2.531,2.531,0,0,0,38.455,64.974Zm6.572,4.914V59.052q0-.5-.045-1.035t-.1-1.053h1.4l.2,2.142h-.216a2.933,2.933,0,0,1,1.17-1.683,3.564,3.564,0,0,1,2.106-.621,3.9,3.9,0,0,1,2.115.558,3.766,3.766,0,0,1,1.4,1.6,6.561,6.561,0,0,1,.009,5.022,3.747,3.747,0,0,1-1.4,1.611,3.9,3.9,0,0,1-2.124.567,3.571,3.571,0,0,1-2.088-.612,2.894,2.894,0,0,1-1.17-1.674h.2v6.012Zm4.23-4.914a2.577,2.577,0,0,0,2.061-.891,4.835,4.835,0,0,0,0-5.22,2.808,2.808,0,0,0-4.1,0,4.835,4.835,0,0,0,0,5.22A2.557,2.557,0,0,0,49.257,64.974Zm10.28,1.188a4.371,4.371,0,0,1-2.259-.567,3.776,3.776,0,0,1-1.485-1.62,6.236,6.236,0,0,1,0-4.995,3.787,3.787,0,0,1,1.485-1.611,4.819,4.819,0,0,1,4.536,0,3.844,3.844,0,0,1,1.494,1.611,6.139,6.139,0,0,1,0,4.995,3.833,3.833,0,0,1-1.494,1.62A4.407,4.407,0,0,1,59.537,66.162Zm0-1.188a2.551,2.551,0,0,0,2.052-.891,4.859,4.859,0,0,0-.009-5.22,2.557,2.557,0,0,0-2.043-.891,2.531,2.531,0,0,0-2.034.891,4.883,4.883,0,0,0,0,5.22A2.531,2.531,0,0,0,59.537,64.974ZM66.109,66V52.752h1.458V66Zm4.286,0V56.964h1.458V66Zm-.18-11.088V53.274h1.8v1.638Zm8.174,11.25a4.371,4.371,0,0,1-2.259-.567,3.776,3.776,0,0,1-1.485-1.62,6.236,6.236,0,0,1,0-4.995,3.787,3.787,0,0,1,1.485-1.611,4.819,4.819,0,0,1,4.536,0,3.844,3.844,0,0,1,1.494,1.611,6.139,6.139,0,0,1,0,4.995,3.833,3.833,0,0,1-1.494,1.62A4.407,4.407,0,0,1,78.388,66.162Zm0-1.188a2.551,2.551,0,0,0,2.052-.891,4.859,4.859,0,0,0-.009-5.22,2.557,2.557,0,0,0-2.043-.891,2.531,2.531,0,0,0-2.034.891,4.883,4.883,0,0,0,0,5.22A2.531,2.531,0,0,0,78.388,64.974ZM1.584,132V119.31H5.8a7.91,7.91,0,0,1,3.564.729,4.966,4.966,0,0,1,2.214,2.142,8.3,8.3,0,0,1,0,6.921,5,5,0,0,1-2.214,2.16A7.828,7.828,0,0,1,5.8,132Zm1.494-1.278h2.61a5.219,5.219,0,0,0,3.852-1.269,6.395,6.395,0,0,0,0-7.623,5.243,5.243,0,0,0-3.852-1.26H3.078Zm14.978,1.44a3.144,3.144,0,0,1-2.421-.882,3.855,3.855,0,0,1-.819-2.7v-5.616h1.458v5.58a2.757,2.757,0,0,0,.5,1.827,1.957,1.957,0,0,0,1.566.585,2.482,2.482,0,0,0,1.908-.774,2.918,2.918,0,0,0,.72-2.07v-5.148H22.43V132H21.008v-2.034h.234a3.243,3.243,0,0,1-1.215,1.62A3.391,3.391,0,0,1,18.056,132.162Zm10.91,0a4.371,4.371,0,0,1-2.259-.567,3.776,3.776,0,0,1-1.485-1.62,6.236,6.236,0,0,1,0-5,3.787,3.787,0,0,1,1.485-1.611,4.819,4.819,0,0,1,4.536,0,3.844,3.844,0,0,1,1.494,1.611,6.139,6.139,0,0,1,0,5,3.833,3.833,0,0,1-1.494,1.62A4.407,4.407,0,0,1,28.966,132.162Zm0-1.188a2.551,2.551,0,0,0,2.052-.891,4.859,4.859,0,0,0-.009-5.22,2.557,2.557,0,0,0-2.043-.891,2.531,2.531,0,0,0-2.034.891,4.883,4.883,0,0,0,0,5.22A2.531,2.531,0,0,0,28.966,130.974Zm6.572,4.914V125.052q0-.5-.045-1.035t-.1-1.053h1.4l.2,2.142h-.216a2.933,2.933,0,0,1,1.17-1.683,3.564,3.564,0,0,1,2.106-.621,3.9,3.9,0,0,1,2.115.558,3.767,3.767,0,0,1,1.4,1.6,6.561,6.561,0,0,1,.009,5.022,3.747,3.747,0,0,1-1.4,1.611,3.9,3.9,0,0,1-2.124.567,3.571,3.571,0,0,1-2.088-.612,2.894,2.894,0,0,1-1.17-1.674H37v6.012Zm4.23-4.914a2.577,2.577,0,0,0,2.061-.891,4.835,4.835,0,0,0,0-5.22,2.808,2.808,0,0,0-4.1,0,4.835,4.835,0,0,0,0,5.22A2.557,2.557,0,0,0,39.767,130.974Zm10.28,1.188a4.371,4.371,0,0,1-2.259-.567,3.776,3.776,0,0,1-1.485-1.62,6.236,6.236,0,0,1,0-5,3.787,3.787,0,0,1,1.485-1.611,4.819,4.819,0,0,1,4.536,0,3.844,3.844,0,0,1,1.494,1.611,6.139,6.139,0,0,1,0,5,3.833,3.833,0,0,1-1.494,1.62A4.407,4.407,0,0,1,50.047,132.162Zm0-1.188a2.551,2.551,0,0,0,2.052-.891,4.859,4.859,0,0,0-.009-5.22,2.557,2.557,0,0,0-2.043-.891,2.531,2.531,0,0,0-2.034.891,4.883,4.883,0,0,0,0,5.22A2.531,2.531,0,0,0,50.047,130.974ZM56.619,132V118.752h1.458V132Zm4.286,0v-9.036h1.458V132Zm-.18-11.088v-1.638h1.8v1.638Zm8.174,11.25a4.371,4.371,0,0,1-2.259-.567,3.776,3.776,0,0,1-1.485-1.62,6.236,6.236,0,0,1,0-5,3.787,3.787,0,0,1,1.485-1.611,4.819,4.819,0,0,1,4.536,0,3.844,3.844,0,0,1,1.494,1.611,6.139,6.139,0,0,1,0,5,3.833,3.833,0,0,1-1.494,1.62A4.407,4.407,0,0,1,68.9,132.162Zm0-1.188a2.551,2.551,0,0,0,2.052-.891,4.859,4.859,0,0,0-.009-5.22,2.557,2.557,0,0,0-2.043-.891,2.531,2.531,0,0,0-2.034.891,4.883,4.883,0,0,0,0,5.22A2.531,2.531,0,0,0,68.9,130.974ZM7.11,198.162a6.234,6.234,0,0,1-3.24-.792,5.2,5.2,0,0,1-2.043-2.25,8.821,8.821,0,0,1,0-6.939A5.212,5.212,0,0,1,3.87,185.94a6.234,6.234,0,0,1,3.24-.792,6.6,6.6,0,0,1,2.412.414,5.328,5.328,0,0,1,1.854,1.206l-.558,1.188a6.3,6.3,0,0,0-1.71-1.107,5.141,5.141,0,0,0-1.98-.351,4.081,4.081,0,0,0-3.312,1.35,6.942,6.942,0,0,0,0,7.605,4.068,4.068,0,0,0,3.312,1.359,5.141,5.141,0,0,0,1.98-.351,6.119,6.119,0,0,0,1.71-1.125l.558,1.206a5.572,5.572,0,0,1-1.854,1.2A6.475,6.475,0,0,1,7.11,198.162Zm9.7,0a4.371,4.371,0,0,1-2.259-.567,3.776,3.776,0,0,1-1.485-1.62,6.236,6.236,0,0,1,0-5,3.787,3.787,0,0,1,1.485-1.611,4.371,4.371,0,0,1,2.259-.567,4.407,4.407,0,0,1,2.277.567,3.844,3.844,0,0,1,1.494,1.611,6.139,6.139,0,0,1,0,5,3.833,3.833,0,0,1-1.494,1.62A4.407,4.407,0,0,1,16.814,198.162Zm0-1.188a2.551,2.551,0,0,0,2.052-.891,4.859,4.859,0,0,0-.009-5.22,2.557,2.557,0,0,0-2.043-.891,2.531,2.531,0,0,0-2.034.891,4.883,4.883,0,0,0,0,5.22A2.531,2.531,0,0,0,16.814,196.974ZM23.386,198v-6.948q0-.5-.045-1.035t-.1-1.053h1.4l.18,1.98H24.61a3.034,3.034,0,0,1,3.042-2.142,2.968,2.968,0,0,1,1.845.54,2.76,2.76,0,0,1,.963,1.674h-.27A3.1,3.1,0,0,1,31.4,189.4a3.471,3.471,0,0,1,2.016-.594,2.846,2.846,0,0,1,2.25.855,3.993,3.993,0,0,1,.756,2.691V198H34.96v-5.562a3.072,3.072,0,0,0-.45-1.863,1.7,1.7,0,0,0-1.44-.585,2.214,2.214,0,0,0-1.791.783,3.157,3.157,0,0,0-.657,2.1V198H29.164v-5.562a3.071,3.071,0,0,0-.45-1.863,1.7,1.7,0,0,0-1.44-.585,2.188,2.188,0,0,0-1.782.783,3.186,3.186,0,0,0-.648,2.1V198Zm15.806,3.888V191.052q0-.5-.045-1.035t-.1-1.053h1.4l.2,2.142h-.216a2.933,2.933,0,0,1,1.17-1.683,3.564,3.564,0,0,1,2.106-.621,3.9,3.9,0,0,1,2.115.558,3.766,3.766,0,0,1,1.4,1.6,6.561,6.561,0,0,1,.009,5.022,3.747,3.747,0,0,1-1.4,1.611,3.9,3.9,0,0,1-2.124.567,3.571,3.571,0,0,1-2.088-.612,2.894,2.894,0,0,1-1.17-1.674h.2v6.012Zm4.23-4.914a2.577,2.577,0,0,0,2.061-.891,4.835,4.835,0,0,0,0-5.22,2.808,2.808,0,0,0-4.1,0,4.835,4.835,0,0,0,0,5.22A2.557,2.557,0,0,0,43.421,196.974Zm10.586,1.188a4.505,4.505,0,0,1-3.348-1.233,4.654,4.654,0,0,1-1.224-3.429,5.356,5.356,0,0,1,.54-2.475,3.992,3.992,0,0,1,1.512-1.638,4.243,4.243,0,0,1,2.232-.585,3.906,3.906,0,0,1,2.088.522,3.374,3.374,0,0,1,1.3,1.485,5.335,5.335,0,0,1,.45,2.277v.54h-7v-.918H56.6l-.306.234a3.512,3.512,0,0,0-.648-2.25,2.319,2.319,0,0,0-1.926-.81,2.546,2.546,0,0,0-2.106.945,3.963,3.963,0,0,0-.756,2.547v.162a3.569,3.569,0,0,0,.837,2.565,3.1,3.1,0,0,0,2.349.873,4.672,4.672,0,0,0,1.521-.243,4.135,4.135,0,0,0,1.359-.8l.5,1.026a4.005,4.005,0,0,1-1.5.891A5.813,5.813,0,0,1,54.007,198.162Zm8.984,0a2.623,2.623,0,0,1-2.034-.765,3.323,3.323,0,0,1-.7-2.313V190.1H58.491v-1.134h1.764V186.5l1.458-.414v2.88h2.592V190.1H61.713v4.824a2.486,2.486,0,0,0,.369,1.539,1.335,1.335,0,0,0,1.107.459,2.7,2.7,0,0,0,.612-.063,3.091,3.091,0,0,0,.486-.153v1.224a2.791,2.791,0,0,1-.6.171A3.916,3.916,0,0,1,62.991,198.162Zm7.022,0a4.505,4.505,0,0,1-3.348-1.233,4.654,4.654,0,0,1-1.224-3.429,5.356,5.356,0,0,1,.54-2.475,3.992,3.992,0,0,1,1.512-1.638,4.243,4.243,0,0,1,2.232-.585,3.906,3.906,0,0,1,2.088.522,3.374,3.374,0,0,1,1.3,1.485,5.334,5.334,0,0,1,.45,2.277v.54h-7v-.918H72.6l-.306.234a3.512,3.512,0,0,0-.648-2.25,2.319,2.319,0,0,0-1.926-.81,2.546,2.546,0,0,0-2.106.945,3.963,3.963,0,0,0-.756,2.547v.162A3.569,3.569,0,0,0,67.7,196.1a3.1,3.1,0,0,0,2.349.873,4.672,4.672,0,0,0,1.521-.243,4.135,4.135,0,0,0,1.359-.8l.5,1.026a4.006,4.006,0,0,1-1.5.891A5.813,5.813,0,0,1,70.013,198.162Zm5.78-.162v-6.948q0-.5-.045-1.035t-.1-1.053h1.4l.18,1.98h-.216a3.127,3.127,0,0,1,1.269-1.593,3.723,3.723,0,0,1,2.025-.549,3.2,3.2,0,0,1,2.421.855,3.781,3.781,0,0,1,.819,2.691V198H82.093v-5.562a2.787,2.787,0,0,0-.513-1.863,2.01,2.01,0,0,0-1.593-.585,2.63,2.63,0,0,0-2,.774,2.875,2.875,0,0,0-.738,2.07V198Zm14.348.162a4.486,4.486,0,0,1-2.313-.576,3.845,3.845,0,0,1-1.512-1.638,5.575,5.575,0,0,1-.531-2.52,5.372,5.372,0,0,1,.54-2.511,3.708,3.708,0,0,1,1.521-1.575,4.685,4.685,0,0,1,2.295-.54,4.772,4.772,0,0,1,1.683.306,3.621,3.621,0,0,1,1.359.864l-.522,1.044a3.584,3.584,0,0,0-1.179-.774,3.4,3.4,0,0,0-1.251-.252,2.744,2.744,0,0,0-2.178.882,3.792,3.792,0,0,0-.774,2.574,3.908,3.908,0,0,0,.774,2.592,2.692,2.692,0,0,0,2.178.918,3.579,3.579,0,0,0,1.233-.234,3.409,3.409,0,0,0,1.2-.774l.522,1.026a3.665,3.665,0,0,1-1.386.882A4.749,4.749,0,0,1,90.14,198.162ZM95.254,198v-9.036h1.458V198Zm-.18-11.088v-1.638h1.8v1.638Zm7.9,11.25a3.867,3.867,0,0,1-2.106-.567,3.747,3.747,0,0,1-1.395-1.611,6.616,6.616,0,0,1,0-5.022,3.688,3.688,0,0,1,1.395-1.6,3.915,3.915,0,0,1,2.106-.558,3.605,3.605,0,0,1,2.115.621,2.92,2.92,0,0,1,1.179,1.683h-.216l.2-2.142h1.4q-.054.522-.1,1.053t-.045,1.035V198h-1.458v-2.124h.2a2.869,2.869,0,0,1-1.188,1.674A3.624,3.624,0,0,1,102.978,198.162Zm.288-1.188a2.551,2.551,0,0,0,2.052-.891,4.883,4.883,0,0,0,0-5.22,2.8,2.8,0,0,0-4.095,0,4.835,4.835,0,0,0,0,5.22A2.557,2.557,0,0,0,103.266,196.974ZM115.042,198v-6.948q0-.5-.045-1.035t-.1-1.053h1.4l.18,1.98h-.216a3.034,3.034,0,0,1,3.042-2.142,2.968,2.968,0,0,1,1.845.54,2.76,2.76,0,0,1,.963,1.674h-.27a3.1,3.1,0,0,1,1.206-1.62,3.471,3.471,0,0,1,2.016-.594,2.846,2.846,0,0,1,2.25.855,3.993,3.993,0,0,1,.756,2.691V198h-1.458v-5.562a3.071,3.071,0,0,0-.45-1.863,1.7,1.7,0,0,0-1.44-.585,2.214,2.214,0,0,0-1.791.783,3.157,3.157,0,0,0-.657,2.1V198H120.82v-5.562a3.072,3.072,0,0,0-.45-1.863,1.7,1.7,0,0,0-1.44-.585,2.188,2.188,0,0,0-1.782.783,3.186,3.186,0,0,0-.648,2.1V198Zm19.514.162a4.371,4.371,0,0,1-2.259-.567,3.776,3.776,0,0,1-1.485-1.62,6.236,6.236,0,0,1,0-5,3.787,3.787,0,0,1,1.485-1.611,4.819,4.819,0,0,1,4.536,0,3.844,3.844,0,0,1,1.494,1.611,6.139,6.139,0,0,1,0,5,3.833,3.833,0,0,1-1.494,1.62A4.407,4.407,0,0,1,134.555,198.162Zm0-1.188a2.551,2.551,0,0,0,2.052-.891,4.859,4.859,0,0,0-.009-5.22,2.557,2.557,0,0,0-2.043-.891,2.531,2.531,0,0,0-2.034.891,4.883,4.883,0,0,0,0,5.22A2.531,2.531,0,0,0,134.555,196.974ZM141.127,198v-6.948q0-.5-.045-1.035t-.1-1.053h1.4l.18,1.98h-.216a3.127,3.127,0,0,1,1.269-1.593,3.723,3.723,0,0,1,2.025-.549,3.2,3.2,0,0,1,2.421.855,3.781,3.781,0,0,1,.819,2.691V198h-1.458v-5.562a2.787,2.787,0,0,0-.513-1.863,2.01,2.01,0,0,0-1.593-.585,2.63,2.63,0,0,0-2,.774,2.875,2.875,0,0,0-.738,2.07V198Zm14.258.162a4.371,4.371,0,0,1-2.259-.567,3.776,3.776,0,0,1-1.485-1.62,6.236,6.236,0,0,1,0-5,3.787,3.787,0,0,1,1.485-1.611,4.819,4.819,0,0,1,4.536,0,3.844,3.844,0,0,1,1.494,1.611,6.139,6.139,0,0,1,0,5,3.833,3.833,0,0,1-1.494,1.62A4.407,4.407,0,0,1,155.385,198.162Zm0-1.188a2.551,2.551,0,0,0,2.052-.891,4.859,4.859,0,0,0-.009-5.22,2.557,2.557,0,0,0-2.043-.891,2.531,2.531,0,0,0-2.034.891,4.883,4.883,0,0,0,0,5.22A2.531,2.531,0,0,0,155.385,196.974Zm6.572,4.914V191.052q0-.5-.045-1.035t-.1-1.053h1.4l.2,2.142H163.2a2.933,2.933,0,0,1,1.17-1.683,3.564,3.564,0,0,1,2.106-.621,3.9,3.9,0,0,1,2.115.558,3.766,3.766,0,0,1,1.395,1.6,6.561,6.561,0,0,1,.009,5.022,3.747,3.747,0,0,1-1.4,1.611,3.9,3.9,0,0,1-2.124.567,3.571,3.571,0,0,1-2.088-.612,2.894,2.894,0,0,1-1.17-1.674h.2v6.012Zm4.23-4.914a2.577,2.577,0,0,0,2.061-.891,4.835,4.835,0,0,0,0-5.22,2.808,2.808,0,0,0-4.1,0,4.835,4.835,0,0,0,0,5.22A2.557,2.557,0,0,0,166.187,196.974Zm10.28,1.188a4.371,4.371,0,0,1-2.259-.567,3.776,3.776,0,0,1-1.485-1.62,6.236,6.236,0,0,1,0-5,3.787,3.787,0,0,1,1.485-1.611,4.819,4.819,0,0,1,4.536,0,3.844,3.844,0,0,1,1.494,1.611,6.139,6.139,0,0,1,0,5,3.833,3.833,0,0,1-1.494,1.62A4.407,4.407,0,0,1,176.467,198.162Zm0-1.188a2.551,2.551,0,0,0,2.052-.891,4.859,4.859,0,0,0-.009-5.22,2.557,2.557,0,0,0-2.043-.891,2.531,2.531,0,0,0-2.034.891,4.883,4.883,0,0,0,0,5.22A2.531,2.531,0,0,0,176.467,196.974ZM183.038,198V184.752H184.5V198Zm4.286,0v-9.036h1.458V198Zm.2-9.918,1.854-3.636h1.566l-2.376,3.636Zm7.094,10.08a6.631,6.631,0,0,1-2.016-.3,4.246,4.246,0,0,1-1.548-.837l.5-1.026a4.637,4.637,0,0,0,1.449.774,5.284,5.284,0,0,0,1.629.252,2.826,2.826,0,0,0,1.629-.387,1.239,1.239,0,0,0,.549-1.071,1.07,1.07,0,0,0-.351-.837,2.58,2.58,0,0,0-1.143-.495l-1.674-.342a3.3,3.3,0,0,1-1.728-.855,2.137,2.137,0,0,1-.576-1.539,2.4,2.4,0,0,1,.414-1.4,2.784,2.784,0,0,1,1.206-.954,4.543,4.543,0,0,1,1.854-.351,5.428,5.428,0,0,1,1.827.3,3.677,3.677,0,0,1,1.4.855l-.522,1.008a3.566,3.566,0,0,0-1.233-.783,4.028,4.028,0,0,0-1.431-.261,2.524,2.524,0,0,0-1.593.423,1.348,1.348,0,0,0-.531,1.107,1.157,1.157,0,0,0,.333.855,2.113,2.113,0,0,0,1.035.5l1.674.342a3.841,3.841,0,0,1,1.827.837,1.988,1.988,0,0,1,.6,1.521,2.3,2.3,0,0,1-.45,1.413,2.849,2.849,0,0,1-1.251.927A5,5,0,0,1,194.616,198.162Zm9.038,0a2.623,2.623,0,0,1-2.034-.765,3.323,3.323,0,0,1-.7-2.313V190.1h-1.764v-1.134h1.764V186.5l1.458-.414v2.88h2.592V190.1h-2.592v4.824a2.487,2.487,0,0,0,.369,1.539,1.335,1.335,0,0,0,1.107.459,2.7,2.7,0,0,0,.612-.063,3.09,3.09,0,0,0,.486-.153v1.224a2.791,2.791,0,0,1-.6.171A3.916,3.916,0,0,1,203.654,198.162Zm3.1-.162v-9.036h1.458V198Zm-.18-11.088v-1.638h1.8v1.638Zm8.264,11.25a4.486,4.486,0,0,1-2.313-.576,3.845,3.845,0,0,1-1.512-1.638,5.575,5.575,0,0,1-.531-2.52,5.372,5.372,0,0,1,.54-2.511,3.708,3.708,0,0,1,1.521-1.575,4.685,4.685,0,0,1,2.295-.54,4.772,4.772,0,0,1,1.683.306,3.62,3.62,0,0,1,1.359.864l-.522,1.044a3.585,3.585,0,0,0-1.179-.774,3.4,3.4,0,0,0-1.251-.252,2.744,2.744,0,0,0-2.178.882,3.792,3.792,0,0,0-.774,2.574,3.908,3.908,0,0,0,.774,2.592,2.692,2.692,0,0,0,2.178.918,3.579,3.579,0,0,0,1.233-.234,3.409,3.409,0,0,0,1.2-.774l.522,1.026a3.665,3.665,0,0,1-1.386.882A4.749,4.749,0,0,1,214.835,198.162Zm8.48,0a3.867,3.867,0,0,1-2.106-.567,3.747,3.747,0,0,1-1.4-1.611,6.616,6.616,0,0,1,0-5.022,3.689,3.689,0,0,1,1.4-1.6,3.915,3.915,0,0,1,2.106-.558,3.605,3.605,0,0,1,2.115.621,2.92,2.92,0,0,1,1.179,1.683h-.216l.2-2.142H228q-.054.522-.1,1.053t-.045,1.035V198h-1.458v-2.124h.2a2.869,2.869,0,0,1-1.188,1.674A3.624,3.624,0,0,1,223.315,198.162Zm.288-1.188a2.551,2.551,0,0,0,2.052-.891,4.883,4.883,0,0,0,0-5.22,2.8,2.8,0,0,0-4.1,0,4.835,4.835,0,0,0,0,5.22A2.557,2.557,0,0,0,223.6,196.974Z" transform="translate(371 7542)" fill="#212429"/>
      <path id="Trazado_996481" data-name="Trazado 996481" d="M6.588.162A5.052,5.052,0,0,1,2.763-1.152a5.41,5.41,0,0,1-1.251-3.87V-12.69H2.988v7.6a4.379,4.379,0,0,0,.864,2.952,3.449,3.449,0,0,0,2.736.99,3.479,3.479,0,0,0,2.682-.99,4.2,4.2,0,0,0,.918-2.952v-7.6h1.476v7.668a5.314,5.314,0,0,1-1.287,3.87A5.074,5.074,0,0,1,6.588.162ZM14.564,0V-6.948q0-.5-.045-1.035t-.1-1.053h1.4L16-7.056h-.216a3.127,3.127,0,0,1,1.269-1.593A3.723,3.723,0,0,1,19.082-9.2a3.2,3.2,0,0,1,2.421.855,3.781,3.781,0,0,1,.819,2.691V0H20.864V-5.562a2.787,2.787,0,0,0-.513-1.863,2.01,2.01,0,0,0-1.593-.585,2.63,2.63,0,0,0-2,.774,2.875,2.875,0,0,0-.738,2.07V0ZM32.819.162a6.631,6.631,0,0,1-2.016-.3,4.246,4.246,0,0,1-1.548-.837L29.759-2a4.637,4.637,0,0,0,1.449.774,5.284,5.284,0,0,0,1.629.252,2.826,2.826,0,0,0,1.629-.387,1.239,1.239,0,0,0,.549-1.071,1.07,1.07,0,0,0-.351-.837,2.581,2.581,0,0,0-1.143-.5L31.847-4.1a3.3,3.3,0,0,1-1.728-.855A2.137,2.137,0,0,1,29.543-6.5a2.4,2.4,0,0,1,.414-1.395,2.784,2.784,0,0,1,1.206-.954A4.543,4.543,0,0,1,33.017-9.2a5.428,5.428,0,0,1,1.827.3,3.677,3.677,0,0,1,1.4.855l-.522,1.008a3.566,3.566,0,0,0-1.233-.783,4.028,4.028,0,0,0-1.431-.261,2.524,2.524,0,0,0-1.593.423,1.348,1.348,0,0,0-.531,1.107,1.157,1.157,0,0,0,.333.855A2.113,2.113,0,0,0,32.3-5.2l1.674.342a3.841,3.841,0,0,1,1.827.837A1.988,1.988,0,0,1,36.4-2.5a2.3,2.3,0,0,1-.45,1.413A2.849,2.849,0,0,1,34.7-.162,5,5,0,0,1,32.819.162Zm9.632,0a4.371,4.371,0,0,1-2.259-.567,3.776,3.776,0,0,1-1.485-1.62,5.554,5.554,0,0,1-.522-2.493,5.541,5.541,0,0,1,.522-2.5,3.787,3.787,0,0,1,1.485-1.611A4.371,4.371,0,0,1,42.451-9.2a4.407,4.407,0,0,1,2.277.567A3.844,3.844,0,0,1,46.222-7.02a5.461,5.461,0,0,1,.531,2.5,5.475,5.475,0,0,1-.531,2.493,3.833,3.833,0,0,1-1.494,1.62A4.407,4.407,0,0,1,42.451.162Zm0-1.188A2.551,2.551,0,0,0,44.5-1.917a3.922,3.922,0,0,0,.756-2.6,3.92,3.92,0,0,0-.765-2.619,2.557,2.557,0,0,0-2.043-.891,2.531,2.531,0,0,0-2.034.891,3.953,3.953,0,0,0-.756,2.619,3.922,3.922,0,0,0,.756,2.6A2.531,2.531,0,0,0,42.451-1.026ZM49.023,0V-13.248h1.458V0Zm7.994.162a4.371,4.371,0,0,1-2.259-.567,3.776,3.776,0,0,1-1.485-1.62,5.554,5.554,0,0,1-.522-2.493,5.541,5.541,0,0,1,.522-2.5,3.787,3.787,0,0,1,1.485-1.611A4.371,4.371,0,0,1,57.017-9.2a4.407,4.407,0,0,1,2.277.567A3.844,3.844,0,0,1,60.788-7.02a5.461,5.461,0,0,1,.531,2.5,5.475,5.475,0,0,1-.531,2.493,3.833,3.833,0,0,1-1.494,1.62A4.407,4.407,0,0,1,57.017.162Zm0-1.188a2.551,2.551,0,0,0,2.052-.891,3.922,3.922,0,0,0,.756-2.6,3.92,3.92,0,0,0-.765-2.619,2.557,2.557,0,0,0-2.043-.891,2.531,2.531,0,0,0-2.034.891,3.953,3.953,0,0,0-.756,2.619,3.922,3.922,0,0,0,.756,2.6A2.531,2.531,0,0,0,57.017-1.026ZM72,.162a4.371,4.371,0,0,1-2.259-.567,3.776,3.776,0,0,1-1.485-1.62,5.554,5.554,0,0,1-.522-2.493,5.541,5.541,0,0,1,.522-2.5,3.787,3.787,0,0,1,1.485-1.611A4.371,4.371,0,0,1,72-9.2a4.407,4.407,0,0,1,2.277.567A3.844,3.844,0,0,1,75.767-7.02a5.461,5.461,0,0,1,.531,2.5,5.475,5.475,0,0,1-.531,2.493,3.833,3.833,0,0,1-1.494,1.62A4.407,4.407,0,0,1,72,.162Zm0-1.188a2.551,2.551,0,0,0,2.052-.891,3.922,3.922,0,0,0,.756-2.6,3.92,3.92,0,0,0-.765-2.619A2.557,2.557,0,0,0,72-8.028a2.531,2.531,0,0,0-2.034.891,3.953,3.953,0,0,0-.756,2.619,3.922,3.922,0,0,0,.756,2.6A2.531,2.531,0,0,0,72-1.026ZM78.946,0V-7.9H77.182V-9.036h2.16l-.4.378V-10.17a3.258,3.258,0,0,1,.774-2.34,2.918,2.918,0,0,1,2.214-.81,4.649,4.649,0,0,1,.747.063,2.779,2.779,0,0,1,.639.171v1.206a2.851,2.851,0,0,0-.531-.153,3.25,3.25,0,0,0-.639-.063,1.9,1.9,0,0,0-.954.225,1.4,1.4,0,0,0-.594.675,2.879,2.879,0,0,0-.2,1.152V-8.73l-.234-.306h2.754V-7.9H80.4V0Zm9.38.162a4.505,4.505,0,0,1-3.348-1.233A4.654,4.654,0,0,1,83.754-4.5a5.356,5.356,0,0,1,.54-2.475,3.992,3.992,0,0,1,1.512-1.638A4.243,4.243,0,0,1,88.038-9.2a3.907,3.907,0,0,1,2.088.522,3.374,3.374,0,0,1,1.3,1.485,5.334,5.334,0,0,1,.45,2.277v.54h-7v-.918h6.048l-.306.234a3.512,3.512,0,0,0-.648-2.25,2.319,2.319,0,0,0-1.926-.81,2.546,2.546,0,0,0-2.106.945,3.963,3.963,0,0,0-.756,2.547v.162A3.569,3.569,0,0,0,86.013-1.9a3.1,3.1,0,0,0,2.349.873,4.672,4.672,0,0,0,1.521-.243,4.135,4.135,0,0,0,1.359-.8l.5,1.026a4.005,4.005,0,0,1-1.5.891A5.813,5.813,0,0,1,88.326.162ZM94.07,0V-6.858q0-.54-.027-1.1t-.081-1.08h1.4l.18,2.2-.252.018a3,3,0,0,1,.63-1.332,2.881,2.881,0,0,1,1.062-.783A3.225,3.225,0,0,1,98.264-9.2q.27,0,.477.018a1.351,1.351,0,0,1,.387.09l-.018,1.3a2.537,2.537,0,0,0-.5-.117,4.347,4.347,0,0,0-.513-.027,2.481,2.481,0,0,0-1.377.378,2.448,2.448,0,0,0-.882.972,2.78,2.78,0,0,0-.3,1.26V0Zm10.478.162A4.505,4.505,0,0,1,101.2-1.071,4.654,4.654,0,0,1,99.976-4.5a5.356,5.356,0,0,1,.54-2.475,3.992,3.992,0,0,1,1.512-1.638A4.243,4.243,0,0,1,104.26-9.2a3.907,3.907,0,0,1,2.088.522,3.374,3.374,0,0,1,1.3,1.485,5.334,5.334,0,0,1,.45,2.277v.54h-7v-.918h6.048l-.306.234a3.512,3.512,0,0,0-.648-2.25,2.319,2.319,0,0,0-1.926-.81,2.546,2.546,0,0,0-2.106.945,3.963,3.963,0,0,0-.756,2.547v.162a3.569,3.569,0,0,0,.837,2.565,3.1,3.1,0,0,0,2.349.873,4.672,4.672,0,0,0,1.521-.243,4.135,4.135,0,0,0,1.359-.8l.5,1.026a4.005,4.005,0,0,1-1.5.891A5.813,5.813,0,0,1,104.548.162ZM110.327,0V-6.948q0-.5-.045-1.035t-.1-1.053h1.4l.18,1.98h-.216a3.127,3.127,0,0,1,1.269-1.593,3.723,3.723,0,0,1,2.025-.549,3.2,3.2,0,0,1,2.421.855,3.781,3.781,0,0,1,.819,2.691V0h-1.458V-5.562a2.787,2.787,0,0,0-.513-1.863,2.01,2.01,0,0,0-1.593-.585,2.63,2.63,0,0,0-2,.774,2.875,2.875,0,0,0-.738,2.07V0Zm13.754.162A2.623,2.623,0,0,1,122.047-.6a3.323,3.323,0,0,1-.7-2.313V-7.9h-1.764V-9.036h1.764V-11.5l1.458-.414v2.88H125.4V-7.9H122.8v4.824a2.486,2.486,0,0,0,.369,1.539,1.335,1.335,0,0,0,1.107.459,2.7,2.7,0,0,0,.612-.063,3.092,3.092,0,0,0,.486-.153V-.072a2.791,2.791,0,0,1-.6.171A3.917,3.917,0,0,1,124.081.162Zm7.022,0a4.505,4.505,0,0,1-3.348-1.233A4.654,4.654,0,0,1,126.531-4.5a5.356,5.356,0,0,1,.54-2.475,3.992,3.992,0,0,1,1.512-1.638,4.243,4.243,0,0,1,2.232-.585,3.906,3.906,0,0,1,2.088.522,3.374,3.374,0,0,1,1.3,1.485,5.334,5.334,0,0,1,.45,2.277v.54h-7v-.918H133.7l-.306.234a3.512,3.512,0,0,0-.648-2.25,2.319,2.319,0,0,0-1.926-.81,2.546,2.546,0,0,0-2.106.945,3.963,3.963,0,0,0-.756,2.547v.162A3.569,3.569,0,0,0,128.79-1.9a3.1,3.1,0,0,0,2.349.873,4.672,4.672,0,0,0,1.521-.243,4.135,4.135,0,0,0,1.359-.8l.5,1.026a4.005,4.005,0,0,1-1.5.891A5.813,5.813,0,0,1,131.1.162ZM136.595,0V-1.836h1.836V0ZM1.584,66V53.31H6.75a4.474,4.474,0,0,1,3.078.963,3.826,3.826,0,0,1,0,5.328,4.42,4.42,0,0,1-3.078.981H3.078V66Zm1.494-6.66H6.606a3.074,3.074,0,0,0,2.1-.63,2.566,2.566,0,0,0,0-3.546,3.074,3.074,0,0,0-2.1-.63H3.078Zm13.376,6.822a4.371,4.371,0,0,1-2.259-.567,3.776,3.776,0,0,1-1.485-1.62,6.236,6.236,0,0,1,0-4.995,3.787,3.787,0,0,1,1.485-1.611,4.371,4.371,0,0,1,2.259-.567,4.407,4.407,0,0,1,2.277.567,3.844,3.844,0,0,1,1.494,1.611,6.139,6.139,0,0,1,0,4.995,3.833,3.833,0,0,1-1.494,1.62A4.407,4.407,0,0,1,16.454,66.162Zm0-1.188a2.551,2.551,0,0,0,2.052-.891,4.859,4.859,0,0,0-.009-5.22,2.557,2.557,0,0,0-2.043-.891,2.531,2.531,0,0,0-2.034.891,4.883,4.883,0,0,0,0,5.22A2.531,2.531,0,0,0,16.454,64.974Zm10.37,1.188a4.486,4.486,0,0,1-2.313-.576A3.845,3.845,0,0,1,23,63.948a5.575,5.575,0,0,1-.531-2.52,5.372,5.372,0,0,1,.54-2.511,3.708,3.708,0,0,1,1.521-1.575,4.685,4.685,0,0,1,2.3-.54,4.772,4.772,0,0,1,1.683.306,3.621,3.621,0,0,1,1.359.864l-.522,1.044a3.585,3.585,0,0,0-1.179-.774,3.4,3.4,0,0,0-1.251-.252,2.744,2.744,0,0,0-2.178.882,3.792,3.792,0,0,0-.774,2.574,3.908,3.908,0,0,0,.774,2.592,2.692,2.692,0,0,0,2.178.918,3.579,3.579,0,0,0,1.233-.234,3.41,3.41,0,0,0,1.2-.774l.522,1.026a3.665,3.665,0,0,1-1.386.882A4.749,4.749,0,0,1,26.824,66.162Zm8.642,0a4.371,4.371,0,0,1-2.259-.567,3.776,3.776,0,0,1-1.485-1.62,6.236,6.236,0,0,1,0-4.995,3.787,3.787,0,0,1,1.485-1.611,4.819,4.819,0,0,1,4.536,0,3.844,3.844,0,0,1,1.494,1.611,6.139,6.139,0,0,1,0,4.995,3.833,3.833,0,0,1-1.494,1.62A4.407,4.407,0,0,1,35.465,66.162Zm0-1.188a2.551,2.551,0,0,0,2.052-.891,4.859,4.859,0,0,0-.009-5.22,2.557,2.557,0,0,0-2.043-.891,2.531,2.531,0,0,0-2.034.891,4.883,4.883,0,0,0,0,5.22A2.531,2.531,0,0,0,35.465,64.974Zm9.578,1.188a6.63,6.63,0,0,1-2.016-.3,4.246,4.246,0,0,1-1.548-.837l.5-1.026a4.637,4.637,0,0,0,1.449.774,5.284,5.284,0,0,0,1.629.252,2.826,2.826,0,0,0,1.629-.387,1.239,1.239,0,0,0,.549-1.071,1.07,1.07,0,0,0-.351-.837,2.581,2.581,0,0,0-1.143-.5L44.071,61.9a3.3,3.3,0,0,1-1.728-.855,2.137,2.137,0,0,1-.576-1.539,2.4,2.4,0,0,1,.414-1.395,2.784,2.784,0,0,1,1.206-.954,4.543,4.543,0,0,1,1.854-.351,5.428,5.428,0,0,1,1.827.3,3.677,3.677,0,0,1,1.4.855l-.522,1.008a3.566,3.566,0,0,0-1.233-.783,4.028,4.028,0,0,0-1.431-.261,2.524,2.524,0,0,0-1.593.423,1.348,1.348,0,0,0-.531,1.107,1.157,1.157,0,0,0,.333.855,2.113,2.113,0,0,0,1.035.495l1.674.342a3.841,3.841,0,0,1,1.827.837,1.988,1.988,0,0,1,.6,1.521,2.3,2.3,0,0,1-.45,1.413,2.849,2.849,0,0,1-1.251.927A5,5,0,0,1,45.043,66.162Zm14.332,0a4.371,4.371,0,0,1-2.259-.567,3.776,3.776,0,0,1-1.485-1.62,6.236,6.236,0,0,1,0-4.995,3.787,3.787,0,0,1,1.485-1.611,4.819,4.819,0,0,1,4.536,0,3.844,3.844,0,0,1,1.494,1.611,6.139,6.139,0,0,1,0,4.995,3.833,3.833,0,0,1-1.494,1.62A4.407,4.407,0,0,1,59.375,66.162Zm0-1.188a2.551,2.551,0,0,0,2.052-.891,4.859,4.859,0,0,0-.009-5.22,2.557,2.557,0,0,0-2.043-.891,2.531,2.531,0,0,0-2.034.891,4.883,4.883,0,0,0,0,5.22A2.531,2.531,0,0,0,59.375,64.974ZM66.325,66V58.1H64.561V56.964h2.16l-.4.378V55.83a3.258,3.258,0,0,1,.774-2.34,2.918,2.918,0,0,1,2.214-.81,4.649,4.649,0,0,1,.747.063,2.779,2.779,0,0,1,.639.171V54.12a2.85,2.85,0,0,0-.531-.153,3.25,3.25,0,0,0-.639-.063,1.9,1.9,0,0,0-.954.225,1.4,1.4,0,0,0-.594.675,2.879,2.879,0,0,0-.2,1.152V57.27l-.234-.306H70.3V58.1h-2.52V66Zm9.38.162a4.505,4.505,0,0,1-3.348-1.233A4.654,4.654,0,0,1,71.132,61.5a5.356,5.356,0,0,1,.54-2.475,3.992,3.992,0,0,1,1.512-1.638,4.243,4.243,0,0,1,2.232-.585,3.907,3.907,0,0,1,2.088.522,3.374,3.374,0,0,1,1.3,1.485,5.334,5.334,0,0,1,.45,2.277v.54h-7v-.918H78.3l-.306.234a3.512,3.512,0,0,0-.648-2.25,2.319,2.319,0,0,0-1.926-.81,2.546,2.546,0,0,0-2.106.945,3.963,3.963,0,0,0-.756,2.547v.162a3.569,3.569,0,0,0,.837,2.565,3.1,3.1,0,0,0,2.349.873,4.672,4.672,0,0,0,1.521-.243,4.135,4.135,0,0,0,1.359-.8l.5,1.026a4.005,4.005,0,0,1-1.5.891A5.813,5.813,0,0,1,75.7,66.162ZM81.448,66V59.142q0-.54-.027-1.1t-.081-1.08h1.4l.18,2.2-.252.018a3,3,0,0,1,.63-1.332,2.881,2.881,0,0,1,1.062-.783,3.225,3.225,0,0,1,1.278-.261q.27,0,.477.018a1.351,1.351,0,0,1,.387.09l-.018,1.3a2.537,2.537,0,0,0-.5-.117,4.346,4.346,0,0,0-.513-.027,2.481,2.481,0,0,0-1.377.378,2.448,2.448,0,0,0-.882.972,2.78,2.78,0,0,0-.3,1.26V66Zm10.478.162a4.505,4.505,0,0,1-3.348-1.233A4.654,4.654,0,0,1,87.354,61.5a5.356,5.356,0,0,1,.54-2.475,3.992,3.992,0,0,1,1.512-1.638,4.243,4.243,0,0,1,2.232-.585,3.907,3.907,0,0,1,2.088.522,3.374,3.374,0,0,1,1.3,1.485,5.334,5.334,0,0,1,.45,2.277v.54h-7v-.918h6.048l-.306.234a3.512,3.512,0,0,0-.648-2.25,2.319,2.319,0,0,0-1.926-.81,2.546,2.546,0,0,0-2.106.945,3.963,3.963,0,0,0-.756,2.547v.162a3.569,3.569,0,0,0,.837,2.565,3.1,3.1,0,0,0,2.349.873,4.672,4.672,0,0,0,1.521-.243,4.135,4.135,0,0,0,1.359-.8l.5,1.026a4.005,4.005,0,0,1-1.5.891A5.813,5.813,0,0,1,91.926,66.162ZM97.706,66V59.052q0-.5-.045-1.035t-.1-1.053h1.4l.18,1.98H98.93a3.127,3.127,0,0,1,1.269-1.593,3.723,3.723,0,0,1,2.025-.549,3.2,3.2,0,0,1,2.421.855,3.781,3.781,0,0,1,.819,2.691V66h-1.458V60.438a2.787,2.787,0,0,0-.513-1.863,2.01,2.01,0,0,0-1.593-.585,2.63,2.63,0,0,0-2,.774,2.875,2.875,0,0,0-.738,2.07V66Zm13.754.162a2.623,2.623,0,0,1-2.034-.765,3.323,3.323,0,0,1-.7-2.313V58.1H106.96V56.964h1.764V54.5l1.458-.414v2.88h2.592V58.1h-2.592v4.824a2.486,2.486,0,0,0,.369,1.539,1.335,1.335,0,0,0,1.107.459,2.7,2.7,0,0,0,.612-.063,3.093,3.093,0,0,0,.486-.153v1.224a2.791,2.791,0,0,1-.6.171A3.917,3.917,0,0,1,111.46,66.162Zm7.022,0a4.505,4.505,0,0,1-3.348-1.233,4.654,4.654,0,0,1-1.224-3.429,5.356,5.356,0,0,1,.54-2.475,3.992,3.992,0,0,1,1.512-1.638,4.243,4.243,0,0,1,2.232-.585,3.907,3.907,0,0,1,2.088.522,3.374,3.374,0,0,1,1.3,1.485,5.334,5.334,0,0,1,.45,2.277v.54h-7v-.918h6.048l-.306.234a3.512,3.512,0,0,0-.648-2.25,2.319,2.319,0,0,0-1.926-.81,2.546,2.546,0,0,0-2.106.945,3.963,3.963,0,0,0-.756,2.547v.162a3.569,3.569,0,0,0,.837,2.565,3.1,3.1,0,0,0,2.349.873,4.672,4.672,0,0,0,1.521-.243,4.135,4.135,0,0,0,1.359-.8l.5,1.026a4.005,4.005,0,0,1-1.5.891A5.813,5.813,0,0,1,118.481,66.162Zm8.786,0a6.63,6.63,0,0,1-2.016-.3,4.246,4.246,0,0,1-1.548-.837l.5-1.026a4.637,4.637,0,0,0,1.449.774,5.284,5.284,0,0,0,1.629.252,2.826,2.826,0,0,0,1.629-.387,1.239,1.239,0,0,0,.549-1.071,1.07,1.07,0,0,0-.351-.837,2.581,2.581,0,0,0-1.143-.5L126.3,61.9a3.3,3.3,0,0,1-1.728-.855,2.138,2.138,0,0,1-.576-1.539,2.4,2.4,0,0,1,.414-1.395,2.784,2.784,0,0,1,1.206-.954,4.543,4.543,0,0,1,1.854-.351,5.428,5.428,0,0,1,1.827.3,3.677,3.677,0,0,1,1.395.855l-.522,1.008a3.566,3.566,0,0,0-1.233-.783,4.028,4.028,0,0,0-1.431-.261,2.524,2.524,0,0,0-1.593.423,1.348,1.348,0,0,0-.531,1.107,1.157,1.157,0,0,0,.333.855,2.113,2.113,0,0,0,1.035.495l1.674.342a3.841,3.841,0,0,1,1.827.837,1.988,1.988,0,0,1,.6,1.521,2.3,2.3,0,0,1-.45,1.413,2.849,2.849,0,0,1-1.251.927A5,5,0,0,1,127.267,66.162ZM132.813,66V64.164h1.836V66ZM5.724,132.162a8.753,8.753,0,0,1-2.736-.4,6.464,6.464,0,0,1-2.106-1.134l.54-1.188a8.252,8.252,0,0,0,1.269.783,5.731,5.731,0,0,0,1.377.468,8.188,8.188,0,0,0,1.656.153,3.89,3.89,0,0,0,2.376-.594,1.9,1.9,0,0,0,.774-1.584,1.592,1.592,0,0,0-.54-1.3,4.409,4.409,0,0,0-1.89-.72l-1.89-.378a5.277,5.277,0,0,1-2.6-1.17,2.881,2.881,0,0,1-.855-2.2,3.4,3.4,0,0,1,.585-1.98,3.814,3.814,0,0,1,1.647-1.314,6.068,6.068,0,0,1,2.466-.468,7.183,7.183,0,0,1,2.466.4,5.253,5.253,0,0,1,1.908,1.179l-.522,1.152a5.417,5.417,0,0,0-1.773-1.089,6.176,6.176,0,0,0-2.1-.333,3.812,3.812,0,0,0-2.331.639,2.054,2.054,0,0,0-.855,1.737,1.774,1.774,0,0,0,.54,1.377,3.755,3.755,0,0,0,1.782.747l1.908.378a5.912,5.912,0,0,1,2.7,1.134,2.673,2.673,0,0,1,.864,2.124,3.153,3.153,0,0,1-.567,1.854,3.689,3.689,0,0,1-1.611,1.26A6.248,6.248,0,0,1,5.724,132.162Zm10.622,0a4.371,4.371,0,0,1-2.259-.567,3.776,3.776,0,0,1-1.485-1.62,6.236,6.236,0,0,1,0-5,3.787,3.787,0,0,1,1.485-1.611,4.371,4.371,0,0,1,2.259-.567,4.407,4.407,0,0,1,2.277.567,3.844,3.844,0,0,1,1.494,1.611,6.139,6.139,0,0,1,0,5,3.833,3.833,0,0,1-1.494,1.62A4.407,4.407,0,0,1,16.346,132.162Zm0-1.188a2.551,2.551,0,0,0,2.052-.891,4.859,4.859,0,0,0-.009-5.22,2.557,2.557,0,0,0-2.043-.891,2.531,2.531,0,0,0-2.034.891,4.883,4.883,0,0,0,0,5.22A2.531,2.531,0,0,0,16.346,130.974ZM22.918,132V118.752h1.458V132Zm7.994.162a4.371,4.371,0,0,1-2.259-.567,3.776,3.776,0,0,1-1.485-1.62,6.236,6.236,0,0,1,0-5,3.787,3.787,0,0,1,1.485-1.611,4.819,4.819,0,0,1,4.536,0,3.844,3.844,0,0,1,1.494,1.611,6.139,6.139,0,0,1,0,5,3.833,3.833,0,0,1-1.494,1.62A4.407,4.407,0,0,1,30.911,132.162Zm0-1.188a2.551,2.551,0,0,0,2.052-.891,4.859,4.859,0,0,0-.009-5.22,2.557,2.557,0,0,0-2.043-.891,2.531,2.531,0,0,0-2.034.891,4.883,4.883,0,0,0,0,5.22A2.531,2.531,0,0,0,30.911,130.974ZM45.6,132.162a3.834,3.834,0,0,1-2.088-.567,3.747,3.747,0,0,1-1.4-1.611,6.616,6.616,0,0,1,0-5.022,3.688,3.688,0,0,1,1.4-1.6A3.88,3.88,0,0,1,45.6,122.8a3.643,3.643,0,0,1,2.115.612,2.962,2.962,0,0,1,1.2,1.656H48.7v-6.318h1.458V132h-1.44v-2.16h.2a2.911,2.911,0,0,1-1.188,1.7A3.647,3.647,0,0,1,45.6,132.162Zm.306-1.188a2.584,2.584,0,0,0,2.052-.891,4.788,4.788,0,0,0,0-5.22,2.584,2.584,0,0,0-2.052-.891,2.557,2.557,0,0,0-2.043.891,4.835,4.835,0,0,0,0,5.22A2.557,2.557,0,0,0,45.909,130.974Zm10.784,1.188a4.371,4.371,0,0,1-2.259-.567,3.776,3.776,0,0,1-1.485-1.62,6.236,6.236,0,0,1,0-5,3.787,3.787,0,0,1,1.485-1.611,4.819,4.819,0,0,1,4.536,0,3.844,3.844,0,0,1,1.494,1.611,6.139,6.139,0,0,1,0,5,3.833,3.833,0,0,1-1.494,1.62A4.407,4.407,0,0,1,56.693,132.162Zm0-1.188a2.551,2.551,0,0,0,2.052-.891,4.859,4.859,0,0,0-.009-5.22,2.557,2.557,0,0,0-2.043-.891,2.531,2.531,0,0,0-2.034.891,4.883,4.883,0,0,0,0,5.22A2.531,2.531,0,0,0,56.693,130.974Zm9.578,1.188a6.631,6.631,0,0,1-2.016-.3,4.246,4.246,0,0,1-1.548-.837l.5-1.026a4.637,4.637,0,0,0,1.449.774,5.284,5.284,0,0,0,1.629.252,2.826,2.826,0,0,0,1.629-.387,1.239,1.239,0,0,0,.549-1.071,1.07,1.07,0,0,0-.351-.837,2.581,2.581,0,0,0-1.143-.495L65.3,127.9a3.3,3.3,0,0,1-1.728-.855,2.137,2.137,0,0,1-.576-1.539,2.4,2.4,0,0,1,.414-1.395,2.784,2.784,0,0,1,1.206-.954,4.543,4.543,0,0,1,1.854-.351,5.428,5.428,0,0,1,1.827.3,3.677,3.677,0,0,1,1.395.855l-.522,1.008a3.566,3.566,0,0,0-1.233-.783,4.028,4.028,0,0,0-1.431-.261,2.524,2.524,0,0,0-1.593.423,1.348,1.348,0,0,0-.531,1.107,1.157,1.157,0,0,0,.333.855,2.113,2.113,0,0,0,1.035.495l1.674.342a3.841,3.841,0,0,1,1.827.837,1.988,1.988,0,0,1,.6,1.521,2.3,2.3,0,0,1-.45,1.413,2.849,2.849,0,0,1-1.251.927A5,5,0,0,1,66.271,132.162Zm10.624,3.726V125.052q0-.5-.045-1.035t-.1-1.053h1.4l.2,2.142h-.216a2.933,2.933,0,0,1,1.17-1.683,3.564,3.564,0,0,1,2.106-.621,3.9,3.9,0,0,1,2.115.558,3.766,3.766,0,0,1,1.395,1.6,6.561,6.561,0,0,1,.009,5.022,3.747,3.747,0,0,1-1.395,1.611,3.9,3.9,0,0,1-2.124.567,3.571,3.571,0,0,1-2.088-.612,2.894,2.894,0,0,1-1.17-1.674h.2v6.012Zm4.23-4.914a2.577,2.577,0,0,0,2.061-.891,4.835,4.835,0,0,0,0-5.22,2.808,2.808,0,0,0-4.1,0,4.835,4.835,0,0,0,0,5.22A2.557,2.557,0,0,0,81.124,130.974Zm10.586,1.188a4.505,4.505,0,0,1-3.348-1.233,4.654,4.654,0,0,1-1.224-3.429,5.356,5.356,0,0,1,.54-2.475,3.992,3.992,0,0,1,1.512-1.638,4.243,4.243,0,0,1,2.232-.585,3.907,3.907,0,0,1,2.088.522,3.374,3.374,0,0,1,1.3,1.485,5.334,5.334,0,0,1,.45,2.277v.54h-7v-.918H94.3l-.306.234a3.512,3.512,0,0,0-.648-2.25,2.319,2.319,0,0,0-1.926-.81,2.546,2.546,0,0,0-2.106.945,3.963,3.963,0,0,0-.756,2.547v.162A3.569,3.569,0,0,0,89.4,130.1a3.1,3.1,0,0,0,2.349.873,4.672,4.672,0,0,0,1.521-.243,4.135,4.135,0,0,0,1.359-.8l.5,1.026a4.006,4.006,0,0,1-1.5.891A5.813,5.813,0,0,1,91.71,132.162ZM97.454,132v-6.858q0-.54-.027-1.1t-.081-1.08h1.4l.18,2.2-.252.018a3,3,0,0,1,.63-1.332,2.881,2.881,0,0,1,1.062-.783,3.225,3.225,0,0,1,1.278-.261q.27,0,.477.018a1.351,1.351,0,0,1,.387.09l-.018,1.3a2.536,2.536,0,0,0-.5-.117,4.347,4.347,0,0,0-.513-.027,2.481,2.481,0,0,0-1.377.378,2.448,2.448,0,0,0-.882.972,2.78,2.78,0,0,0-.3,1.26V132Zm9.488.162a6.631,6.631,0,0,1-2.016-.3,4.246,4.246,0,0,1-1.548-.837l.5-1.026a4.637,4.637,0,0,0,1.449.774,5.284,5.284,0,0,0,1.629.252,2.826,2.826,0,0,0,1.629-.387,1.239,1.239,0,0,0,.549-1.071,1.07,1.07,0,0,0-.351-.837,2.581,2.581,0,0,0-1.143-.495l-1.674-.342a3.3,3.3,0,0,1-1.728-.855,2.138,2.138,0,0,1-.576-1.539,2.4,2.4,0,0,1,.414-1.395,2.784,2.784,0,0,1,1.206-.954,4.543,4.543,0,0,1,1.854-.351,5.428,5.428,0,0,1,1.827.3,3.677,3.677,0,0,1,1.395.855l-.522,1.008a3.566,3.566,0,0,0-1.233-.783,4.028,4.028,0,0,0-1.431-.261,2.524,2.524,0,0,0-1.593.423,1.348,1.348,0,0,0-.531,1.107,1.157,1.157,0,0,0,.333.855,2.113,2.113,0,0,0,1.035.495l1.674.342a3.841,3.841,0,0,1,1.827.837,1.988,1.988,0,0,1,.6,1.521,2.3,2.3,0,0,1-.45,1.413,2.849,2.849,0,0,1-1.251.927A5,5,0,0,1,106.942,132.162Zm9.632,0a4.371,4.371,0,0,1-2.259-.567,3.776,3.776,0,0,1-1.485-1.62,6.236,6.236,0,0,1,0-5,3.787,3.787,0,0,1,1.485-1.611,4.819,4.819,0,0,1,4.536,0,3.844,3.844,0,0,1,1.494,1.611,6.139,6.139,0,0,1,0,5,3.833,3.833,0,0,1-1.494,1.62A4.407,4.407,0,0,1,116.573,132.162Zm0-1.188a2.551,2.551,0,0,0,2.052-.891,4.859,4.859,0,0,0-.009-5.22,2.557,2.557,0,0,0-2.043-.891,2.531,2.531,0,0,0-2.034.891,4.883,4.883,0,0,0,0,5.22A2.531,2.531,0,0,0,116.573,130.974ZM123.145,132v-6.948q0-.5-.045-1.035t-.1-1.053h1.4l.18,1.98h-.216a3.127,3.127,0,0,1,1.269-1.593,3.723,3.723,0,0,1,2.025-.549,3.2,3.2,0,0,1,2.421.855,3.781,3.781,0,0,1,.819,2.691V132h-1.458v-5.562a2.787,2.787,0,0,0-.513-1.863,2.01,2.01,0,0,0-1.593-.585,2.63,2.63,0,0,0-2,.774,2.875,2.875,0,0,0-.738,2.07V132Zm13.988.162a3.867,3.867,0,0,1-2.106-.567,3.747,3.747,0,0,1-1.4-1.611,6.616,6.616,0,0,1,0-5.022,3.689,3.689,0,0,1,1.4-1.6,3.914,3.914,0,0,1,2.106-.558,3.605,3.605,0,0,1,2.115.621,2.92,2.92,0,0,1,1.179,1.683h-.216l.2-2.142h1.4q-.054.522-.1,1.053t-.045,1.035V132h-1.458v-2.124h.2a2.869,2.869,0,0,1-1.188,1.674A3.624,3.624,0,0,1,137.133,132.162Zm.288-1.188a2.551,2.551,0,0,0,2.052-.891,4.883,4.883,0,0,0,0-5.22,2.8,2.8,0,0,0-4.1,0,4.835,4.835,0,0,0,0,5.22A2.557,2.557,0,0,0,137.421,130.974Zm10.082,1.188a6.631,6.631,0,0,1-2.016-.3,4.246,4.246,0,0,1-1.548-.837l.5-1.026a4.637,4.637,0,0,0,1.449.774,5.284,5.284,0,0,0,1.629.252,2.826,2.826,0,0,0,1.629-.387,1.239,1.239,0,0,0,.549-1.071,1.07,1.07,0,0,0-.351-.837,2.58,2.58,0,0,0-1.143-.495l-1.674-.342a3.3,3.3,0,0,1-1.728-.855,2.137,2.137,0,0,1-.576-1.539,2.4,2.4,0,0,1,.414-1.395,2.784,2.784,0,0,1,1.206-.954,4.543,4.543,0,0,1,1.854-.351,5.428,5.428,0,0,1,1.827.3,3.677,3.677,0,0,1,1.395.855l-.522,1.008a3.566,3.566,0,0,0-1.233-.783,4.028,4.028,0,0,0-1.431-.261,2.524,2.524,0,0,0-1.593.423,1.348,1.348,0,0,0-.531,1.107,1.157,1.157,0,0,0,.333.855,2.113,2.113,0,0,0,1.035.495l1.674.342a3.841,3.841,0,0,1,1.827.837,1.988,1.988,0,0,1,.6,1.521,2.3,2.3,0,0,1-.45,1.413,2.849,2.849,0,0,1-1.251.927A5,5,0,0,1,147.5,132.162Zm14.422,0a4.486,4.486,0,0,1-2.313-.576,3.845,3.845,0,0,1-1.512-1.638,5.575,5.575,0,0,1-.531-2.52,5.372,5.372,0,0,1,.54-2.511,3.708,3.708,0,0,1,1.521-1.575,4.685,4.685,0,0,1,2.295-.54,4.772,4.772,0,0,1,1.683.306,3.62,3.62,0,0,1,1.359.864l-.522,1.044a3.585,3.585,0,0,0-1.179-.774,3.4,3.4,0,0,0-1.251-.252,2.744,2.744,0,0,0-2.178.882,3.792,3.792,0,0,0-.774,2.574,3.908,3.908,0,0,0,.774,2.592,2.692,2.692,0,0,0,2.178.918,3.579,3.579,0,0,0,1.233-.234,3.409,3.409,0,0,0,1.2-.774l.522,1.026a3.665,3.665,0,0,1-1.386.882A4.749,4.749,0,0,1,161.924,132.162Zm8.642,0a4.371,4.371,0,0,1-2.259-.567,3.776,3.776,0,0,1-1.485-1.62,6.236,6.236,0,0,1,0-5,3.787,3.787,0,0,1,1.485-1.611,4.819,4.819,0,0,1,4.536,0,3.844,3.844,0,0,1,1.494,1.611,6.139,6.139,0,0,1,0,5,3.833,3.833,0,0,1-1.494,1.62A4.407,4.407,0,0,1,170.566,132.162Zm0-1.188a2.551,2.551,0,0,0,2.052-.891,4.859,4.859,0,0,0-.009-5.22,2.557,2.557,0,0,0-2.043-.891,2.531,2.531,0,0,0-2.034.891,4.883,4.883,0,0,0,0,5.22A2.531,2.531,0,0,0,170.566,130.974ZM177.138,132v-6.948q0-.5-.045-1.035t-.1-1.053h1.4l.18,1.98h-.216A3.034,3.034,0,0,1,181.4,122.8a2.968,2.968,0,0,1,1.845.54,2.76,2.76,0,0,1,.963,1.674h-.27a3.1,3.1,0,0,1,1.206-1.62,3.471,3.471,0,0,1,2.016-.594,2.846,2.846,0,0,1,2.25.855,3.993,3.993,0,0,1,.756,2.691V132h-1.458v-5.562a3.072,3.072,0,0,0-.45-1.863,1.7,1.7,0,0,0-1.44-.585,2.214,2.214,0,0,0-1.791.783,3.157,3.157,0,0,0-.657,2.1V132h-1.458v-5.562a3.072,3.072,0,0,0-.45-1.863,1.7,1.7,0,0,0-1.44-.585,2.188,2.188,0,0,0-1.782.783,3.186,3.186,0,0,0-.648,2.1V132Zm15.806,3.888V125.052q0-.5-.045-1.035t-.1-1.053h1.4l.2,2.142h-.216a2.933,2.933,0,0,1,1.17-1.683,3.564,3.564,0,0,1,2.106-.621,3.9,3.9,0,0,1,2.115.558,3.766,3.766,0,0,1,1.395,1.6,6.561,6.561,0,0,1,.009,5.022,3.747,3.747,0,0,1-1.4,1.611,3.9,3.9,0,0,1-2.124.567,3.571,3.571,0,0,1-2.088-.612,2.894,2.894,0,0,1-1.17-1.674h.2v6.012Zm4.23-4.914a2.577,2.577,0,0,0,2.061-.891,4.835,4.835,0,0,0,0-5.22,2.808,2.808,0,0,0-4.1,0,4.835,4.835,0,0,0,0,5.22A2.557,2.557,0,0,0,197.174,130.974ZM203.746,132v-9.036H205.2V132Zm-.18-11.088v-1.638h1.8v1.638Zm7.67,11.25a2.623,2.623,0,0,1-2.034-.765,3.323,3.323,0,0,1-.7-2.313V124.1h-1.764v-1.134H208.5V120.5l1.458-.414v2.88h2.592V124.1h-2.592v4.824a2.487,2.487,0,0,0,.369,1.539,1.335,1.335,0,0,0,1.107.459,2.7,2.7,0,0,0,.612-.063,3.09,3.09,0,0,0,.486-.153v1.224a2.791,2.791,0,0,1-.6.171A3.916,3.916,0,0,1,211.235,132.162Zm7.022,0a4.505,4.505,0,0,1-3.348-1.233,4.655,4.655,0,0,1-1.224-3.429,5.356,5.356,0,0,1,.54-2.475,3.992,3.992,0,0,1,1.512-1.638,4.243,4.243,0,0,1,2.232-.585,3.906,3.906,0,0,1,2.088.522,3.374,3.374,0,0,1,1.3,1.485,5.334,5.334,0,0,1,.45,2.277v.54h-7v-.918h6.048l-.306.234a3.512,3.512,0,0,0-.648-2.25,2.319,2.319,0,0,0-1.926-.81,2.546,2.546,0,0,0-2.106.945,3.963,3.963,0,0,0-.756,2.547v.162a3.569,3.569,0,0,0,.837,2.565,3.1,3.1,0,0,0,2.349.873,4.672,4.672,0,0,0,1.521-.243,4.135,4.135,0,0,0,1.359-.8l.5,1.026a4.006,4.006,0,0,1-1.5.891A5.813,5.813,0,0,1,218.257,132.162Zm5.78-.162v-6.948q0-.5-.045-1.035t-.1-1.053h1.4l.18,1.98h-.216a3.127,3.127,0,0,1,1.269-1.593,3.723,3.723,0,0,1,2.025-.549,3.2,3.2,0,0,1,2.421.855,3.781,3.781,0,0,1,.819,2.691V132h-1.458v-5.562a2.787,2.787,0,0,0-.513-1.863,2.01,2.01,0,0,0-1.593-.585,2.63,2.63,0,0,0-2,.774,2.875,2.875,0,0,0-.738,2.07V132Zm19.264.162a4.505,4.505,0,0,1-3.348-1.233,4.655,4.655,0,0,1-1.224-3.429,5.356,5.356,0,0,1,.54-2.475,3.992,3.992,0,0,1,1.512-1.638,4.243,4.243,0,0,1,2.232-.585,3.906,3.906,0,0,1,2.088.522,3.374,3.374,0,0,1,1.3,1.485,5.334,5.334,0,0,1,.45,2.277v.54h-7v-.918h6.048l-.306.234a3.512,3.512,0,0,0-.648-2.25,2.319,2.319,0,0,0-1.926-.81,2.546,2.546,0,0,0-2.106.945,3.963,3.963,0,0,0-.756,2.547v.162a3.569,3.569,0,0,0,.837,2.565,3.1,3.1,0,0,0,2.349.873,4.672,4.672,0,0,0,1.521-.243,4.135,4.135,0,0,0,1.359-.8l.5,1.026a4.006,4.006,0,0,1-1.5.891A5.813,5.813,0,0,1,243.3,132.162Zm5.78-.162v-6.948q0-.5-.045-1.035t-.1-1.053h1.4l.18,1.98H250.3a3.127,3.127,0,0,1,1.269-1.593,3.723,3.723,0,0,1,2.025-.549,3.2,3.2,0,0,1,2.421.855,3.781,3.781,0,0,1,.819,2.691V132H255.38v-5.562a2.787,2.787,0,0,0-.513-1.863,2.01,2.01,0,0,0-1.593-.585,2.63,2.63,0,0,0-2,.774,2.875,2.875,0,0,0-.738,2.07V132Zm19.264.162A4.505,4.505,0,0,1,265,130.929a4.654,4.654,0,0,1-1.224-3.429,5.356,5.356,0,0,1,.54-2.475,3.993,3.993,0,0,1,1.512-1.638,4.243,4.243,0,0,1,2.232-.585,3.906,3.906,0,0,1,2.088.522,3.374,3.374,0,0,1,1.3,1.485,5.335,5.335,0,0,1,.45,2.277v.54h-7v-.918h6.048l-.306.234a3.512,3.512,0,0,0-.648-2.25,2.319,2.319,0,0,0-1.926-.81,2.546,2.546,0,0,0-2.106.945,3.963,3.963,0,0,0-.756,2.547v.162a3.569,3.569,0,0,0,.837,2.565,3.1,3.1,0,0,0,2.349.873,4.672,4.672,0,0,0,1.521-.243,4.135,4.135,0,0,0,1.359-.8l.5,1.026a4.005,4.005,0,0,1-1.5.891A5.813,5.813,0,0,1,268.344,132.162Zm5.78-.162V118.752h1.458V132Zm8.986,0v-6.948q0-.5-.045-1.035t-.1-1.053h1.4l.18,1.98h-.216a3.034,3.034,0,0,1,3.042-2.142,2.968,2.968,0,0,1,1.845.54,2.76,2.76,0,0,1,.963,1.674h-.27a3.1,3.1,0,0,1,1.206-1.62,3.471,3.471,0,0,1,2.016-.594,2.846,2.846,0,0,1,2.25.855,3.993,3.993,0,0,1,.756,2.691V132h-1.458v-5.562a3.071,3.071,0,0,0-.45-1.863,1.7,1.7,0,0,0-1.44-.585,2.214,2.214,0,0,0-1.791.783,3.157,3.157,0,0,0-.657,2.1V132h-1.458v-5.562a3.071,3.071,0,0,0-.45-1.863,1.7,1.7,0,0,0-1.44-.585,2.188,2.188,0,0,0-1.782.783,3.186,3.186,0,0,0-.648,2.1V132Zm19.82.162a4.505,4.505,0,0,1-3.348-1.233,4.654,4.654,0,0,1-1.224-3.429,5.356,5.356,0,0,1,.54-2.475,3.993,3.993,0,0,1,1.512-1.638,4.243,4.243,0,0,1,2.232-.585,3.906,3.906,0,0,1,2.088.522,3.374,3.374,0,0,1,1.3,1.485,5.335,5.335,0,0,1,.45,2.277v.54h-7v-.918h6.048l-.306.234a3.512,3.512,0,0,0-.648-2.25,2.319,2.319,0,0,0-1.926-.81,2.546,2.546,0,0,0-2.106.945,3.963,3.963,0,0,0-.756,2.547v.162a3.569,3.569,0,0,0,.837,2.565,3.1,3.1,0,0,0,2.349.873,4.672,4.672,0,0,0,1.521-.243,4.135,4.135,0,0,0,1.359-.8l.5,1.026a4.005,4.005,0,0,1-1.5.891A5.813,5.813,0,0,1,302.929,132.162Zm5.744-.162v-6.858q0-.54-.027-1.1t-.081-1.08h1.4l.18,2.2-.252.018a3,3,0,0,1,.63-1.332,2.881,2.881,0,0,1,1.062-.783,3.225,3.225,0,0,1,1.278-.261q.27,0,.477.018a1.351,1.351,0,0,1,.387.09l-.018,1.3a2.536,2.536,0,0,0-.495-.117,4.347,4.347,0,0,0-.513-.027,2.481,2.481,0,0,0-1.377.378,2.448,2.448,0,0,0-.882.972,2.78,2.78,0,0,0-.3,1.26V132Zm10.262.162a4.486,4.486,0,0,1-2.313-.576,3.845,3.845,0,0,1-1.512-1.638,5.575,5.575,0,0,1-.531-2.52,5.372,5.372,0,0,1,.54-2.511,3.708,3.708,0,0,1,1.521-1.575,4.685,4.685,0,0,1,2.3-.54,4.772,4.772,0,0,1,1.683.306,3.621,3.621,0,0,1,1.359.864l-.522,1.044a3.585,3.585,0,0,0-1.179-.774,3.4,3.4,0,0,0-1.251-.252,2.744,2.744,0,0,0-2.178.882,3.792,3.792,0,0,0-.774,2.574,3.908,3.908,0,0,0,.774,2.592,2.692,2.692,0,0,0,2.178.918,3.579,3.579,0,0,0,1.233-.234,3.409,3.409,0,0,0,1.2-.774l.522,1.026a3.664,3.664,0,0,1-1.386.882A4.749,4.749,0,0,1,318.935,132.162Zm8.48,0a3.867,3.867,0,0,1-2.106-.567,3.747,3.747,0,0,1-1.395-1.611,6.616,6.616,0,0,1,0-5.022,3.688,3.688,0,0,1,1.395-1.6,3.914,3.914,0,0,1,2.106-.558,3.605,3.605,0,0,1,2.115.621,2.92,2.92,0,0,1,1.179,1.683h-.216l.2-2.142h1.4q-.054.522-.1,1.053t-.045,1.035V132h-1.458v-2.124h.2a2.869,2.869,0,0,1-1.188,1.674A3.624,3.624,0,0,1,327.415,132.162Zm.288-1.188a2.551,2.551,0,0,0,2.052-.891,4.883,4.883,0,0,0,0-5.22,2.8,2.8,0,0,0-4.1,0,4.835,4.835,0,0,0,0,5.22A2.557,2.557,0,0,0,327.7,130.974Zm10.5,1.188a3.834,3.834,0,0,1-2.088-.567,3.747,3.747,0,0,1-1.395-1.611,6.616,6.616,0,0,1,0-5.022,3.688,3.688,0,0,1,1.395-1.6,3.88,3.88,0,0,1,2.088-.558,3.643,3.643,0,0,1,2.115.612,2.962,2.962,0,0,1,1.2,1.656h-.216v-6.318h1.458V132h-1.44v-2.16h.2a2.911,2.911,0,0,1-1.188,1.7A3.647,3.647,0,0,1,338.2,132.162Zm.306-1.188a2.584,2.584,0,0,0,2.052-.891,4.788,4.788,0,0,0,0-5.22,2.584,2.584,0,0,0-2.052-.891,2.557,2.557,0,0,0-2.043.891,4.835,4.835,0,0,0,0,5.22A2.557,2.557,0,0,0,338.5,130.974Zm10.784,1.188a4.371,4.371,0,0,1-2.259-.567,3.776,3.776,0,0,1-1.485-1.62,6.236,6.236,0,0,1,0-5,3.787,3.787,0,0,1,1.485-1.611,4.819,4.819,0,0,1,4.536,0,3.844,3.844,0,0,1,1.494,1.611,6.139,6.139,0,0,1,0,5,3.833,3.833,0,0,1-1.494,1.62A4.407,4.407,0,0,1,349.288,132.162Zm0-1.188a2.551,2.551,0,0,0,2.052-.891,4.859,4.859,0,0,0-.009-5.22,2.557,2.557,0,0,0-2.043-.891,2.531,2.531,0,0,0-2.034.891,4.883,4.883,0,0,0,0,5.22A2.531,2.531,0,0,0,349.288,130.974ZM355.176,132v-1.836h1.836V132ZM1.6,198V185.31H2.9l5.094,11.5H7.47l5.094-11.5h1.3V198H12.492V187.236h.54L8.226,198h-.99L2.412,187.236h.54V198Zm18.452.162a3.144,3.144,0,0,1-2.421-.882,3.855,3.855,0,0,1-.819-2.7v-5.616h1.458v5.58a2.757,2.757,0,0,0,.5,1.827,1.957,1.957,0,0,0,1.566.585,2.482,2.482,0,0,0,1.908-.774,2.918,2.918,0,0,0,.72-2.07v-5.148h1.458V198H23.006v-2.034h.234a3.243,3.243,0,0,1-1.215,1.62A3.391,3.391,0,0,1,20.054,198.162Zm11,0a4.486,4.486,0,0,1-2.313-.576,3.845,3.845,0,0,1-1.512-1.638,5.575,5.575,0,0,1-.531-2.52,5.372,5.372,0,0,1,.54-2.511,3.708,3.708,0,0,1,1.521-1.575,4.685,4.685,0,0,1,2.3-.54,4.772,4.772,0,0,1,1.683.306,3.62,3.62,0,0,1,1.359.864l-.522,1.044a3.585,3.585,0,0,0-1.179-.774,3.4,3.4,0,0,0-1.251-.252,2.744,2.744,0,0,0-2.178.882,3.792,3.792,0,0,0-.774,2.574,3.908,3.908,0,0,0,.774,2.592,2.692,2.692,0,0,0,2.178.918,3.579,3.579,0,0,0,1.233-.234,3.409,3.409,0,0,0,1.2-.774l.522,1.026a3.665,3.665,0,0,1-1.386.882A4.749,4.749,0,0,1,31.054,198.162ZM36.167,198V184.752h1.458v6.21h-.234a3.008,3.008,0,0,1,1.269-1.611,3.848,3.848,0,0,1,2.061-.549,3.1,3.1,0,0,1,2.412.873,3.817,3.817,0,0,1,.792,2.637V198H42.467v-5.6a2.787,2.787,0,0,0-.495-1.836,1.994,1.994,0,0,0-1.593-.576,2.66,2.66,0,0,0-2.007.774,2.806,2.806,0,0,0-.747,2.034V198Zm14.258.162a4.371,4.371,0,0,1-2.259-.567,3.776,3.776,0,0,1-1.485-1.62,6.236,6.236,0,0,1,0-5,3.787,3.787,0,0,1,1.485-1.611,4.819,4.819,0,0,1,4.536,0A3.844,3.844,0,0,1,54.2,190.98a6.139,6.139,0,0,1,0,5A3.833,3.833,0,0,1,52.7,197.6,4.407,4.407,0,0,1,50.425,198.162Zm0-1.188a2.551,2.551,0,0,0,2.052-.891,4.859,4.859,0,0,0-.009-5.22,2.557,2.557,0,0,0-2.043-.891,2.531,2.531,0,0,0-2.034.891,4.883,4.883,0,0,0,0,5.22A2.531,2.531,0,0,0,50.425,196.974ZM60,198.162a6.631,6.631,0,0,1-2.016-.3,4.246,4.246,0,0,1-1.548-.837l.5-1.026a4.637,4.637,0,0,0,1.449.774,5.284,5.284,0,0,0,1.629.252,2.826,2.826,0,0,0,1.629-.387,1.239,1.239,0,0,0,.549-1.071,1.07,1.07,0,0,0-.351-.837,2.58,2.58,0,0,0-1.143-.495l-1.674-.342a3.3,3.3,0,0,1-1.728-.855,2.137,2.137,0,0,1-.576-1.539,2.4,2.4,0,0,1,.414-1.4,2.784,2.784,0,0,1,1.206-.954A4.543,4.543,0,0,1,60.2,188.8a5.428,5.428,0,0,1,1.827.3,3.677,3.677,0,0,1,1.4.855l-.522,1.008a3.566,3.566,0,0,0-1.233-.783,4.028,4.028,0,0,0-1.431-.261,2.524,2.524,0,0,0-1.593.423,1.348,1.348,0,0,0-.531,1.107,1.157,1.157,0,0,0,.333.855,2.113,2.113,0,0,0,1.035.5l1.674.342a3.841,3.841,0,0,1,1.827.837,1.988,1.988,0,0,1,.6,1.521,2.3,2.3,0,0,1-.45,1.413,2.849,2.849,0,0,1-1.251.927A5,5,0,0,1,60,198.162Zm14.332,0a4.371,4.371,0,0,1-2.259-.567,3.776,3.776,0,0,1-1.485-1.62,6.236,6.236,0,0,1,0-5,3.787,3.787,0,0,1,1.485-1.611,4.819,4.819,0,0,1,4.536,0,3.844,3.844,0,0,1,1.494,1.611,6.139,6.139,0,0,1,0,5,3.833,3.833,0,0,1-1.494,1.62A4.407,4.407,0,0,1,74.335,198.162Zm0-1.188a2.551,2.551,0,0,0,2.052-.891,4.859,4.859,0,0,0-.009-5.22,2.557,2.557,0,0,0-2.043-.891,2.531,2.531,0,0,0-2.034.891,4.883,4.883,0,0,0,0,5.22A2.531,2.531,0,0,0,74.335,196.974ZM81.284,198v-7.9H79.52v-1.134h2.16l-.4.378V187.83a3.257,3.257,0,0,1,.774-2.34,2.918,2.918,0,0,1,2.214-.81,4.648,4.648,0,0,1,.747.063,2.779,2.779,0,0,1,.639.171v1.206a2.851,2.851,0,0,0-.531-.153,3.251,3.251,0,0,0-.639-.063,1.9,1.9,0,0,0-.954.225,1.4,1.4,0,0,0-.594.675,2.879,2.879,0,0,0-.2,1.152v1.314l-.234-.306h2.754V190.1h-2.52V198Zm9.38.162a4.505,4.505,0,0,1-3.348-1.233,4.654,4.654,0,0,1-1.224-3.429,5.356,5.356,0,0,1,.54-2.475,3.992,3.992,0,0,1,1.512-1.638,4.243,4.243,0,0,1,2.232-.585,3.906,3.906,0,0,1,2.088.522,3.374,3.374,0,0,1,1.3,1.485,5.334,5.334,0,0,1,.45,2.277v.54h-7v-.918h6.048l-.306.234a3.512,3.512,0,0,0-.648-2.25,2.319,2.319,0,0,0-1.926-.81,2.546,2.546,0,0,0-2.106.945,3.963,3.963,0,0,0-.756,2.547v.162a3.569,3.569,0,0,0,.837,2.565,3.1,3.1,0,0,0,2.349.873,4.672,4.672,0,0,0,1.521-.243,4.135,4.135,0,0,0,1.359-.8l.5,1.026a4.006,4.006,0,0,1-1.5.891A5.813,5.813,0,0,1,90.664,198.162ZM96.408,198v-6.858q0-.54-.027-1.1t-.081-1.08h1.4l.18,2.2-.252.018a3,3,0,0,1,.63-1.332,2.881,2.881,0,0,1,1.062-.783,3.225,3.225,0,0,1,1.278-.261q.27,0,.477.018a1.351,1.351,0,0,1,.387.09l-.018,1.3a2.536,2.536,0,0,0-.5-.117,4.345,4.345,0,0,0-.513-.027,2.481,2.481,0,0,0-1.377.378,2.448,2.448,0,0,0-.882.972,2.78,2.78,0,0,0-.3,1.26V198Zm10.478.162a4.505,4.505,0,0,1-3.348-1.233,4.654,4.654,0,0,1-1.224-3.429,5.356,5.356,0,0,1,.54-2.475,3.992,3.992,0,0,1,1.512-1.638,4.243,4.243,0,0,1,2.232-.585,3.906,3.906,0,0,1,2.088.522,3.374,3.374,0,0,1,1.3,1.485,5.334,5.334,0,0,1,.45,2.277v.54h-7v-.918h6.048l-.306.234a3.512,3.512,0,0,0-.648-2.25,2.319,2.319,0,0,0-1.926-.81,2.546,2.546,0,0,0-2.106.945,3.963,3.963,0,0,0-.756,2.547v.162a3.569,3.569,0,0,0,.837,2.565,3.1,3.1,0,0,0,2.349.873,4.672,4.672,0,0,0,1.521-.243,4.135,4.135,0,0,0,1.359-.8l.5,1.026a4.006,4.006,0,0,1-1.5.891A5.813,5.813,0,0,1,106.886,198.162Zm5.78-.162v-6.948q0-.5-.045-1.035t-.1-1.053h1.4l.18,1.98h-.216a3.127,3.127,0,0,1,1.269-1.593,3.723,3.723,0,0,1,2.025-.549,3.2,3.2,0,0,1,2.421.855,3.781,3.781,0,0,1,.819,2.691V198h-1.458v-5.562a2.787,2.787,0,0,0-.513-1.863,2.01,2.01,0,0,0-1.593-.585,2.63,2.63,0,0,0-2,.774,2.875,2.875,0,0,0-.738,2.07V198Zm13.754.162a2.623,2.623,0,0,1-2.034-.765,3.323,3.323,0,0,1-.7-2.313V190.1h-1.764v-1.134h1.764V186.5l1.458-.414v2.88h2.592V190.1h-2.592v4.824a2.486,2.486,0,0,0,.369,1.539,1.335,1.335,0,0,0,1.107.459,2.7,2.7,0,0,0,.612-.063,3.09,3.09,0,0,0,.486-.153v1.224a2.791,2.791,0,0,1-.6.171A3.916,3.916,0,0,1,126.419,198.162Zm7.022,0a4.505,4.505,0,0,1-3.348-1.233,4.655,4.655,0,0,1-1.224-3.429,5.356,5.356,0,0,1,.54-2.475,3.992,3.992,0,0,1,1.512-1.638,4.243,4.243,0,0,1,2.232-.585,3.907,3.907,0,0,1,2.088.522,3.374,3.374,0,0,1,1.3,1.485,5.334,5.334,0,0,1,.45,2.277v.54h-7v-.918h6.048l-.306.234a3.512,3.512,0,0,0-.648-2.25,2.319,2.319,0,0,0-1.926-.81,2.546,2.546,0,0,0-2.106.945,3.963,3.963,0,0,0-.756,2.547v.162a3.569,3.569,0,0,0,.837,2.565,3.1,3.1,0,0,0,2.349.873,4.672,4.672,0,0,0,1.521-.243,4.135,4.135,0,0,0,1.359-.8l.5,1.026a4.006,4.006,0,0,1-1.5.891A5.813,5.813,0,0,1,133.441,198.162Zm8.786,0a6.631,6.631,0,0,1-2.016-.3,4.246,4.246,0,0,1-1.548-.837l.5-1.026a4.637,4.637,0,0,0,1.449.774,5.284,5.284,0,0,0,1.629.252,2.826,2.826,0,0,0,1.629-.387,1.239,1.239,0,0,0,.549-1.071,1.07,1.07,0,0,0-.351-.837,2.58,2.58,0,0,0-1.143-.495l-1.674-.342a3.3,3.3,0,0,1-1.728-.855,2.137,2.137,0,0,1-.576-1.539,2.4,2.4,0,0,1,.414-1.4,2.784,2.784,0,0,1,1.206-.954,4.543,4.543,0,0,1,1.854-.351,5.428,5.428,0,0,1,1.827.3,3.677,3.677,0,0,1,1.4.855l-.522,1.008a3.566,3.566,0,0,0-1.233-.783,4.028,4.028,0,0,0-1.431-.261,2.524,2.524,0,0,0-1.593.423,1.348,1.348,0,0,0-.531,1.107,1.157,1.157,0,0,0,.333.855,2.113,2.113,0,0,0,1.035.5l1.674.342a3.841,3.841,0,0,1,1.827.837,1.988,1.988,0,0,1,.6,1.521,2.3,2.3,0,0,1-.45,1.413,2.849,2.849,0,0,1-1.251.927A5,5,0,0,1,142.227,198.162Zm14.422,0a4.486,4.486,0,0,1-2.313-.576,3.845,3.845,0,0,1-1.512-1.638,5.575,5.575,0,0,1-.531-2.52,5.372,5.372,0,0,1,.54-2.511,3.708,3.708,0,0,1,1.521-1.575,4.685,4.685,0,0,1,2.295-.54,4.772,4.772,0,0,1,1.683.306,3.62,3.62,0,0,1,1.359.864l-.522,1.044a3.585,3.585,0,0,0-1.179-.774,3.4,3.4,0,0,0-1.251-.252,2.744,2.744,0,0,0-2.178.882,3.792,3.792,0,0,0-.774,2.574,3.908,3.908,0,0,0,.774,2.592,2.692,2.692,0,0,0,2.178.918,3.579,3.579,0,0,0,1.233-.234,3.409,3.409,0,0,0,1.2-.774l.522,1.026a3.665,3.665,0,0,1-1.386.882A4.749,4.749,0,0,1,156.649,198.162Zm8.642,0a4.371,4.371,0,0,1-2.259-.567,3.776,3.776,0,0,1-1.485-1.62,6.236,6.236,0,0,1,0-5,3.787,3.787,0,0,1,1.485-1.611,4.819,4.819,0,0,1,4.536,0,3.844,3.844,0,0,1,1.494,1.611,6.139,6.139,0,0,1,0,5,3.833,3.833,0,0,1-1.494,1.62A4.407,4.407,0,0,1,165.29,198.162Zm0-1.188a2.551,2.551,0,0,0,2.052-.891,4.859,4.859,0,0,0-.009-5.22,2.557,2.557,0,0,0-2.043-.891,2.531,2.531,0,0,0-2.034.891,4.883,4.883,0,0,0,0,5.22A2.531,2.531,0,0,0,165.29,196.974ZM171.862,198v-6.948q0-.5-.045-1.035t-.1-1.053h1.4l.18,1.98h-.216a3.127,3.127,0,0,1,1.269-1.593,3.723,3.723,0,0,1,2.025-.549,3.2,3.2,0,0,1,2.421.855,3.781,3.781,0,0,1,.819,2.691V198h-1.458v-5.562a2.787,2.787,0,0,0-.513-1.863,2.01,2.01,0,0,0-1.593-.585,2.63,2.63,0,0,0-2,.774,2.875,2.875,0,0,0-.738,2.07V198Zm18.436.162a3.144,3.144,0,0,1-2.421-.882,3.855,3.855,0,0,1-.819-2.7v-5.616h1.458v5.58a2.757,2.757,0,0,0,.5,1.827,1.957,1.957,0,0,0,1.566.585,2.482,2.482,0,0,0,1.908-.774,2.918,2.918,0,0,0,.72-2.07v-5.148h1.458V198H193.25v-2.034h.234a3.243,3.243,0,0,1-1.215,1.62A3.391,3.391,0,0,1,190.3,198.162Zm7.2-.162v-6.948q0-.5-.045-1.035t-.1-1.053h1.4l.18,1.98h-.216a3.127,3.127,0,0,1,1.269-1.593,3.723,3.723,0,0,1,2.025-.549,3.2,3.2,0,0,1,2.421.855,3.781,3.781,0,0,1,.819,2.691V198H203.8v-5.562a2.787,2.787,0,0,0-.513-1.863,2.01,2.01,0,0,0-1.593-.585,2.63,2.63,0,0,0-2,.774,2.875,2.875,0,0,0-.738,2.07V198Zm15.25,3.888V191.052q0-.5-.045-1.035t-.1-1.053h1.4l.2,2.142h-.216a2.933,2.933,0,0,1,1.17-1.683,3.564,3.564,0,0,1,2.106-.621,3.9,3.9,0,0,1,2.115.558,3.766,3.766,0,0,1,1.395,1.6,6.561,6.561,0,0,1,.009,5.022,3.747,3.747,0,0,1-1.4,1.611,3.9,3.9,0,0,1-2.124.567,3.571,3.571,0,0,1-2.088-.612,2.894,2.894,0,0,1-1.17-1.674h.2v6.012Zm4.23-4.914a2.577,2.577,0,0,0,2.061-.891,4.835,4.835,0,0,0,0-5.22,2.808,2.808,0,0,0-4.1,0,4.835,4.835,0,0,0,0,5.22A2.557,2.557,0,0,0,216.979,196.974ZM223.515,198v-6.858q0-.54-.027-1.1t-.081-1.08h1.4l.18,2.2-.252.018a3,3,0,0,1,.63-1.332,2.881,2.881,0,0,1,1.062-.783,3.225,3.225,0,0,1,1.278-.261q.27,0,.477.018a1.351,1.351,0,0,1,.387.09l-.018,1.3a2.536,2.536,0,0,0-.495-.117,4.346,4.346,0,0,0-.513-.027,2.481,2.481,0,0,0-1.377.378,2.447,2.447,0,0,0-.882.972,2.78,2.78,0,0,0-.3,1.26V198Zm10.172.162a4.371,4.371,0,0,1-2.259-.567,3.776,3.776,0,0,1-1.485-1.62,6.236,6.236,0,0,1,0-5,3.787,3.787,0,0,1,1.485-1.611,4.819,4.819,0,0,1,4.536,0,3.844,3.844,0,0,1,1.494,1.611,6.139,6.139,0,0,1,0,5,3.833,3.833,0,0,1-1.494,1.62A4.407,4.407,0,0,1,233.687,198.162Zm0-1.188a2.551,2.551,0,0,0,2.052-.891,4.859,4.859,0,0,0-.009-5.22,2.557,2.557,0,0,0-2.043-.891,2.531,2.531,0,0,0-2.034.891,4.883,4.883,0,0,0,0,5.22A2.531,2.531,0,0,0,233.687,196.974Zm9.992,1.188a3.834,3.834,0,0,1-2.088-.567,3.747,3.747,0,0,1-1.4-1.611,6.616,6.616,0,0,1,0-5.022,3.689,3.689,0,0,1,1.4-1.6,3.881,3.881,0,0,1,2.088-.558,3.643,3.643,0,0,1,2.115.612,2.962,2.962,0,0,1,1.2,1.656h-.216v-6.318h1.458V198h-1.44v-2.16h.2a2.911,2.911,0,0,1-1.188,1.7A3.647,3.647,0,0,1,243.679,198.162Zm.306-1.188a2.584,2.584,0,0,0,2.052-.891,4.788,4.788,0,0,0,0-5.22,2.584,2.584,0,0,0-2.052-.891,2.557,2.557,0,0,0-2.043.891,4.835,4.835,0,0,0,0,5.22A2.557,2.557,0,0,0,243.985,196.974Zm10.262,1.188a3.144,3.144,0,0,1-2.421-.882,3.855,3.855,0,0,1-.819-2.7v-5.616h1.458v5.58a2.757,2.757,0,0,0,.5,1.827,1.957,1.957,0,0,0,1.566.585,2.482,2.482,0,0,0,1.908-.774,2.918,2.918,0,0,0,.72-2.07v-5.148h1.458V198H257.2v-2.034h.234a3.243,3.243,0,0,1-1.215,1.62A3.391,3.391,0,0,1,254.246,198.162Zm11,0a4.486,4.486,0,0,1-2.313-.576,3.845,3.845,0,0,1-1.512-1.638,5.575,5.575,0,0,1-.531-2.52,5.372,5.372,0,0,1,.54-2.511,3.708,3.708,0,0,1,1.521-1.575,4.685,4.685,0,0,1,2.3-.54,4.772,4.772,0,0,1,1.683.306,3.621,3.621,0,0,1,1.359.864l-.522,1.044a3.584,3.584,0,0,0-1.179-.774,3.4,3.4,0,0,0-1.251-.252,2.744,2.744,0,0,0-2.178.882,3.792,3.792,0,0,0-.774,2.574,3.908,3.908,0,0,0,.774,2.592,2.692,2.692,0,0,0,2.178.918,3.579,3.579,0,0,0,1.233-.234,3.409,3.409,0,0,0,1.2-.774l.522,1.026a3.664,3.664,0,0,1-1.386.882A4.749,4.749,0,0,1,265.246,198.162Zm8.318,0a2.623,2.623,0,0,1-2.034-.765,3.323,3.323,0,0,1-.7-2.313V190.1h-1.764v-1.134h1.764V186.5l1.458-.414v2.88h2.592V190.1h-2.592v4.824a2.486,2.486,0,0,0,.369,1.539,1.335,1.335,0,0,0,1.107.459,2.7,2.7,0,0,0,.612-.063,3.091,3.091,0,0,0,.486-.153v1.224a2.79,2.79,0,0,1-.6.171A3.916,3.916,0,0,1,273.564,198.162Zm6.716,0a4.371,4.371,0,0,1-2.259-.567,3.776,3.776,0,0,1-1.485-1.62,6.236,6.236,0,0,1,0-5,3.787,3.787,0,0,1,1.485-1.611,4.819,4.819,0,0,1,4.536,0,3.844,3.844,0,0,1,1.494,1.611,6.139,6.139,0,0,1,0,5,3.833,3.833,0,0,1-1.494,1.62A4.407,4.407,0,0,1,280.28,198.162Zm0-1.188a2.551,2.551,0,0,0,2.052-.891,4.859,4.859,0,0,0-.009-5.22,2.557,2.557,0,0,0-2.043-.891,2.531,2.531,0,0,0-2.034.891,4.883,4.883,0,0,0,0,5.22A2.531,2.531,0,0,0,280.28,196.974Zm14.692,1.188a3.834,3.834,0,0,1-2.088-.567,3.747,3.747,0,0,1-1.395-1.611,6.616,6.616,0,0,1,0-5.022,3.688,3.688,0,0,1,1.395-1.6,3.881,3.881,0,0,1,2.088-.558,3.643,3.643,0,0,1,2.115.612,2.962,2.962,0,0,1,1.2,1.656h-.216v-6.318h1.458V198h-1.44v-2.16h.2a2.911,2.911,0,0,1-1.188,1.7A3.647,3.647,0,0,1,294.971,198.162Zm.306-1.188a2.584,2.584,0,0,0,2.052-.891,4.788,4.788,0,0,0,0-5.22,2.584,2.584,0,0,0-2.052-.891,2.557,2.557,0,0,0-2.043.891,4.835,4.835,0,0,0,0,5.22A2.557,2.557,0,0,0,295.277,196.974ZM302.353,198v-9.036h1.458V198Zm-.18-11.088v-1.638h1.8v1.638ZM307.107,198v-7.9h-1.764v-1.134h2.16l-.4.378V187.83a3.258,3.258,0,0,1,.774-2.34,2.918,2.918,0,0,1,2.214-.81,4.648,4.648,0,0,1,.747.063,2.779,2.779,0,0,1,.639.171v1.206a2.852,2.852,0,0,0-.531-.153,3.251,3.251,0,0,0-.639-.063,1.9,1.9,0,0,0-.954.225,1.4,1.4,0,0,0-.594.675,2.879,2.879,0,0,0-.2,1.152v1.314l-.234-.306h2.754V190.1h-2.52V198Zm9.38.162a4.505,4.505,0,0,1-3.348-1.233,4.654,4.654,0,0,1-1.224-3.429,5.357,5.357,0,0,1,.54-2.475,3.993,3.993,0,0,1,1.512-1.638,4.243,4.243,0,0,1,2.232-.585,3.906,3.906,0,0,1,2.088.522,3.374,3.374,0,0,1,1.3,1.485,5.335,5.335,0,0,1,.45,2.277v.54h-7v-.918h6.048l-.306.234a3.512,3.512,0,0,0-.648-2.25,2.319,2.319,0,0,0-1.926-.81,2.546,2.546,0,0,0-2.106.945,3.963,3.963,0,0,0-.756,2.547v.162a3.569,3.569,0,0,0,.837,2.565,3.1,3.1,0,0,0,2.349.873,4.672,4.672,0,0,0,1.521-.243,4.135,4.135,0,0,0,1.359-.8l.5,1.026a4.005,4.005,0,0,1-1.5.891A5.813,5.813,0,0,1,316.487,198.162Zm5.744-.162v-6.858q0-.54-.027-1.1t-.081-1.08h1.4l.18,2.2-.252.018a3,3,0,0,1,.63-1.332,2.881,2.881,0,0,1,1.062-.783,3.225,3.225,0,0,1,1.278-.261q.27,0,.477.018a1.351,1.351,0,0,1,.387.09l-.018,1.3a2.536,2.536,0,0,0-.495-.117,4.346,4.346,0,0,0-.513-.027,2.481,2.481,0,0,0-1.377.378,2.448,2.448,0,0,0-.882.972,2.78,2.78,0,0,0-.3,1.26V198Zm10.478.162a4.505,4.505,0,0,1-3.348-1.233,4.654,4.654,0,0,1-1.224-3.429,5.357,5.357,0,0,1,.54-2.475,3.993,3.993,0,0,1,1.512-1.638,4.243,4.243,0,0,1,2.232-.585,3.906,3.906,0,0,1,2.088.522,3.374,3.374,0,0,1,1.3,1.485,5.335,5.335,0,0,1,.45,2.277v.54h-7v-.918H335.3l-.306.234a3.512,3.512,0,0,0-.648-2.25,2.319,2.319,0,0,0-1.926-.81,2.546,2.546,0,0,0-2.106.945,3.963,3.963,0,0,0-.756,2.547v.162a3.569,3.569,0,0,0,.837,2.565,3.1,3.1,0,0,0,2.349.873,4.672,4.672,0,0,0,1.521-.243,4.135,4.135,0,0,0,1.359-.8l.5,1.026a4.005,4.005,0,0,1-1.5.891A5.813,5.813,0,0,1,332.708,198.162Zm5.78-.162v-6.948q0-.5-.045-1.035t-.1-1.053h1.4l.18,1.98h-.216a3.127,3.127,0,0,1,1.269-1.593,3.723,3.723,0,0,1,2.025-.549,3.2,3.2,0,0,1,2.421.855,3.781,3.781,0,0,1,.819,2.691V198h-1.458v-5.562a2.787,2.787,0,0,0-.513-1.863,2.01,2.01,0,0,0-1.593-.585,2.63,2.63,0,0,0-2,.774,2.875,2.875,0,0,0-.738,2.07V198Zm14.348.162a4.486,4.486,0,0,1-2.313-.576,3.845,3.845,0,0,1-1.512-1.638,5.575,5.575,0,0,1-.531-2.52,5.372,5.372,0,0,1,.54-2.511,3.708,3.708,0,0,1,1.521-1.575,4.685,4.685,0,0,1,2.3-.54,4.772,4.772,0,0,1,1.683.306,3.621,3.621,0,0,1,1.359.864l-.522,1.044a3.584,3.584,0,0,0-1.179-.774,3.4,3.4,0,0,0-1.251-.252,2.744,2.744,0,0,0-2.178.882,3.792,3.792,0,0,0-.774,2.574,3.908,3.908,0,0,0,.774,2.592,2.692,2.692,0,0,0,2.178.918,3.579,3.579,0,0,0,1.233-.234,3.409,3.409,0,0,0,1.2-.774l.522,1.026a3.664,3.664,0,0,1-1.386.882A4.749,4.749,0,0,1,352.836,198.162ZM357.95,198v-9.036h1.458V198Zm-.18-11.088v-1.638h1.8v1.638Zm7.9,11.25a3.867,3.867,0,0,1-2.106-.567,3.747,3.747,0,0,1-1.395-1.611,6.616,6.616,0,0,1,0-5.022,3.688,3.688,0,0,1,1.395-1.6,3.915,3.915,0,0,1,2.106-.558,3.605,3.605,0,0,1,2.115.621,2.92,2.92,0,0,1,1.179,1.683h-.216l.2-2.142h1.4q-.054.522-.1,1.053t-.045,1.035V198h-1.458v-2.124h.2a2.869,2.869,0,0,1-1.188,1.674A3.624,3.624,0,0,1,365.674,198.162Zm.288-1.188a2.551,2.551,0,0,0,2.052-.891,4.883,4.883,0,0,0,0-5.22,2.8,2.8,0,0,0-4.1,0,4.835,4.835,0,0,0,0,5.22A2.557,2.557,0,0,0,365.962,196.974Zm10.5,1.188a3.834,3.834,0,0,1-2.088-.567,3.747,3.747,0,0,1-1.395-1.611,6.616,6.616,0,0,1,0-5.022,3.688,3.688,0,0,1,1.395-1.6,3.881,3.881,0,0,1,2.088-.558,3.643,3.643,0,0,1,2.115.612,2.962,2.962,0,0,1,1.2,1.656h-.216v-6.318h1.458V198h-1.44v-2.16h.2a2.911,2.911,0,0,1-1.188,1.7A3.647,3.647,0,0,1,376.457,198.162Zm.306-1.188a2.584,2.584,0,0,0,2.052-.891,4.788,4.788,0,0,0,0-5.22,2.584,2.584,0,0,0-2.052-.891,2.557,2.557,0,0,0-2.043.891,4.835,4.835,0,0,0,0,5.22A2.557,2.557,0,0,0,376.763,196.974Zm10.784,1.188a4.371,4.371,0,0,1-2.259-.567,3.776,3.776,0,0,1-1.485-1.62,6.236,6.236,0,0,1,0-5,3.787,3.787,0,0,1,1.485-1.611,4.819,4.819,0,0,1,4.536,0,3.844,3.844,0,0,1,1.494,1.611,6.139,6.139,0,0,1,0,5,3.833,3.833,0,0,1-1.494,1.62A4.407,4.407,0,0,1,387.547,198.162Zm0-1.188a2.551,2.551,0,0,0,2.052-.891,4.859,4.859,0,0,0-.009-5.22,2.557,2.557,0,0,0-2.043-.891,2.531,2.531,0,0,0-2.034.891,4.883,4.883,0,0,0,0,5.22A2.531,2.531,0,0,0,387.547,196.974ZM393.435,198v-1.836h1.836V198Z" transform="translate(876 7542)" fill="#212429"/>
      <path id="Trazado_994736" data-name="Trazado 994736" d="M519,7572.008H1549" transform="translate(-234)" fill="none" stroke="#aeaeae" stroke-width="1"/>
      <path id="Trazado_994737" data-name="Trazado 994737" d="M519,7572.008H1549" transform="translate(-234 64)" fill="none" stroke="#aeaeae" stroke-width="1"/>
      <path id="Trazado_994738" data-name="Trazado 994738" d="M519,7572.008H1549" transform="translate(-234 128)" fill="none" stroke="#aeaeae" stroke-width="1"/>
    </g>
  </g>
</svg>
